<svg width="31" height="31" viewBox="0 0 31 31" fill="none" xmlns="http://www.w3.org/2000/svg">
<path d="M19.0667 6.66671C20.369 6.92079 21.5659 7.55772 22.5041 8.49595C23.4423 9.43419 24.0793 10.6311 24.3333 11.9334L19.0667 6.66671ZM19.0667 1.33337C21.7724 1.63396 24.2955 2.84561 26.2217 4.76938C28.1479 6.69316 29.3627 9.21472 29.6667 11.92L19.0667 1.33337ZM28.3333 22.56V26.56C28.3349 26.9314 28.2588 27.2989 28.11 27.6392C27.9613 27.9794 27.7431 28.2848 27.4694 28.5359C27.1958 28.7869 26.8728 28.978 26.521 29.097C26.1692 29.2159 25.7965 29.2601 25.4267 29.2267C21.3238 28.7809 17.3827 27.3789 13.92 25.1334C10.6984 23.0863 7.96713 20.3549 5.92001 17.1334C3.66665 13.655 2.26434 9.6947 1.82668 5.57337C1.79336 5.20466 1.83718 4.83305 1.95535 4.48221C2.07351 4.13136 2.26344 3.80896 2.51303 3.53554C2.76263 3.26211 3.06642 3.04365 3.40507 2.89407C3.74372 2.74449 4.1098 2.66706 4.48001 2.66671H8.48001C9.12709 2.66034 9.7544 2.88948 10.245 3.31142C10.7357 3.73336 11.0561 4.3193 11.1467 4.96004C11.3155 6.24013 11.6286 7.49701 12.08 8.70671C12.2594 9.18394 12.2982 9.70259 12.1919 10.2012C12.0855 10.6998 11.8385 11.1575 11.48 11.52L9.78668 13.2134C11.6848 16.5514 14.4486 19.3153 17.7867 21.2134L19.48 19.52C19.8425 19.1616 20.3002 18.9145 20.7988 18.8082C21.2975 18.7018 21.8161 18.7406 22.2933 18.92C23.503 19.3714 24.7599 19.6845 26.04 19.8534C26.6877 19.9447 27.2792 20.271 27.7021 20.77C28.1249 21.2691 28.3496 21.9061 28.3333 22.56Z" stroke="#D67940" stroke-width="2" stroke-linecap="round" stroke-linejoin="round"/>
</svg>
