<svg width="28" height="50" viewBox="0 0 28 50" fill="none" xmlns="http://www.w3.org/2000/svg">
<path fill-rule="evenodd" clip-rule="evenodd" d="M11.0661 0.0530681C8.84352 0.51587 7.28251 1.79559 6.47896 3.81362C6.22968 4.4395 6.2072 4.61464 6.20203 5.97103L6.19636 7.44736L5.35189 8.40204C4.34515 9.54025 3.88833 10.1949 3.34287 11.2814C2.67161 12.6183 2.4593 13.3829 1.23317 18.8782C0.190572 23.551 0.0523086 24.2825 0.00814544 25.3609C-0.0376384 26.4817 0.0697305 27.4683 1.38591 38.0168C2.33806 45.6476 2.86163 49.5308 2.95827 49.6783C3.1573 49.982 3.58242 50.074 3.88154 49.8781C4.29623 49.6064 4.32479 49.4397 4.16921 48.198C1.50341 26.9131 1.47961 26.7085 1.52377 25.4622C1.56257 24.3698 1.68169 23.7337 2.69977 19.1821C3.32282 16.3966 3.92813 13.8212 4.04502 13.4591C4.47399 12.1297 5.39008 10.5947 6.48078 9.37768L6.91604 8.89209L7.42108 9.52526C8.75651 11.1997 11.0647 12.0354 13.1425 11.5966C17.7149 10.631 19.4194 5.03267 16.1408 1.74859C14.9834 0.589306 13.528 -0.0218878 11.9777 0.000598951C11.5877 0.00616999 11.1775 0.029771 11.0661 0.0530681ZM13.8789 1.94115C16.4787 3.22603 17.1647 6.5721 15.27 8.72475C13.2162 11.058 9.37368 10.5368 8.06863 7.74799C6.91654 5.2859 8.14106 2.51051 10.7622 1.64315C11.0152 1.55938 11.5329 1.51927 12.141 1.53618C13.0331 1.5611 13.1786 1.59503 13.8789 1.94115ZM19.1396 10.4699C18.1544 10.7476 17.4746 11.1486 16.7362 11.8869C15.9105 12.7125 15.5269 13.4264 15.288 14.5817C15.1497 15.2507 15.1435 15.4969 15.2467 16.2123C15.8527 20.4128 20.7961 22.1484 23.9748 19.2767C24.3764 18.9139 24.3984 18.9067 24.5417 19.0913C24.8683 19.5117 25.5133 20.9486 25.7193 21.7144C25.9139 22.4378 25.9421 22.8565 25.9816 25.6184C26.0316 29.1249 25.9961 29.3962 25.4108 29.9816C24.8305 30.5618 24.0001 30.7023 23.3073 30.3376C22.9391 30.1437 18.798 26.1861 18.7022 25.9367C18.5644 25.5774 18.5905 25.453 18.8745 25.1155C19.074 24.8784 19.2203 24.8038 19.4859 24.8038C19.7979 24.8038 20.0174 24.9762 21.5497 26.4245C23.332 28.1089 23.4978 28.2099 23.9554 27.8894C24.2053 27.7144 24.4872 26.8841 24.4872 26.3232C24.4872 25.192 23.753 24.1348 22.5831 23.5808C22.2098 23.404 20.195 22.4859 18.1058 21.5407C16.0167 20.5954 14.2938 19.8088 14.2773 19.7927C14.2607 19.7766 13.9513 18.4702 13.5896 16.8898C13.2281 15.3093 12.8844 13.8948 12.8261 13.7464C12.6749 13.3619 12.1844 13.1741 11.8385 13.3683C11.3283 13.6546 11.3386 13.79 12.1416 17.3136C12.6917 19.7281 12.9428 20.6525 13.0919 20.812C13.2033 20.9312 14.4902 21.5668 15.9517 22.2245L18.6089 23.4203L18.332 23.5928C17.8522 23.8917 17.477 24.3693 17.2856 24.9249C17.1744 25.2477 17.0483 25.4498 16.97 25.4313C16.7475 25.3786 11.8975 23.4769 11.6209 23.3338C11.2776 23.1564 10.5333 22.3442 10.3914 21.9921C10.3297 21.8394 9.92278 20.233 9.48702 18.4224C8.64579 14.9268 8.58471 14.7759 8.0115 14.7759C7.73508 14.7759 7.26762 15.1883 7.26762 15.4322C7.26762 15.5197 7.61465 17.0601 8.03875 18.8554C8.55787 21.0529 8.90936 22.3251 9.11427 22.7486C9.45157 23.4459 10.3178 24.347 10.9693 24.6784C11.1896 24.7904 12.8553 25.4611 14.6707 26.1686L17.9714 27.4551L20.0392 29.4158C21.1764 30.4943 22.3274 31.4981 22.5968 31.6466C22.9375 31.8342 23.3079 31.9362 23.8123 31.9813L24.5379 32.0461L24.508 32.6539C24.4916 32.9882 24.2548 36.8774 23.9818 41.2964C23.6121 47.2789 23.5132 49.3923 23.5943 49.5702C23.82 50.0656 24.6288 50.1126 24.8791 49.645C24.9344 49.5418 25.1883 46.0868 25.4435 41.9673C25.6987 37.8477 25.953 33.7946 26.0087 32.9606L26.1099 31.444L26.5034 31.0361C26.7199 30.8116 27.0043 30.4229 27.1355 30.1723C27.3738 29.7168 27.374 29.7131 27.374 25.8674C27.374 22.5033 27.3515 21.9368 27.1955 21.3721C26.8528 20.1316 26.222 18.8274 25.4975 17.861C25.1994 17.4635 25.1946 17.4397 25.3327 17.0483C25.7217 15.9456 25.6138 14.4857 25.0561 13.3072C24.4715 12.072 23.4191 11.1161 22.1069 10.6284C21.3132 10.3336 19.8924 10.2576 19.1396 10.4699ZM21.8713 12.1646C23.584 12.9494 24.4379 14.8067 23.8931 16.5618C23.4838 17.8804 22.5444 18.7664 21.2056 19.0968C19.5591 19.5032 17.8369 18.6829 17.0713 17.1277C16.7695 16.5147 16.7384 16.366 16.7384 15.5377C16.7384 14.7599 16.7785 14.5385 17.0078 14.0491C17.4756 13.0513 18.1856 12.4145 19.3158 11.9794C19.8995 11.7547 21.1791 11.8474 21.8713 12.1646ZM11.4667 26.7744C11.2902 26.9508 11.2179 27.1347 11.2176 27.4075C11.2173 27.6189 11.1265 29.4784 11.0158 31.5397C10.6292 38.7375 10.1038 48.9127 10.1038 49.2034C10.1038 49.5665 10.37 49.8946 10.7343 49.9808C10.9534 50.0326 11.0694 49.9866 11.2972 49.7572L11.5841 49.4683L11.7086 47.0373C11.777 45.7003 12.0365 40.7196 12.2852 35.9691C12.5339 31.2186 12.7374 27.2624 12.7374 27.1775C12.7374 26.9313 12.2645 26.5258 11.9777 26.5258C11.8333 26.5258 11.6034 26.6377 11.4667 26.7744ZM6.45729 29.6373C6.02669 29.7928 5.95083 29.9784 5.95083 30.8756C5.95083 31.3566 6.11026 35.4632 6.30515 40.0015C6.50003 44.5397 6.65956 48.5184 6.65967 48.843C6.65987 49.3647 6.69542 49.4688 6.96628 49.7397C7.21191 49.9853 7.32748 50.0331 7.5487 49.9808C7.70054 49.9449 7.91032 49.8148 8.01495 49.6919C8.18998 49.4861 8.19981 49.3434 8.13832 47.8983C8.10165 47.0348 7.91619 42.6629 7.72627 38.1831C7.40993 30.7212 7.36557 30.0233 7.19773 29.8625C6.98147 29.6554 6.6698 29.5607 6.45729 29.6373ZM14.8501 30.4905C14.5899 30.7507 14.5577 29.9182 15.2726 41.3941C15.5535 45.9015 15.8208 49.5145 15.882 49.6289C16.0131 49.8738 16.4407 50.0532 16.6985 49.9713C16.8011 49.9388 16.9738 49.7993 17.0822 49.6615C17.2494 49.449 17.2716 49.2998 17.2283 48.6799C17.2003 48.2778 16.9372 44.0629 16.6438 39.3132C16.1665 31.5872 16.091 30.6562 15.9276 30.4755C15.6794 30.2013 15.1317 30.2089 14.8501 30.4905ZM19.8454 35.8764L19.6252 36.1109V42.7924C19.6252 50.0547 19.6071 49.8213 20.182 49.9657C20.4576 50.0348 20.8138 49.8908 21.0147 49.6291C21.1088 49.5066 21.1389 47.8869 21.1413 42.8221C21.1446 36.2491 21.1423 36.1729 20.9346 35.9089C20.6602 35.5601 20.1568 35.5451 19.8454 35.8764Z" fill="white"/>
</svg>
