<svg width="39" height="50" viewBox="0 0 39 50" fill="none" xmlns="http://www.w3.org/2000/svg">
<path fill-rule="evenodd" clip-rule="evenodd" d="M8.16779 0.143472C5.94548 0.681427 4.28742 2.80743 4.29407 5.11041C4.30062 7.37125 5.99045 9.48259 8.21267 10.0064C9.93614 10.4126 11.671 9.91397 12.9535 8.64359C14.9517 6.66424 14.9492 3.5031 12.9478 1.50175C11.679 0.232838 9.894 -0.274318 8.16779 0.143472ZM27.3316 0.143472C25.145 0.672725 23.4522 2.81164 23.4578 5.03786C23.4661 8.30998 26.5376 10.753 29.7049 10.0064C31.9664 9.4733 33.6302 7.36245 33.6235 5.03493C33.6169 2.77409 31.9271 0.662752 29.7049 0.138975C28.9372 -0.0420056 28.0913 -0.0403434 27.3316 0.143472ZM2.98418 8.70127C2.37769 8.84363 1.4899 9.36624 1.05744 9.83536C0.837939 10.0735 0.518999 10.5624 0.348872 10.9215L0.0394155 11.5747L0.0125274 20.8062C-0.0175871 31.1806 -0.0548392 30.6101 0.701055 31.3512C1.52891 32.1628 2.71775 32.2828 3.63106 31.6468L3.89847 31.4606L3.92438 40.2587C3.9501 48.9719 3.95235 49.0595 4.152 49.3268C4.26288 49.4753 4.47505 49.6875 4.62357 49.7984C4.88707 49.9951 5.00127 50 9.37687 50C13.7525 50 13.8667 49.9951 14.1302 49.7984C14.2787 49.6875 14.4909 49.4753 14.6017 49.3268C14.8014 49.0595 14.8036 48.9719 14.8294 40.2643C14.8525 32.4002 14.8713 31.4718 15.0068 31.4718C15.2719 31.4718 16.1689 30.4788 16.2977 30.0427C16.3869 29.7408 16.4166 27.5974 16.4166 21.463V13.2857H17.981H19.5454V21.2674C19.5454 27.2484 19.5752 29.35 19.6643 29.6516C19.823 30.1887 20.6329 30.9986 21.17 31.1573C21.3914 31.2227 22.0836 31.2762 22.7084 31.2762H23.8444L23.8704 40.1665C23.8961 48.9729 23.8982 49.0594 24.098 49.3268C24.2089 49.4753 24.421 49.6875 24.5695 49.7984C24.8322 49.9945 24.9512 50 28.9317 50C32.9123 50 33.0313 49.9945 33.2939 49.7984C33.4425 49.6875 33.6546 49.4753 33.7655 49.3268C33.9653 49.0594 33.9674 48.9729 33.9931 40.1665L34.019 31.2762H35.1551C35.7799 31.2762 36.4721 31.2227 36.6935 31.1573C37.261 30.9896 38.0481 30.1861 38.2055 29.614C38.2983 29.2759 38.3198 27.1364 38.2978 20.3744L38.2692 11.5747L37.9597 10.9215C37.7896 10.5624 37.4644 10.0667 37.2371 9.82011C36.6773 9.21293 35.6368 8.7046 34.7982 8.62882C34.1772 8.5727 34.159 8.57778 33.998 8.85087C33.9074 9.00457 33.6114 9.36125 33.3402 9.64362L32.8471 10.1569H33.7868C34.3038 10.1569 34.9077 10.2104 35.1291 10.2758C35.6662 10.4345 36.4761 11.2445 36.6348 11.7816C36.7242 12.0841 36.7537 14.3012 36.7537 20.7079V29.2318L36.5137 29.4718C36.1962 29.7894 35.7468 29.7894 35.4293 29.4718L35.1893 29.2318V23.8454V18.4589L34.9493 18.2189C34.6305 17.9001 34.1824 17.9014 33.8618 18.222L33.6188 18.465L33.6463 24.0884L33.6738 29.7119H28.9317H24.1897L24.2171 23.8928L24.2445 18.0737L24.0016 17.8308C23.6811 17.5103 23.233 17.509 22.9142 17.8278L22.6742 18.0678V23.6498V29.2318L22.4342 29.4718C22.1167 29.7894 21.6673 29.7894 21.3498 29.4718L21.1098 29.2318V20.7079C21.1098 14.3012 21.1393 12.0841 21.2287 11.7816C21.3874 11.2445 22.1973 10.4345 22.7344 10.2758C22.9558 10.2104 23.3837 10.1569 23.6856 10.1569H24.2342L23.7411 9.64362C23.4699 9.36125 23.1754 9.00936 23.0867 8.86143L22.9254 8.59255H18.9588H14.9921L14.8308 8.86143C14.7421 9.00936 14.4476 9.36125 14.1764 9.64362L13.6833 10.1569H16.989H20.2947L19.969 10.8042C19.7897 11.1603 19.6432 11.5123 19.6432 11.5864C19.6432 11.697 19.2549 11.7213 17.4877 11.7213H15.3322L15.0923 11.9614L14.8522 12.2013V20.9121V29.6229L14.6122 29.8629L14.3723 30.1029H9.52793H4.6837V24.0854V18.0678L4.44366 17.8278C4.29241 17.6765 4.09197 17.5878 3.9015 17.5878C3.71104 17.5878 3.5106 17.6765 3.35934 17.8278L3.11931 18.0678V24.0409V30.014L2.87927 30.254C2.72802 30.4053 2.52758 30.494 2.33711 30.494C2.14665 30.494 1.94621 30.4053 1.79495 30.254L1.55492 30.014V21.099C1.55492 14.3853 1.58425 12.0847 1.67381 11.7816C1.8325 11.2445 2.64246 10.4345 3.17954 10.2758C3.4009 10.2104 3.91685 10.1569 4.32624 10.1569H5.0704L4.57732 9.64362C4.30609 9.36125 4.0116 9.00936 3.92292 8.86143C3.75132 8.57544 3.61747 8.55266 2.98418 8.70127ZM32.4516 39.8804V48.4845H31.0828H29.7139V43.4447V38.4048L29.4739 38.1649C29.1564 37.8473 28.7071 37.8473 28.3896 38.1649L28.1496 38.4048V43.4447V48.4845H26.7807H25.4119V39.8804V31.2762H28.9317H32.4516V39.8804ZM13.2878 40.0759V48.4845H11.7235H10.1591V43.4447V38.4048L9.91903 38.1649C9.60155 37.8473 9.15218 37.8473 8.83471 38.1649L8.59467 38.4048V43.4447V48.4845H7.03028H5.46589V40.0759V31.6673H9.37687H13.2878V40.0759Z" fill="white"/>
</svg>
