<svg width="32" height="50" viewBox="0 0 32 50" fill="none" xmlns="http://www.w3.org/2000/svg">
<path fill-rule="evenodd" clip-rule="evenodd" d="M14.4604 0.141585C12.3963 0.590165 10.5451 2.46003 10.1039 4.54215C10.0218 4.92935 9.95389 5.74888 9.95284 6.36314L9.95107 7.48006L5.47799 7.50934C1.14651 7.53768 0.995837 7.54539 0.717311 7.75348C0.559136 7.87164 0.333022 8.09775 0.214859 8.25603L0 8.54383V24.9921V41.4403L0.214859 41.7281C0.333022 41.8864 0.559136 42.1125 0.717311 42.2307C0.997817 42.4401 1.13765 42.4463 6.31159 42.4744L11.6183 42.5031V44.7454C11.6183 46.9872 11.6184 46.9877 11.8741 47.2434C12.1204 47.4898 12.1816 47.4992 13.5413 47.4992H14.9527V48.7496V50H15.7863H16.6199V48.7496V47.4992H18.0312C19.3909 47.4992 19.4521 47.4898 19.6984 47.2434C19.9541 46.9877 19.9542 46.9872 19.9542 44.7454V42.5031L25.2609 42.4744C30.4349 42.4463 30.5747 42.4401 30.8552 42.2307C31.0134 42.1125 31.2395 41.8864 31.3577 41.7281L31.5725 41.4403V24.9921V8.54383L31.3577 8.25603C31.2395 8.09775 31.0134 7.87164 30.8552 7.75348C30.5767 7.54539 30.426 7.53768 26.0945 7.50934L21.6214 7.48006L21.6197 6.36314C21.6163 4.29624 21.1064 2.91924 19.8963 1.70927C18.4737 0.286527 16.4626 -0.293449 14.4604 0.141585ZM17.4982 2.04938C18.4359 2.48816 19.0469 3.08804 19.5096 4.02427C19.883 4.77983 19.8966 4.84777 19.9372 6.14568L19.9788 7.48652H15.7863H11.5937L11.6355 6.15797C11.6741 4.93269 11.7027 4.77535 12.0036 4.13337C12.4169 3.25184 13.0129 2.60372 13.7925 2.18817C14.6133 1.75074 15.0624 1.65175 16.0206 1.69739C16.646 1.72719 16.9791 1.80649 17.4982 2.04938ZM15.1037 3.46514C14.0525 3.92299 13.8042 5.32052 14.6278 6.14422C15.3037 6.82006 16.2688 6.82006 16.9447 6.14422C18.238 4.85089 16.783 2.73366 15.1037 3.46514ZM29.9574 14.0622C29.9574 18.4954 29.9415 18.9646 29.7926 18.9075C29.7019 18.8727 29.5144 18.8443 29.3758 18.8443H29.1238V14.6716V10.4988L28.868 10.2431L28.6123 9.98731H15.7863H2.96021L2.7045 10.2431L2.44869 10.4988V14.1627V17.8266L2.21424 17.7637C2.08535 17.7292 1.89779 17.7003 1.79745 17.6995C1.62677 17.6982 1.6151 17.4247 1.6151 13.4259V9.15371H15.7863H29.9574V14.0622ZM27.4566 15.1452C27.4566 17.0651 27.4307 18.6359 27.3989 18.6359C27.3671 18.6359 26.6051 18.4739 25.7057 18.2757C23.5614 17.8035 21.9738 17.6538 19.9458 17.7324C19.0528 17.767 18.2557 17.8205 18.1744 17.8514C18.0718 17.8901 17.7778 17.4956 17.2141 16.5629C16.2911 15.0355 16.0365 14.8282 15.4401 15.1187C15.1803 15.2453 14.8844 15.6616 14.067 17.0509L13.025 18.8218L11.7225 18.8935C9.70443 19.0047 8.21229 18.8412 5.26209 18.1861L4.16799 17.9431L4.14038 14.7988L4.11287 11.6545H15.7847H27.4566V15.1452ZM16.955 19.4434C19.087 23.1876 20.6079 26.6199 20.7506 28.0088C20.9421 29.8704 19.7765 31.9003 18.0168 32.77C16.0921 33.7212 13.8986 33.3921 12.3561 31.9209C11.4088 31.0173 10.7847 29.6299 10.7847 28.4277C10.7847 27.4016 11.4365 25.5748 12.7357 22.9602C13.5417 21.338 15.6877 17.4897 15.7863 17.4897C15.8172 17.4897 16.3431 18.3689 16.955 19.4434ZM2.21424 19.4309L2.44869 19.4938V29.4895V39.4853L2.7045 39.741L2.96021 39.9968H15.7863H28.6123L28.868 39.741L29.1238 39.4853V29.9921V20.4989L29.5146 20.5313L29.9053 20.5636L29.9319 30.697L29.9585 40.8304H15.7868H1.6151V30.0979C1.6151 19.9453 1.62499 19.3654 1.79745 19.3667C1.89779 19.3675 2.08535 19.3964 2.21424 19.4309ZM23.9138 19.6101C24.3437 19.6873 25.3166 19.8865 26.0758 20.0528L27.4562 20.3552L27.4564 29.3424L27.4566 38.3296H15.7863H4.11589V29.0038C4.11589 23.3302 4.15382 19.6779 4.21269 19.6779C4.26594 19.6779 5.06202 19.8425 5.98179 20.0436C7.80529 20.4425 9.94607 20.6668 11.2223 20.593C11.6693 20.5671 12.0351 20.5575 12.0351 20.5717C12.0351 20.5859 11.659 21.3635 11.1993 22.2999C9.78592 25.1788 9.11758 27.1494 9.11998 28.4307C9.12446 30.7986 10.627 33.196 12.768 34.2515C14.766 35.2365 16.8065 35.2365 18.8045 34.2515C20.9455 33.196 22.4481 30.7986 22.4525 28.4307C22.455 27.0607 21.7129 24.971 20.0583 21.689L18.9447 19.4802L19.2151 19.4309C19.7191 19.339 23.1279 19.469 23.9138 19.6101ZM12.4872 28.791C12.565 29.3587 12.8726 30.0329 13.2784 30.5252C13.6586 30.9866 14.6752 31.5369 15.3069 31.6234L15.7863 31.6892V30.863V30.0369L15.3319 29.9154C14.7851 29.7691 14.2642 29.2238 14.1647 28.6933L14.0958 28.3265H13.2597H12.4235L12.4872 28.791ZM18.2871 44.1648V45.832H15.7863H13.2855V44.1648V42.4976H15.7863H18.2871V44.1648Z" fill="#D67940"/>
</svg>
