<svg width="133" height="40" viewBox="0 0 133 40" fill="none" xmlns="http://www.w3.org/2000/svg">
<path d="M49.4373 24.3073C48.119 24.3073 46.8121 24.3073 45.5053 24.3073V25.7174H47.9241V28.9042C47.9241 30.1193 47.2821 31.0708 45.9065 31.0708C44.5423 31.0708 43.8775 30.3715 43.8775 28.9959H42.3872C42.3872 31.2657 43.8545 32.4923 45.9065 32.4923C48.119 32.4923 49.4373 30.9791 49.4373 28.9042V24.3073Z" fill="white"/>
<path d="M53.5317 26.5657C51.7319 26.5657 50.6085 27.8954 50.6085 29.5118C50.6085 31.1396 51.709 32.4579 53.5432 32.4579C55.3773 32.4579 56.4893 31.1396 56.4893 29.5118C56.4893 27.8954 55.3315 26.5657 53.5317 26.5657ZM53.5432 27.8381C54.4832 27.8381 55.0793 28.6635 55.0793 29.5118C55.0793 30.3715 54.5634 31.174 53.5432 31.174C52.5229 31.174 52.0071 30.3715 52.0071 29.5118C52.0071 28.6635 52.5344 27.8381 53.5432 27.8381Z" fill="white"/>
<path d="M61.7107 26.6803L60.6789 29.1564L60.0943 30.7154L59.5555 29.122L58.6958 26.6803H57.0679L59.3262 32.2401L58.2716 34.6933H59.8077L63.2582 26.6803H61.7107Z" fill="white"/>
<path d="M66.0731 32.3318V27.9871H67.7353V26.7605H66.0731V26.3822C66.0731 25.6944 66.4399 25.3734 66.9214 25.3734C67.2079 25.3734 67.4831 25.4766 67.7811 25.6715L68.297 24.6283C67.8384 24.3303 67.3226 24.1698 66.8297 24.1698C65.6948 24.1698 64.6745 24.8691 64.6745 26.3822V26.7605H63.6199V27.9871H64.6745V32.3318H66.0731Z" fill="white"/>
<path d="M68.8568 26.6803V29.6493C68.8568 31.4033 69.8427 32.4235 71.1954 32.4235C71.9864 32.4235 72.5251 32.1484 73.1098 31.5752L73.2015 32.3433H74.451V26.6803H73.0639V29.5691C73.0639 30.4289 72.4793 31.1511 71.6195 31.1511C70.7254 31.1511 70.2554 30.4976 70.2554 29.6379V26.6803H68.8568Z" fill="white"/>
<path d="M75.9141 24.3188V32.3318H77.3012V24.3188H75.9141Z" fill="white"/>
<path d="M87.4428 30.2798C86.9155 30.8072 86.1245 31.0937 85.4253 31.0937C83.4421 31.0937 82.674 29.7067 82.6626 28.3769C82.6511 27.0357 83.4879 25.5913 85.4253 25.5913C86.1245 25.5913 86.8353 25.832 87.3626 26.3478L88.3714 25.3734C87.546 24.5595 86.5143 24.1469 85.4253 24.1469C82.525 24.1469 81.1608 26.2791 81.1723 28.3769C81.1838 30.4632 82.4448 32.5152 85.4253 32.5152C86.5831 32.5152 87.6492 32.1369 88.4746 31.323L87.4428 30.2798Z" fill="white"/>
<path d="M93.6437 27.4598C93.3227 26.8981 92.6005 26.5427 91.8439 26.5427C90.1932 26.5313 88.8978 27.5515 88.8978 29.5003C88.8978 31.4835 90.1359 32.5152 91.8095 32.5038C92.44 32.4923 93.3227 32.1713 93.6437 31.5064L93.7125 32.3318H95.0308V26.6803H93.6896L93.6437 27.4598ZM91.97 27.7922C94.171 27.7922 94.171 31.2198 91.97 31.2198C91.0415 31.2198 90.2964 30.5779 90.2964 29.5003C90.2964 28.4227 91.0415 27.7922 91.97 27.7922Z" fill="white"/>
<path d="M96.4446 26.6803V32.3318H97.8431V29.3513C97.8431 28.3081 98.5195 27.9183 99.2531 27.9183C99.7117 27.9183 99.9753 28.0444 100.262 28.2852L100.892 27.07C100.583 26.7605 100.021 26.5313 99.4365 26.5313C98.8634 26.5313 98.2787 26.6344 97.8431 27.3337L97.7399 26.6803H96.4446Z" fill="white"/>
<path d="M107.25 30.0047C107.468 27.6776 106.287 26.5083 104.396 26.5083C102.561 26.5083 101.392 27.7464 101.392 29.4659C101.392 31.2772 102.55 32.4808 104.499 32.4808C105.359 32.4808 106.333 32.1828 106.929 31.5637L106.035 30.6811C105.714 31.0135 105.038 31.2084 104.522 31.2084C103.536 31.2084 102.928 30.704 102.837 30.0047H107.25ZM102.859 28.8469C103.066 28.1132 103.685 27.7464 104.441 27.7464C105.244 27.7464 105.817 28.1132 105.909 28.8469H102.859Z" fill="white"/>
<path d="M111.207 24.3073V32.3318H116.847V30.9332H112.72V24.3073H111.207Z" fill="white"/>
<path d="M118.142 24.3073V32.3318H123.782V30.9332H119.655V24.3073H118.142Z" fill="white"/>
<path d="M131.118 30.2798C130.591 30.8072 129.8 31.0937 129.1 31.0937C127.117 31.0937 126.349 29.7067 126.338 28.3769C126.326 27.0357 127.163 25.5913 129.1 25.5913C129.8 25.5913 130.51 25.832 131.038 26.3478L132.046 25.3734C131.221 24.5595 130.189 24.1469 129.1 24.1469C126.2 24.1469 124.836 26.2791 124.847 28.3769C124.859 30.4632 126.12 32.5152 129.1 32.5152C130.258 32.5152 131.324 32.1369 132.15 31.323L131.118 30.2798Z" fill="white"/>
<path d="M44.4064 36.6224H44.8663V39.3737H44.4064V38.1828H42.9679V39.3737H42.512V36.6224H42.9679V37.7662H44.4064V36.6224Z" fill="white"/>
<path d="M47.3744 39.4326C47.0993 39.4326 46.8543 39.3737 46.6395 39.2558C46.4272 39.1352 46.2622 38.9675 46.1443 38.7527C46.0263 38.5352 45.9674 38.2863 45.9674 38.0059C45.9674 37.7203 46.0263 37.4688 46.1443 37.2513C46.2648 37.0338 46.4338 36.8648 46.6513 36.7443C46.8687 36.6237 47.119 36.5635 47.402 36.5635C47.6771 36.5635 47.9208 36.6237 48.133 36.7443C48.3452 36.8622 48.5103 37.0299 48.6282 37.2474C48.7461 37.4622 48.8051 37.7098 48.8051 37.9902C48.8051 38.2758 48.7448 38.5273 48.6243 38.7448C48.5064 38.9623 48.3387 39.1313 48.1212 39.2518C47.9064 39.3724 47.6574 39.4326 47.3744 39.4326ZM47.3823 39.0121C47.5683 39.0121 47.7334 38.9702 47.8775 38.8863C48.0216 38.7998 48.133 38.6806 48.2116 38.5286C48.2928 38.3767 48.3335 38.2024 48.3335 38.0059C48.3335 37.8042 48.2942 37.626 48.2155 37.4714C48.1369 37.3168 48.0256 37.1976 47.8815 37.1137C47.74 37.0273 47.5762 36.984 47.3902 36.984C47.2041 36.984 47.0391 37.0273 46.8949 37.1137C46.7508 37.1976 46.6382 37.3155 46.5569 37.4675C46.4783 37.6194 46.439 37.7937 46.439 37.9902C46.439 38.1919 46.4783 38.3701 46.5569 38.5247C46.6355 38.6793 46.7456 38.7998 46.8871 38.8863C47.0312 38.9702 47.1963 39.0121 47.3823 39.0121Z" fill="white"/>
<path d="M52.8196 36.6224V39.3737H52.3637V37.6836C52.3637 37.5736 52.3676 37.4819 52.3754 37.4085L52.3676 37.4046C52.344 37.4465 52.2968 37.5199 52.2261 37.6247L52.1671 37.7111L51.44 38.788H51.2828L50.5636 37.7151C50.5138 37.6443 50.447 37.5461 50.3631 37.4203L50.3513 37.4242C50.3592 37.4976 50.3631 37.5893 50.3631 37.6993V39.3737H49.9072V36.6224H50.3552L51.3653 38.1356L52.3754 36.6224H52.8196Z" fill="white"/>
<path d="M54.5558 38.9531H56.0258V39.3737H54.0999V36.6224H56.0022V37.0351H54.5558V37.774H55.9354V38.1828H54.5558V38.9531Z" fill="white"/>
<path d="M60.0843 36.6224V39.3737H59.6283V37.6836C59.6283 37.5736 59.6323 37.4819 59.6401 37.4085L59.6323 37.4046C59.6087 37.4465 59.5615 37.5199 59.4908 37.6247L59.4318 37.7111L58.7047 38.788H58.5475L57.8282 37.7151C57.7785 37.6443 57.7116 37.5461 57.6278 37.4203L57.616 37.4242C57.6239 37.4976 57.6278 37.5893 57.6278 37.6993V39.3737H57.1719V36.6224H57.6199L58.63 38.1356L59.6401 36.6224H60.0843Z" fill="white"/>
<path d="M63.4909 39.3737L63.2315 38.7998H61.7891L61.5297 39.3737H61.0345L62.2607 36.6224H62.7677L63.994 39.3737H63.4909ZM61.962 38.3911H63.0586L62.6931 37.5107C62.6826 37.4897 62.6695 37.4583 62.6538 37.4164C62.5699 37.2198 62.5241 37.1059 62.5162 37.0744H62.5083L62.473 37.157L62.3236 37.5146L61.962 38.3911Z" fill="white"/>
<path d="M67.2109 39.3737H66.5939L65.6506 38.395C65.5196 38.2561 65.437 38.1644 65.403 38.1199L65.3951 38.1238C65.4004 38.1736 65.403 38.2666 65.403 38.4029V39.3737H64.9471V36.6224H65.403V37.5343C65.403 37.6705 65.4004 37.7635 65.3951 37.8133L65.403 37.8173C65.5183 37.6862 65.6074 37.5854 65.6702 37.5146L66.4995 36.6224H67.0891L65.8393 37.9548L67.2109 39.3737Z" fill="white"/>
<path d="M68.0804 36.6224H68.5364V39.3737H68.0804V36.6224Z" fill="white"/>
<path d="M70.2607 36.6224L71.5027 38.3243L71.7189 38.6308L71.7268 38.6269C71.7189 38.5483 71.715 38.4474 71.715 38.3243V36.6224H72.1709V39.3737H71.7307L70.4887 37.6718C70.3786 37.5199 70.3066 37.4177 70.2725 37.3653L70.2607 37.3692C70.2712 37.4688 70.2765 37.5696 70.2765 37.6718V39.3737H69.8205V36.6224H70.2607Z" fill="white"/>
<path d="M75.8072 37.8094V38.9767C75.6552 39.1287 75.4875 39.2427 75.3041 39.3186C75.1207 39.392 74.915 39.4287 74.687 39.4287C74.4066 39.4287 74.159 39.3697 73.9442 39.2518C73.7319 39.1339 73.5669 38.9675 73.449 38.7527C73.331 38.5378 73.2721 38.2889 73.2721 38.0059C73.2721 37.7282 73.3337 37.4806 73.4568 37.2631C73.58 37.043 73.7516 36.8713 73.9717 36.7482C74.1944 36.625 74.4459 36.5635 74.7263 36.5635C74.9202 36.5635 75.1023 36.5962 75.2726 36.6617C75.443 36.7246 75.5936 36.8124 75.7246 36.9251L75.4692 37.2631C75.2491 37.0797 75.0028 36.9879 74.7302 36.9879C74.5337 36.9879 74.3595 37.0299 74.2075 37.1137C74.0582 37.1976 73.9416 37.3155 73.8577 37.4675C73.7765 37.6168 73.7359 37.791 73.7359 37.9902C73.7359 38.1972 73.7752 38.378 73.8538 38.5326C73.9324 38.6845 74.0451 38.8025 74.1918 38.8863C74.3385 38.9675 74.5088 39.0081 74.7027 39.0081C74.8364 39.0081 74.9582 38.9911 75.0683 38.9571C75.1783 38.9204 75.2844 38.864 75.3866 38.788V38.2103H74.6202V37.8094H75.8072Z" fill="white"/>
<path d="M80.4413 39.4051L80.1033 39.0789C79.988 39.1837 79.8544 39.2676 79.7024 39.3304C79.5504 39.3907 79.3867 39.4208 79.2111 39.4208C79.0251 39.4208 78.8639 39.3894 78.7277 39.3265C78.5941 39.2636 78.4919 39.1798 78.4211 39.075C78.3504 38.9702 78.315 38.8549 78.315 38.7291C78.315 38.5719 78.3622 38.4238 78.4565 38.285C78.5534 38.1435 78.6976 38.0177 78.8888 37.9076C78.6897 37.6876 78.5901 37.474 78.5901 37.267C78.5901 37.1412 78.6229 37.0259 78.6884 36.9211C78.7565 36.8137 78.8521 36.7285 78.9753 36.6657C79.1011 36.6028 79.2452 36.5713 79.4076 36.5713C79.5491 36.5713 79.6749 36.6002 79.7849 36.6578C79.895 36.7128 79.9802 36.7901 80.0404 36.8897C80.1007 36.9893 80.1308 37.1006 80.1308 37.2238C80.1308 37.512 79.9382 37.7648 79.5531 37.9823L80.0758 38.4933C80.1256 38.4016 80.1649 38.3099 80.1937 38.2181C80.2225 38.1238 80.2396 38.04 80.2448 37.9666L80.6378 38.0177C80.63 38.1356 80.6025 38.2627 80.5553 38.3989C80.5107 38.5352 80.4505 38.6623 80.3745 38.7802L80.7282 39.1261L80.4413 39.4051ZM79.388 36.9526C79.2727 36.9526 79.181 36.984 79.1129 37.0469C79.0474 37.1072 79.0146 37.1792 79.0146 37.2631C79.0146 37.3443 79.0342 37.4164 79.0736 37.4792C79.1155 37.5421 79.1875 37.6234 79.2897 37.7229C79.426 37.6469 79.5295 37.5723 79.6002 37.4989C79.671 37.4229 79.7063 37.3378 79.7063 37.2434C79.7063 37.1596 79.6775 37.0901 79.6199 37.0351C79.5622 36.9801 79.4849 36.9526 79.388 36.9526ZM79.2308 39.0278C79.4378 39.0278 79.6343 38.9544 79.8203 38.8077L79.1522 38.1671C79.0238 38.2378 78.9268 38.319 78.8613 38.4107C78.7958 38.5024 78.7631 38.5955 78.7631 38.6898C78.7631 38.7815 78.805 38.8614 78.8888 38.9295C78.9753 38.995 79.0893 39.0278 79.2308 39.0278Z" fill="white"/>
<path d="M84.431 39.4287C84.148 39.4287 83.8964 39.3684 83.6763 39.2479C83.4562 39.1274 83.2846 38.9597 83.1615 38.7448C83.0409 38.5273 82.9807 38.281 82.9807 38.0059C82.9807 37.7282 83.0422 37.4806 83.1654 37.2631C83.2885 37.043 83.4602 36.8727 83.6803 36.7521C83.903 36.629 84.1545 36.5674 84.4349 36.5674C84.6262 36.5674 84.8056 36.6015 84.9733 36.6696C85.1437 36.7351 85.2969 36.8307 85.4332 36.9565L85.1659 37.2984C85.0533 37.1963 84.9367 37.1216 84.8161 37.0744C84.6956 37.0246 84.5659 36.9997 84.427 36.9997C84.2357 36.9997 84.0667 37.0417 83.92 37.1255C83.7733 37.2067 83.658 37.3233 83.5741 37.4753C83.4929 37.6247 83.4523 37.7963 83.4523 37.9902C83.4523 38.1867 83.4942 38.361 83.5781 38.5129C83.6619 38.6649 83.7785 38.7841 83.9279 38.8706C84.0772 38.9544 84.2475 38.9964 84.4388 38.9964C84.5829 38.9964 84.7166 38.9741 84.8397 38.9295C84.9629 38.8824 85.0795 38.809 85.1895 38.7094L85.4568 39.0514C85.1921 39.3029 84.8502 39.4287 84.431 39.4287Z" fill="white"/>
<path d="M87.6478 39.4326C87.3726 39.4326 87.1276 39.3737 86.9128 39.2558C86.7005 39.1352 86.5355 38.9675 86.4176 38.7527C86.2997 38.5352 86.2407 38.2863 86.2407 38.0059C86.2407 37.7203 86.2997 37.4688 86.4176 37.2513C86.5381 37.0338 86.7071 36.8648 86.9246 36.7443C87.1421 36.6237 87.3923 36.5635 87.6753 36.5635C87.9504 36.5635 88.1941 36.6237 88.4063 36.7443C88.6186 36.8622 88.7836 37.0299 88.9015 37.2474C89.0195 37.4622 89.0784 37.7098 89.0784 37.9902C89.0784 38.2758 89.0181 38.5273 88.8976 38.7448C88.7797 38.9623 88.612 39.1313 88.3945 39.2518C88.1797 39.3724 87.9307 39.4326 87.6478 39.4326ZM87.6556 39.0121C87.8417 39.0121 88.0067 38.9702 88.1508 38.8863C88.295 38.7998 88.4063 38.6806 88.4849 38.5286C88.5662 38.3767 88.6068 38.2024 88.6068 38.0059C88.6068 37.8042 88.5675 37.626 88.4889 37.4714C88.4102 37.3168 88.2989 37.1976 88.1548 37.1137C88.0133 37.0273 87.8495 36.984 87.6635 36.984C87.4775 36.984 87.3124 37.0273 87.1683 37.1137C87.0241 37.1976 86.9115 37.3155 86.8302 37.4675C86.7516 37.6194 86.7123 37.7937 86.7123 37.9902C86.7123 38.1919 86.7516 38.3701 86.8302 38.5247C86.9089 38.6793 87.0189 38.7998 87.1604 38.8863C87.3045 38.9702 87.4696 39.0121 87.6556 39.0121Z" fill="white"/>
<path d="M93.0929 36.6224V39.3737H92.637V37.6836C92.637 37.5736 92.6409 37.4819 92.6488 37.4085L92.6409 37.4046C92.6173 37.4465 92.5702 37.5199 92.4994 37.6247L92.4405 37.7111L91.7133 38.788H91.5561L90.8369 37.7151C90.7871 37.6443 90.7203 37.5461 90.6364 37.4203L90.6246 37.4242C90.6325 37.4976 90.6364 37.5893 90.6364 37.6993V39.3737H90.1805V36.6224H90.6286L91.6387 38.1356L92.6488 36.6224H93.0929Z" fill="white"/>
<path d="M95.5405 36.6224C95.7554 36.6224 95.9362 36.667 96.0829 36.7561C96.2323 36.8425 96.3436 36.9578 96.417 37.1019C96.4904 37.246 96.5271 37.4033 96.5271 37.5736C96.5271 37.7465 96.4904 37.9063 96.417 38.0531C96.3436 38.1998 96.2323 38.3177 96.0829 38.4068C95.9362 38.4959 95.7554 38.5404 95.5405 38.5404H94.8291V39.3737H94.3732V36.6224H95.5405ZM95.513 38.1238C95.6991 38.1238 95.8366 38.0727 95.9257 37.9705C96.0174 37.8657 96.0633 37.7386 96.0633 37.5893C96.0633 37.4347 96.0174 37.305 95.9257 37.2002C95.8366 37.0928 95.6991 37.039 95.513 37.039H94.8291V38.1238H95.513Z" fill="white"/>
<path d="M99.4871 39.3737L99.2277 38.7998H97.7852L97.5258 39.3737H97.0306L98.2569 36.6224H98.7639L99.9902 39.3737H99.4871ZM97.9582 38.3911H99.0547L98.6892 37.5107C98.6787 37.4897 98.6656 37.4583 98.6499 37.4164C98.5661 37.2198 98.5202 37.1059 98.5123 37.0744H98.5045L98.4691 37.157L98.3198 37.5146L97.9582 38.3911Z" fill="white"/>
<path d="M101.383 36.6224L102.625 38.3243L102.842 38.6308L102.849 38.6269C102.842 38.5483 102.838 38.4474 102.838 38.3243V36.6224H103.294V39.3737H102.853L101.611 37.6718C101.501 37.5199 101.429 37.4177 101.395 37.3653L101.383 37.3692C101.394 37.4688 101.399 37.5696 101.399 37.6718V39.3737H100.943V36.6224H101.383Z" fill="white"/>
<path d="M104.576 36.6224H105.031V39.3737H104.576V36.6224Z" fill="white"/>
<path d="M107.542 39.4326C107.267 39.4326 107.022 39.3737 106.807 39.2558C106.595 39.1352 106.43 38.9675 106.312 38.7527C106.194 38.5352 106.135 38.2863 106.135 38.0059C106.135 37.7203 106.194 37.4688 106.312 37.2513C106.432 37.0338 106.601 36.8648 106.819 36.7443C107.036 36.6237 107.286 36.5635 107.569 36.5635C107.845 36.5635 108.088 36.6237 108.3 36.7443C108.513 36.8622 108.678 37.0299 108.796 37.2474C108.914 37.4622 108.973 37.7098 108.973 37.9902C108.973 38.2758 108.912 38.5273 108.792 38.7448C108.674 38.9623 108.506 39.1313 108.289 39.2518C108.074 39.3724 107.825 39.4326 107.542 39.4326ZM107.55 39.0121C107.736 39.0121 107.901 38.9702 108.045 38.8863C108.189 38.7998 108.3 38.6806 108.379 38.5286C108.46 38.3767 108.501 38.2024 108.501 38.0059C108.501 37.8042 108.462 37.626 108.383 37.4714C108.304 37.3168 108.193 37.1976 108.049 37.1137C107.907 37.0273 107.744 36.984 107.558 36.984C107.372 36.984 107.207 37.0273 107.062 37.1137C106.918 37.1976 106.806 37.3155 106.724 37.4675C106.646 37.6194 106.606 37.7937 106.606 37.9902C106.606 38.1919 106.646 38.3701 106.724 38.5247C106.803 38.6793 106.913 38.7998 107.055 38.8863C107.199 38.9702 107.364 39.0121 107.55 39.0121Z" fill="white"/>
<path d="M110.515 36.6224L111.757 38.3243L111.973 38.6308L111.981 38.6269C111.973 38.5483 111.969 38.4474 111.969 38.3243V36.6224H112.425V39.3737H111.985L110.743 37.6718C110.633 37.5199 110.561 37.4177 110.527 37.3653L110.515 37.3692C110.525 37.4688 110.531 37.5696 110.531 37.6718V39.3737H110.075V36.6224H110.515Z" fill="white"/>
<path d="M114.611 39.4287C114.401 39.4287 114.204 39.3973 114.017 39.3344C113.834 39.2689 113.676 39.1798 113.542 39.0671L113.762 38.7173C113.883 38.8064 114.015 38.8771 114.159 38.9295C114.306 38.9819 114.456 39.0081 114.611 39.0081C114.789 39.0081 114.935 38.9688 115.047 38.8902C115.163 38.8116 115.22 38.7055 115.22 38.5719C115.22 38.454 115.172 38.3596 115.075 38.2889C114.978 38.2181 114.815 38.1671 114.587 38.1356C114.26 38.0911 114.016 38.0072 113.856 37.8841C113.699 37.7583 113.621 37.5893 113.621 37.3771C113.621 37.2172 113.664 37.077 113.75 36.9565C113.839 36.8334 113.96 36.7377 114.112 36.6696C114.266 36.6015 114.439 36.5674 114.631 36.5674C114.811 36.5674 114.978 36.591 115.13 36.6381C115.282 36.6827 115.428 36.7574 115.57 36.8622L115.338 37.1963C115.241 37.1229 115.131 37.0679 115.008 37.0312C114.887 36.9945 114.766 36.9762 114.642 36.9762C114.48 36.9762 114.345 37.0115 114.238 37.0823C114.133 37.1504 114.08 37.2408 114.08 37.3535C114.08 37.4583 114.128 37.5395 114.222 37.5972C114.319 37.6522 114.48 37.6993 114.705 37.7386C115.049 37.7937 115.296 37.8893 115.448 38.0256C115.603 38.1592 115.68 38.3387 115.68 38.564C115.68 38.7396 115.635 38.8929 115.546 39.0239C115.457 39.1549 115.332 39.2558 115.169 39.3265C115.007 39.3946 114.821 39.4287 114.611 39.4287Z" fill="white"/>
<path d="M118.647 36.6224H119.106V39.3737H118.647V38.1828H117.208V39.3737H116.752V36.6224H117.208V37.7662H118.647V36.6224Z" fill="white"/>
<path d="M120.388 36.6224H120.844V39.3737H120.388V36.6224Z" fill="white"/>
<path d="M123.296 36.6224C123.511 36.6224 123.691 36.667 123.838 36.7561C123.987 36.8425 124.099 36.9578 124.172 37.1019C124.246 37.246 124.282 37.4033 124.282 37.5736C124.282 37.7465 124.246 37.9063 124.172 38.0531C124.099 38.1998 123.987 38.3177 123.838 38.4068C123.691 38.4959 123.511 38.5404 123.296 38.5404H122.584V39.3737H122.128V36.6224H123.296ZM123.268 38.1238C123.454 38.1238 123.592 38.0727 123.681 37.9705C123.773 37.8657 123.818 37.7386 123.818 37.5893C123.818 37.4347 123.773 37.305 123.681 37.2002C123.592 37.0928 123.454 37.039 123.268 37.039H122.584V38.1238H123.268Z" fill="white"/>
<path fill-rule="evenodd" clip-rule="evenodd" d="M36.6564 0.0297172C35.8612 0.0756783 35.1464 0.185134 33.9183 0.449104C32.7719 0.695476 32.1689 0.88422 31.2924 1.27099C30.8587 1.46238 30.1995 1.71223 29.8274 1.82626C29.0051 2.07831 27.1528 2.8621 26.1875 3.36644C25.5233 3.71344 19.9748 7.29757 19.6697 7.57656C19.4258 7.79973 19.3558 8.05512 19.4718 8.29859C19.6518 8.67627 19.9254 8.75575 21.0336 8.75221C21.8746 8.7495 22.0809 8.72681 22.6237 8.57765C22.9667 8.48334 24.6047 7.83505 26.2636 7.13706C30.3545 5.41574 30.7582 5.2591 31.7601 5.00415C32.4268 4.83449 32.8179 4.77435 33.4352 4.74637C34.9799 4.6765 35.8103 4.91326 38.0737 6.06887C38.9418 6.5121 40.0248 7.04256 40.4803 7.24761C41.5847 7.7448 42.1914 8.09954 42.6546 8.51899C43.2322 9.04203 43.3374 9.32618 43.1214 9.77947C42.974 10.0888 42.6538 10.2462 41.086 10.7802C39.3825 11.3604 39.0551 11.5123 38.4421 12.0068C37.0914 13.0963 36.6658 14.3074 37.2709 15.3404C37.4843 15.7049 37.6057 15.7609 38.263 15.7984C39.1597 15.8494 39.6398 15.6827 41.1165 14.8077C42.133 14.2054 42.9004 13.8357 44.4839 13.1854C46.7122 12.2701 46.5376 12.3134 50.1532 11.7804L52.1503 11.4859L53.1489 11.094C53.6981 10.8784 54.3743 10.6121 54.6515 10.5022L55.1555 10.3024L55.5492 9.36769C55.7658 8.85361 56.4553 7.41773 57.0815 6.17684C57.7077 4.93595 58.2408 3.8548 58.2662 3.77423C58.3074 3.64343 58.2723 3.61004 57.9379 3.46204C56.6101 2.87454 51.1584 1.78281 48.8003 1.63223C47.6911 1.56145 47.4269 1.51904 44.5805 0.955321C40.3255 0.11255 38.6362 -0.0847666 36.6564 0.0297172ZM33.1409 5.04986C32.6126 5.10568 32.0807 5.3449 31.5132 5.78182C31.0847 6.11173 29.8459 7.38369 28.6847 8.68588C26.9245 10.66 26.3062 11.6429 26.5707 12.0468C26.95 12.626 27.8541 12.4515 29.0355 11.5712C29.7939 11.006 30.0049 10.8031 30.9562 9.72223C32.9573 7.44899 33.7151 6.86213 34.4085 7.04894C34.5435 7.0853 34.6678 7.1377 34.6849 7.16536C34.702 7.19308 34.4785 7.41695 34.1883 7.66287C32.6107 8.99987 30.9971 10.6551 30.8568 11.0802C30.6896 11.5872 30.958 11.7884 31.6558 11.6788C32.5058 11.5455 33.1076 11.2073 34.8745 9.87043C35.6242 9.30316 36.4116 8.74828 36.6241 8.6374C36.9821 8.45079 37.0559 8.43635 37.6227 8.44254C38.742 8.45472 40.893 8.9124 42.0002 9.37394C42.5274 9.59375 42.6211 9.61535 42.7008 9.53568C42.8713 9.36505 42.8093 9.11577 42.5237 8.82467C42.1676 8.46162 41.4758 8.05693 40.1569 7.44016C39.5603 7.16117 38.4779 6.63155 37.7516 6.26322C35.7031 5.22461 34.4953 4.90675 33.1409 5.04986ZM28.9255 6.39478C25.2924 8.11436 24.921 8.29924 24.2548 8.71914C23.9004 8.94244 23.3691 9.31354 23.0741 9.54386C22.206 10.2214 21.974 10.669 22.3143 11.0096C22.7652 11.4607 24.3935 11.4834 25.2392 11.0505C25.673 10.8285 27.311 9.56907 27.8272 9.06066C28.6933 8.20777 30.4889 6.32555 30.8428 5.89953C31.1621 5.51521 31.2419 5.36965 31.132 5.37217C31.1054 5.37275 30.1125 5.83294 28.9255 6.39478Z" fill="white"/>
<path d="M17.4226 25.0344C18.2595 24.5479 18.7473 24.3294 19.2287 24.2253C19.5492 24.156 20.4545 24.2072 20.6381 24.305C20.805 24.3939 20.8969 24.5054 21.0788 24.8399C21.1883 25.0413 21.2196 25.2101 21.2223 25.613C21.2252 26.064 21.1997 26.1832 21.0178 26.5672C20.6791 27.2823 19.6723 28.2341 18.8744 28.5934C18.6795 28.6811 17.9355 28.9506 17.221 29.1924C15.9312 29.6287 15.3537 29.8729 15.2231 30.0371C15.1856 30.0841 15.1199 30.2314 15.0772 30.3642C14.9668 30.7067 15.0693 30.9618 15.4769 31.3595C15.9277 31.7992 16.4259 32.109 17.4269 32.5719C17.8852 32.7839 19.0723 33.3657 20.065 33.8648C21.7778 34.7261 22.4777 35.0091 23.3063 35.1758C23.7964 35.2743 25.1436 35.2603 25.7756 35.1501C26.9714 34.9415 27.4759 34.7546 32.2041 32.768C33.7781 32.1067 35.271 31.5105 35.5217 31.4433C36.6806 31.1323 37.9523 31.1027 38.4375 31.3755C38.7288 31.5392 38.881 31.802 38.8217 32.0384C38.8014 32.119 38.675 32.2886 38.5406 32.4153C38.1981 32.7382 32.8298 36.2292 32.0478 36.6375C31.1373 37.1129 29.2712 37.8983 28.4726 38.1423C28.1006 38.2559 27.4403 38.5055 27.0054 38.6971C26.0007 39.1393 25.2061 39.3746 23.7798 39.6518C22.2591 39.9474 21.2522 40.039 20.1098 39.9857C18.3511 39.9036 17.3045 39.7474 13.5921 39.0134C11.052 38.5111 9.92992 38.3368 9.23859 38.3368C8.07637 38.3368 2.66773 37.3119 1.03068 36.7815C0.238861 36.5249 0 36.4009 0 36.2462C0 36.1682 0.233514 35.6572 0.518885 35.1106C1.3042 33.6067 2.38919 31.3722 2.73762 30.5414C2.90852 30.1339 3.07994 29.7665 3.11852 29.7248C3.15711 29.6832 3.82641 29.3979 4.60586 29.0909L6.02305 28.5328L8.53534 28.1555C11.302 27.7401 11.5625 27.6841 12.5937 27.2838C14.87 26.4002 15.8938 25.9232 17.4226 25.0344Z" fill="white"/>
<path d="M27.5112 30.026C28.542 28.8226 29.8295 27.845 30.6457 27.6461C31.1077 27.5334 31.5634 27.6854 31.7067 27.9999C31.9452 28.5235 30.9611 29.8597 28.0702 32.937C26.7022 34.3931 25.9231 34.8949 24.9209 34.9654C23.6475 35.055 22.4717 34.7232 20.423 33.696C19.6598 33.3135 18.408 32.6949 17.6412 32.3215C16.4864 31.7591 16.1795 31.58 15.8536 31.2783C15.4401 30.8954 15.3657 30.6955 15.5452 30.4498C15.6268 30.3383 15.6403 30.3387 15.8834 30.4625C16.8537 30.9563 19.5555 31.5723 20.7507 31.5721C21.3411 31.5721 21.7325 31.3626 23.1651 30.2804C24.6859 29.1314 25.182 28.8054 25.8024 28.5472C26.4325 28.2848 27.122 28.2102 27.3137 28.3838C27.4676 28.523 27.4764 28.7236 27.3427 29.0435C27.2189 29.34 25.6055 30.9796 24.3907 32.0436L23.4974 32.826L23.6821 32.9048C24.0762 33.0732 24.4417 32.9816 25.0299 32.567C25.4785 32.251 26.5125 31.1921 27.5112 30.026Z" fill="white"/>
<path d="M31.7984 29.7916C32.8441 29.0062 33.2677 28.7739 33.8221 28.6821C34.9128 28.5012 35.9949 28.7545 36.1112 29.2181C36.1667 29.4394 36.0041 29.6984 35.5323 30.1397C34.7017 30.9168 33.6385 31.5461 31.146 32.7361C28.1286 34.1766 27.0934 34.6557 27.0621 34.6266C26.9668 34.5378 27.8258 33.5784 29.8193 31.5471C30.5444 30.8083 31.095 30.3199 31.7984 29.7916Z" fill="white"/>
<path fill-rule="evenodd" clip-rule="evenodd" d="M22.8116 14.1098C21.52 14.3817 20.2746 15.313 19.7448 16.4034C19.5738 16.755 19.4542 17.265 19.4252 17.7654C19.3092 19.7716 20.4455 22.0063 22.8633 24.5258L24.1314 25.8474L24.1515 25.1174C24.1625 24.7158 24.1645 24.3446 24.1559 24.2924C24.1249 24.1041 24.5118 23.4855 24.7766 23.2997C24.9255 23.1952 25.2418 23.1098 25.4793 23.1098C26.4159 23.1098 26.8159 23.7397 26.8159 25.2141C26.8159 26.0491 26.8565 26.2722 27.0381 26.4369C27.1604 26.5476 27.2971 26.6382 27.3419 26.6382C27.3867 26.6382 27.4234 25.5103 27.4234 24.1318V21.6254L27.8366 21.2118C28.2819 20.7658 28.7352 20.6812 29.2994 20.9385C29.9406 21.2311 30.0257 21.5377 30.0942 23.7999L30.1573 25.8893L30.5346 25.5512C30.8726 25.2483 30.9183 25.1238 30.9733 24.3563C31.0454 23.3461 31.3423 22.8339 31.9774 22.624C32.8266 22.3433 33.6203 23.0453 33.6203 24.0771C33.6203 24.3482 33.6477 24.5698 33.6814 24.5698C33.8898 24.5698 35.5552 22.4474 36.116 21.4673C36.3074 21.1327 36.5713 20.7845 36.5713 20.7845C36.5713 20.7845 36.7106 20.3372 36.8234 19.9969C37.3277 18.4769 37.3061 17.3175 36.753 16.2083C35.7928 14.2834 32.6976 13.4166 30.5321 14.4663C29.938 14.7543 29.1627 15.5004 28.6504 16.2771L28.3019 16.8055L27.8486 16.1216C27.2898 15.2787 26.5392 14.6492 25.7222 14.3383C24.9905 14.0599 23.5762 13.9489 22.8116 14.1098ZM29.2528 18.5891C29.8289 19.0561 29.4502 20.0681 28.6993 20.0681C28.547 20.0681 28.2979 19.9671 28.1457 19.8437C27.5696 19.3766 27.9483 18.3647 28.6993 18.3647C28.8515 18.3647 29.1006 18.4657 29.2528 18.5891ZM32.7468 20.3162C33.2956 20.8281 32.9225 21.7714 32.1711 21.7714C31.7776 21.7714 31.3117 21.2978 31.3117 20.8979C31.3117 20.574 31.85 20.0681 32.1945 20.0681C32.352 20.0681 32.6006 20.1798 32.7468 20.3162ZM25.667 20.9751C26.0314 21.3399 26.0442 21.6382 25.7135 22.0592C25.2291 22.6758 24.2642 22.3581 24.2642 21.582C24.2642 20.752 25.0883 20.3955 25.667 20.9751Z" fill="white"/>
</svg>
