<svg width="2943" height="821" viewBox="0 0 2943 821" fill="none" xmlns="http://www.w3.org/2000/svg">
<path d="M998.697 362.3C967.723 362.3 937.018 362.3 906.314 362.3V395.429H963.144V470.305C963.144 498.855 948.061 521.21 915.74 521.21C883.689 521.21 868.067 504.781 868.067 472.46H833.053C833.053 525.789 867.529 554.608 915.74 554.608C967.723 554.608 998.697 519.056 998.697 470.305V362.3Z" fill="#2F8F3E"/>
<path d="M1094.9 415.36C1052.61 415.36 1026.22 446.603 1026.22 484.58C1026.22 522.826 1052.07 553.8 1095.17 553.8C1138.26 553.8 1164.39 522.826 1164.39 484.58C1164.39 446.603 1137.18 415.36 1094.9 415.36ZM1095.17 445.257C1117.25 445.257 1131.26 464.649 1131.26 484.58C1131.26 504.781 1119.14 523.634 1095.17 523.634C1071.2 523.634 1059.08 504.781 1059.08 484.58C1059.08 464.649 1071.46 445.257 1095.17 445.257Z" fill="#2F8F3E"/>
<path d="M1287.06 418.053L1262.82 476.231L1249.09 512.861L1236.43 475.423L1216.23 418.053H1177.98L1231.04 548.683L1206.26 606.322H1242.35L1323.43 418.053H1287.06Z" fill="#2F8F3E"/>
<path d="M1389.56 550.838V448.758H1428.62V419.939H1389.56V411.051C1389.56 394.89 1398.18 387.349 1409.49 387.349C1416.23 387.349 1422.69 389.773 1429.69 394.352L1441.81 369.842C1431.04 362.839 1418.92 359.068 1407.34 359.068C1380.67 359.068 1356.7 375.498 1356.7 411.051V419.939H1331.92V448.758H1356.7V550.838H1389.56Z" fill="#2F8F3E"/>
<path d="M1454.97 418.053V487.812C1454.97 529.021 1478.13 552.992 1509.91 552.992C1528.5 552.992 1541.15 546.528 1554.89 533.061L1557.05 551.107H1586.4V418.053H1553.81V485.927C1553.81 506.127 1540.08 523.096 1519.88 523.096C1498.87 523.096 1487.83 507.743 1487.83 487.543V418.053H1454.97Z" fill="#2F8F3E"/>
<path d="M1620.78 362.57V550.838H1653.37V362.57H1620.78Z" fill="#2F8F3E"/>
<path d="M1891.65 502.626C1879.26 515.016 1860.68 521.749 1844.25 521.749C1797.65 521.749 1779.61 489.159 1779.34 457.916C1779.07 426.403 1798.73 392.466 1844.25 392.466C1860.68 392.466 1877.38 398.122 1889.77 410.243L1913.47 387.349C1894.08 368.226 1869.83 358.529 1844.25 358.529C1776.1 358.529 1744.05 408.627 1744.32 457.916C1744.59 506.935 1774.22 555.147 1844.25 555.147C1871.45 555.147 1896.5 546.259 1915.89 527.136L1891.65 502.626Z" fill="#2F8F3E"/>
<path d="M2037.34 436.368C2029.8 423.171 2012.83 414.821 1995.06 414.821C1956.27 414.552 1925.84 438.523 1925.84 484.311C1925.84 530.907 1954.93 555.147 1994.25 554.878C2009.06 554.608 2029.8 547.067 2037.34 531.445L2038.96 550.838H2069.93V418.053H2038.42L2037.34 436.368ZM1998.02 444.179C2049.73 444.179 2049.73 524.712 1998.02 524.712C1976.2 524.712 1958.7 509.629 1958.7 484.311C1958.7 458.993 1976.2 444.179 1998.02 444.179Z" fill="#2F8F3E"/>
<path d="M2103.15 418.053V550.838H2136.01V480.809C2136.01 456.3 2151.9 447.142 2169.14 447.142C2179.91 447.142 2186.11 450.105 2192.84 455.761L2207.65 427.211C2200.38 419.939 2187.18 414.552 2173.45 414.552C2159.98 414.552 2146.24 416.976 2136.01 433.406L2133.59 418.053H2103.15Z" fill="#2F8F3E"/>
<path d="M2357.03 496.162C2362.15 441.486 2334.4 414.013 2289.96 414.013C2246.87 414.013 2219.4 443.102 2219.4 483.503C2219.4 526.058 2246.6 554.339 2292.39 554.339C2312.59 554.339 2335.48 547.336 2349.49 532.792L2328.48 512.053C2320.94 519.864 2305.05 524.442 2292.92 524.442C2269.76 524.442 2255.49 512.592 2253.33 496.162H2357.03ZM2253.87 468.959C2258.72 451.721 2273.26 443.102 2291.04 443.102C2309.89 443.102 2323.36 451.721 2325.51 468.959H2253.87Z" fill="#2F8F3E"/>
<path d="M2449.99 362.3V550.838H2582.51V517.978H2485.54V362.3H2449.99Z" fill="#2F8F3E"/>
<path d="M2612.93 362.3V550.838H2745.45V517.978H2648.48V362.3H2612.93Z" fill="#2F8F3E"/>
<path d="M2917.81 502.626C2905.42 515.016 2886.84 521.749 2870.41 521.749C2823.81 521.749 2805.77 489.159 2805.5 457.916C2805.23 426.403 2824.89 392.466 2870.41 392.466C2886.84 392.466 2903.54 398.122 2915.93 410.243L2939.63 387.349C2920.24 368.226 2896 358.529 2870.41 358.529C2802.27 358.529 2770.22 408.627 2770.48 457.916C2770.75 506.935 2800.38 555.147 2870.41 555.147C2897.61 555.147 2922.66 546.259 2942.05 527.136L2917.81 502.626Z" fill="#2F8F3E"/>
<path d="M877.563 647.943H888.368V712.584H877.563V684.604H843.765V712.584H833.053V647.943H843.765V674.815H877.563V647.943Z" fill="#8A2863"/>
<path d="M947.298 713.969C940.834 713.969 935.078 712.584 930.03 709.814C925.043 706.982 921.165 703.042 918.394 697.994C915.624 692.884 914.239 687.035 914.239 680.448C914.239 673.738 915.624 667.828 918.394 662.718C921.226 657.608 925.197 653.637 930.307 650.805C935.417 647.974 941.296 646.558 947.945 646.558C954.409 646.558 960.134 647.974 965.121 650.805C970.107 653.576 973.986 657.516 976.756 662.626C979.527 667.674 980.912 673.492 980.912 680.079C980.912 686.789 979.496 692.699 976.664 697.809C973.894 702.919 969.954 706.89 964.844 709.722C959.796 712.553 953.947 713.969 947.298 713.969ZM947.483 704.088C951.854 704.088 955.732 703.103 959.118 701.133C962.504 699.102 965.121 696.301 966.968 692.73C968.876 689.159 969.83 685.065 969.83 680.448C969.83 675.708 968.907 671.522 967.06 667.889C965.213 664.257 962.597 661.456 959.211 659.486C955.886 657.454 952.039 656.439 947.668 656.439C943.297 656.439 939.418 657.454 936.032 659.486C932.646 661.456 929.999 664.226 928.091 667.797C926.244 671.368 925.32 675.462 925.32 680.079C925.32 684.819 926.244 689.006 928.091 692.638C929.937 696.27 932.523 699.102 935.848 701.133C939.234 703.103 943.112 704.088 947.483 704.088Z" fill="#8A2863"/>
<path d="M1075.23 647.943V712.584H1064.52V672.876C1064.52 670.29 1064.61 668.136 1064.8 666.412L1064.61 666.319C1064.06 667.304 1062.95 669.028 1061.29 671.491L1059.9 673.522L1042.82 698.825H1039.13L1022.23 673.615C1021.06 671.952 1019.49 669.644 1017.52 666.689L1017.24 666.781C1017.43 668.505 1017.52 670.66 1017.52 673.245V712.584H1006.81V647.943H1017.33L1041.07 683.496L1064.8 647.943H1075.23Z" fill="#8A2863"/>
<path d="M1116.03 702.703H1150.56V712.584H1105.32V647.943H1150.01V657.639H1116.03V675H1148.44V684.604H1116.03V702.703Z" fill="#8A2863"/>
<path d="M1245.92 647.943V712.584H1235.21V672.876C1235.21 670.29 1235.3 668.136 1235.49 666.412L1235.3 666.319C1234.75 667.304 1233.64 669.028 1231.98 671.491L1230.59 673.522L1213.51 698.825H1209.81L1192.91 673.615C1191.74 671.952 1190.17 669.644 1188.2 666.689L1187.93 666.781C1188.11 668.505 1188.2 670.66 1188.2 673.245V712.584H1177.49V647.943H1188.02L1211.75 683.496L1235.49 647.943H1245.92Z" fill="#8A2863"/>
<path d="M1325.96 712.584L1319.87 699.102H1285.98L1279.88 712.584H1268.25L1297.06 647.943H1308.97L1337.78 712.584H1325.96ZM1290.04 689.498H1315.8L1307.21 668.813C1306.97 668.32 1306.66 667.581 1306.29 666.596C1304.32 661.979 1303.24 659.301 1303.06 658.562H1302.87L1302.04 660.502L1298.53 668.905L1290.04 689.498Z" fill="#8A2863"/>
<path d="M1413.36 712.584H1398.87L1376.7 689.59C1373.62 686.327 1371.69 684.173 1370.89 683.126L1370.7 683.219C1370.82 684.388 1370.89 686.574 1370.89 689.775V712.584H1360.17V647.943H1370.89V669.367C1370.89 672.568 1370.82 674.754 1370.7 675.923L1370.89 676.016C1373.59 672.937 1375.69 670.567 1377.16 668.905L1396.65 647.943H1410.5L1381.14 679.248L1413.36 712.584Z" fill="#8A2863"/>
<path d="M1433.79 647.943H1444.5V712.584H1433.79V647.943Z" fill="#8A2863"/>
<path d="M1485.02 647.943L1514.2 687.928L1519.28 695.131L1519.46 695.039C1519.28 693.192 1519.19 690.822 1519.19 687.928V647.943H1529.9V712.584H1519.56L1490.38 672.599C1487.79 669.028 1486.1 666.627 1485.3 665.396L1485.02 665.488C1485.27 667.828 1485.39 670.198 1485.39 672.599V712.584H1474.68V647.943H1485.02Z" fill="#8A2863"/>
<path d="M1615.34 675.831V703.257C1611.76 706.828 1607.82 709.506 1603.51 711.291C1599.21 713.015 1594.37 713.877 1589.02 713.877C1582.43 713.877 1576.61 712.492 1571.56 709.722C1566.58 706.951 1562.7 703.042 1559.93 697.994C1557.16 692.946 1555.77 687.097 1555.77 680.448C1555.77 673.922 1557.22 668.105 1560.11 662.995C1563.01 657.824 1567.04 653.791 1572.21 650.898C1577.44 648.004 1583.35 646.558 1589.94 646.558C1594.5 646.558 1598.77 647.327 1602.78 648.866C1606.78 650.344 1610.32 652.406 1613.4 655.053L1607.39 662.995C1602.22 658.686 1596.44 656.531 1590.03 656.531C1585.42 656.531 1581.32 657.516 1577.75 659.486C1574.24 661.456 1571.5 664.226 1569.53 667.797C1567.62 671.306 1566.67 675.4 1566.67 680.079C1566.67 684.942 1567.59 689.19 1569.44 692.822C1571.29 696.393 1573.93 699.163 1577.38 701.133C1580.83 703.042 1584.83 703.996 1589.39 703.996C1592.53 703.996 1595.39 703.596 1597.97 702.796C1600.56 701.934 1603.05 700.61 1605.45 698.825V685.25H1587.45V675.831H1615.34Z" fill="#8A2863"/>
<path d="M1724.22 713.323L1716.27 705.658C1713.57 708.121 1710.43 710.091 1706.86 711.568C1703.28 712.984 1699.44 713.692 1695.31 713.692C1690.94 713.692 1687.16 712.954 1683.95 711.476C1680.81 709.999 1678.41 708.029 1676.75 705.566C1675.09 703.103 1674.26 700.395 1674.26 697.44C1674.26 693.746 1675.37 690.268 1677.58 687.005C1679.86 683.68 1683.25 680.725 1687.74 678.14C1683.06 672.968 1680.72 667.951 1680.72 663.087C1680.72 660.132 1681.49 657.424 1683.03 654.961C1684.63 652.437 1686.88 650.436 1689.77 648.959C1692.73 647.481 1696.11 646.742 1699.93 646.742C1703.25 646.742 1706.21 647.42 1708.79 648.774C1711.38 650.067 1713.38 651.883 1714.8 654.222C1716.21 656.562 1716.92 659.178 1716.92 662.072C1716.92 668.844 1712.4 674.784 1703.35 679.894L1715.63 691.899C1716.8 689.744 1717.72 687.59 1718.4 685.435C1719.08 683.219 1719.48 681.249 1719.6 679.525L1728.83 680.725C1728.65 683.496 1728 686.481 1726.89 689.683C1725.85 692.884 1724.43 695.87 1722.65 698.64L1730.96 706.767L1724.22 713.323ZM1699.47 655.7C1696.76 655.7 1694.6 656.439 1693 657.916C1691.46 659.332 1690.69 661.025 1690.69 662.995C1690.69 664.903 1691.16 666.596 1692.08 668.074C1693.07 669.551 1694.76 671.46 1697.16 673.799C1700.36 672.014 1702.79 670.259 1704.45 668.536C1706.12 666.75 1706.95 664.75 1706.95 662.533C1706.95 660.563 1706.27 658.932 1704.92 657.639C1703.56 656.346 1701.75 655.7 1699.47 655.7ZM1695.77 704.458C1700.64 704.458 1705.25 702.734 1709.63 699.287L1693.93 684.234C1690.91 685.897 1688.63 687.805 1687.09 689.96C1685.55 692.114 1684.78 694.3 1684.78 696.516C1684.78 698.671 1685.77 700.549 1687.74 702.149C1689.77 703.688 1692.45 704.458 1695.77 704.458Z" fill="#8A2863"/>
<path d="M1817.95 713.877C1811.31 713.877 1805.4 712.461 1800.22 709.629C1795.05 706.797 1791.02 702.857 1788.13 697.809C1785.29 692.699 1783.88 686.912 1783.88 680.448C1783.88 673.922 1785.33 668.105 1788.22 662.995C1791.11 657.824 1795.14 653.822 1800.32 650.99C1805.55 648.097 1811.46 646.65 1818.05 646.65C1822.54 646.65 1826.76 647.45 1830.7 649.051C1834.7 650.59 1838.3 652.837 1841.5 655.792L1835.22 663.826C1832.58 661.425 1829.84 659.671 1827 658.562C1824.17 657.393 1821.12 656.808 1817.86 656.808C1813.37 656.808 1809.4 657.793 1805.95 659.763C1802.5 661.671 1799.79 664.411 1797.82 667.982C1795.91 671.491 1794.96 675.523 1794.96 680.079C1794.96 684.696 1795.95 688.79 1797.92 692.361C1799.89 695.931 1802.62 698.733 1806.13 700.764C1809.64 702.734 1813.64 703.719 1818.14 703.719C1821.52 703.719 1824.66 703.196 1827.56 702.149C1830.45 701.041 1833.19 699.317 1835.78 696.978L1842.06 705.012C1835.84 710.922 1827.8 713.877 1817.95 713.877Z" fill="#8A2863"/>
<path d="M1893.53 713.969C1887.07 713.969 1881.31 712.584 1876.27 709.814C1871.28 706.982 1867.4 703.042 1864.63 697.994C1861.86 692.884 1860.47 687.035 1860.47 680.448C1860.47 673.738 1861.86 667.828 1864.63 662.718C1867.46 657.608 1871.43 653.637 1876.54 650.805C1881.65 647.974 1887.53 646.558 1894.18 646.558C1900.64 646.558 1906.37 647.974 1911.36 650.805C1916.34 653.576 1920.22 657.516 1922.99 662.626C1925.76 667.674 1927.15 673.492 1927.15 680.079C1927.15 686.789 1925.73 692.699 1922.9 697.809C1920.13 702.919 1916.19 706.89 1911.08 709.722C1906.03 712.553 1900.18 713.969 1893.53 713.969ZM1893.72 704.088C1898.09 704.088 1901.97 703.103 1905.35 701.133C1908.74 699.102 1911.36 696.301 1913.2 692.73C1915.11 689.159 1916.07 685.065 1916.07 680.448C1916.07 675.708 1915.14 671.522 1913.3 667.889C1911.45 664.257 1908.83 661.456 1905.45 659.486C1902.12 657.454 1898.27 656.439 1893.9 656.439C1889.53 656.439 1885.65 657.454 1882.27 659.486C1878.88 661.456 1876.23 664.226 1874.33 667.797C1872.48 671.368 1871.56 675.462 1871.56 680.079C1871.56 684.819 1872.48 689.006 1874.33 692.638C1876.17 696.27 1878.76 699.102 1882.08 701.133C1885.47 703.103 1889.35 704.088 1893.72 704.088Z" fill="#8A2863"/>
<path d="M2021.47 647.943V712.584H2010.76V672.876C2010.76 670.29 2010.85 668.136 2011.03 666.412L2010.85 666.319C2010.3 667.304 2009.19 669.028 2007.53 671.491L2006.14 673.522L1989.06 698.825H1985.36L1968.46 673.615C1967.29 671.952 1965.72 669.644 1963.75 666.689L1963.48 666.781C1963.66 668.505 1963.75 670.66 1963.75 673.245V712.584H1953.04V647.943H1963.57L1987.3 683.496L2011.03 647.943H2021.47Z" fill="#8A2863"/>
<path d="M2078.98 647.943C2084.03 647.943 2088.27 648.989 2091.72 651.083C2095.23 653.114 2097.85 655.823 2099.57 659.209C2101.29 662.595 2102.16 666.289 2102.16 670.29C2102.16 674.353 2101.29 678.109 2099.57 681.556C2097.85 685.004 2095.23 687.774 2091.72 689.867C2088.27 691.961 2084.03 693.007 2078.98 693.007H2062.26V712.584H2051.55V647.943H2078.98ZM2078.33 683.219C2082.7 683.219 2085.93 682.018 2088.03 679.617C2090.18 677.155 2091.26 674.169 2091.26 670.66C2091.26 667.027 2090.18 663.98 2088.03 661.517C2085.93 658.993 2082.7 657.731 2078.33 657.731H2062.26V683.219H2078.33Z" fill="#8A2863"/>
<path d="M2171.7 712.584L2165.61 699.102H2131.72L2125.62 712.584H2113.99L2142.8 647.943H2154.71L2183.52 712.584H2171.7ZM2135.78 689.498H2161.54L2152.96 668.813C2152.71 668.32 2152.4 667.581 2152.03 666.596C2150.06 661.979 2148.99 659.301 2148.8 658.562H2148.62L2147.79 660.502L2144.28 668.905L2135.78 689.498Z" fill="#8A2863"/>
<path d="M2216.26 647.943L2245.44 687.928L2250.52 695.131L2250.7 695.039C2250.52 693.192 2250.43 690.822 2250.43 687.928V647.943H2261.14V712.584H2250.79L2221.61 672.599C2219.03 669.028 2217.34 666.627 2216.54 665.396L2216.26 665.488C2216.5 667.828 2216.63 670.198 2216.63 672.599V712.584H2205.92V647.943H2216.26Z" fill="#8A2863"/>
<path d="M2291.26 647.943H2301.97V712.584H2291.26V647.943Z" fill="#8A2863"/>
<path d="M2360.95 713.969C2354.49 713.969 2348.73 712.584 2343.69 709.814C2338.7 706.982 2334.82 703.042 2332.05 697.994C2329.28 692.884 2327.89 687.035 2327.89 680.448C2327.89 673.738 2329.28 667.828 2332.05 662.718C2334.88 657.608 2338.85 653.637 2343.96 650.805C2349.07 647.974 2354.95 646.558 2361.6 646.558C2368.07 646.558 2373.79 647.974 2378.78 650.805C2383.76 653.576 2387.64 657.516 2390.41 662.626C2393.18 667.674 2394.57 673.492 2394.57 680.079C2394.57 686.789 2393.15 692.699 2390.32 697.809C2387.55 702.919 2383.61 706.89 2378.5 709.722C2373.45 712.553 2367.6 713.969 2360.95 713.969ZM2361.14 704.088C2365.51 704.088 2369.39 703.103 2372.77 701.133C2376.16 699.102 2378.78 696.301 2380.62 692.73C2382.53 689.159 2383.49 685.065 2383.49 680.448C2383.49 675.708 2382.56 671.522 2380.72 667.889C2378.87 664.257 2376.25 661.456 2372.87 659.486C2369.54 657.454 2365.69 656.439 2361.32 656.439C2356.95 656.439 2353.07 657.454 2349.69 659.486C2346.3 661.456 2343.66 664.226 2341.75 667.797C2339.9 671.368 2338.98 675.462 2338.98 680.079C2338.98 684.819 2339.9 689.006 2341.75 692.638C2343.59 696.27 2346.18 699.102 2349.5 701.133C2352.89 703.103 2356.77 704.088 2361.14 704.088Z" fill="#8A2863"/>
<path d="M2430.8 647.943L2459.99 687.928L2465.06 695.131L2465.25 695.039C2465.06 693.192 2464.97 690.822 2464.97 687.928V647.943H2475.68V712.584H2465.34L2436.16 672.599C2433.58 669.028 2431.88 666.627 2431.08 665.396L2430.8 665.488C2431.05 667.828 2431.17 670.198 2431.17 672.599V712.584H2420.46V647.943H2430.8Z" fill="#8A2863"/>
<path d="M2527.04 713.877C2522.12 713.877 2517.47 713.138 2513.1 711.661C2508.79 710.122 2505.07 708.029 2501.93 705.381L2507.1 697.163C2509.93 699.256 2513.04 700.918 2516.43 702.149C2519.87 703.381 2523.41 703.996 2527.04 703.996C2531.23 703.996 2534.65 703.073 2537.3 701.226C2540 699.379 2541.36 696.886 2541.36 693.746C2541.36 690.976 2540.22 688.759 2537.94 687.097C2535.66 685.435 2531.85 684.234 2526.49 683.496C2518.8 682.449 2513.07 680.479 2509.31 677.585C2505.62 674.63 2503.77 670.66 2503.77 665.673C2503.77 661.918 2504.79 658.624 2506.82 655.792C2508.91 652.899 2511.75 650.652 2515.32 649.051C2518.95 647.45 2523.01 646.65 2527.51 646.65C2531.75 646.65 2535.66 647.204 2539.23 648.312C2542.8 649.359 2546.25 651.113 2549.58 653.576L2544.13 661.425C2541.85 659.701 2539.26 658.409 2536.37 657.547C2533.54 656.685 2530.68 656.254 2527.78 656.254C2523.97 656.254 2520.8 657.085 2518.27 658.747C2515.81 660.348 2514.58 662.472 2514.58 665.119C2514.58 667.581 2515.69 669.49 2517.9 670.844C2520.18 672.137 2523.97 673.245 2529.26 674.169C2537.33 675.462 2543.14 677.709 2546.71 680.91C2550.35 684.05 2552.16 688.267 2552.16 693.561C2552.16 697.686 2551.12 701.287 2549.02 704.366C2546.93 707.444 2543.97 709.814 2540.16 711.476C2536.34 713.077 2531.97 713.877 2527.04 713.877Z" fill="#8A2863"/>
<path d="M2621.86 647.943H2632.67V712.584H2621.86V684.604H2588.06V712.584H2577.35V647.943H2588.06V674.815H2621.86V647.943Z" fill="#8A2863"/>
<path d="M2662.78 647.943H2673.5V712.584H2662.78V647.943Z" fill="#8A2863"/>
<path d="M2731.1 647.943C2736.14 647.943 2740.39 648.989 2743.84 651.083C2747.35 653.114 2749.96 655.823 2751.69 659.209C2753.41 662.595 2754.27 666.289 2754.27 670.29C2754.27 674.353 2753.41 678.109 2751.69 681.556C2749.96 685.004 2747.35 687.774 2743.84 689.867C2740.39 691.961 2736.14 693.007 2731.1 693.007H2714.38V712.584H2703.67V647.943H2731.1ZM2730.45 683.219C2734.82 683.219 2738.05 682.018 2740.15 679.617C2742.3 677.155 2743.38 674.169 2743.38 670.66C2743.38 667.027 2742.3 663.98 2740.15 661.517C2738.05 658.993 2734.82 657.731 2730.45 657.731H2714.38V683.219H2730.45Z" fill="#8A2863"/>
<path fill-rule="evenodd" clip-rule="evenodd" d="M752.375 0.609945C736.055 1.5533 721.383 3.79987 696.177 9.21786C672.645 14.2747 660.27 18.1486 642.279 26.0871C633.379 30.0153 619.847 35.1435 612.211 37.484C595.333 42.6573 557.313 58.7445 537.501 69.0962C523.87 76.2183 409.985 149.783 403.724 155.509C398.718 160.089 397.281 165.331 399.662 170.329C403.357 178.081 408.971 179.712 431.717 179.639C448.979 179.584 453.213 179.118 464.354 176.056C471.395 174.121 505.015 160.814 539.064 146.488C623.029 111.158 631.316 107.943 651.88 102.71C665.563 99.2279 673.591 97.9935 686.26 97.4193C717.966 95.9851 735.01 100.845 781.465 124.563C799.283 133.661 821.511 144.549 830.861 148.757C853.529 158.962 865.982 166.243 875.489 174.852C887.345 185.588 889.504 191.42 885.07 200.724C882.045 207.073 875.472 210.304 843.293 221.263C808.328 233.172 801.609 236.289 789.026 246.44C761.303 268.801 752.569 293.66 764.988 314.863C769.369 322.343 771.86 323.493 785.352 324.262C803.757 325.308 813.611 321.888 843.919 303.929C864.784 291.566 880.533 283.978 913.034 270.63C958.771 251.845 955.188 252.732 1029.4 241.792L1070.39 235.748L1090.88 227.704C1102.16 223.279 1116.03 217.814 1121.72 215.558L1132.07 211.456L1140.15 192.272C1144.6 181.72 1158.75 152.249 1171.6 126.78C1184.45 101.31 1195.4 79.1199 1195.92 77.466C1196.76 74.7815 1196.04 74.0961 1189.18 71.0584C1161.93 58.9999 1050.03 36.5923 1001.63 33.5016C978.862 32.0488 973.439 31.1783 915.018 19.608C827.684 2.3101 793.01 -1.73984 752.375 0.609945ZM680.22 103.648C669.377 104.794 658.459 109.704 646.812 118.672C638.016 125.443 612.589 151.55 588.756 178.278C552.628 218.797 539.938 238.971 545.368 247.261C553.152 259.149 571.709 255.568 595.957 237.499C611.524 225.899 615.853 221.733 635.379 199.549C676.451 152.891 692.005 140.845 706.238 144.68C709.007 145.426 711.559 146.501 711.91 147.069C712.262 147.638 707.674 152.233 701.718 157.28C669.337 184.722 636.217 218.695 633.339 227.422C629.906 237.828 635.416 241.956 649.738 239.708C667.184 236.972 679.537 230.03 715.801 202.59C731.189 190.947 747.35 179.558 751.714 177.283C759.06 173.452 760.576 173.156 772.209 173.283C795.183 173.533 839.332 182.927 862.057 192.4C872.879 196.912 874.801 197.355 876.437 195.72C879.937 192.218 878.664 187.101 872.802 181.126C865.493 173.675 851.295 165.368 824.223 152.709C811.979 146.983 789.763 136.113 774.854 128.553C732.81 107.235 708.018 100.711 680.22 103.648ZM593.699 131.253C519.129 166.547 511.506 170.342 497.832 178.96C490.56 183.543 479.655 191.16 473.6 195.888C455.782 209.793 451.019 218.982 458.005 225.972C467.258 235.231 500.68 235.698 518.038 226.812C526.941 222.254 560.561 196.405 571.156 185.97C588.933 168.464 625.788 129.832 633.052 121.088C639.605 113.2 641.243 110.212 638.988 110.264C638.442 110.276 618.062 119.721 593.699 131.253Z" fill="#2F8F3E"/>
<path d="M357.599 513.832C374.775 503.846 384.788 499.36 394.669 497.223C401.246 495.802 419.828 496.853 423.598 498.86C427.024 500.684 428.909 502.974 432.641 509.838C434.89 513.973 435.533 517.438 435.587 525.706C435.647 534.963 435.123 537.41 431.389 545.292C424.439 559.97 403.773 579.505 387.397 586.879C383.397 588.68 368.126 594.212 353.46 599.173C326.988 608.129 315.135 613.141 312.453 616.511C311.684 617.477 310.336 620.5 309.459 623.226C307.194 630.256 309.297 635.492 317.664 643.655C326.915 652.679 337.142 659.038 357.686 668.539C367.093 672.889 391.46 684.831 411.834 695.075C446.99 712.753 461.354 718.562 478.361 721.983C488.421 724.005 516.073 723.718 529.044 721.455C553.589 717.175 563.944 713.338 660.99 672.563C693.296 658.989 723.937 646.754 729.082 645.374C752.869 638.991 778.97 638.384 788.93 643.982C794.908 647.342 798.033 652.736 796.815 657.588C796.399 659.243 793.804 662.724 791.046 665.325C784.016 671.952 673.831 743.605 657.781 751.985C639.092 761.743 600.791 777.864 584.4 782.87C576.765 785.202 563.213 790.326 554.285 794.257C533.665 803.335 517.354 808.163 488.08 813.854C456.869 819.92 436.202 821.8 412.755 820.706C376.657 819.022 355.175 815.816 278.978 800.75C226.843 790.441 203.812 786.862 189.622 786.862C165.767 786.862 54.7551 765.827 21.1548 754.94C4.90262 749.673 0 747.128 0 743.954C0 742.353 4.79288 731.864 10.6501 720.646C26.7687 689.777 49.0381 643.915 56.1897 626.863C59.6974 618.499 63.2157 610.956 64.0077 610.101C64.7997 609.247 78.5371 603.392 94.5354 597.091L123.623 585.636L175.188 577.892C231.973 569.366 237.321 568.217 258.485 560C305.206 541.863 326.221 532.074 357.599 513.832Z" fill="#2F8F3E"/>
<path d="M564.667 616.284C585.824 591.583 612.249 571.519 629.003 567.435C638.485 565.124 647.84 568.243 650.78 574.697C655.676 585.445 635.476 612.871 576.141 676.031C548.063 705.918 532.072 716.217 511.502 717.665C485.366 719.503 461.232 712.694 419.182 691.611C403.518 683.759 377.824 671.062 362.085 663.398C338.382 651.855 332.084 648.179 325.395 641.987C316.908 634.129 315.381 630.024 319.065 624.982C320.739 622.693 321.017 622.703 326.007 625.243C345.921 635.378 401.377 648.022 425.909 648.018C438.025 648.017 446.06 643.718 475.463 621.506C506.678 597.923 516.86 591.232 529.594 585.931C542.527 580.545 556.68 579.015 560.615 582.577C563.772 585.435 563.953 589.552 561.21 596.118C558.668 602.203 525.552 635.857 500.618 657.695L482.284 673.753L486.074 675.371C494.165 678.828 501.666 676.948 513.74 668.439C522.946 661.951 544.168 640.218 564.667 616.284Z" fill="#2F8F3E"/>
<path d="M652.662 611.473C674.126 595.352 682.82 590.585 694.198 588.699C716.586 584.986 738.795 590.187 741.182 599.701C742.322 604.243 738.984 609.559 729.301 618.617C712.252 634.568 690.43 647.484 639.271 671.908C577.34 701.474 556.093 711.309 555.45 710.71C553.493 708.888 571.125 689.196 612.041 647.505C626.923 632.34 638.225 622.316 652.662 611.473Z" fill="#2F8F3E"/>
<path fill-rule="evenodd" clip-rule="evenodd" d="M468.212 289.603C441.701 295.185 416.139 314.299 405.265 336.679C401.756 343.897 399.3 354.365 398.706 364.634C396.324 405.811 419.647 451.679 469.272 503.392L495.301 530.517L495.712 515.534C495.939 507.293 495.979 499.674 495.802 498.602C495.166 494.736 503.107 482.04 508.544 478.227C511.599 476.082 518.09 474.329 522.966 474.329C542.189 474.329 550.399 487.257 550.399 517.519C550.399 534.658 551.232 539.238 554.961 542.617C557.47 544.889 560.275 546.75 561.195 546.75C562.116 546.75 562.869 523.6 562.869 495.306V443.862L571.348 435.371C580.488 426.219 589.793 424.481 601.373 429.763C614.533 435.769 616.281 442.062 617.685 488.493L618.982 531.379L626.726 524.439C633.664 518.221 634.602 515.666 635.729 499.913C637.21 479.178 643.303 468.665 656.339 464.357C673.769 458.596 690.059 473.005 690.059 494.182C690.059 499.746 690.623 504.296 691.314 504.296C695.591 504.296 729.773 460.734 741.285 440.616C745.213 433.748 750.629 426.601 750.629 426.601C750.629 426.601 753.487 417.421 755.804 410.436C766.154 379.238 765.71 355.441 754.358 332.676C734.651 293.167 671.12 275.377 626.674 296.92C614.481 302.831 598.567 318.145 588.053 334.087L580.9 344.933L571.595 330.896C560.126 313.595 544.721 300.674 527.951 294.293C512.933 288.58 483.904 286.302 468.212 289.603ZM600.418 381.54C612.241 391.127 604.468 411.897 589.055 411.897C585.93 411.897 580.818 409.824 577.693 407.292C565.869 397.705 573.643 376.935 589.055 376.935C592.18 376.935 597.293 379.008 600.418 381.54ZM672.13 416.989C683.396 427.498 675.737 446.859 660.314 446.859C652.239 446.859 642.675 437.137 642.675 428.928C642.675 422.281 653.725 411.897 660.796 411.897C664.028 411.897 669.13 414.19 672.13 416.989ZM526.819 430.514C534.298 438.001 534.56 444.124 527.772 452.765C517.831 465.421 498.027 458.901 498.027 442.971C498.027 425.934 514.941 418.617 526.819 430.514Z" fill="#8A2863"/>
</svg>
