<svg width="500" height="360" viewBox="0 0 500 360" fill="none" xmlns="http://www.w3.org/2000/svg">
<rect width="500" height="360" fill="white"/>
<path d="M192.645 174.129C188.872 174.129 185.132 174.129 181.392 174.129V178.164H188.314V187.285C188.314 190.762 186.477 193.485 182.54 193.485C178.636 193.485 176.734 191.484 176.734 187.547H172.469C172.469 194.043 176.668 197.553 182.54 197.553C188.872 197.553 192.645 193.222 192.645 187.285V174.129Z" fill="#74349A"/>
<path d="M204.362 180.592C199.211 180.592 195.996 184.398 195.996 189.023C195.996 193.682 199.146 197.454 204.395 197.454C209.644 197.454 212.826 193.682 212.826 189.023C212.826 184.398 209.513 180.592 204.362 180.592ZM204.395 184.234C207.085 184.234 208.791 186.596 208.791 189.023C208.791 191.484 207.315 193.78 204.395 193.78C201.475 193.78 199.999 191.484 199.999 189.023C199.999 186.596 201.508 184.234 204.395 184.234Z" fill="#74349A"/>
<path d="M227.769 180.92L224.816 188.006L223.143 192.468L221.601 187.908L219.141 180.92H214.482L220.945 196.831L217.927 203.852H222.323L232.197 180.92H227.769Z" fill="#74349A"/>
<path d="M240.253 197.094V184.66H245.01V181.15H240.253V180.067C240.253 178.099 241.303 177.18 242.681 177.18C243.501 177.18 244.288 177.475 245.141 178.033L246.617 175.048C245.305 174.195 243.829 173.736 242.418 173.736C239.17 173.736 236.251 175.737 236.251 180.067V181.15H233.232V184.66H236.251V197.094H240.253Z" fill="#74349A"/>
<path d="M248.219 180.92V189.417C248.219 194.436 251.041 197.356 254.912 197.356C257.176 197.356 258.717 196.569 260.391 194.928L260.653 197.126H264.229V180.92H260.259V189.187C260.259 191.648 258.586 193.715 256.126 193.715C253.567 193.715 252.222 191.845 252.222 189.384V180.92H248.219Z" fill="#74349A"/>
<path d="M268.416 174.162V197.094H272.386V174.162H268.416Z" fill="#74349A"/>
<path d="M301.409 191.221C299.9 192.73 297.636 193.551 295.635 193.551C289.959 193.551 287.761 189.581 287.729 185.775C287.696 181.937 290.091 177.804 295.635 177.804C297.636 177.804 299.67 178.492 301.179 179.969L304.066 177.18C301.704 174.851 298.752 173.67 295.635 173.67C287.335 173.67 283.431 179.772 283.464 185.775C283.497 191.746 287.105 197.618 295.635 197.618C298.948 197.618 301.999 196.536 304.361 194.207L301.409 191.221Z" fill="#74349A"/>
<path d="M319.154 183.151C318.236 181.543 316.169 180.526 314.004 180.526C309.28 180.494 305.573 183.413 305.573 188.99C305.573 194.666 309.116 197.618 313.905 197.586C315.71 197.553 318.236 196.634 319.154 194.732L319.351 197.094H323.124V180.92H319.286L319.154 183.151ZM314.365 184.102C320.664 184.102 320.664 193.911 314.365 193.911C311.707 193.911 309.575 192.074 309.575 188.99C309.575 185.907 311.707 184.102 314.365 184.102Z" fill="#74349A"/>
<path d="M327.17 180.92V197.094H331.172V188.564C331.172 185.579 333.108 184.463 335.207 184.463C336.52 184.463 337.274 184.824 338.094 185.513L339.899 182.036C339.013 181.15 337.406 180.494 335.732 180.494C334.092 180.494 332.419 180.789 331.172 182.79L330.877 180.92H327.17Z" fill="#74349A"/>
<path d="M358.093 190.434C358.716 183.774 355.337 180.428 349.924 180.428C344.675 180.428 341.329 183.971 341.329 188.892C341.329 194.075 344.642 197.52 350.219 197.52C352.68 197.52 355.468 196.667 357.174 194.896L354.615 192.369C353.697 193.321 351.761 193.879 350.285 193.879C347.464 193.879 345.725 192.435 345.463 190.434H358.093ZM345.528 187.12C346.119 185.021 347.89 183.971 350.055 183.971C352.352 183.971 353.992 185.021 354.255 187.12H345.528Z" fill="#74349A"/>
<path d="M369.416 174.129V197.094H385.557V193.091H373.747V174.129H369.416Z" fill="#74349A"/>
<path d="M389.263 174.129V197.094H405.403V193.091H393.593V174.129H389.263Z" fill="#74349A"/>
<path d="M426.398 191.221C424.889 192.73 422.625 193.551 420.624 193.551C414.949 193.551 412.751 189.581 412.718 185.775C412.685 181.937 415.08 177.804 420.624 177.804C422.625 177.804 424.659 178.492 426.168 179.969L429.055 177.18C426.693 174.851 423.741 173.67 420.624 173.67C412.324 173.67 408.42 179.772 408.453 185.775C408.486 191.746 412.095 197.618 420.624 197.618C423.938 197.618 426.989 196.536 429.351 194.207L426.398 191.221Z" fill="#74349A"/>
<path d="M177.89 208.922H179.206V216.795H177.89V213.387H173.773V216.795H172.468V208.922H173.773V212.195H177.89V208.922Z" fill="#3BB34D"/>
<path d="M186.384 216.964C185.596 216.964 184.895 216.795 184.28 216.458C183.673 216.113 183.2 215.633 182.863 215.018C182.526 214.396 182.357 213.683 182.357 212.881C182.357 212.064 182.526 211.344 182.863 210.721C183.208 210.099 183.692 209.615 184.314 209.27C184.936 208.925 185.653 208.753 186.462 208.753C187.25 208.753 187.947 208.925 188.554 209.27C189.162 209.608 189.634 210.088 189.972 210.71C190.309 211.325 190.478 212.034 190.478 212.836C190.478 213.653 190.305 214.373 189.96 214.995C189.623 215.618 189.143 216.102 188.521 216.446C187.906 216.791 187.193 216.964 186.384 216.964ZM186.406 215.76C186.939 215.76 187.411 215.64 187.823 215.4C188.236 215.153 188.554 214.812 188.779 214.377C189.012 213.942 189.128 213.443 189.128 212.881C189.128 212.304 189.016 211.794 188.791 211.351C188.566 210.909 188.247 210.568 187.835 210.328C187.43 210.08 186.961 209.956 186.429 209.956C185.896 209.956 185.424 210.08 185.011 210.328C184.599 210.568 184.277 210.905 184.044 211.34C183.819 211.775 183.707 212.274 183.707 212.836C183.707 213.413 183.819 213.923 184.044 214.366C184.269 214.808 184.584 215.153 184.989 215.4C185.401 215.64 185.874 215.76 186.406 215.76Z" fill="#3BB34D"/>
<path d="M201.966 208.922V216.795H200.662V211.959C200.662 211.644 200.673 211.381 200.695 211.171L200.673 211.16C200.605 211.28 200.471 211.49 200.268 211.79L200.099 212.037L198.018 215.119H197.569L195.51 212.049C195.368 211.846 195.177 211.565 194.937 211.205L194.903 211.216C194.925 211.426 194.937 211.689 194.937 212.004V216.795H193.632V208.922H194.914L197.805 213.252L200.695 208.922H201.966Z" fill="#3BB34D"/>
<path d="M206.935 215.592H211.142V216.795H205.631V208.922H211.075V210.103H206.935V212.217H210.883V213.387H206.935V215.592Z" fill="#3BB34D"/>
<path d="M222.757 208.922V216.795H221.452V211.959C221.452 211.644 221.463 211.381 221.486 211.171L221.463 211.16C221.396 211.28 221.261 211.49 221.058 211.79L220.889 212.037L218.809 215.119H218.359L216.3 212.049C216.158 211.846 215.967 211.565 215.727 211.205L215.693 211.216C215.715 211.426 215.727 211.689 215.727 212.004V216.795H214.422V208.922H215.704L218.595 213.252L221.486 208.922H222.757Z" fill="#3BB34D"/>
<path d="M232.506 216.795L231.763 215.153H227.635L226.893 216.795H225.476L228.985 208.922H230.436L233.945 216.795H232.506ZM228.13 213.983H231.268L230.222 211.464C230.192 211.404 230.155 211.314 230.11 211.194C229.87 210.631 229.739 210.305 229.716 210.215H229.694L229.593 210.451L229.165 211.475L228.13 213.983Z" fill="#3BB34D"/>
<path d="M243.152 216.795H241.386L238.686 213.994C238.311 213.597 238.075 213.335 237.978 213.207L237.955 213.218C237.97 213.361 237.978 213.627 237.978 214.017V216.795H236.673V208.922H237.978V211.531C237.978 211.921 237.97 212.187 237.955 212.33L237.978 212.341C238.308 211.966 238.563 211.677 238.742 211.475L241.116 208.922H242.803L239.226 212.735L243.152 216.795Z" fill="#3BB34D"/>
<path d="M245.64 208.922H246.945V216.795H245.64V208.922Z" fill="#3BB34D"/>
<path d="M251.88 208.922L255.434 213.792L256.052 214.669L256.075 214.658C256.052 214.433 256.041 214.144 256.041 213.792V208.922H257.346V216.795H256.086L252.532 211.925C252.217 211.49 252.011 211.197 251.913 211.047L251.88 211.059C251.91 211.344 251.925 211.632 251.925 211.925V216.795H250.62V208.922H251.88Z" fill="#3BB34D"/>
<path d="M267.752 212.318V215.659C267.317 216.094 266.837 216.42 266.313 216.638C265.788 216.848 265.199 216.953 264.547 216.953C263.744 216.953 263.036 216.784 262.421 216.446C261.813 216.109 261.341 215.633 261.004 215.018C260.666 214.403 260.497 213.691 260.497 212.881C260.497 212.086 260.674 211.377 261.026 210.755C261.378 210.125 261.87 209.634 262.5 209.282C263.137 208.929 263.857 208.753 264.659 208.753C265.214 208.753 265.735 208.847 266.223 209.034C266.71 209.214 267.141 209.465 267.516 209.788L266.785 210.755C266.155 210.23 265.45 209.968 264.67 209.968C264.108 209.968 263.609 210.088 263.174 210.328C262.747 210.568 262.413 210.905 262.173 211.34C261.941 211.767 261.825 212.266 261.825 212.836C261.825 213.428 261.937 213.946 262.162 214.388C262.387 214.823 262.709 215.16 263.129 215.4C263.549 215.633 264.037 215.749 264.592 215.749C264.974 215.749 265.323 215.7 265.638 215.603C265.953 215.498 266.256 215.337 266.549 215.119V213.466H264.355V212.318H267.752Z" fill="#3BB34D"/>
<path d="M281.014 216.885L280.047 215.952C279.717 216.252 279.335 216.491 278.9 216.671C278.465 216.844 277.996 216.93 277.494 216.93C276.961 216.93 276.5 216.84 276.11 216.66C275.728 216.48 275.435 216.24 275.233 215.94C275.03 215.64 274.929 215.31 274.929 214.951C274.929 214.501 275.064 214.077 275.334 213.679C275.612 213.275 276.024 212.915 276.571 212.6C276.001 211.97 275.717 211.359 275.717 210.766C275.717 210.406 275.81 210.076 275.998 209.776C276.193 209.469 276.466 209.225 276.819 209.045C277.179 208.865 277.591 208.775 278.056 208.775C278.461 208.775 278.821 208.858 279.136 209.023C279.451 209.18 279.695 209.402 279.867 209.687C280.039 209.971 280.126 210.29 280.126 210.643C280.126 211.467 279.575 212.191 278.472 212.813L279.968 214.276C280.111 214.013 280.223 213.751 280.306 213.488C280.388 213.218 280.437 212.978 280.452 212.768L281.577 212.915C281.554 213.252 281.475 213.616 281.34 214.006C281.213 214.396 281.041 214.759 280.823 215.097L281.835 216.087L281.014 216.885ZM278 209.866C277.67 209.866 277.407 209.956 277.213 210.136C277.025 210.309 276.931 210.515 276.931 210.755C276.931 210.988 276.988 211.194 277.1 211.374C277.22 211.554 277.426 211.786 277.719 212.071C278.109 211.854 278.405 211.64 278.607 211.43C278.81 211.212 278.911 210.969 278.911 210.699C278.911 210.459 278.828 210.26 278.663 210.103C278.499 209.945 278.277 209.866 278 209.866ZM277.55 215.805C278.142 215.805 278.705 215.595 279.237 215.175L277.325 213.342C276.958 213.545 276.68 213.777 276.493 214.039C276.305 214.302 276.211 214.568 276.211 214.838C276.211 215.1 276.331 215.329 276.571 215.524C276.819 215.712 277.145 215.805 277.55 215.805Z" fill="#3BB34D"/>
<path d="M292.432 216.953C291.622 216.953 290.902 216.78 290.272 216.435C289.642 216.09 289.151 215.61 288.799 214.995C288.454 214.373 288.281 213.668 288.281 212.881C288.281 212.086 288.458 211.377 288.81 210.755C289.162 210.125 289.654 209.638 290.283 209.293C290.921 208.94 291.641 208.764 292.443 208.764C292.99 208.764 293.504 208.862 293.984 209.057C294.471 209.244 294.91 209.518 295.3 209.878L294.535 210.856C294.213 210.564 293.879 210.35 293.534 210.215C293.189 210.073 292.818 210.001 292.421 210.001C291.873 210.001 291.39 210.121 290.97 210.361C290.55 210.594 290.22 210.928 289.98 211.362C289.747 211.79 289.631 212.281 289.631 212.836C289.631 213.398 289.751 213.897 289.991 214.332C290.231 214.767 290.565 215.108 290.992 215.355C291.42 215.595 291.907 215.715 292.454 215.715C292.867 215.715 293.249 215.652 293.602 215.524C293.954 215.389 294.288 215.179 294.603 214.894L295.368 215.873C294.61 216.593 293.632 216.953 292.432 216.953Z" fill="#3BB34D"/>
<path d="M301.638 216.964C300.85 216.964 300.149 216.795 299.534 216.458C298.927 216.113 298.455 215.633 298.117 215.018C297.78 214.396 297.611 213.683 297.611 212.881C297.611 212.064 297.78 211.344 298.117 210.721C298.462 210.099 298.946 209.615 299.568 209.27C300.19 208.925 300.907 208.753 301.716 208.753C302.504 208.753 303.201 208.925 303.809 209.27C304.416 209.608 304.888 210.088 305.226 210.71C305.563 211.325 305.732 212.034 305.732 212.836C305.732 213.653 305.559 214.373 305.214 214.995C304.877 215.618 304.397 216.102 303.775 216.446C303.16 216.791 302.448 216.964 301.638 216.964ZM301.66 215.76C302.193 215.76 302.665 215.64 303.077 215.4C303.49 215.153 303.809 214.812 304.033 214.377C304.266 213.942 304.382 213.443 304.382 212.881C304.382 212.304 304.27 211.794 304.045 211.351C303.82 210.909 303.501 210.568 303.089 210.328C302.684 210.08 302.215 209.956 301.683 209.956C301.15 209.956 300.678 210.08 300.265 210.328C299.853 210.568 299.531 210.905 299.298 211.34C299.073 211.775 298.961 212.274 298.961 212.836C298.961 213.413 299.073 213.923 299.298 214.366C299.523 214.808 299.838 215.153 300.243 215.4C300.655 215.64 301.128 215.76 301.66 215.76Z" fill="#3BB34D"/>
<path d="M317.221 208.922V216.795H315.916V211.959C315.916 211.644 315.927 211.381 315.95 211.171L315.927 211.16C315.86 211.28 315.725 211.49 315.522 211.79L315.353 212.037L313.273 215.119H312.823L310.764 212.049C310.622 211.846 310.431 211.565 310.191 211.205L310.157 211.216C310.179 211.426 310.191 211.689 310.191 212.004V216.795H308.886V208.922H310.168L313.059 213.252L315.95 208.922H317.221Z" fill="#3BB34D"/>
<path d="M324.225 208.922C324.84 208.922 325.358 209.049 325.777 209.304C326.205 209.552 326.524 209.881 326.734 210.294C326.943 210.706 327.048 211.156 327.048 211.644C327.048 212.139 326.943 212.596 326.734 213.016C326.524 213.436 326.205 213.773 325.777 214.028C325.358 214.283 324.84 214.411 324.225 214.411H322.189V216.795H320.885V208.922H324.225ZM324.146 213.218C324.679 213.218 325.073 213.072 325.328 212.78C325.59 212.48 325.721 212.116 325.721 211.689C325.721 211.246 325.59 210.875 325.328 210.575C325.073 210.268 324.679 210.114 324.146 210.114H322.189V213.218H324.146Z" fill="#3BB34D"/>
<path d="M335.519 216.795L334.777 215.153H330.649L329.907 216.795H328.489L331.999 208.922H333.45L336.959 216.795H335.519ZM331.144 213.983H334.282L333.236 211.464C333.206 211.404 333.169 211.314 333.124 211.194C332.884 210.631 332.752 210.305 332.73 210.215H332.707L332.606 210.451L332.179 211.475L331.144 213.983Z" fill="#3BB34D"/>
<path d="M340.946 208.922L344.501 213.792L345.119 214.669L345.142 214.658C345.119 214.433 345.108 214.144 345.108 213.792V208.922H346.413V216.795H345.153L341.599 211.925C341.284 211.49 341.078 211.197 340.98 211.047L340.946 211.059C340.976 211.344 340.991 211.632 340.991 211.925V216.795H339.687V208.922H340.946Z" fill="#3BB34D"/>
<path d="M350.082 208.922H351.386V216.795H350.082V208.922Z" fill="#3BB34D"/>
<path d="M358.571 216.964C357.783 216.964 357.082 216.795 356.467 216.458C355.86 216.113 355.388 215.633 355.05 215.018C354.713 214.396 354.544 213.683 354.544 212.881C354.544 212.064 354.713 211.344 355.05 210.721C355.395 210.099 355.879 209.615 356.501 209.27C357.124 208.925 357.84 208.753 358.649 208.753C359.437 208.753 360.134 208.925 360.742 209.27C361.349 209.608 361.821 210.088 362.159 210.71C362.496 211.325 362.665 212.034 362.665 212.836C362.665 213.653 362.492 214.373 362.148 214.995C361.81 215.618 361.33 216.102 360.708 216.446C360.093 216.791 359.381 216.964 358.571 216.964ZM358.593 215.76C359.126 215.76 359.598 215.64 360.01 215.4C360.423 215.153 360.742 214.812 360.967 214.377C361.199 213.942 361.315 213.443 361.315 212.881C361.315 212.304 361.203 211.794 360.978 211.351C360.753 210.909 360.434 210.568 360.022 210.328C359.617 210.08 359.148 209.956 358.616 209.956C358.083 209.956 357.611 210.08 357.198 210.328C356.786 210.568 356.464 210.905 356.231 211.34C356.006 211.775 355.894 212.274 355.894 212.836C355.894 213.413 356.006 213.923 356.231 214.366C356.456 214.808 356.771 215.153 357.176 215.4C357.588 215.64 358.061 215.76 358.593 215.76Z" fill="#3BB34D"/>
<path d="M367.079 208.922L370.633 213.792L371.252 214.669L371.274 214.658C371.252 214.433 371.24 214.144 371.24 213.792V208.922H372.545V216.795H371.285L367.731 211.925C367.416 211.49 367.21 211.197 367.112 211.047L367.079 211.059C367.109 211.344 367.124 211.632 367.124 211.925V216.795H365.819V208.922H367.079Z" fill="#3BB34D"/>
<path d="M378.801 216.953C378.201 216.953 377.635 216.863 377.103 216.683C376.578 216.495 376.124 216.24 375.742 215.918L376.371 214.917C376.716 215.172 377.095 215.374 377.507 215.524C377.927 215.674 378.359 215.749 378.801 215.749C379.311 215.749 379.727 215.637 380.049 215.412C380.379 215.187 380.544 214.883 380.544 214.501C380.544 214.163 380.406 213.893 380.128 213.691C379.851 213.488 379.386 213.342 378.733 213.252C377.796 213.125 377.099 212.885 376.641 212.532C376.191 212.172 375.966 211.689 375.966 211.081C375.966 210.624 376.09 210.223 376.338 209.878C376.593 209.525 376.938 209.252 377.372 209.057C377.815 208.862 378.31 208.764 378.857 208.764C379.375 208.764 379.851 208.832 380.286 208.967C380.721 209.094 381.141 209.308 381.545 209.608L380.882 210.564C380.604 210.354 380.289 210.196 379.937 210.091C379.592 209.986 379.243 209.934 378.891 209.934C378.426 209.934 378.04 210.035 377.732 210.238C377.432 210.433 377.283 210.691 377.283 211.014C377.283 211.314 377.417 211.546 377.687 211.711C377.965 211.869 378.426 212.004 379.071 212.116C380.053 212.274 380.762 212.547 381.197 212.937C381.639 213.32 381.86 213.833 381.86 214.478C381.86 214.98 381.733 215.419 381.478 215.794C381.223 216.169 380.863 216.458 380.398 216.66C379.933 216.855 379.401 216.953 378.801 216.953Z" fill="#3BB34D"/>
<path d="M390.35 208.922H391.666V216.795H390.35V213.387H386.233V216.795H384.928V208.922H386.233V212.195H390.35V208.922Z" fill="#3BB34D"/>
<path d="M395.334 208.922H396.639V216.795H395.334V208.922Z" fill="#3BB34D"/>
<path d="M403.655 208.922C404.27 208.922 404.787 209.049 405.207 209.304C405.634 209.552 405.953 209.881 406.163 210.294C406.373 210.706 406.478 211.156 406.478 211.644C406.478 212.139 406.373 212.596 406.163 213.016C405.953 213.436 405.634 213.773 405.207 214.028C404.787 214.283 404.27 214.411 403.655 214.411H401.619V216.795H400.314V208.922H403.655ZM403.576 213.218C404.109 213.218 404.502 213.072 404.757 212.78C405.02 212.48 405.151 212.116 405.151 211.689C405.151 211.246 405.02 210.875 404.757 210.575C404.502 210.268 404.109 210.114 403.576 210.114H401.619V213.218H403.576Z" fill="#3BB34D"/>
<path fill-rule="evenodd" clip-rule="evenodd" d="M162.641 130.074C160.653 130.189 158.866 130.463 155.796 131.123C152.93 131.739 151.422 132.211 149.231 133.177C148.147 133.656 146.499 134.281 145.568 134.566C143.513 135.196 138.882 137.155 136.469 138.416C134.808 139.284 120.937 148.244 120.174 148.941C119.564 149.499 119.389 150.138 119.679 150.746C120.129 151.691 120.813 151.889 123.584 151.881C125.686 151.874 126.202 151.817 127.559 151.444C128.417 151.208 132.512 149.588 136.659 147.843C146.886 143.539 147.895 143.148 150.4 142.51C152.067 142.086 153.045 141.936 154.588 141.866C158.45 141.691 160.526 142.283 166.184 145.172C168.354 146.28 171.062 147.606 172.201 148.119C174.962 149.362 176.478 150.249 177.636 151.297C179.08 152.605 179.343 153.315 178.803 154.449C178.435 155.222 177.634 155.616 173.715 156.95C169.456 158.401 168.638 158.781 167.105 160.017C163.728 162.741 162.664 165.769 164.177 168.351C164.711 169.262 165.014 169.402 166.657 169.496C168.899 169.623 170.099 169.207 173.791 167.019C176.332 165.514 178.251 164.589 182.21 162.963C187.78 160.675 187.344 160.783 196.383 159.451L201.376 158.715L203.872 157.735C205.245 157.196 206.936 156.53 207.629 156.256L208.889 155.756L209.873 153.419C210.414 152.134 212.138 148.544 213.704 145.442C215.269 142.34 216.602 139.637 216.665 139.436C216.768 139.109 216.681 139.025 215.845 138.655C212.525 137.186 198.896 134.457 193.001 134.081C190.228 133.904 189.567 133.798 182.451 132.388C171.814 130.281 167.59 129.788 162.641 130.074ZM153.852 142.625C152.531 142.764 151.202 143.362 149.783 144.455C148.712 145.279 145.615 148.459 142.712 151.715C138.311 156.65 136.765 159.107 137.427 160.117C138.375 161.565 140.635 161.129 143.589 158.928C145.485 157.515 146.012 157.008 148.39 154.306C153.393 148.622 155.288 147.155 157.021 147.622C157.359 147.713 157.669 147.844 157.712 147.913C157.755 147.983 157.196 148.542 156.471 149.157C152.527 152.5 148.493 156.638 148.142 157.701C147.724 158.968 148.395 159.471 150.139 159.197C152.264 158.864 153.769 158.018 158.186 154.676C160.06 153.258 162.029 151.871 162.56 151.594C163.455 151.127 163.64 151.091 165.057 151.106C167.855 151.137 173.232 152.281 176 153.435C177.318 153.984 177.553 154.038 177.752 153.839C178.178 153.413 178.023 152.789 177.309 152.062C176.419 151.154 174.69 150.142 171.392 148.6C169.901 147.903 167.195 146.579 165.379 145.658C160.258 143.062 157.238 142.267 153.852 142.625ZM143.314 145.987C134.231 150.286 133.302 150.748 131.637 151.798C130.751 152.356 129.423 153.284 128.685 153.86C126.515 155.553 125.935 156.673 126.786 157.524C127.913 158.652 131.984 158.709 134.098 157.626C135.182 157.071 139.277 153.923 140.568 152.652C142.733 150.519 147.222 145.814 148.107 144.749C148.905 143.788 149.105 143.424 148.83 143.43C148.763 143.432 146.281 144.582 143.314 145.987Z" fill="#74349A"/>
<path d="M114.557 192.586C116.649 191.37 117.868 190.823 119.072 190.563C119.873 190.39 122.136 190.518 122.595 190.763C123.013 190.985 123.242 191.264 123.697 192.1C123.971 192.603 124.049 193.025 124.056 194.032C124.063 195.16 123.999 195.458 123.544 196.418C122.698 198.206 120.181 200.585 118.186 201.483C117.699 201.703 115.839 202.377 114.052 202.981C110.828 204.072 109.384 204.682 109.058 205.093C108.964 205.21 108.8 205.579 108.693 205.911C108.417 206.767 108.673 207.405 109.692 208.399C110.819 209.498 112.065 210.273 114.567 211.43C115.713 211.96 118.681 213.414 121.163 214.662C125.445 216.815 127.194 217.523 129.266 217.939C130.491 218.186 133.859 218.151 135.439 217.875C138.429 217.354 139.69 216.886 151.51 211.92C155.445 210.267 159.178 208.776 159.804 208.608C162.701 207.831 165.881 207.757 167.094 208.439C167.822 208.848 168.203 209.505 168.054 210.096C168.004 210.298 167.687 210.722 167.351 211.038C166.495 211.846 153.074 220.573 151.119 221.594C148.843 222.782 144.178 224.746 142.182 225.356C141.252 225.64 139.601 226.264 138.513 226.743C136.002 227.848 134.015 228.436 130.449 229.13C126.648 229.868 124.131 230.097 121.275 229.964C116.878 229.759 114.261 229.369 104.98 227.533C98.63 226.278 95.8248 225.842 94.0965 225.842C91.1909 225.842 77.6693 223.28 73.5767 221.954C71.5972 221.312 71 221.002 71 220.616C71 220.421 71.5838 219.143 72.2972 217.777C74.2605 214.017 76.973 208.431 77.8441 206.354C78.2713 205.335 78.6998 204.416 78.7963 204.312C78.8928 204.208 80.566 203.495 82.5147 202.727L86.0576 201.332L92.3384 200.389C99.2549 199.35 99.9063 199.21 102.484 198.209C108.175 196 110.735 194.808 114.557 192.586Z" fill="#74349A"/>
<path d="M139.778 205.065C142.355 202.056 145.574 199.613 147.614 199.115C148.769 198.834 149.909 199.214 150.267 200C150.863 201.309 148.403 204.649 141.175 212.342C137.756 215.983 135.808 217.237 133.302 217.414C130.119 217.637 127.179 216.808 122.057 214.24C120.15 213.284 117.02 211.737 115.103 210.804C112.216 209.398 111.449 208.95 110.634 208.196C109.6 207.239 109.414 206.739 109.863 206.125C110.067 205.846 110.101 205.847 110.709 206.156C113.134 207.391 119.889 208.931 122.877 208.93C124.353 208.93 125.331 208.407 128.913 205.701C132.715 202.829 133.955 202.014 135.506 201.368C137.081 200.712 138.805 200.526 139.284 200.959C139.669 201.308 139.691 201.809 139.357 202.609C139.047 203.35 135.014 207.449 131.977 210.109L129.743 212.065L130.205 212.262C131.191 212.683 132.104 212.454 133.575 211.418C134.696 210.627 137.281 207.98 139.778 205.065Z" fill="#74349A"/>
<path d="M150.496 204.479C153.11 202.515 154.169 201.935 155.555 201.705C158.282 201.253 160.987 201.886 161.278 203.045C161.417 203.598 161.01 204.246 159.831 205.349C157.754 207.292 155.096 208.865 148.865 211.84C141.322 215.441 138.734 216.639 138.655 216.566C138.417 216.344 140.564 213.946 145.548 208.868C147.361 207.021 148.737 205.8 150.496 204.479Z" fill="#74349A"/>
<path fill-rule="evenodd" clip-rule="evenodd" d="M128.029 165.274C124.8 165.954 121.686 168.282 120.362 171.008C119.935 171.888 119.635 173.163 119.563 174.413C119.273 179.429 122.114 185.016 128.158 191.314L131.329 194.618L131.379 192.793C131.406 191.79 131.411 190.862 131.39 190.731C131.312 190.26 132.279 188.714 132.942 188.249C133.314 187.988 134.104 187.775 134.698 187.775C137.04 187.775 138.04 189.349 138.04 193.035C138.04 195.123 138.141 195.681 138.595 196.092C138.901 196.369 139.243 196.596 139.355 196.596C139.467 196.596 139.558 193.776 139.558 190.33V184.064L140.591 183.029C141.705 181.915 142.838 181.703 144.248 182.346C145.851 183.078 146.064 183.844 146.235 189.5L146.393 194.723L147.336 193.878C148.182 193.121 148.296 192.81 148.433 190.891C148.613 188.365 149.356 187.085 150.943 186.56C153.066 185.858 155.051 187.613 155.051 190.193C155.051 190.87 155.119 191.425 155.203 191.425C155.724 191.425 159.888 186.119 161.29 183.668C161.768 182.832 162.428 181.961 162.428 181.961C162.428 181.961 162.776 180.843 163.059 179.992C164.319 176.192 164.265 173.294 162.882 170.521C160.482 165.709 152.744 163.542 147.33 166.166C145.845 166.886 143.907 168.751 142.626 170.693L141.755 172.014L140.621 170.304C139.224 168.197 137.348 166.623 135.305 165.846C133.476 165.15 129.94 164.872 128.029 165.274ZM144.132 176.473C145.572 177.64 144.625 180.17 142.748 180.17C142.367 180.17 141.745 179.918 141.364 179.609C139.924 178.442 140.871 175.912 142.748 175.912C143.129 175.912 143.751 176.164 144.132 176.473ZM152.867 180.79C154.239 182.07 153.306 184.429 151.428 184.429C150.444 184.429 149.279 183.244 149.279 182.245C149.279 181.435 150.625 180.17 151.486 180.17C151.88 180.17 152.501 180.449 152.867 180.79ZM135.168 182.438C136.079 183.35 136.11 184.096 135.284 185.148C134.073 186.69 131.661 185.895 131.661 183.955C131.661 181.88 133.721 180.989 135.168 182.438Z" fill="#3BB34D"/>
</svg>
