<svg width="216" height="60" viewBox="0 0 216 60" fill="none" xmlns="http://www.w3.org/2000/svg">
<path d="M72.9865 26.4775C70.7229 26.4775 68.4789 26.4775 66.235 26.4775V28.8986H70.3882V34.3707C70.3882 36.4571 69.2859 38.0909 66.9239 38.0909C64.5815 38.0909 63.4399 36.8902 63.4399 34.5281H60.881C60.881 38.4255 63.4005 40.5317 66.9239 40.5317C70.7229 40.5317 72.9865 37.9334 72.9865 34.3707V26.4775Z" fill="#285185"/>
<path d="M80.017 30.3552C76.9266 30.3552 74.9976 32.6385 74.9976 35.4139C74.9976 38.209 76.8873 40.4726 80.0367 40.4726C83.1861 40.4726 85.0954 38.209 85.0954 35.4139C85.0954 32.6385 83.1073 30.3552 80.017 30.3552ZM80.0367 32.5401C81.6507 32.5401 82.6743 33.9573 82.6743 35.4139C82.6743 36.8902 81.7885 38.268 80.0367 38.268C78.2848 38.268 77.399 36.8902 77.399 35.4139C77.399 33.9573 78.3045 32.5401 80.0367 32.5401Z" fill="#285185"/>
<path d="M94.0609 30.552L92.2893 34.8037L91.2855 37.4807L90.3603 34.7447L88.884 30.552H86.0889L89.9666 40.0986L88.1557 44.311H90.7934L96.7182 30.552H94.0609Z" fill="#285185"/>
<path d="M101.551 40.2561V32.796H104.406V30.6898H101.551V30.0402C101.551 28.8592 102.181 28.3081 103.008 28.3081C103.5 28.3081 103.973 28.4852 104.484 28.8198L105.37 27.0286C104.583 26.5168 103.697 26.2413 102.851 26.2413C100.902 26.2413 99.15 27.442 99.15 30.0402V30.6898H97.3391V32.796H99.15V40.2561H101.551Z" fill="#285185"/>
<path d="M106.331 30.552V35.6501C106.331 38.6617 108.024 40.4136 110.347 40.4136C111.705 40.4136 112.63 39.9412 113.634 38.957L113.792 40.2758H115.937V30.552H113.555V35.5123C113.555 36.9886 112.551 38.2287 111.075 38.2287C109.54 38.2287 108.733 37.1067 108.733 35.6304V30.552H106.331Z" fill="#285185"/>
<path d="M118.449 26.4972V40.2561H120.831V26.4972H118.449Z" fill="#285185"/>
<path d="M138.245 36.7327C137.34 37.6382 135.981 38.1303 134.781 38.1303C131.375 38.1303 130.057 35.7485 130.037 33.4652C130.017 31.1622 131.454 28.6821 134.781 28.6821C135.981 28.6821 137.202 29.0954 138.107 29.9812L139.839 28.3081C138.422 26.9105 136.651 26.2019 134.781 26.2019C129.801 26.2019 127.458 29.8631 127.478 33.4652C127.498 37.0477 129.663 40.571 134.781 40.571C136.769 40.571 138.599 39.9215 140.017 38.5239L138.245 36.7327Z" fill="#285185"/>
<path d="M148.892 31.8905C148.341 30.926 147.101 30.3158 145.802 30.3158C142.968 30.2961 140.743 32.048 140.743 35.3942C140.743 38.7995 142.869 40.571 145.743 40.5514C146.826 40.5317 148.341 39.9805 148.892 38.8389L149.011 40.2561H151.274V30.552H148.971L148.892 31.8905ZM146.019 32.4613C149.798 32.4613 149.798 38.3468 146.019 38.3468C144.424 38.3468 143.145 37.2445 143.145 35.3942C143.145 33.5439 144.424 32.4613 146.019 32.4613Z" fill="#285185"/>
<path d="M153.702 30.552V40.2561H156.103V35.1383C156.103 33.3471 157.264 32.6779 158.524 32.6779C159.312 32.6779 159.764 32.8944 160.256 33.3077L161.339 31.2213C160.808 30.6898 159.843 30.2961 158.839 30.2961C157.855 30.2961 156.851 30.4733 156.103 31.674L155.926 30.552H153.702Z" fill="#285185"/>
<path d="M172.255 36.2603C172.629 32.2645 170.602 30.2568 167.354 30.2568C164.205 30.2568 162.197 32.3826 162.197 35.3352C162.197 38.4452 164.185 40.512 167.531 40.512C169.008 40.512 170.681 40.0002 171.704 38.9373L170.169 37.4216C169.618 37.9925 168.457 38.3271 167.571 38.3271C165.878 38.3271 164.835 37.461 164.677 36.2603H172.255ZM164.717 34.2722C165.071 33.0125 166.134 32.3826 167.433 32.3826C168.811 32.3826 169.795 33.0125 169.952 34.2722H164.717Z" fill="#285185"/>
<path d="M179.049 26.4775V40.2561H188.734V37.8547H181.648V26.4775H179.049Z" fill="#285185"/>
<path d="M190.957 26.4775V40.2561H200.642V37.8547H193.556V26.4775H190.957Z" fill="#285185"/>
<path d="M213.239 36.7327C212.333 37.6382 210.975 38.1303 209.774 38.1303C206.369 38.1303 205.05 35.7485 205.03 33.4652C205.011 31.1622 206.448 28.6821 209.774 28.6821C210.975 28.6821 212.195 29.0954 213.101 29.9812L214.833 28.3081C213.416 26.9105 211.644 26.2019 209.774 26.2019C204.794 26.2019 202.452 29.8631 202.472 33.4652C202.491 37.0477 204.656 40.571 209.774 40.571C211.762 40.571 213.593 39.9215 215.01 38.5239L213.239 36.7327Z" fill="#285185"/>
<path d="M64.1339 47.3527H64.9235V52.0768H64.1339V50.0319H61.6638V52.0768H60.881V47.3527H61.6638V49.3166H64.1339V47.3527Z" fill="#D67940"/>
<path d="M69.2302 52.178C68.7578 52.178 68.3371 52.0768 67.9682 51.8743C67.6038 51.6674 67.3203 51.3794 67.1178 51.0105C66.9154 50.6371 66.8142 50.2097 66.8142 49.7282C66.8142 49.2378 66.9154 48.8059 67.1178 48.4325C67.3248 48.0591 67.615 47.7689 67.9884 47.5619C68.3619 47.3549 68.7915 47.2515 69.2774 47.2515C69.7498 47.2515 70.1683 47.3549 70.5327 47.5619C70.8971 47.7644 71.1806 48.0523 71.383 48.4257C71.5855 48.7947 71.6867 49.2198 71.6867 49.7012C71.6867 50.1917 71.5832 50.6236 71.3763 50.997C71.1738 51.3704 70.8859 51.6606 70.5125 51.8676C70.1435 52.0745 69.7161 52.178 69.2302 52.178ZM69.2437 51.4559C69.5631 51.4559 69.8466 51.3839 70.094 51.24C70.3415 51.0915 70.5327 50.8868 70.6677 50.6258C70.8071 50.3649 70.8769 50.0657 70.8769 49.7282C70.8769 49.3818 70.8094 49.0759 70.6744 48.8104C70.5394 48.545 70.3482 48.3403 70.1008 48.1963C69.8578 48.0478 69.5766 47.9736 69.2572 47.9736C68.9378 47.9736 68.6543 48.0478 68.4069 48.1963C68.1594 48.3403 67.9659 48.5427 67.8265 48.8037C67.6915 49.0646 67.624 49.3638 67.624 49.7012C67.624 50.0477 67.6915 50.3536 67.8265 50.6191C67.9614 50.8845 68.1504 51.0915 68.3934 51.24C68.6408 51.3839 68.9243 51.4559 69.2437 51.4559Z" fill="#D67940"/>
<path d="M78.5799 47.3527V52.0768H77.7971V49.1748C77.7971 48.9859 77.8038 48.8284 77.8173 48.7024L77.8038 48.6957C77.7633 48.7677 77.6823 48.8937 77.5609 49.0736L77.4596 49.2221L76.2111 51.0712H75.9412L74.7061 49.2288C74.6207 49.1074 74.5059 48.9386 74.362 48.7227L74.3417 48.7294C74.3552 48.8554 74.362 49.0129 74.362 49.2018V52.0768H73.5791V47.3527H74.3485L76.0829 49.951L77.8173 47.3527H78.5799Z" fill="#D67940"/>
<path d="M81.5612 51.3547H84.0852V52.0768H80.7784V47.3527H84.0447V48.0613H81.5612V49.3301H83.93V50.0319H81.5612V51.3547Z" fill="#D67940"/>
<path d="M91.054 47.3527V52.0768H90.2711V49.1748C90.2711 48.9859 90.2779 48.8284 90.2913 48.7024L90.2779 48.6957C90.2374 48.7677 90.1564 48.8937 90.0349 49.0736L89.9337 49.2221L88.6852 51.0712H88.4152L87.1802 49.2288C87.0947 49.1074 86.98 48.9386 86.836 48.7227L86.8158 48.7294C86.8293 48.8554 86.836 49.0129 86.836 49.2018V52.0768H86.0532V47.3527H86.8225L88.5569 49.951L90.2913 47.3527H91.054Z" fill="#D67940"/>
<path d="M96.9035 52.0768L96.458 51.0915H93.9813L93.5358 52.0768H92.6855L94.7911 47.3527H95.6617L97.7673 52.0768H96.9035ZM94.2782 50.3896H96.1611L95.5335 48.8779C95.5155 48.8419 95.493 48.7879 95.466 48.7159C95.322 48.3785 95.2433 48.1828 95.2298 48.1288H95.2163L95.1555 48.2705L94.8991 48.8847L94.2782 50.3896Z" fill="#D67940"/>
<path d="M103.291 52.0768H102.231L100.612 50.3964C100.387 50.1579 100.245 50.0004 100.187 49.924L100.173 49.9307C100.182 50.0162 100.187 50.1759 100.187 50.4099V52.0768H99.4037V47.3527H100.187V48.9184C100.187 49.1524 100.182 49.3121 100.173 49.3976L100.187 49.4043C100.385 49.1793 100.538 49.0061 100.646 48.8847L102.069 47.3527H103.082L100.936 49.6405L103.291 52.0768Z" fill="#D67940"/>
<path d="M104.784 47.3527H105.567V52.0768H104.784V47.3527Z" fill="#D67940"/>
<path d="M108.528 47.3527L110.66 50.2749L111.032 50.8013L111.045 50.7945C111.032 50.6596 111.025 50.4863 111.025 50.2749V47.3527H111.808V52.0768H111.052L108.919 49.1546C108.73 48.8937 108.606 48.7182 108.548 48.6282L108.528 48.635C108.546 48.8059 108.555 48.9791 108.555 49.1546V52.0768H107.772V47.3527H108.528Z" fill="#D67940"/>
<path d="M118.051 49.3908V51.3952C117.79 51.6561 117.502 51.8518 117.188 51.9823C116.873 52.1083 116.519 52.1713 116.128 52.1713C115.647 52.1713 115.221 52.07 114.853 51.8676C114.488 51.6651 114.205 51.3794 114.002 51.0105C113.8 50.6416 113.698 50.2142 113.698 49.7282C113.698 49.2513 113.804 48.8262 114.016 48.4527C114.227 48.0748 114.522 47.7801 114.9 47.5687C115.282 47.3572 115.714 47.2515 116.195 47.2515C116.528 47.2515 116.841 47.3077 117.134 47.4202C117.426 47.5282 117.685 47.6789 117.91 47.8723L117.471 48.4527C117.093 48.1378 116.67 47.9803 116.202 47.9803C115.865 47.9803 115.566 48.0523 115.305 48.1963C115.048 48.3403 114.848 48.5427 114.704 48.8037C114.565 49.0601 114.495 49.3593 114.495 49.7012C114.495 50.0567 114.562 50.3671 114.697 50.6326C114.832 50.8935 115.026 51.096 115.278 51.24C115.53 51.3794 115.822 51.4492 116.155 51.4492C116.384 51.4492 116.594 51.4199 116.783 51.3614C116.972 51.2984 117.154 51.2017 117.329 51.0712V50.0792H116.013V49.3908H118.051Z" fill="#D67940"/>
<path d="M126.009 52.1308L125.428 51.5706C125.23 51.7506 125.001 51.8946 124.74 52.0026C124.479 52.106 124.198 52.1578 123.896 52.1578C123.577 52.1578 123.3 52.1038 123.066 51.9958C122.837 51.8878 122.661 51.7439 122.54 51.5639C122.418 51.3839 122.358 51.186 122.358 50.97C122.358 50.7001 122.439 50.4459 122.601 50.2074C122.767 49.9644 123.014 49.7485 123.343 49.5595C123.001 49.1816 122.83 48.8149 122.83 48.4595C122.83 48.2435 122.886 48.0456 122.999 47.8656C123.116 47.6811 123.28 47.5349 123.491 47.4269C123.707 47.319 123.955 47.265 124.234 47.265C124.477 47.265 124.693 47.3145 124.882 47.4134C125.071 47.5079 125.217 47.6406 125.32 47.8116C125.424 47.9826 125.475 48.1738 125.475 48.3852C125.475 48.8802 125.145 49.3143 124.483 49.6878L125.381 50.5651C125.466 50.4076 125.534 50.2501 125.583 50.0927C125.633 49.9307 125.662 49.7867 125.671 49.6608L126.346 49.7485C126.333 49.951 126.285 50.1692 126.204 50.4031C126.128 50.6371 126.024 50.8553 125.894 51.0577L126.501 51.6516L126.009 52.1308ZM124.2 47.9196C124.002 47.9196 123.845 47.9736 123.728 48.0816C123.615 48.185 123.559 48.3088 123.559 48.4527C123.559 48.5922 123.593 48.7159 123.66 48.8239C123.732 48.9319 123.856 49.0714 124.031 49.2423C124.265 49.1119 124.443 48.9836 124.564 48.8577C124.686 48.7272 124.747 48.581 124.747 48.419C124.747 48.275 124.697 48.1558 124.598 48.0613C124.499 47.9668 124.366 47.9196 124.2 47.9196ZM123.93 51.4829C124.285 51.4829 124.623 51.3569 124.942 51.105L123.795 50.0049C123.575 50.1264 123.408 50.2659 123.296 50.4234C123.183 50.5808 123.127 50.7405 123.127 50.9025C123.127 51.06 123.199 51.1972 123.343 51.3142C123.491 51.4267 123.687 51.4829 123.93 51.4829Z" fill="#D67940"/>
<path d="M132.859 52.1713C132.373 52.1713 131.941 52.0678 131.563 51.8608C131.185 51.6539 130.891 51.3659 130.679 50.997C130.472 50.6236 130.369 50.2007 130.369 49.7282C130.369 49.2513 130.475 48.8262 130.686 48.4527C130.897 48.0748 131.192 47.7824 131.57 47.5754C131.953 47.3639 132.384 47.2582 132.866 47.2582C133.194 47.2582 133.503 47.3167 133.79 47.4337C134.083 47.5462 134.346 47.7104 134.58 47.9263L134.121 48.5135C133.928 48.338 133.727 48.2098 133.521 48.1288C133.314 48.0433 133.091 48.0006 132.852 48.0006C132.524 48.0006 132.234 48.0726 131.982 48.2165C131.73 48.356 131.532 48.5562 131.388 48.8172C131.248 49.0736 131.179 49.3683 131.179 49.7012C131.179 50.0387 131.251 50.3379 131.395 50.5988C131.539 50.8598 131.739 51.0645 131.995 51.213C132.252 51.3569 132.544 51.4289 132.873 51.4289C133.12 51.4289 133.35 51.3907 133.561 51.3142C133.772 51.2332 133.973 51.1072 134.162 50.9363L134.621 51.5234C134.166 51.9553 133.579 52.1713 132.859 52.1713Z" fill="#D67940"/>
<path d="M138.383 52.178C137.91 52.178 137.49 52.0768 137.121 51.8743C136.756 51.6674 136.473 51.3794 136.27 51.0105C136.068 50.6371 135.967 50.2097 135.967 49.7282C135.967 49.2378 136.068 48.8059 136.27 48.4325C136.477 48.0591 136.767 47.7689 137.141 47.5619C137.514 47.3549 137.944 47.2515 138.43 47.2515C138.902 47.2515 139.321 47.3549 139.685 47.5619C140.05 47.7644 140.333 48.0523 140.535 48.4257C140.738 48.7947 140.839 49.2198 140.839 49.7012C140.839 50.1917 140.736 50.6236 140.529 50.997C140.326 51.3704 140.038 51.6606 139.665 51.8676C139.296 52.0745 138.869 52.178 138.383 52.178ZM138.396 51.4559C138.716 51.4559 138.999 51.3839 139.246 51.24C139.494 51.0915 139.685 50.8868 139.82 50.6258C139.96 50.3649 140.029 50.0657 140.029 49.7282C140.029 49.3818 139.962 49.0759 139.827 48.8104C139.692 48.545 139.501 48.3403 139.253 48.1963C139.01 48.0478 138.729 47.9736 138.41 47.9736C138.09 47.9736 137.807 48.0478 137.559 48.1963C137.312 48.3403 137.118 48.5427 136.979 48.8037C136.844 49.0646 136.776 49.3638 136.776 49.7012C136.776 50.0477 136.844 50.3536 136.979 50.6191C137.114 50.8845 137.303 51.0915 137.546 51.24C137.793 51.3839 138.077 51.4559 138.396 51.4559Z" fill="#D67940"/>
<path d="M147.732 47.3527V52.0768H146.949V49.1748C146.949 48.9859 146.956 48.8284 146.97 48.7024L146.956 48.6957C146.916 48.7677 146.835 48.8937 146.713 49.0736L146.612 49.2221L145.364 51.0712H145.094L143.859 49.2288C143.773 49.1074 143.658 48.9386 143.514 48.7227L143.494 48.7294C143.508 48.8554 143.514 49.0129 143.514 49.2018V52.0768H142.732V47.3527H143.501L145.235 49.951L146.97 47.3527H147.732Z" fill="#D67940"/>
<path d="M151.935 47.3527C152.304 47.3527 152.615 47.4292 152.866 47.5822C153.123 47.7306 153.314 47.9286 153.44 48.176C153.566 48.4235 153.629 48.6934 153.629 48.9859C153.629 49.2828 153.566 49.5573 153.44 49.8092C153.314 50.0612 153.123 50.2636 152.866 50.4166C152.615 50.5696 152.304 50.6461 151.935 50.6461H150.714V52.0768H149.931V47.3527H151.935ZM151.888 49.9307C152.207 49.9307 152.444 49.843 152.597 49.6675C152.754 49.4875 152.833 49.2693 152.833 49.0129C152.833 48.7474 152.754 48.5247 152.597 48.3448C152.444 48.1603 152.207 48.0681 151.888 48.0681H150.714V49.9307H151.888Z" fill="#D67940"/>
<path d="M158.712 52.0768L158.266 51.0915H155.789L155.344 52.0768H154.494L156.599 47.3527H157.47L159.575 52.0768H158.712ZM156.086 50.3896H157.969L157.342 48.8779C157.324 48.8419 157.301 48.7879 157.274 48.7159C157.13 48.3785 157.051 48.1828 157.038 48.1288H157.024L156.964 48.2705L156.707 48.8847L156.086 50.3896Z" fill="#D67940"/>
<path d="M161.968 47.3527L164.1 50.2749L164.472 50.8013L164.485 50.7945C164.472 50.6596 164.465 50.4863 164.465 50.2749V47.3527H165.248V52.0768H164.492L162.359 49.1546C162.17 48.8937 162.047 48.7182 161.988 48.6282L161.968 48.635C161.986 48.8059 161.995 48.9791 161.995 49.1546V52.0768H161.212V47.3527H161.968Z" fill="#D67940"/>
<path d="M167.449 47.3527H168.232V52.0768H167.449V47.3527Z" fill="#D67940"/>
<path d="M172.542 52.178C172.07 52.178 171.649 52.0768 171.28 51.8743C170.916 51.6674 170.633 51.3794 170.43 51.0105C170.228 50.6371 170.126 50.2097 170.126 49.7282C170.126 49.2378 170.228 48.8059 170.43 48.4325C170.637 48.0591 170.927 47.7689 171.301 47.5619C171.674 47.3549 172.104 47.2515 172.59 47.2515C173.062 47.2515 173.481 47.3549 173.845 47.5619C174.209 47.7644 174.493 48.0523 174.695 48.4257C174.898 48.7947 174.999 49.2198 174.999 49.7012C174.999 50.1917 174.896 50.6236 174.689 50.997C174.486 51.3704 174.198 51.6606 173.825 51.8676C173.456 52.0745 173.028 52.178 172.542 52.178ZM172.556 51.4559C172.875 51.4559 173.159 51.3839 173.406 51.24C173.654 51.0915 173.845 50.8868 173.98 50.6258C174.119 50.3649 174.189 50.0657 174.189 49.7282C174.189 49.3818 174.122 49.0759 173.987 48.8104C173.852 48.545 173.661 48.3403 173.413 48.1963C173.17 48.0478 172.889 47.9736 172.569 47.9736C172.25 47.9736 171.967 48.0478 171.719 48.1963C171.472 48.3403 171.278 48.5427 171.139 48.8037C171.004 49.0646 170.936 49.3638 170.936 49.7012C170.936 50.0477 171.004 50.3536 171.139 50.6191C171.274 50.8845 171.463 51.0915 171.706 51.24C171.953 51.3839 172.237 51.4559 172.556 51.4559Z" fill="#D67940"/>
<path d="M177.647 47.3527L179.78 50.2749L180.151 50.8013L180.165 50.7945C180.151 50.6596 180.144 50.4863 180.144 50.2749V47.3527H180.927V52.0768H180.171L178.039 49.1546C177.85 48.8937 177.726 48.7182 177.667 48.6282L177.647 48.635C177.665 48.8059 177.674 48.9791 177.674 49.1546V52.0768H176.891V47.3527H177.647Z" fill="#D67940"/>
<path d="M184.681 52.1713C184.321 52.1713 183.981 52.1173 183.662 52.0093C183.347 51.8968 183.074 51.7439 182.845 51.5504L183.223 50.9498C183.43 51.1027 183.657 51.2242 183.905 51.3142C184.156 51.4042 184.415 51.4492 184.681 51.4492C184.987 51.4492 185.236 51.3817 185.43 51.2467C185.628 51.1117 185.727 50.9295 185.727 50.7001C185.727 50.4976 185.643 50.3356 185.477 50.2142C185.31 50.0927 185.032 50.0049 184.64 49.951C184.078 49.8745 183.659 49.7305 183.385 49.519C183.115 49.3031 182.98 49.0129 182.98 48.6484C182.98 48.374 183.054 48.1333 183.203 47.9263C183.356 47.7149 183.563 47.5507 183.824 47.4337C184.089 47.3167 184.386 47.2582 184.714 47.2582C185.025 47.2582 185.31 47.2987 185.571 47.3797C185.832 47.4562 186.084 47.5844 186.327 47.7644L185.929 48.338C185.763 48.212 185.574 48.1175 185.362 48.0546C185.155 47.9916 184.946 47.9601 184.735 47.9601C184.456 47.9601 184.224 48.0208 184.039 48.1423C183.86 48.2593 183.77 48.4145 183.77 48.608C183.77 48.7879 183.851 48.9274 184.012 49.0264C184.179 49.1209 184.456 49.2018 184.843 49.2693C185.432 49.3638 185.857 49.528 186.118 49.762C186.384 49.9914 186.516 50.2996 186.516 50.6866C186.516 50.988 186.44 51.2512 186.287 51.4762C186.134 51.7011 185.918 51.8743 185.639 51.9958C185.36 52.1128 185.041 52.1713 184.681 52.1713Z" fill="#D67940"/>
<path d="M191.61 47.3527H192.4V52.0768H191.61V50.0319H189.14V52.0768H188.357V47.3527H189.14V49.3166H191.61V47.3527Z" fill="#D67940"/>
<path d="M194.601 47.3527H195.384V52.0768H194.601V47.3527Z" fill="#D67940"/>
<path d="M199.593 47.3527C199.962 47.3527 200.272 47.4292 200.524 47.5822C200.781 47.7306 200.972 47.9286 201.098 48.176C201.224 48.4235 201.287 48.6934 201.287 48.9859C201.287 49.2828 201.224 49.5573 201.098 49.8092C200.972 50.0612 200.781 50.2636 200.524 50.4166C200.272 50.5696 199.962 50.6461 199.593 50.6461H198.371V52.0768H197.589V47.3527H199.593ZM199.546 49.9307C199.865 49.9307 200.101 49.843 200.254 49.6675C200.412 49.4875 200.491 49.2693 200.491 49.0129C200.491 48.7474 200.412 48.5247 200.254 48.3448C200.101 48.1603 199.865 48.0681 199.546 48.0681H198.371V49.9307H199.546Z" fill="#D67940"/>
<path fill-rule="evenodd" clip-rule="evenodd" d="M54.9845 0.0445757C53.7918 0.113517 52.7196 0.277701 50.8775 0.673656C49.1578 1.04321 48.2534 1.32633 46.9385 1.90648C46.2881 2.19356 45.2992 2.56834 44.7411 2.73939C43.5077 3.11746 40.7291 4.29314 39.2812 5.04966C38.285 5.57016 29.9621 10.9464 29.5046 11.3648C29.1387 11.6996 29.0337 12.0827 29.2077 12.4479C29.4777 13.0144 29.888 13.1336 31.5503 13.1283C32.8118 13.1243 33.1213 13.0902 33.9355 12.8665C34.4501 12.725 36.9071 11.7526 39.3954 10.7056C45.5317 8.12361 46.1373 7.88865 47.6402 7.50623C48.6402 7.25174 49.2269 7.16152 50.1527 7.11956C52.4699 7.01474 53.7155 7.36989 57.1105 9.1033C58.4127 9.76816 60.0371 10.5638 60.7204 10.8714C62.3771 11.6172 63.2871 12.1493 63.9819 12.7785C64.8483 13.563 65.0061 13.9893 64.6821 14.6692C64.461 15.1332 63.9806 15.3694 61.629 16.1703C59.0737 17.0406 58.5826 17.2684 57.6631 18.0102C55.637 19.6444 54.9987 21.4612 55.9063 23.0107C56.2265 23.5574 56.4085 23.6414 57.3945 23.6976C58.7396 23.774 59.4597 23.5241 61.6747 22.2116C63.1995 21.3081 64.3505 20.7536 66.7257 19.778C70.0683 18.4052 69.8064 18.4701 75.2297 17.6705L78.2254 17.2288L79.7233 16.641C80.5471 16.3176 81.5614 15.9182 81.9772 15.7533L82.7332 15.4536L83.3238 14.0515C83.6487 13.2804 84.683 11.1266 85.6223 9.26526C86.5615 7.40393 87.3612 5.78221 87.3992 5.66134C87.4611 5.46515 87.4084 5.41506 86.9068 5.19306C84.9151 4.3118 76.7375 2.67422 73.2003 2.44835C71.5366 2.34218 71.1403 2.27856 66.8707 1.43298C60.4882 0.168826 57.9542 -0.12715 54.9845 0.0445757ZM49.7113 7.57479C48.9189 7.65852 48.121 8.01735 47.2698 8.67273C46.627 9.1676 44.7688 11.0755 43.027 13.0288C40.3867 15.99 39.4593 17.4644 39.8561 18.0703C40.425 18.939 41.7812 18.6773 43.5533 17.3568C44.6909 16.5091 45.0073 16.2046 46.4343 14.5833C49.4359 11.1735 50.5726 10.2932 51.6128 10.5734C51.8151 10.6279 52.0017 10.7066 52.0273 10.748C52.053 10.7896 51.7177 11.1254 51.2824 11.4943C48.916 13.4998 46.4955 15.9826 46.2852 16.6204C46.0343 17.3808 46.437 17.6825 47.4836 17.5182C48.7587 17.3183 49.6614 16.8109 52.3117 14.8056C53.4362 13.9547 54.6173 13.1224 54.9362 12.9561C55.4731 12.6762 55.5838 12.6545 56.434 12.6638C58.113 12.6821 61.3395 13.3686 63.0003 14.0609C63.7911 14.3906 63.9316 14.423 64.0512 14.3035C64.307 14.0476 64.2139 13.6737 63.7855 13.237C63.2514 12.6924 62.2137 12.0854 60.2353 11.1602C59.3405 10.7418 57.7169 9.94733 56.6273 9.39483C53.5547 7.83692 51.7429 7.36013 49.7113 7.57479ZM43.3882 9.59218C37.9385 12.1715 37.3814 12.4489 36.3821 13.0787C35.8506 13.4137 35.0537 13.9703 34.6112 14.3158C33.309 15.332 32.9609 16.0036 33.4715 16.5144C34.1477 17.191 36.5903 17.2252 37.8588 16.5758C38.5095 16.2427 40.9664 14.3536 41.7408 13.591C43.0399 12.3116 45.7334 9.48833 46.2642 8.84929C46.7431 8.27281 46.8629 8.05448 46.698 8.05825C46.6581 8.05912 45.1687 8.7494 43.3882 9.59218Z" fill="#285185"/>
<path d="M26.1339 37.5516C27.3892 36.8218 28.1209 36.4941 28.843 36.3379C29.3237 36.234 30.6817 36.3108 30.9572 36.4575C31.2076 36.5908 31.3454 36.7582 31.6181 37.2598C31.7825 37.562 31.8295 37.8152 31.8334 38.4194C31.8378 39.096 31.7995 39.2748 31.5266 39.8508C31.0187 40.9235 29.5084 42.3512 28.3116 42.89C28.0193 43.0216 26.9032 43.426 25.8315 43.7886C23.8968 44.4431 23.0305 44.8093 22.8346 45.0556C22.7783 45.1262 22.6799 45.3471 22.6157 45.5464C22.4502 46.0601 22.6039 46.4428 23.2154 47.0393C23.8915 47.6988 24.6389 48.1636 26.1403 48.8579C26.8278 49.1758 28.6085 50.0486 30.0975 50.7972C32.6667 52.0891 33.7165 52.5137 34.9594 52.7637C35.6946 52.9114 37.7155 52.8904 38.6634 52.7251C40.4571 52.4123 41.2139 52.1319 48.3062 49.152C50.6672 48.16 52.9065 47.2658 53.2825 47.1649C55.0209 46.6985 56.9284 46.6541 57.6563 47.0633C58.0931 47.3088 58.3216 47.703 58.2326 48.0576C58.2021 48.1785 58.0124 48.4329 57.8109 48.623C57.2971 49.1073 49.2446 54.3439 48.0717 54.9562C46.7059 55.6694 43.9068 56.8475 42.7089 57.2134C42.1509 57.3838 41.1605 57.7583 40.5081 58.0456C39.0011 58.709 37.8091 59.0618 35.6697 59.4778C33.3887 59.921 31.8783 60.0584 30.1648 59.9785C27.5267 59.8554 25.9568 59.6212 20.3882 58.5201C16.578 57.7667 14.8949 57.5051 13.8579 57.5051C12.1146 57.5051 4.00159 55.9678 1.54602 55.1722C0.358291 54.7873 0 54.6013 0 54.3694C0 54.2523 0.350271 53.4858 0.778327 52.666C1.9563 50.41 3.58378 47.0583 4.10643 45.8121C4.36278 45.2009 4.61991 44.6497 4.67779 44.5872C4.73567 44.5247 5.73962 44.0968 6.9088 43.6363L9.03458 42.7992L12.803 42.2333C16.9529 41.6102 17.3438 41.5262 18.8905 40.9257C22.305 39.6002 23.8408 38.8848 26.1339 37.5516Z" fill="#285185"/>
<path d="M41.2668 45.039C42.813 43.2339 44.7442 41.7675 45.9685 41.4691C46.6615 41.3002 47.3452 41.5281 47.5601 41.9998C47.9179 42.7853 46.4416 44.7896 42.1053 49.4054C40.0533 51.5896 38.8846 52.3423 37.3814 52.4481C35.4713 52.5825 33.7076 52.0848 30.6345 50.544C29.4897 49.9702 27.612 49.0423 26.4618 48.4822C24.7295 47.6386 24.2692 47.37 23.7804 46.9174C23.1601 46.3431 23.0485 46.0432 23.3178 45.6747C23.4401 45.5074 23.4604 45.5081 23.8251 45.6937C25.2805 46.4345 29.3333 47.3585 31.1261 47.3582C32.0116 47.3581 32.5988 47.0439 34.7476 45.4206C37.0288 43.6971 37.773 43.2082 38.7036 42.8207C39.6488 42.4271 40.6831 42.3153 40.9706 42.5757C41.2014 42.7845 41.2146 43.0854 41.0141 43.5652C40.8284 44.0099 38.4082 46.4694 36.586 48.0654L35.2461 49.2389L35.5231 49.3572C36.1144 49.6098 36.6625 49.4724 37.5449 48.8506C38.2177 48.3765 39.7687 46.7881 41.2668 45.039Z" fill="#285185"/>
<path d="M47.6976 44.6875C49.2662 43.5093 49.9016 43.1609 50.7331 43.0231C52.3693 42.7517 53.9923 43.1318 54.1668 43.8271C54.2501 44.1591 54.0061 44.5475 53.2985 45.2095C52.0525 46.3752 50.4577 47.3192 46.7189 49.1041C42.1929 51.2648 40.6402 51.9836 40.5932 51.9398C40.4502 51.8067 41.7387 50.3676 44.7289 47.3207C45.8165 46.2124 46.6425 45.4799 47.6976 44.6875Z" fill="#285185"/>
<path fill-rule="evenodd" clip-rule="evenodd" d="M34.2174 21.1647C32.28 21.5726 30.4118 22.9695 29.6172 24.6051C29.3607 25.1325 29.1812 25.8976 29.1378 26.648C28.9638 29.6573 30.6683 33.0094 34.2949 36.7887L36.1971 38.7711L36.2272 37.676C36.2438 37.0738 36.2467 36.5169 36.2338 36.4386C36.1873 36.1561 36.7676 35.2283 37.1649 34.9496C37.3882 34.7928 37.8626 34.6647 38.2189 34.6647C39.6238 34.6647 40.2238 35.6095 40.2238 37.8211C40.2238 39.0736 40.2847 39.4084 40.5572 39.6553C40.7405 39.8214 40.9456 39.9573 41.0128 39.9573C41.0801 39.9573 41.1351 38.2655 41.1351 36.1977V32.4382L41.7548 31.8176C42.4228 31.1488 43.1028 31.0217 43.949 31.4077C44.9108 31.8467 45.0386 32.3066 45.1412 35.6999L45.236 38.834L45.8019 38.3268C46.3089 37.8724 46.3775 37.6857 46.4598 36.5345C46.5681 35.0191 47.0134 34.2508 47.966 33.936C49.2399 33.5149 50.4304 34.568 50.4304 36.1156C50.4304 36.5222 50.4716 36.8548 50.5221 36.8548C50.8346 36.8548 53.3327 33.6712 54.174 32.2009C54.4611 31.699 54.857 31.1767 54.857 31.1767C54.857 31.1767 55.0658 30.5058 55.2351 29.9953C55.9915 27.7153 55.9591 25.9762 55.1294 24.3125C53.6892 21.4251 49.0463 20.125 45.7981 21.6994C44.907 22.1314 43.744 23.2505 42.9756 24.4156L42.4529 25.2083L41.7728 24.1824C40.9346 22.918 39.8088 21.9737 38.5833 21.5074C37.4857 21.0899 35.3642 20.9234 34.2174 21.1647ZM43.8792 27.8836C44.7433 28.5842 44.1752 30.1021 43.0488 30.1021C42.8205 30.1021 42.4468 29.9506 42.2185 29.7656C41.3544 29.0649 41.9225 27.547 43.0488 27.547C43.2772 27.547 43.6509 27.6985 43.8792 27.8836ZM49.1201 30.4742C49.9434 31.2422 49.3837 32.6572 48.2566 32.6572C47.6664 32.6572 46.9674 31.9467 46.9674 31.3468C46.9674 30.861 47.775 30.1021 48.2917 30.1021C48.528 30.1021 48.9009 30.2696 49.1201 30.4742ZM38.5005 31.4627C39.0471 32.0098 39.0663 32.4573 38.5702 33.0888C37.8437 34.0137 36.3963 33.5372 36.3963 32.373C36.3963 31.128 37.6324 30.5932 38.5005 31.4627Z" fill="#D67940"/>
</svg>
