<svg width="748" height="209" viewBox="0 0 748 209" fill="none" xmlns="http://www.w3.org/2000/svg">
<path d="M253.574 92.3468C245.709 92.3468 237.913 92.3468 230.117 92.3468V100.758H244.547V119.77C244.547 127.019 240.717 132.695 232.511 132.695C224.373 132.695 220.406 128.523 220.406 120.317H211.516C211.516 133.857 220.27 141.175 232.511 141.175C245.709 141.175 253.574 132.148 253.574 119.77V92.3468Z" fill="#285185"/>
<path d="M277.999 105.819C267.263 105.819 260.561 113.752 260.561 123.394C260.561 133.105 267.126 140.969 278.068 140.969C289.01 140.969 295.643 133.105 295.643 123.394C295.643 113.752 288.736 105.819 277.999 105.819ZM278.068 113.41C283.675 113.41 287.232 118.334 287.232 123.394C287.232 128.523 284.154 133.31 278.068 133.31C271.981 133.31 268.904 128.523 268.904 123.394C268.904 118.334 272.05 113.41 278.068 113.41Z" fill="#285185"/>
<path d="M326.791 106.503L320.637 121.274L317.149 130.575L313.935 121.069L308.806 106.503H299.095L312.567 139.67L306.276 154.305H315.439L336.024 106.503H326.791Z" fill="#285185"/>
<path d="M352.816 140.217V114.299H362.732V106.981H352.816V104.725C352.816 100.622 355.004 98.7067 357.876 98.7067C359.586 98.7067 361.227 99.3222 363.005 100.485L366.083 94.2616C363.347 92.4836 360.27 91.5261 357.329 91.5261C350.559 91.5261 344.473 95.6977 344.473 104.725V106.981H338.181V114.299H344.473V140.217H352.816Z" fill="#285185"/>
<path d="M369.422 106.503V124.215C369.422 134.678 375.304 140.764 383.373 140.764C388.092 140.764 391.306 139.123 394.794 135.704L395.341 140.286H402.795V106.503H394.52V123.736C394.52 128.865 391.032 133.173 385.903 133.173C380.569 133.173 377.765 129.275 377.765 124.146V106.503H369.422Z" fill="#285185"/>
<path d="M411.523 92.4152V140.217H419.798V92.4152H411.523Z" fill="#285185"/>
<path d="M480.299 127.976C477.153 131.122 472.434 132.832 468.263 132.832C456.432 132.832 451.85 124.557 451.781 116.624C451.713 108.623 456.705 100.006 468.263 100.006C472.434 100.006 476.674 101.442 479.82 104.52L485.838 98.7067C480.914 93.8513 474.759 91.3894 468.263 91.3894C450.961 91.3894 442.823 104.109 442.891 116.624C442.96 129.07 450.482 141.311 468.263 141.311C475.17 141.311 481.53 139.055 486.453 134.199L480.299 127.976Z" fill="#285185"/>
<path d="M517.29 111.153C515.375 107.802 511.067 105.682 506.554 105.682C496.706 105.614 488.978 111.7 488.978 123.326C488.978 135.157 496.364 141.311 506.348 141.243C510.11 141.175 515.375 139.26 517.29 135.293L517.701 140.217H525.565V106.503H517.564L517.29 111.153ZM507.306 113.136C520.436 113.136 520.436 133.584 507.306 133.584C501.767 133.584 497.321 129.754 497.321 123.326C497.321 116.897 501.767 113.136 507.306 113.136Z" fill="#285185"/>
<path d="M533.999 106.503V140.217H542.342V122.437C542.342 116.214 546.377 113.888 550.754 113.888C553.489 113.888 555.062 114.641 556.772 116.077L560.533 108.828C558.686 106.981 555.335 105.614 551.848 105.614C548.428 105.614 544.941 106.229 542.342 110.401L541.727 106.503H533.999Z" fill="#285185"/>
<path d="M598.459 126.335C599.759 112.452 592.715 105.477 581.431 105.477C570.489 105.477 563.514 112.863 563.514 123.121C563.514 133.926 570.421 141.106 582.047 141.106C587.176 141.106 592.989 139.328 596.545 135.635L591.211 130.37C589.296 132.353 585.261 133.515 582.184 133.515C576.302 133.515 572.678 130.506 572.131 126.335H598.459ZM572.267 119.428C573.498 115.051 577.191 112.863 581.705 112.863C586.492 112.863 589.911 115.051 590.458 119.428H572.267Z" fill="#285185"/>
<path d="M622.063 92.3468V140.217H655.71V131.874H631.09V92.3468H622.063Z" fill="#285185"/>
<path d="M663.435 92.3468V140.217H697.081V131.874H672.462V92.3468H663.435Z" fill="#285185"/>
<path d="M740.845 127.976C737.699 131.122 732.981 132.832 728.809 132.832C716.978 132.832 712.396 124.557 712.328 116.624C712.26 108.623 717.252 100.006 728.809 100.006C732.981 100.006 737.221 101.442 740.367 104.52L746.385 98.7067C741.461 93.8513 735.306 91.3894 728.809 91.3894C711.507 91.3894 703.369 104.109 703.438 116.624C703.506 129.07 711.029 141.311 728.809 141.311C735.716 141.311 742.076 139.055 747 134.199L740.845 127.976Z" fill="#285185"/>
<mask id="path-2-outside-1_661_16" maskUnits="userSpaceOnUse" x="210.516" y="162.685" width="538" height="21" fill="black">
<rect fill="white" x="210.516" y="162.685" width="538" height="21"/>
<path d="M223.922 164.071H226.933V182.087H223.922V174.289H214.502V182.087H211.516V164.071H214.502V171.56H223.922V164.071Z"/>
<path d="M243.359 182.474C241.557 182.474 239.953 182.087 238.545 181.315C237.156 180.526 236.075 179.428 235.302 178.021C234.53 176.597 234.144 174.967 234.144 173.131C234.144 171.26 234.53 169.613 235.302 168.189C236.092 166.765 237.199 165.658 238.623 164.868C240.047 164.079 241.686 163.685 243.539 163.685C245.34 163.685 246.936 164.079 248.326 164.868C249.716 165.641 250.797 166.739 251.569 168.163C252.341 169.57 252.727 171.192 252.727 173.028C252.727 174.898 252.333 176.545 251.543 177.969C250.771 179.394 249.673 180.5 248.249 181.29C246.842 182.079 245.212 182.474 243.359 182.474ZM243.41 179.72C244.628 179.72 245.709 179.445 246.653 178.896C247.597 178.33 248.326 177.549 248.841 176.554C249.373 175.558 249.639 174.417 249.639 173.131C249.639 171.809 249.381 170.642 248.867 169.63C248.352 168.618 247.623 167.837 246.679 167.288C245.752 166.722 244.68 166.439 243.462 166.439C242.243 166.439 241.162 166.722 240.218 167.288C239.275 167.837 238.537 168.609 238.005 169.604C237.49 170.6 237.233 171.741 237.233 173.028C237.233 174.349 237.49 175.516 238.005 176.528C238.52 177.54 239.24 178.33 240.167 178.896C241.111 179.445 242.192 179.72 243.41 179.72Z"/>
<path d="M279.017 164.071V182.087H276.031V171.02C276.031 170.299 276.057 169.699 276.108 169.218L276.057 169.193C275.902 169.467 275.594 169.948 275.13 170.634L274.744 171.2L269.983 178.252H268.953L264.243 171.226C263.917 170.763 263.479 170.119 262.93 169.295L262.853 169.321C262.905 169.802 262.93 170.402 262.93 171.123V182.087H259.945V164.071H262.879L269.494 173.98L276.108 164.071H279.017Z"/>
<path d="M290.387 179.333H300.013V182.087H287.401V164.071H299.859V166.773H290.387V171.612H299.421V174.289H290.387V179.333Z"/>
<path d="M326.591 164.071V182.087H323.605V171.02C323.605 170.299 323.631 169.699 323.682 169.218L323.631 169.193C323.476 169.467 323.167 169.948 322.704 170.634L322.318 171.2L317.556 178.252H316.527L311.817 171.226C311.491 170.763 311.053 170.119 310.504 169.295L310.427 169.321C310.478 169.802 310.504 170.402 310.504 171.123V182.087H307.518V164.071H310.453L317.067 173.98L323.682 164.071H326.591Z"/>
<path d="M348.9 182.087L347.201 178.33H337.755L336.056 182.087H332.813L340.844 164.071H344.164L352.194 182.087H348.9ZM338.887 175.653H346.068L343.675 169.887C343.606 169.75 343.52 169.544 343.417 169.27C342.868 167.983 342.568 167.236 342.516 167.031H342.465L342.233 167.571L341.255 169.913L338.887 175.653Z"/>
<path d="M373.261 182.087H369.22L363.043 175.679C362.185 174.769 361.644 174.169 361.421 173.877L361.37 173.903C361.404 174.229 361.421 174.838 361.421 175.73V182.087H358.435V164.071H361.421V170.042C361.421 170.934 361.404 171.543 361.37 171.869L361.421 171.895C362.176 171.037 362.759 170.377 363.171 169.913L368.602 164.071H372.463L364.278 172.796L373.261 182.087Z"/>
<path d="M378.955 164.071H381.94V182.087H378.955V164.071Z"/>
<path d="M393.233 164.071L401.366 175.215L402.782 177.223L402.833 177.197C402.782 176.682 402.756 176.022 402.756 175.215V164.071H405.742V182.087H402.859L394.726 170.943C394.005 169.948 393.533 169.278 393.31 168.935L393.233 168.961C393.301 169.613 393.336 170.274 393.336 170.943V182.087H390.35V164.071H393.233Z"/>
<path d="M429.554 171.844V179.488C428.559 180.483 427.461 181.23 426.26 181.727C425.059 182.208 423.712 182.448 422.219 182.448C420.383 182.448 418.761 182.062 417.354 181.29C415.964 180.517 414.883 179.428 414.111 178.021C413.339 176.614 412.953 174.984 412.953 173.131C412.953 171.312 413.356 169.69 414.163 168.266C414.969 166.825 416.093 165.701 417.534 164.894C418.993 164.088 420.64 163.685 422.476 163.685C423.746 163.685 424.938 163.899 426.054 164.328C427.169 164.74 428.156 165.315 429.014 166.052L427.341 168.266C425.899 167.065 424.286 166.464 422.502 166.464C421.215 166.464 420.074 166.739 419.079 167.288C418.101 167.837 417.337 168.609 416.788 169.604C416.256 170.582 415.99 171.723 415.99 173.028C415.99 174.383 416.247 175.567 416.762 176.579C417.277 177.575 418.015 178.347 418.976 178.896C419.937 179.428 421.052 179.694 422.322 179.694C423.197 179.694 423.995 179.582 424.715 179.359C425.436 179.119 426.131 178.75 426.8 178.252V174.469H421.781V171.844H429.554Z"/>
<path d="M459.902 182.293L457.688 180.157C456.933 180.843 456.058 181.393 455.063 181.804C454.068 182.199 452.995 182.396 451.846 182.396C450.627 182.396 449.572 182.19 448.68 181.779C447.805 181.367 447.135 180.818 446.672 180.131C446.209 179.445 445.977 178.69 445.977 177.866C445.977 176.837 446.286 175.867 446.904 174.958C447.539 174.031 448.482 173.208 449.735 172.487C448.431 171.046 447.779 169.647 447.779 168.292C447.779 167.468 447.993 166.713 448.422 166.027C448.868 165.323 449.495 164.766 450.301 164.354C451.125 163.942 452.069 163.736 453.132 163.736C454.059 163.736 454.883 163.925 455.603 164.302C456.324 164.663 456.882 165.169 457.276 165.821C457.671 166.473 457.868 167.202 457.868 168.009C457.868 169.896 456.607 171.552 454.085 172.976L457.508 176.322C457.834 175.722 458.091 175.121 458.28 174.52C458.469 173.903 458.58 173.354 458.615 172.873L461.189 173.208C461.137 173.98 460.957 174.812 460.648 175.704C460.356 176.597 459.962 177.429 459.464 178.201L461.781 180.466L459.902 182.293ZM453.004 166.233C452.249 166.233 451.648 166.439 451.202 166.85C450.773 167.245 450.559 167.717 450.559 168.266C450.559 168.798 450.687 169.27 450.945 169.682C451.219 170.093 451.691 170.625 452.36 171.277C453.253 170.78 453.93 170.291 454.394 169.81C454.857 169.313 455.089 168.755 455.089 168.137C455.089 167.588 454.9 167.133 454.522 166.773C454.145 166.413 453.639 166.233 453.004 166.233ZM451.974 179.823C453.33 179.823 454.617 179.342 455.835 178.381L451.459 174.186C450.619 174.649 449.984 175.181 449.555 175.782C449.126 176.382 448.911 176.991 448.911 177.609C448.911 178.21 449.186 178.733 449.735 179.179C450.301 179.608 451.048 179.823 451.974 179.823Z"/>
<path d="M486.028 182.448C484.175 182.448 482.528 182.053 481.087 181.264C479.645 180.475 478.521 179.376 477.715 177.969C476.926 176.545 476.531 174.932 476.531 173.131C476.531 171.312 476.934 169.69 477.741 168.266C478.547 166.825 479.671 165.709 481.112 164.92C482.571 164.113 484.218 163.71 486.054 163.71C487.307 163.71 488.482 163.933 489.58 164.379C490.696 164.808 491.699 165.435 492.592 166.258L490.841 168.498C490.104 167.828 489.34 167.339 488.551 167.031C487.761 166.704 486.912 166.541 486.003 166.541C484.75 166.541 483.643 166.816 482.682 167.365C481.721 167.897 480.966 168.661 480.417 169.656C479.885 170.634 479.62 171.758 479.62 173.028C479.62 174.314 479.894 175.456 480.443 176.451C480.992 177.446 481.756 178.227 482.734 178.793C483.712 179.342 484.827 179.617 486.08 179.617C487.024 179.617 487.899 179.471 488.705 179.179C489.512 178.87 490.275 178.39 490.996 177.738L492.746 179.977C491.013 181.624 488.774 182.448 486.028 182.448Z"/>
<path d="M507.094 182.474C505.292 182.474 503.688 182.087 502.281 181.315C500.891 180.526 499.81 179.428 499.038 178.021C498.266 176.597 497.88 174.967 497.88 173.131C497.88 171.26 498.266 169.613 499.038 168.189C499.827 166.765 500.934 165.658 502.358 164.868C503.782 164.079 505.421 163.685 507.274 163.685C509.076 163.685 510.672 164.079 512.062 164.868C513.452 165.641 514.533 166.739 515.305 168.163C516.077 169.57 516.463 171.192 516.463 173.028C516.463 174.898 516.068 176.545 515.279 177.969C514.507 179.394 513.409 180.5 511.984 181.29C510.577 182.079 508.947 182.474 507.094 182.474ZM507.146 179.72C508.364 179.72 509.445 179.445 510.389 178.896C511.332 178.33 512.062 177.549 512.576 176.554C513.108 175.558 513.374 174.417 513.374 173.131C513.374 171.809 513.117 170.642 512.602 169.63C512.087 168.618 511.358 167.837 510.414 167.288C509.488 166.722 508.415 166.439 507.197 166.439C505.979 166.439 504.898 166.722 503.954 167.288C503.01 167.837 502.272 168.609 501.741 169.604C501.226 170.6 500.968 171.741 500.968 173.028C500.968 174.349 501.226 175.516 501.741 176.528C502.255 177.54 502.976 178.33 503.903 178.896C504.846 179.445 505.927 179.72 507.146 179.72Z"/>
<path d="M542.752 164.071V182.087H539.767V171.02C539.767 170.299 539.792 169.699 539.844 169.218L539.792 169.193C539.638 169.467 539.329 169.948 538.866 170.634L538.48 171.2L533.718 178.252H532.689L527.978 171.226C527.652 170.763 527.215 170.119 526.666 169.295L526.589 169.321C526.64 169.802 526.666 170.402 526.666 171.123V182.087H523.68V164.071H526.614L533.229 173.98L539.844 164.071H542.752Z"/>
<path d="M558.781 164.071C560.188 164.071 561.372 164.362 562.333 164.946C563.311 165.512 564.04 166.267 564.521 167.211C565.001 168.154 565.241 169.184 565.241 170.299C565.241 171.432 565.001 172.478 564.521 173.439C564.04 174.4 563.311 175.172 562.333 175.756C561.372 176.339 560.188 176.631 558.781 176.631H554.122V182.087H551.137V164.071H558.781ZM558.601 173.903C559.819 173.903 560.72 173.568 561.303 172.899C561.904 172.213 562.204 171.38 562.204 170.402C562.204 169.39 561.904 168.54 561.303 167.854C560.72 167.151 559.819 166.799 558.601 166.799H554.122V173.903H558.601Z"/>
<path d="M584.625 182.087L582.927 178.33H573.481L571.782 182.087H568.539L576.569 164.071H579.89L587.92 182.087H584.625ZM574.613 175.653H581.794L579.401 169.887C579.332 169.75 579.246 169.544 579.143 169.27C578.594 167.983 578.294 167.236 578.242 167.031H578.191L577.959 167.571L576.981 169.913L574.613 175.653Z"/>
<path d="M597.044 164.071L605.177 175.215L606.593 177.223L606.644 177.197C606.593 176.682 606.567 176.022 606.567 175.215V164.071H609.553V182.087H606.67L598.537 170.943C597.816 169.948 597.344 169.278 597.121 168.935L597.044 168.961C597.113 169.613 597.147 170.274 597.147 170.943V182.087H594.161V164.071H597.044Z"/>
<path d="M617.948 164.071H620.934V182.087H617.948V164.071Z"/>
<path d="M637.374 182.474C635.572 182.474 633.968 182.087 632.561 181.315C631.171 180.526 630.09 179.428 629.318 178.021C628.546 176.597 628.159 174.967 628.159 173.131C628.159 171.26 628.546 169.613 629.318 168.189C630.107 166.765 631.214 165.658 632.638 164.868C634.062 164.079 635.701 163.685 637.554 163.685C639.356 163.685 640.951 164.079 642.341 164.868C643.731 165.641 644.812 166.739 645.584 168.163C646.357 169.57 646.743 171.192 646.743 173.028C646.743 174.898 646.348 176.545 645.559 177.969C644.786 179.394 643.688 180.5 642.264 181.29C640.857 182.079 639.227 182.474 637.374 182.474ZM637.425 179.72C638.644 179.72 639.725 179.445 640.668 178.896C641.612 178.33 642.341 177.549 642.856 176.554C643.388 175.558 643.654 174.417 643.654 173.131C643.654 171.809 643.397 170.642 642.882 169.63C642.367 168.618 641.638 167.837 640.694 167.288C639.767 166.722 638.695 166.439 637.477 166.439C636.258 166.439 635.177 166.722 634.234 167.288C633.29 167.837 632.552 168.609 632.02 169.604C631.505 170.6 631.248 171.741 631.248 173.028C631.248 174.349 631.505 175.516 632.02 176.528C632.535 177.54 633.256 178.33 634.182 178.896C635.126 179.445 636.207 179.72 637.425 179.72Z"/>
<path d="M656.843 164.071L664.976 175.215L666.391 177.223L666.443 177.197C666.391 176.682 666.366 176.022 666.366 175.215V164.071H669.351V182.087H666.469L658.335 170.943C657.615 169.948 657.143 169.278 656.92 168.935L656.843 168.961C656.911 169.613 656.945 170.274 656.945 170.943V182.087H653.96V164.071H656.843Z"/>
<path d="M683.667 182.448C682.294 182.448 680.998 182.242 679.78 181.83C678.579 181.401 677.541 180.818 676.666 180.08L678.107 177.789C678.896 178.373 679.763 178.836 680.707 179.179C681.668 179.522 682.654 179.694 683.667 179.694C684.833 179.694 685.786 179.436 686.524 178.922C687.279 178.407 687.656 177.712 687.656 176.837C687.656 176.065 687.339 175.447 686.704 174.984C686.069 174.52 685.005 174.186 683.512 173.98C681.367 173.688 679.772 173.139 678.725 172.333C677.695 171.509 677.181 170.402 677.181 169.012C677.181 167.966 677.464 167.048 678.03 166.258C678.613 165.452 679.403 164.826 680.398 164.379C681.41 163.933 682.543 163.71 683.795 163.71C684.979 163.71 686.069 163.865 687.064 164.174C688.059 164.465 689.02 164.954 689.947 165.641L688.428 167.828C687.793 167.348 687.073 166.988 686.266 166.747C685.477 166.507 684.679 166.387 683.872 166.387C682.809 166.387 681.925 166.619 681.221 167.082C680.535 167.528 680.192 168.12 680.192 168.858C680.192 169.544 680.501 170.076 681.118 170.454C681.753 170.814 682.809 171.123 684.284 171.38C686.532 171.741 688.154 172.367 689.149 173.259C690.161 174.134 690.667 175.31 690.667 176.785C690.667 177.935 690.376 178.939 689.792 179.797C689.209 180.655 688.385 181.315 687.321 181.779C686.258 182.225 685.039 182.448 683.667 182.448Z"/>
<path d="M710.094 164.071H713.105V182.087H710.094V174.289H700.674V182.087H697.688V164.071H700.674V171.56H710.094V164.071Z"/>
<path d="M721.5 164.071H724.486V182.087H721.5V164.071Z"/>
<path d="M740.54 164.071C741.947 164.071 743.131 164.362 744.092 164.946C745.07 165.512 745.799 166.267 746.279 167.211C746.76 168.154 747 169.184 747 170.299C747 171.432 746.76 172.478 746.279 173.439C745.799 174.4 745.07 175.172 744.092 175.756C743.131 176.339 741.947 176.631 740.54 176.631H735.881V182.087H732.895V164.071H740.54ZM740.359 173.903C741.578 173.903 742.479 173.568 743.062 172.899C743.663 172.213 743.963 171.38 743.963 170.402C743.963 169.39 743.663 168.54 743.062 167.854C742.479 167.151 741.578 166.799 740.359 166.799H735.881V173.903H740.359Z"/>
</mask>
<path d="M223.922 164.071H226.933V182.087H223.922V174.289H214.502V182.087H211.516V164.071H214.502V171.56H223.922V164.071Z" fill="#D67940"/>
<path d="M243.359 182.474C241.557 182.474 239.953 182.087 238.545 181.315C237.156 180.526 236.075 179.428 235.302 178.021C234.53 176.597 234.144 174.967 234.144 173.131C234.144 171.26 234.53 169.613 235.302 168.189C236.092 166.765 237.199 165.658 238.623 164.868C240.047 164.079 241.686 163.685 243.539 163.685C245.34 163.685 246.936 164.079 248.326 164.868C249.716 165.641 250.797 166.739 251.569 168.163C252.341 169.57 252.727 171.192 252.727 173.028C252.727 174.898 252.333 176.545 251.543 177.969C250.771 179.394 249.673 180.5 248.249 181.29C246.842 182.079 245.212 182.474 243.359 182.474ZM243.41 179.72C244.628 179.72 245.709 179.445 246.653 178.896C247.597 178.33 248.326 177.549 248.841 176.554C249.373 175.558 249.639 174.417 249.639 173.131C249.639 171.809 249.381 170.642 248.867 169.63C248.352 168.618 247.623 167.837 246.679 167.288C245.752 166.722 244.68 166.439 243.462 166.439C242.243 166.439 241.162 166.722 240.218 167.288C239.275 167.837 238.537 168.609 238.005 169.604C237.49 170.6 237.233 171.741 237.233 173.028C237.233 174.349 237.49 175.516 238.005 176.528C238.52 177.54 239.24 178.33 240.167 178.896C241.111 179.445 242.192 179.72 243.41 179.72Z" fill="#D67940"/>
<path d="M279.017 164.071V182.087H276.031V171.02C276.031 170.299 276.057 169.699 276.108 169.218L276.057 169.193C275.902 169.467 275.594 169.948 275.13 170.634L274.744 171.2L269.983 178.252H268.953L264.243 171.226C263.917 170.763 263.479 170.119 262.93 169.295L262.853 169.321C262.905 169.802 262.93 170.402 262.93 171.123V182.087H259.945V164.071H262.879L269.494 173.98L276.108 164.071H279.017Z" fill="#D67940"/>
<path d="M290.387 179.333H300.013V182.087H287.401V164.071H299.859V166.773H290.387V171.612H299.421V174.289H290.387V179.333Z" fill="#D67940"/>
<path d="M326.591 164.071V182.087H323.605V171.02C323.605 170.299 323.631 169.699 323.682 169.218L323.631 169.193C323.476 169.467 323.167 169.948 322.704 170.634L322.318 171.2L317.556 178.252H316.527L311.817 171.226C311.491 170.763 311.053 170.119 310.504 169.295L310.427 169.321C310.478 169.802 310.504 170.402 310.504 171.123V182.087H307.518V164.071H310.453L317.067 173.98L323.682 164.071H326.591Z" fill="#D67940"/>
<path d="M348.9 182.087L347.201 178.33H337.755L336.056 182.087H332.813L340.844 164.071H344.164L352.194 182.087H348.9ZM338.887 175.653H346.068L343.675 169.887C343.606 169.75 343.52 169.544 343.417 169.27C342.868 167.983 342.568 167.236 342.516 167.031H342.465L342.233 167.571L341.255 169.913L338.887 175.653Z" fill="#D67940"/>
<path d="M373.261 182.087H369.22L363.043 175.679C362.185 174.769 361.644 174.169 361.421 173.877L361.37 173.903C361.404 174.229 361.421 174.838 361.421 175.73V182.087H358.435V164.071H361.421V170.042C361.421 170.934 361.404 171.543 361.37 171.869L361.421 171.895C362.176 171.037 362.759 170.377 363.171 169.913L368.602 164.071H372.463L364.278 172.796L373.261 182.087Z" fill="#D67940"/>
<path d="M378.955 164.071H381.94V182.087H378.955V164.071Z" fill="#D67940"/>
<path d="M393.233 164.071L401.366 175.215L402.782 177.223L402.833 177.197C402.782 176.682 402.756 176.022 402.756 175.215V164.071H405.742V182.087H402.859L394.726 170.943C394.005 169.948 393.533 169.278 393.31 168.935L393.233 168.961C393.301 169.613 393.336 170.274 393.336 170.943V182.087H390.35V164.071H393.233Z" fill="#D67940"/>
<path d="M429.554 171.844V179.488C428.559 180.483 427.461 181.23 426.26 181.727C425.059 182.208 423.712 182.448 422.219 182.448C420.383 182.448 418.761 182.062 417.354 181.29C415.964 180.517 414.883 179.428 414.111 178.021C413.339 176.614 412.953 174.984 412.953 173.131C412.953 171.312 413.356 169.69 414.163 168.266C414.969 166.825 416.093 165.701 417.534 164.894C418.993 164.088 420.64 163.685 422.476 163.685C423.746 163.685 424.938 163.899 426.054 164.328C427.169 164.74 428.156 165.315 429.014 166.052L427.341 168.266C425.899 167.065 424.286 166.464 422.502 166.464C421.215 166.464 420.074 166.739 419.079 167.288C418.101 167.837 417.337 168.609 416.788 169.604C416.256 170.582 415.99 171.723 415.99 173.028C415.99 174.383 416.247 175.567 416.762 176.579C417.277 177.575 418.015 178.347 418.976 178.896C419.937 179.428 421.052 179.694 422.322 179.694C423.197 179.694 423.995 179.582 424.715 179.359C425.436 179.119 426.131 178.75 426.8 178.252V174.469H421.781V171.844H429.554Z" fill="#D67940"/>
<path d="M459.902 182.293L457.688 180.157C456.933 180.843 456.058 181.393 455.063 181.804C454.068 182.199 452.995 182.396 451.846 182.396C450.627 182.396 449.572 182.19 448.68 181.779C447.805 181.367 447.135 180.818 446.672 180.131C446.209 179.445 445.977 178.69 445.977 177.866C445.977 176.837 446.286 175.867 446.904 174.958C447.539 174.031 448.482 173.208 449.735 172.487C448.431 171.046 447.779 169.647 447.779 168.292C447.779 167.468 447.993 166.713 448.422 166.027C448.868 165.323 449.495 164.766 450.301 164.354C451.125 163.942 452.069 163.736 453.132 163.736C454.059 163.736 454.883 163.925 455.603 164.302C456.324 164.663 456.882 165.169 457.276 165.821C457.671 166.473 457.868 167.202 457.868 168.009C457.868 169.896 456.607 171.552 454.085 172.976L457.508 176.322C457.834 175.722 458.091 175.121 458.28 174.52C458.469 173.903 458.58 173.354 458.615 172.873L461.189 173.208C461.137 173.98 460.957 174.812 460.648 175.704C460.356 176.597 459.962 177.429 459.464 178.201L461.781 180.466L459.902 182.293ZM453.004 166.233C452.249 166.233 451.648 166.439 451.202 166.85C450.773 167.245 450.559 167.717 450.559 168.266C450.559 168.798 450.687 169.27 450.945 169.682C451.219 170.093 451.691 170.625 452.36 171.277C453.253 170.78 453.93 170.291 454.394 169.81C454.857 169.313 455.089 168.755 455.089 168.137C455.089 167.588 454.9 167.133 454.522 166.773C454.145 166.413 453.639 166.233 453.004 166.233ZM451.974 179.823C453.33 179.823 454.617 179.342 455.835 178.381L451.459 174.186C450.619 174.649 449.984 175.181 449.555 175.782C449.126 176.382 448.911 176.991 448.911 177.609C448.911 178.21 449.186 178.733 449.735 179.179C450.301 179.608 451.048 179.823 451.974 179.823Z" fill="#D67940"/>
<path d="M486.028 182.448C484.175 182.448 482.528 182.053 481.087 181.264C479.645 180.475 478.521 179.376 477.715 177.969C476.926 176.545 476.531 174.932 476.531 173.131C476.531 171.312 476.934 169.69 477.741 168.266C478.547 166.825 479.671 165.709 481.112 164.92C482.571 164.113 484.218 163.71 486.054 163.71C487.307 163.71 488.482 163.933 489.58 164.379C490.696 164.808 491.699 165.435 492.592 166.258L490.841 168.498C490.104 167.828 489.34 167.339 488.551 167.031C487.761 166.704 486.912 166.541 486.003 166.541C484.75 166.541 483.643 166.816 482.682 167.365C481.721 167.897 480.966 168.661 480.417 169.656C479.885 170.634 479.62 171.758 479.62 173.028C479.62 174.314 479.894 175.456 480.443 176.451C480.992 177.446 481.756 178.227 482.734 178.793C483.712 179.342 484.827 179.617 486.08 179.617C487.024 179.617 487.899 179.471 488.705 179.179C489.512 178.87 490.275 178.39 490.996 177.738L492.746 179.977C491.013 181.624 488.774 182.448 486.028 182.448Z" fill="#D67940"/>
<path d="M507.094 182.474C505.292 182.474 503.688 182.087 502.281 181.315C500.891 180.526 499.81 179.428 499.038 178.021C498.266 176.597 497.88 174.967 497.88 173.131C497.88 171.26 498.266 169.613 499.038 168.189C499.827 166.765 500.934 165.658 502.358 164.868C503.782 164.079 505.421 163.685 507.274 163.685C509.076 163.685 510.672 164.079 512.062 164.868C513.452 165.641 514.533 166.739 515.305 168.163C516.077 169.57 516.463 171.192 516.463 173.028C516.463 174.898 516.068 176.545 515.279 177.969C514.507 179.394 513.409 180.5 511.984 181.29C510.577 182.079 508.947 182.474 507.094 182.474ZM507.146 179.72C508.364 179.72 509.445 179.445 510.389 178.896C511.332 178.33 512.062 177.549 512.576 176.554C513.108 175.558 513.374 174.417 513.374 173.131C513.374 171.809 513.117 170.642 512.602 169.63C512.087 168.618 511.358 167.837 510.414 167.288C509.488 166.722 508.415 166.439 507.197 166.439C505.979 166.439 504.898 166.722 503.954 167.288C503.01 167.837 502.272 168.609 501.741 169.604C501.226 170.6 500.968 171.741 500.968 173.028C500.968 174.349 501.226 175.516 501.741 176.528C502.255 177.54 502.976 178.33 503.903 178.896C504.846 179.445 505.927 179.72 507.146 179.72Z" fill="#D67940"/>
<path d="M542.752 164.071V182.087H539.767V171.02C539.767 170.299 539.792 169.699 539.844 169.218L539.792 169.193C539.638 169.467 539.329 169.948 538.866 170.634L538.48 171.2L533.718 178.252H532.689L527.978 171.226C527.652 170.763 527.215 170.119 526.666 169.295L526.589 169.321C526.64 169.802 526.666 170.402 526.666 171.123V182.087H523.68V164.071H526.614L533.229 173.98L539.844 164.071H542.752Z" fill="#D67940"/>
<path d="M558.781 164.071C560.188 164.071 561.372 164.362 562.333 164.946C563.311 165.512 564.04 166.267 564.521 167.211C565.001 168.154 565.241 169.184 565.241 170.299C565.241 171.432 565.001 172.478 564.521 173.439C564.04 174.4 563.311 175.172 562.333 175.756C561.372 176.339 560.188 176.631 558.781 176.631H554.122V182.087H551.137V164.071H558.781ZM558.601 173.903C559.819 173.903 560.72 173.568 561.303 172.899C561.904 172.213 562.204 171.38 562.204 170.402C562.204 169.39 561.904 168.54 561.303 167.854C560.72 167.151 559.819 166.799 558.601 166.799H554.122V173.903H558.601Z" fill="#D67940"/>
<path d="M584.625 182.087L582.927 178.33H573.481L571.782 182.087H568.539L576.569 164.071H579.89L587.92 182.087H584.625ZM574.613 175.653H581.794L579.401 169.887C579.332 169.75 579.246 169.544 579.143 169.27C578.594 167.983 578.294 167.236 578.242 167.031H578.191L577.959 167.571L576.981 169.913L574.613 175.653Z" fill="#D67940"/>
<path d="M597.044 164.071L605.177 175.215L606.593 177.223L606.644 177.197C606.593 176.682 606.567 176.022 606.567 175.215V164.071H609.553V182.087H606.67L598.537 170.943C597.816 169.948 597.344 169.278 597.121 168.935L597.044 168.961C597.113 169.613 597.147 170.274 597.147 170.943V182.087H594.161V164.071H597.044Z" fill="#D67940"/>
<path d="M617.948 164.071H620.934V182.087H617.948V164.071Z" fill="#D67940"/>
<path d="M637.374 182.474C635.572 182.474 633.968 182.087 632.561 181.315C631.171 180.526 630.09 179.428 629.318 178.021C628.546 176.597 628.159 174.967 628.159 173.131C628.159 171.26 628.546 169.613 629.318 168.189C630.107 166.765 631.214 165.658 632.638 164.868C634.062 164.079 635.701 163.685 637.554 163.685C639.356 163.685 640.951 164.079 642.341 164.868C643.731 165.641 644.812 166.739 645.584 168.163C646.357 169.57 646.743 171.192 646.743 173.028C646.743 174.898 646.348 176.545 645.559 177.969C644.786 179.394 643.688 180.5 642.264 181.29C640.857 182.079 639.227 182.474 637.374 182.474ZM637.425 179.72C638.644 179.72 639.725 179.445 640.668 178.896C641.612 178.33 642.341 177.549 642.856 176.554C643.388 175.558 643.654 174.417 643.654 173.131C643.654 171.809 643.397 170.642 642.882 169.63C642.367 168.618 641.638 167.837 640.694 167.288C639.767 166.722 638.695 166.439 637.477 166.439C636.258 166.439 635.177 166.722 634.234 167.288C633.29 167.837 632.552 168.609 632.02 169.604C631.505 170.6 631.248 171.741 631.248 173.028C631.248 174.349 631.505 175.516 632.02 176.528C632.535 177.54 633.256 178.33 634.182 178.896C635.126 179.445 636.207 179.72 637.425 179.72Z" fill="#D67940"/>
<path d="M656.843 164.071L664.976 175.215L666.391 177.223L666.443 177.197C666.391 176.682 666.366 176.022 666.366 175.215V164.071H669.351V182.087H666.469L658.335 170.943C657.615 169.948 657.143 169.278 656.92 168.935L656.843 168.961C656.911 169.613 656.945 170.274 656.945 170.943V182.087H653.96V164.071H656.843Z" fill="#D67940"/>
<path d="M683.667 182.448C682.294 182.448 680.998 182.242 679.78 181.83C678.579 181.401 677.541 180.818 676.666 180.08L678.107 177.789C678.896 178.373 679.763 178.836 680.707 179.179C681.668 179.522 682.654 179.694 683.667 179.694C684.833 179.694 685.786 179.436 686.524 178.922C687.279 178.407 687.656 177.712 687.656 176.837C687.656 176.065 687.339 175.447 686.704 174.984C686.069 174.52 685.005 174.186 683.512 173.98C681.367 173.688 679.772 173.139 678.725 172.333C677.695 171.509 677.181 170.402 677.181 169.012C677.181 167.966 677.464 167.048 678.03 166.258C678.613 165.452 679.403 164.826 680.398 164.379C681.41 163.933 682.543 163.71 683.795 163.71C684.979 163.71 686.069 163.865 687.064 164.174C688.059 164.465 689.02 164.954 689.947 165.641L688.428 167.828C687.793 167.348 687.073 166.988 686.266 166.747C685.477 166.507 684.679 166.387 683.872 166.387C682.809 166.387 681.925 166.619 681.221 167.082C680.535 167.528 680.192 168.12 680.192 168.858C680.192 169.544 680.501 170.076 681.118 170.454C681.753 170.814 682.809 171.123 684.284 171.38C686.532 171.741 688.154 172.367 689.149 173.259C690.161 174.134 690.667 175.31 690.667 176.785C690.667 177.935 690.376 178.939 689.792 179.797C689.209 180.655 688.385 181.315 687.321 181.779C686.258 182.225 685.039 182.448 683.667 182.448Z" fill="#D67940"/>
<path d="M710.094 164.071H713.105V182.087H710.094V174.289H700.674V182.087H697.688V164.071H700.674V171.56H710.094V164.071Z" fill="#D67940"/>
<path d="M721.5 164.071H724.486V182.087H721.5V164.071Z" fill="#D67940"/>
<path d="M740.54 164.071C741.947 164.071 743.131 164.362 744.092 164.946C745.07 165.512 745.799 166.267 746.279 167.211C746.76 168.154 747 169.184 747 170.299C747 171.432 746.76 172.478 746.279 173.439C745.799 174.4 745.07 175.172 744.092 175.756C743.131 176.339 741.947 176.631 740.54 176.631H735.881V182.087H732.895V164.071H740.54ZM740.359 173.903C741.578 173.903 742.479 173.568 743.062 172.899C743.663 172.213 743.963 171.38 743.963 170.402C743.963 169.39 743.663 168.54 743.062 167.854C742.479 167.151 741.578 166.799 740.359 166.799H735.881V173.903H740.359Z" fill="#D67940"/>
<path d="M223.922 164.071H226.933V182.087H223.922V174.289H214.502V182.087H211.516V164.071H214.502V171.56H223.922V164.071Z" stroke="#D67940" stroke-width="1.64002" mask="url(#path-2-outside-1_661_16)"/>
<path d="M243.359 182.474C241.557 182.474 239.953 182.087 238.545 181.315C237.156 180.526 236.075 179.428 235.302 178.021C234.53 176.597 234.144 174.967 234.144 173.131C234.144 171.26 234.53 169.613 235.302 168.189C236.092 166.765 237.199 165.658 238.623 164.868C240.047 164.079 241.686 163.685 243.539 163.685C245.34 163.685 246.936 164.079 248.326 164.868C249.716 165.641 250.797 166.739 251.569 168.163C252.341 169.57 252.727 171.192 252.727 173.028C252.727 174.898 252.333 176.545 251.543 177.969C250.771 179.394 249.673 180.5 248.249 181.29C246.842 182.079 245.212 182.474 243.359 182.474ZM243.41 179.72C244.628 179.72 245.709 179.445 246.653 178.896C247.597 178.33 248.326 177.549 248.841 176.554C249.373 175.558 249.639 174.417 249.639 173.131C249.639 171.809 249.381 170.642 248.867 169.63C248.352 168.618 247.623 167.837 246.679 167.288C245.752 166.722 244.68 166.439 243.462 166.439C242.243 166.439 241.162 166.722 240.218 167.288C239.275 167.837 238.537 168.609 238.005 169.604C237.49 170.6 237.233 171.741 237.233 173.028C237.233 174.349 237.49 175.516 238.005 176.528C238.52 177.54 239.24 178.33 240.167 178.896C241.111 179.445 242.192 179.72 243.41 179.72Z" stroke="#D67940" stroke-width="1.64002" mask="url(#path-2-outside-1_661_16)"/>
<path d="M279.017 164.071V182.087H276.031V171.02C276.031 170.299 276.057 169.699 276.108 169.218L276.057 169.193C275.902 169.467 275.594 169.948 275.13 170.634L274.744 171.2L269.983 178.252H268.953L264.243 171.226C263.917 170.763 263.479 170.119 262.93 169.295L262.853 169.321C262.905 169.802 262.93 170.402 262.93 171.123V182.087H259.945V164.071H262.879L269.494 173.98L276.108 164.071H279.017Z" stroke="#D67940" stroke-width="1.64002" mask="url(#path-2-outside-1_661_16)"/>
<path d="M290.387 179.333H300.013V182.087H287.401V164.071H299.859V166.773H290.387V171.612H299.421V174.289H290.387V179.333Z" stroke="#D67940" stroke-width="1.64002" mask="url(#path-2-outside-1_661_16)"/>
<path d="M326.591 164.071V182.087H323.605V171.02C323.605 170.299 323.631 169.699 323.682 169.218L323.631 169.193C323.476 169.467 323.167 169.948 322.704 170.634L322.318 171.2L317.556 178.252H316.527L311.817 171.226C311.491 170.763 311.053 170.119 310.504 169.295L310.427 169.321C310.478 169.802 310.504 170.402 310.504 171.123V182.087H307.518V164.071H310.453L317.067 173.98L323.682 164.071H326.591Z" stroke="#D67940" stroke-width="1.64002" mask="url(#path-2-outside-1_661_16)"/>
<path d="M348.9 182.087L347.201 178.33H337.755L336.056 182.087H332.813L340.844 164.071H344.164L352.194 182.087H348.9ZM338.887 175.653H346.068L343.675 169.887C343.606 169.75 343.52 169.544 343.417 169.27C342.868 167.983 342.568 167.236 342.516 167.031H342.465L342.233 167.571L341.255 169.913L338.887 175.653Z" stroke="#D67940" stroke-width="1.64002" mask="url(#path-2-outside-1_661_16)"/>
<path d="M373.261 182.087H369.22L363.043 175.679C362.185 174.769 361.644 174.169 361.421 173.877L361.37 173.903C361.404 174.229 361.421 174.838 361.421 175.73V182.087H358.435V164.071H361.421V170.042C361.421 170.934 361.404 171.543 361.37 171.869L361.421 171.895C362.176 171.037 362.759 170.377 363.171 169.913L368.602 164.071H372.463L364.278 172.796L373.261 182.087Z" stroke="#D67940" stroke-width="1.64002" mask="url(#path-2-outside-1_661_16)"/>
<path d="M378.955 164.071H381.94V182.087H378.955V164.071Z" stroke="#D67940" stroke-width="1.64002" mask="url(#path-2-outside-1_661_16)"/>
<path d="M393.233 164.071L401.366 175.215L402.782 177.223L402.833 177.197C402.782 176.682 402.756 176.022 402.756 175.215V164.071H405.742V182.087H402.859L394.726 170.943C394.005 169.948 393.533 169.278 393.31 168.935L393.233 168.961C393.301 169.613 393.336 170.274 393.336 170.943V182.087H390.35V164.071H393.233Z" stroke="#D67940" stroke-width="1.64002" mask="url(#path-2-outside-1_661_16)"/>
<path d="M429.554 171.844V179.488C428.559 180.483 427.461 181.23 426.26 181.727C425.059 182.208 423.712 182.448 422.219 182.448C420.383 182.448 418.761 182.062 417.354 181.29C415.964 180.517 414.883 179.428 414.111 178.021C413.339 176.614 412.953 174.984 412.953 173.131C412.953 171.312 413.356 169.69 414.163 168.266C414.969 166.825 416.093 165.701 417.534 164.894C418.993 164.088 420.64 163.685 422.476 163.685C423.746 163.685 424.938 163.899 426.054 164.328C427.169 164.74 428.156 165.315 429.014 166.052L427.341 168.266C425.899 167.065 424.286 166.464 422.502 166.464C421.215 166.464 420.074 166.739 419.079 167.288C418.101 167.837 417.337 168.609 416.788 169.604C416.256 170.582 415.99 171.723 415.99 173.028C415.99 174.383 416.247 175.567 416.762 176.579C417.277 177.575 418.015 178.347 418.976 178.896C419.937 179.428 421.052 179.694 422.322 179.694C423.197 179.694 423.995 179.582 424.715 179.359C425.436 179.119 426.131 178.75 426.8 178.252V174.469H421.781V171.844H429.554Z" stroke="#D67940" stroke-width="1.64002" mask="url(#path-2-outside-1_661_16)"/>
<path d="M459.902 182.293L457.688 180.157C456.933 180.843 456.058 181.393 455.063 181.804C454.068 182.199 452.995 182.396 451.846 182.396C450.627 182.396 449.572 182.19 448.68 181.779C447.805 181.367 447.135 180.818 446.672 180.131C446.209 179.445 445.977 178.69 445.977 177.866C445.977 176.837 446.286 175.867 446.904 174.958C447.539 174.031 448.482 173.208 449.735 172.487C448.431 171.046 447.779 169.647 447.779 168.292C447.779 167.468 447.993 166.713 448.422 166.027C448.868 165.323 449.495 164.766 450.301 164.354C451.125 163.942 452.069 163.736 453.132 163.736C454.059 163.736 454.883 163.925 455.603 164.302C456.324 164.663 456.882 165.169 457.276 165.821C457.671 166.473 457.868 167.202 457.868 168.009C457.868 169.896 456.607 171.552 454.085 172.976L457.508 176.322C457.834 175.722 458.091 175.121 458.28 174.52C458.469 173.903 458.58 173.354 458.615 172.873L461.189 173.208C461.137 173.98 460.957 174.812 460.648 175.704C460.356 176.597 459.962 177.429 459.464 178.201L461.781 180.466L459.902 182.293ZM453.004 166.233C452.249 166.233 451.648 166.439 451.202 166.85C450.773 167.245 450.559 167.717 450.559 168.266C450.559 168.798 450.687 169.27 450.945 169.682C451.219 170.093 451.691 170.625 452.36 171.277C453.253 170.78 453.93 170.291 454.394 169.81C454.857 169.313 455.089 168.755 455.089 168.137C455.089 167.588 454.9 167.133 454.522 166.773C454.145 166.413 453.639 166.233 453.004 166.233ZM451.974 179.823C453.33 179.823 454.617 179.342 455.835 178.381L451.459 174.186C450.619 174.649 449.984 175.181 449.555 175.782C449.126 176.382 448.911 176.991 448.911 177.609C448.911 178.21 449.186 178.733 449.735 179.179C450.301 179.608 451.048 179.823 451.974 179.823Z" stroke="#D67940" stroke-width="1.64002" mask="url(#path-2-outside-1_661_16)"/>
<path d="M486.028 182.448C484.175 182.448 482.528 182.053 481.087 181.264C479.645 180.475 478.521 179.376 477.715 177.969C476.926 176.545 476.531 174.932 476.531 173.131C476.531 171.312 476.934 169.69 477.741 168.266C478.547 166.825 479.671 165.709 481.112 164.92C482.571 164.113 484.218 163.71 486.054 163.71C487.307 163.71 488.482 163.933 489.58 164.379C490.696 164.808 491.699 165.435 492.592 166.258L490.841 168.498C490.104 167.828 489.34 167.339 488.551 167.031C487.761 166.704 486.912 166.541 486.003 166.541C484.75 166.541 483.643 166.816 482.682 167.365C481.721 167.897 480.966 168.661 480.417 169.656C479.885 170.634 479.62 171.758 479.62 173.028C479.62 174.314 479.894 175.456 480.443 176.451C480.992 177.446 481.756 178.227 482.734 178.793C483.712 179.342 484.827 179.617 486.08 179.617C487.024 179.617 487.899 179.471 488.705 179.179C489.512 178.87 490.275 178.39 490.996 177.738L492.746 179.977C491.013 181.624 488.774 182.448 486.028 182.448Z" stroke="#D67940" stroke-width="1.64002" mask="url(#path-2-outside-1_661_16)"/>
<path d="M507.094 182.474C505.292 182.474 503.688 182.087 502.281 181.315C500.891 180.526 499.81 179.428 499.038 178.021C498.266 176.597 497.88 174.967 497.88 173.131C497.88 171.26 498.266 169.613 499.038 168.189C499.827 166.765 500.934 165.658 502.358 164.868C503.782 164.079 505.421 163.685 507.274 163.685C509.076 163.685 510.672 164.079 512.062 164.868C513.452 165.641 514.533 166.739 515.305 168.163C516.077 169.57 516.463 171.192 516.463 173.028C516.463 174.898 516.068 176.545 515.279 177.969C514.507 179.394 513.409 180.5 511.984 181.29C510.577 182.079 508.947 182.474 507.094 182.474ZM507.146 179.72C508.364 179.72 509.445 179.445 510.389 178.896C511.332 178.33 512.062 177.549 512.576 176.554C513.108 175.558 513.374 174.417 513.374 173.131C513.374 171.809 513.117 170.642 512.602 169.63C512.087 168.618 511.358 167.837 510.414 167.288C509.488 166.722 508.415 166.439 507.197 166.439C505.979 166.439 504.898 166.722 503.954 167.288C503.01 167.837 502.272 168.609 501.741 169.604C501.226 170.6 500.968 171.741 500.968 173.028C500.968 174.349 501.226 175.516 501.741 176.528C502.255 177.54 502.976 178.33 503.903 178.896C504.846 179.445 505.927 179.72 507.146 179.72Z" stroke="#D67940" stroke-width="1.64002" mask="url(#path-2-outside-1_661_16)"/>
<path d="M542.752 164.071V182.087H539.767V171.02C539.767 170.299 539.792 169.699 539.844 169.218L539.792 169.193C539.638 169.467 539.329 169.948 538.866 170.634L538.48 171.2L533.718 178.252H532.689L527.978 171.226C527.652 170.763 527.215 170.119 526.666 169.295L526.589 169.321C526.64 169.802 526.666 170.402 526.666 171.123V182.087H523.68V164.071H526.614L533.229 173.98L539.844 164.071H542.752Z" stroke="#D67940" stroke-width="1.64002" mask="url(#path-2-outside-1_661_16)"/>
<path d="M558.781 164.071C560.188 164.071 561.372 164.362 562.333 164.946C563.311 165.512 564.04 166.267 564.521 167.211C565.001 168.154 565.241 169.184 565.241 170.299C565.241 171.432 565.001 172.478 564.521 173.439C564.04 174.4 563.311 175.172 562.333 175.756C561.372 176.339 560.188 176.631 558.781 176.631H554.122V182.087H551.137V164.071H558.781ZM558.601 173.903C559.819 173.903 560.72 173.568 561.303 172.899C561.904 172.213 562.204 171.38 562.204 170.402C562.204 169.39 561.904 168.54 561.303 167.854C560.72 167.151 559.819 166.799 558.601 166.799H554.122V173.903H558.601Z" stroke="#D67940" stroke-width="1.64002" mask="url(#path-2-outside-1_661_16)"/>
<path d="M584.625 182.087L582.927 178.33H573.481L571.782 182.087H568.539L576.569 164.071H579.89L587.92 182.087H584.625ZM574.613 175.653H581.794L579.401 169.887C579.332 169.75 579.246 169.544 579.143 169.27C578.594 167.983 578.294 167.236 578.242 167.031H578.191L577.959 167.571L576.981 169.913L574.613 175.653Z" stroke="#D67940" stroke-width="1.64002" mask="url(#path-2-outside-1_661_16)"/>
<path d="M597.044 164.071L605.177 175.215L606.593 177.223L606.644 177.197C606.593 176.682 606.567 176.022 606.567 175.215V164.071H609.553V182.087H606.67L598.537 170.943C597.816 169.948 597.344 169.278 597.121 168.935L597.044 168.961C597.113 169.613 597.147 170.274 597.147 170.943V182.087H594.161V164.071H597.044Z" stroke="#D67940" stroke-width="1.64002" mask="url(#path-2-outside-1_661_16)"/>
<path d="M617.948 164.071H620.934V182.087H617.948V164.071Z" stroke="#D67940" stroke-width="1.64002" mask="url(#path-2-outside-1_661_16)"/>
<path d="M637.374 182.474C635.572 182.474 633.968 182.087 632.561 181.315C631.171 180.526 630.09 179.428 629.318 178.021C628.546 176.597 628.159 174.967 628.159 173.131C628.159 171.26 628.546 169.613 629.318 168.189C630.107 166.765 631.214 165.658 632.638 164.868C634.062 164.079 635.701 163.685 637.554 163.685C639.356 163.685 640.951 164.079 642.341 164.868C643.731 165.641 644.812 166.739 645.584 168.163C646.357 169.57 646.743 171.192 646.743 173.028C646.743 174.898 646.348 176.545 645.559 177.969C644.786 179.394 643.688 180.5 642.264 181.29C640.857 182.079 639.227 182.474 637.374 182.474ZM637.425 179.72C638.644 179.72 639.725 179.445 640.668 178.896C641.612 178.33 642.341 177.549 642.856 176.554C643.388 175.558 643.654 174.417 643.654 173.131C643.654 171.809 643.397 170.642 642.882 169.63C642.367 168.618 641.638 167.837 640.694 167.288C639.767 166.722 638.695 166.439 637.477 166.439C636.258 166.439 635.177 166.722 634.234 167.288C633.29 167.837 632.552 168.609 632.02 169.604C631.505 170.6 631.248 171.741 631.248 173.028C631.248 174.349 631.505 175.516 632.02 176.528C632.535 177.54 633.256 178.33 634.182 178.896C635.126 179.445 636.207 179.72 637.425 179.72Z" stroke="#D67940" stroke-width="1.64002" mask="url(#path-2-outside-1_661_16)"/>
<path d="M656.843 164.071L664.976 175.215L666.391 177.223L666.443 177.197C666.391 176.682 666.366 176.022 666.366 175.215V164.071H669.351V182.087H666.469L658.335 170.943C657.615 169.948 657.143 169.278 656.92 168.935L656.843 168.961C656.911 169.613 656.945 170.274 656.945 170.943V182.087H653.96V164.071H656.843Z" stroke="#D67940" stroke-width="1.64002" mask="url(#path-2-outside-1_661_16)"/>
<path d="M683.667 182.448C682.294 182.448 680.998 182.242 679.78 181.83C678.579 181.401 677.541 180.818 676.666 180.08L678.107 177.789C678.896 178.373 679.763 178.836 680.707 179.179C681.668 179.522 682.654 179.694 683.667 179.694C684.833 179.694 685.786 179.436 686.524 178.922C687.279 178.407 687.656 177.712 687.656 176.837C687.656 176.065 687.339 175.447 686.704 174.984C686.069 174.52 685.005 174.186 683.512 173.98C681.367 173.688 679.772 173.139 678.725 172.333C677.695 171.509 677.181 170.402 677.181 169.012C677.181 167.966 677.464 167.048 678.03 166.258C678.613 165.452 679.403 164.826 680.398 164.379C681.41 163.933 682.543 163.71 683.795 163.71C684.979 163.71 686.069 163.865 687.064 164.174C688.059 164.465 689.02 164.954 689.947 165.641L688.428 167.828C687.793 167.348 687.073 166.988 686.266 166.747C685.477 166.507 684.679 166.387 683.872 166.387C682.809 166.387 681.925 166.619 681.221 167.082C680.535 167.528 680.192 168.12 680.192 168.858C680.192 169.544 680.501 170.076 681.118 170.454C681.753 170.814 682.809 171.123 684.284 171.38C686.532 171.741 688.154 172.367 689.149 173.259C690.161 174.134 690.667 175.31 690.667 176.785C690.667 177.935 690.376 178.939 689.792 179.797C689.209 180.655 688.385 181.315 687.321 181.779C686.258 182.225 685.039 182.448 683.667 182.448Z" stroke="#D67940" stroke-width="1.64002" mask="url(#path-2-outside-1_661_16)"/>
<path d="M710.094 164.071H713.105V182.087H710.094V174.289H700.674V182.087H697.688V164.071H700.674V171.56H710.094V164.071Z" stroke="#D67940" stroke-width="1.64002" mask="url(#path-2-outside-1_661_16)"/>
<path d="M721.5 164.071H724.486V182.087H721.5V164.071Z" stroke="#D67940" stroke-width="1.64002" mask="url(#path-2-outside-1_661_16)"/>
<path d="M740.54 164.071C741.947 164.071 743.131 164.362 744.092 164.946C745.07 165.512 745.799 166.267 746.279 167.211C746.76 168.154 747 169.184 747 170.299C747 171.432 746.76 172.478 746.279 173.439C745.799 174.4 745.07 175.172 744.092 175.756C743.131 176.339 741.947 176.631 740.54 176.631H735.881V182.087H732.895V164.071H740.54ZM740.359 173.903C741.578 173.903 742.479 173.568 743.062 172.899C743.663 172.213 743.963 171.38 743.963 170.402C743.963 169.39 743.663 168.54 743.062 167.854C742.479 167.151 741.578 166.799 740.359 166.799H735.881V173.903H740.359Z" stroke="#D67940" stroke-width="1.64002" mask="url(#path-2-outside-1_661_16)"/>
<path fill-rule="evenodd" clip-rule="evenodd" d="M191.03 0.511984C186.887 0.751505 183.161 1.32192 176.761 2.69757C170.787 3.98151 167.644 4.96513 163.076 6.98073C160.817 7.97812 157.381 9.2802 155.442 9.87447C151.157 11.188 141.503 15.2726 136.473 17.9009C133.012 19.7093 104.096 38.3875 102.506 39.8415C101.235 41.0045 100.87 42.3354 101.475 43.6043C102.413 45.5725 103.839 45.9867 109.614 45.9682C113.997 45.9541 115.072 45.8359 117.901 45.0585C119.688 44.567 128.224 41.1886 136.87 37.5511C158.189 28.5806 160.293 27.7643 165.514 26.4357C168.988 25.5515 171.027 25.2381 174.243 25.0923C182.294 24.7281 186.621 25.962 198.416 31.9843C202.94 34.2942 208.584 37.0586 210.958 38.1272C216.714 40.7182 219.875 42.5669 222.289 44.7528C225.3 47.4786 225.848 48.9594 224.722 51.3217C223.954 52.9338 222.285 53.7542 214.115 56.5367C205.237 59.5604 203.531 60.3519 200.336 62.9292C193.297 68.6068 191.08 74.9187 194.233 80.302C195.345 82.2014 195.978 82.4933 199.403 82.6885C204.076 82.9542 206.578 82.0858 214.274 77.5259C219.571 74.3869 223.57 72.4603 231.822 69.0711C243.435 64.3015 242.525 64.5269 261.367 61.7491L271.775 60.2145L276.979 58.172C279.841 57.0487 283.365 55.6609 284.81 55.0882L287.436 54.0468L289.488 49.1757C290.617 46.4966 294.21 39.0137 297.474 32.547C300.737 26.0803 303.515 20.446 303.647 20.0261C303.862 19.3444 303.679 19.1704 301.936 18.3991C295.017 15.3374 266.606 9.64804 254.317 8.8633C248.536 8.49445 247.159 8.2734 232.326 5.33566C210.151 0.94366 201.348 -0.0846347 191.03 0.511984ZM172.71 26.6739C169.957 26.9648 167.184 28.2114 164.227 30.4884C161.994 32.2077 155.538 38.8363 149.487 45.6226C140.314 55.9105 137.092 61.0329 138.47 63.1378C140.447 66.1562 145.158 65.2468 151.315 60.659C155.267 57.7138 156.367 56.656 161.324 51.0234C171.753 39.1766 175.702 36.1183 179.316 37.0918C180.019 37.2813 180.667 37.5544 180.756 37.6985C180.845 37.843 179.681 39.0097 178.168 40.2913C169.947 47.2589 161.537 55.8847 160.806 58.1005C159.935 60.7426 161.334 61.7907 164.97 61.22C169.4 60.5253 172.536 58.7626 181.744 51.7957C185.651 48.8395 189.754 45.9477 190.862 45.3699C192.728 44.3974 193.112 44.3221 196.066 44.3544C201.899 44.4179 213.109 46.803 218.879 49.2083C221.627 50.3538 222.115 50.4664 222.53 50.0512C223.419 49.1619 223.095 47.8629 221.607 46.3458C219.751 44.4538 216.146 42.3448 209.273 39.1306C206.164 37.6767 200.523 34.9167 196.738 32.9971C186.063 27.5846 179.768 25.9281 172.71 26.6739ZM150.742 33.6828C131.808 42.6442 129.873 43.6076 126.401 45.7959C124.554 46.9596 121.785 48.8935 120.248 50.0938C115.724 53.6245 114.515 55.9576 116.288 57.7323C118.638 60.0832 127.124 60.2017 131.531 57.9456C133.792 56.7883 142.328 50.2252 145.018 47.5757C149.532 43.1309 158.889 33.322 160.734 31.1018C162.397 29.099 162.813 28.3404 162.241 28.3535C162.102 28.3565 156.928 30.7548 150.742 33.6828Z" fill="#285185"/>
<path d="M90.7958 130.821C95.157 128.285 97.6993 127.146 100.208 126.604C101.878 126.243 106.596 126.51 107.553 127.02C108.423 127.483 108.902 128.064 109.849 129.807C110.42 130.857 110.584 131.736 110.597 133.836C110.613 136.186 110.48 136.807 109.532 138.809C107.767 142.535 102.52 147.496 98.3616 149.368C97.3461 149.825 93.4687 151.23 89.7451 152.489C83.0236 154.763 80.014 156.036 79.3332 156.892C79.1378 157.137 78.7957 157.904 78.5728 158.597C77.9977 160.381 78.5318 161.711 80.6562 163.783C83.0051 166.075 85.6018 167.689 90.818 170.102C93.2065 171.206 99.3932 174.238 104.566 176.839C113.493 181.328 117.14 182.803 121.458 183.671C124.012 184.185 131.033 184.112 134.326 183.537C140.558 182.45 143.188 181.476 167.828 171.123C176.031 167.677 183.811 164.57 185.117 164.22C191.157 162.599 197.784 162.445 200.313 163.867C201.83 164.72 202.624 166.089 202.315 167.321C202.209 167.741 201.55 168.625 200.85 169.285C199.065 170.968 171.088 189.161 167.013 191.289C162.268 193.767 152.543 197.86 148.382 199.131C146.443 199.723 143.002 201.024 140.735 202.022C135.5 204.327 131.358 205.553 123.926 206.998C116.001 208.538 110.753 209.015 104.8 208.738C95.6347 208.31 90.1805 207.496 70.8338 203.671C57.5963 201.053 51.7486 200.144 48.1458 200.144C42.089 200.144 13.9026 194.803 5.37128 192.039C1.24479 190.702 0 190.056 0 189.25C0 188.843 1.21693 186.18 2.70411 183.332C6.79669 175.494 12.451 163.85 14.2668 159.52C15.1574 157.396 16.0507 155.481 16.2518 155.264C16.4529 155.047 19.9409 153.56 24.0029 151.961L31.3884 149.052L44.4809 147.086C58.8988 144.921 60.2567 144.629 65.6304 142.543C77.4932 137.938 82.8289 135.453 90.7958 130.821Z" fill="#285185"/>
<path d="M143.371 156.834C148.743 150.562 155.453 145.468 159.706 144.431C162.114 143.844 164.489 144.636 165.236 146.275C166.479 149.004 161.35 155.967 146.285 172.004C139.156 179.592 135.095 182.207 129.873 182.575C123.236 183.042 117.109 181.313 106.432 175.96C102.455 173.966 95.9311 170.742 91.9349 168.796C85.9167 165.866 84.3174 164.932 82.619 163.36C80.4642 161.365 80.0764 160.323 81.012 159.042C81.437 158.461 81.5075 158.464 82.7745 159.109C87.8309 161.682 101.911 164.892 108.14 164.891C111.216 164.891 113.257 163.799 120.722 158.16C128.648 152.172 131.233 150.473 134.466 149.127C137.75 147.76 141.343 147.371 142.342 148.276C143.144 149.001 143.19 150.047 142.493 151.714C141.848 153.259 133.44 161.804 127.109 167.348L122.454 171.425L123.416 171.836C125.47 172.714 127.375 172.237 130.441 170.076C132.778 168.429 138.167 162.911 143.371 156.834Z" fill="#285185"/>
<path d="M165.713 155.612C171.163 151.519 173.371 150.309 176.26 149.83C181.944 148.887 187.583 150.208 188.189 152.623C188.479 153.777 187.631 155.126 185.173 157.426C180.844 161.476 175.303 164.756 162.313 170.957C146.589 178.464 141.194 180.961 141.031 180.809C140.534 180.346 145.011 175.347 155.4 164.761C159.178 160.91 162.048 158.366 165.713 155.612Z" fill="#285185"/>
<path fill-rule="evenodd" clip-rule="evenodd" d="M118.88 73.8884C112.149 75.3055 105.658 80.1587 102.898 85.8412C102.007 87.6736 101.383 90.3316 101.232 92.9389C100.627 103.394 106.549 115.04 119.149 128.17L125.758 135.057L125.863 131.253C125.92 129.161 125.93 127.226 125.885 126.954C125.724 125.972 127.74 122.749 129.12 121.781C129.896 121.236 131.544 120.791 132.782 120.791C137.663 120.791 139.748 124.073 139.748 131.757C139.748 136.109 139.959 137.272 140.906 138.129C141.543 138.706 142.255 139.179 142.489 139.179C142.723 139.179 142.914 133.301 142.914 126.117V113.055L145.067 110.899C147.388 108.576 149.75 108.134 152.69 109.475C156.032 111 156.475 112.598 156.832 124.387L157.161 135.276L159.127 133.514C160.889 131.935 161.127 131.287 161.413 127.287C161.789 122.022 163.336 119.353 166.646 118.259C171.072 116.796 175.208 120.455 175.208 125.832C175.208 127.244 175.351 128.4 175.527 128.4C176.612 128.4 185.291 117.339 188.214 112.231C189.212 110.487 190.587 108.673 190.587 108.673C190.587 108.673 191.313 106.342 191.901 104.568C194.529 96.6469 194.416 90.6049 191.534 84.8248C186.53 74.7932 170.399 70.2761 159.114 75.7462C156.018 77.247 151.978 81.1351 149.308 85.183L147.492 87.9367L145.129 84.3727C142.217 79.9799 138.306 76.6992 134.048 75.0792C130.235 73.6284 122.864 73.0501 118.88 73.8884ZM152.448 97.2315C155.45 99.6657 153.476 104.939 149.563 104.939C148.769 104.939 147.471 104.413 146.678 103.77C143.676 101.336 145.649 96.0623 149.563 96.0623C150.356 96.0623 151.654 96.5886 152.448 97.2315ZM170.656 106.232C173.516 108.9 171.571 113.816 167.656 113.816C165.605 113.816 163.177 111.348 163.177 109.264C163.177 107.576 165.983 104.939 167.778 104.939C168.598 104.939 169.894 105.521 170.656 106.232ZM133.761 109.666C135.66 111.567 135.726 113.122 134.003 115.316C131.479 118.529 126.45 116.874 126.45 112.829C126.45 108.503 130.745 106.646 133.761 109.666Z" fill="#D67940"/>
</svg>
