<svg width="134" height="39" viewBox="0 0 134 39" fill="none" xmlns="http://www.w3.org/2000/svg">
<path d="M45.1477 17.3408C43.7475 17.3408 42.3594 17.3408 40.9714 17.3408V18.8384H43.5405V22.2233C43.5405 23.5139 42.8586 24.5245 41.3975 24.5245C39.9486 24.5245 39.2424 23.7818 39.2424 22.3207H37.6595C37.6595 24.7315 39.2181 26.0343 41.3975 26.0343C43.7475 26.0343 45.1477 24.4271 45.1477 22.2233V17.3408Z" fill="white"/>
<path d="M49.4966 19.7394C47.585 19.7394 46.3917 21.1518 46.3917 22.8686C46.3917 24.5976 47.5606 25.9978 49.5088 25.9978C51.4569 25.9978 52.638 24.5976 52.638 22.8686C52.638 21.1518 51.4082 19.7394 49.4966 19.7394ZM49.5088 21.0909C50.5072 21.0909 51.1403 21.9676 51.1403 22.8686C51.1403 23.7818 50.5924 24.6341 49.5088 24.6341C48.4251 24.6341 47.8772 23.7818 47.8772 22.8686C47.8772 21.9676 48.4373 21.0909 49.5088 21.0909Z" fill="white"/>
<path d="M58.1838 19.8612L57.088 22.4911L56.467 24.1471L55.8947 22.4546L54.9815 19.8612H53.2526L55.6512 25.7665L54.531 28.3721H56.1626L59.8275 19.8612H58.1838Z" fill="white"/>
<path d="M62.8173 25.8639V21.2492H64.5828V19.9464H62.8173V19.5446C62.8173 18.814 63.2069 18.4731 63.7183 18.4731C64.0227 18.4731 64.3149 18.5827 64.6315 18.7897L65.1794 17.6817C64.6924 17.3651 64.1445 17.1946 63.6209 17.1946C62.4155 17.1946 61.3318 17.9374 61.3318 19.5446V19.9464H60.2117V21.2492H61.3318V25.8639H62.8173Z" fill="white"/>
<path d="M65.774 19.8612V23.0147C65.774 24.8776 66.8212 25.9613 68.2579 25.9613C69.0981 25.9613 69.6703 25.6691 70.2913 25.0603L70.3887 25.876H71.7159V19.8612H70.2426V22.9295C70.2426 23.8427 69.6216 24.6098 68.7084 24.6098C67.7587 24.6098 67.2595 23.9157 67.2595 23.0025V19.8612H65.774Z" fill="white"/>
<path d="M73.2699 17.3529V25.8639H74.7432V17.3529H73.2699Z" fill="white"/>
<path d="M85.515 23.6844C84.955 24.2445 84.1148 24.5489 83.3721 24.5489C81.2657 24.5489 80.4499 23.0756 80.4377 21.6632C80.4255 20.2386 81.3144 18.7044 83.3721 18.7044C84.1148 18.7044 84.8697 18.9601 85.4298 19.5081L86.5013 18.4731C85.6246 17.6086 84.5288 17.1703 83.3721 17.1703C80.2916 17.1703 78.8427 19.435 78.8548 21.6632C78.867 23.8792 80.2064 26.0587 83.3721 26.0587C84.6019 26.0587 85.7342 25.6569 86.6109 24.7924L85.515 23.6844Z" fill="white"/>
<path d="M92.1013 20.6891C91.7603 20.0925 90.9932 19.715 90.1896 19.715C88.4363 19.7029 87.0604 20.7865 87.0604 22.8564C87.0604 24.9629 88.3754 26.0587 90.1531 26.0465C90.8228 26.0343 91.7603 25.6934 92.1013 24.9872L92.1743 25.8639H93.5745V19.8612H92.15L92.1013 20.6891ZM90.3236 21.0422C92.6613 21.0422 92.6613 24.6828 90.3236 24.6828C89.3373 24.6828 88.5459 24.001 88.5459 22.8564C88.5459 21.7119 89.3373 21.0422 90.3236 21.0422Z" fill="white"/>
<path d="M95.0762 19.8612V25.8639H96.5616V22.6981C96.5616 21.5901 97.28 21.1762 98.0593 21.1762C98.5463 21.1762 98.8263 21.3101 99.1307 21.5658L99.8004 20.2751C99.4717 19.9464 98.875 19.7029 98.2541 19.7029C97.6453 19.7029 97.0243 19.8125 96.5616 20.5552L96.452 19.8612H95.0762Z" fill="white"/>
<path d="M106.553 23.3922C106.784 20.9205 105.53 19.6785 103.521 19.6785C101.573 19.6785 100.331 20.9935 100.331 22.8199C100.331 24.7437 101.561 26.0222 103.631 26.0222C104.544 26.0222 105.579 25.7056 106.212 25.0481L105.262 24.1105C104.922 24.4636 104.203 24.6706 103.655 24.6706C102.608 24.6706 101.963 24.1349 101.865 23.3922H106.553ZM101.89 22.1624C102.109 21.3831 102.766 20.9935 103.57 20.9935C104.422 20.9935 105.031 21.3831 105.128 22.1624H101.89Z" fill="white"/>
<path d="M110.756 17.3408V25.8639H116.746V24.3784H112.363V17.3408H110.756Z" fill="white"/>
<path d="M118.122 17.3408V25.8639H124.112V24.3784H119.729V17.3408H118.122Z" fill="white"/>
<path d="M131.904 23.6844C131.344 24.2445 130.504 24.5489 129.761 24.5489C127.655 24.5489 126.839 23.0756 126.827 21.6632C126.815 20.2386 127.704 18.7044 129.761 18.7044C130.504 18.7044 131.259 18.9601 131.819 19.5081L132.89 18.4731C132.014 17.6086 130.918 17.1703 129.761 17.1703C126.681 17.1703 125.232 19.435 125.244 21.6632C125.256 23.8792 126.596 26.0587 129.761 26.0587C130.991 26.0587 132.123 25.6569 133 24.7924L131.904 23.6844Z" fill="white"/>
<mask id="path-2-outside-1_740_312" maskUnits="userSpaceOnUse" x="36.6595" y="29.0421" width="97" height="5" fill="black">
<rect fill="white" x="36.6595" y="29.0421" width="97" height="5"/>
<path d="M39.8684 30.1109H40.4045V33.3187H39.8684V31.9302H38.1911V33.3187H37.6595V30.1109H38.1911V31.4444H39.8684V30.1109Z"/>
<path d="M43.329 33.3874C43.0082 33.3874 42.7225 33.3187 42.472 33.1812C42.2245 33.0407 42.0321 32.8451 41.8946 32.5946C41.7571 32.3411 41.6884 32.0508 41.6884 31.7239C41.6884 31.3909 41.7571 31.0976 41.8946 30.8441C42.0351 30.5905 42.2322 30.3934 42.4858 30.2529C42.7393 30.1124 43.0311 30.0421 43.361 30.0421C43.6818 30.0421 43.9659 30.1124 44.2134 30.2529C44.4609 30.3904 44.6533 30.5859 44.7908 30.8395C44.9283 31.09 44.997 31.3787 44.997 31.7056C44.997 32.0386 44.9268 32.3319 44.7862 32.5855C44.6487 32.839 44.4532 33.0361 44.1997 33.1766C43.9491 33.3172 43.6589 33.3874 43.329 33.3874ZM43.3381 32.8971C43.555 32.8971 43.7475 32.8482 43.9155 32.7504C44.0836 32.6496 44.2134 32.5106 44.305 32.3334C44.3998 32.1562 44.4471 31.9531 44.4471 31.7239C44.4471 31.4887 44.4013 31.2809 44.3096 31.1007C44.218 30.9204 44.0881 30.7814 43.9201 30.6837C43.7551 30.5829 43.5642 30.5325 43.3473 30.5325C43.1304 30.5325 42.9379 30.5829 42.7699 30.6837C42.6018 30.7814 42.4705 30.9189 42.3758 31.0961C42.2841 31.2733 42.2383 31.4765 42.2383 31.7056C42.2383 31.9408 42.2841 32.1486 42.3758 32.3288C42.4674 32.5091 42.5957 32.6496 42.7607 32.7504C42.9287 32.8482 43.1212 32.8971 43.3381 32.8971Z"/>
<path d="M49.6777 30.1109V33.3187H49.1462V31.3482C49.1462 31.2198 49.1507 31.1129 49.1599 31.0274L49.1507 31.0228C49.1232 31.0717 49.0682 31.1572 48.9858 31.2794L48.917 31.3802L48.0692 32.6359H47.8859L47.0473 31.3848C46.9893 31.3023 46.9114 31.1878 46.8136 31.0411L46.7999 31.0457C46.809 31.1312 46.8136 31.2382 46.8136 31.3665V33.3187H46.282V30.1109H46.8044L47.9822 31.8752L49.1599 30.1109H49.6777Z"/>
<path d="M51.7021 32.8283H53.416V33.3187H51.1706V30.1109H53.3885V30.592H51.7021V31.4536H53.3106V31.9302H51.7021V32.8283Z"/>
<path d="M58.148 30.1109V33.3187H57.6165V31.3482C57.6165 31.2198 57.621 31.1129 57.6302 31.0274L57.621 31.0228C57.5936 31.0717 57.5386 31.1572 57.4561 31.2794L57.3873 31.3802L56.5396 32.6359H56.3562L55.5176 31.3848C55.4596 31.3023 55.3817 31.1878 55.2839 31.0411L55.2702 31.0457C55.2793 31.1312 55.2839 31.2382 55.2839 31.3665V33.3187H54.7523V30.1109H55.2747L56.4525 31.8752L57.6302 30.1109H58.148Z"/>
<path d="M62.1201 33.3187L61.8176 32.6496H60.1358L59.8333 33.3187H59.2559L60.6857 30.1109H61.2769L62.7066 33.3187H62.1201ZM60.3374 32.173H61.616L61.1898 31.1465C61.1776 31.1221 61.1623 31.0854 61.144 31.0365C61.0462 30.8074 60.9927 30.6745 60.9836 30.6379H60.9744L60.9332 30.7341L60.759 31.1511L60.3374 32.173Z"/>
<path d="M66.4574 33.3187H65.738L64.6381 32.1776C64.4854 32.0157 64.3892 31.9088 64.3494 31.8568L64.3403 31.8614C64.3464 31.9195 64.3494 32.0279 64.3494 32.1868V33.3187H63.8179V30.1109H64.3494V31.174C64.3494 31.3329 64.3464 31.4413 64.3403 31.4994L64.3494 31.504C64.4839 31.3512 64.5877 31.2336 64.661 31.1511L65.628 30.1109H66.3154L64.8581 31.6644L66.4574 33.3187Z"/>
<path d="M67.4712 30.1109H68.0028V33.3187H67.4712V30.1109Z"/>
<path d="M70.0134 30.1109L71.4615 32.0951L71.7135 32.4526L71.7227 32.448C71.7135 32.3563 71.7089 32.2387 71.7089 32.0951V30.1109H72.2405V33.3187H71.7273L70.2792 31.3344C70.1508 31.1572 70.0668 31.0381 70.0271 30.977L70.0134 30.9816C70.0256 31.0976 70.0317 31.2153 70.0317 31.3344V33.3187H69.5001V30.1109H70.0134Z"/>
<path d="M76.4803 31.4948V32.8558C76.3031 33.033 76.1075 33.1659 75.8937 33.2545C75.6798 33.3401 75.44 33.3828 75.1742 33.3828C74.8473 33.3828 74.5586 33.3141 74.3081 33.1766C74.0606 33.0391 73.8682 32.8451 73.7307 32.5946C73.5932 32.3441 73.5245 32.0539 73.5245 31.7239C73.5245 31.4001 73.5963 31.1114 73.7398 30.8578C73.8834 30.6012 74.0835 30.4011 74.3402 30.2575C74.5999 30.1139 74.8931 30.0421 75.22 30.0421C75.4461 30.0421 75.6584 30.0803 75.857 30.1567C76.0556 30.23 76.2313 30.3323 76.384 30.4637L76.0862 30.8578C75.8295 30.644 75.5423 30.537 75.2246 30.537C74.9955 30.537 74.7923 30.5859 74.6151 30.6837C74.441 30.7814 74.305 30.9189 74.2073 31.0961C74.1126 31.2703 74.0652 31.4734 74.0652 31.7056C74.0652 31.947 74.111 32.1578 74.2027 32.338C74.2943 32.5152 74.4257 32.6527 74.5968 32.7504C74.7679 32.8451 74.9665 32.8925 75.1925 32.8925C75.3483 32.8925 75.4904 32.8726 75.6187 32.8329C75.747 32.7902 75.8708 32.7245 75.9899 32.6359V31.9622H75.0963V31.4948H76.4803Z"/>
<path d="M81.8835 33.3553L81.4894 32.975C81.3549 33.0972 81.1991 33.195 81.0219 33.2683C80.8447 33.3385 80.6538 33.3737 80.4491 33.3737C80.2322 33.3737 80.0443 33.337 79.8855 33.2637C79.7296 33.1904 79.6105 33.0926 79.528 32.9704C79.4455 32.8482 79.4043 32.7138 79.4043 32.5671C79.4043 32.3838 79.4593 32.2112 79.5693 32.0493C79.6823 31.8843 79.8503 31.7377 80.0733 31.6094C79.8412 31.3527 79.7251 31.1038 79.7251 30.8624C79.7251 30.7158 79.7633 30.5813 79.8396 30.4591C79.9191 30.3339 80.0306 30.2346 80.1742 30.1613C80.3208 30.0879 80.4888 30.0513 80.6782 30.0513C80.8432 30.0513 80.9899 30.0849 81.1182 30.1521C81.2465 30.2163 81.3458 30.3064 81.416 30.4225C81.4863 30.5386 81.5214 30.6684 81.5214 30.812C81.5214 31.1481 81.2969 31.4429 80.8478 31.6964L81.4573 32.2922C81.5153 32.1853 81.5612 32.0783 81.5948 31.9714C81.6284 31.8614 81.6482 31.7636 81.6543 31.6781L82.1126 31.7377C82.1034 31.8752 82.0714 32.0233 82.0164 32.1822C81.9644 32.3411 81.8942 32.4892 81.8056 32.6267L82.218 33.03L81.8835 33.3553ZM80.6553 30.4958C80.5209 30.4958 80.414 30.5325 80.3345 30.6058C80.2582 30.676 80.22 30.7601 80.22 30.8578C80.22 30.9525 80.2429 31.0365 80.2887 31.1099C80.3376 31.1832 80.4216 31.2779 80.5408 31.394C80.6996 31.3054 80.8203 31.2183 80.9028 31.1328C80.9853 31.0442 81.0265 30.9449 81.0265 30.8349C81.0265 30.7371 80.9929 30.6562 80.9257 30.592C80.8585 30.5279 80.7684 30.4958 80.6553 30.4958ZM80.472 32.9154C80.7134 32.9154 80.9425 32.8299 81.1594 32.6588L80.3804 31.9118C80.2307 31.9943 80.1176 32.089 80.0413 32.1959C79.9649 32.3029 79.9267 32.4113 79.9267 32.5213C79.9267 32.6282 79.9756 32.7214 80.0733 32.8008C80.1742 32.8772 80.3071 32.9154 80.472 32.9154Z"/>
<path d="M86.5352 33.3828C86.2053 33.3828 85.912 33.3126 85.6554 33.172C85.3987 33.0315 85.1986 32.836 85.055 32.5855C84.9145 32.3319 84.8442 32.0447 84.8442 31.7239C84.8442 31.4001 84.916 31.1114 85.0596 30.8578C85.2032 30.6012 85.4033 30.4026 85.6599 30.2621C85.9196 30.1185 86.2129 30.0467 86.5398 30.0467C86.7628 30.0467 86.9721 30.0864 87.1676 30.1658C87.3662 30.2422 87.5449 30.3537 87.7038 30.5004L87.3922 30.8991C87.2608 30.7799 87.1248 30.6928 86.9843 30.6379C86.8438 30.5798 86.6926 30.5508 86.5306 30.5508C86.3076 30.5508 86.1106 30.5997 85.9395 30.6974C85.7684 30.7921 85.634 30.9281 85.5362 31.1053C85.4415 31.2794 85.3941 31.4795 85.3941 31.7056C85.3941 31.9347 85.443 32.1379 85.5408 32.3151C85.6386 32.4923 85.7745 32.6313 85.9486 32.7321C86.1228 32.8299 86.3214 32.8788 86.5444 32.8788C86.7124 32.8788 86.8682 32.8528 87.0118 32.8008C87.1554 32.7459 87.2913 32.6603 87.4197 32.5442L87.7313 32.9429C87.4227 33.2362 87.024 33.3828 86.5352 33.3828Z"/>
<path d="M90.2859 33.3874C89.9651 33.3874 89.6794 33.3187 89.4289 33.1812C89.1815 33.0407 88.989 32.8451 88.8515 32.5946C88.714 32.3411 88.6453 32.0508 88.6453 31.7239C88.6453 31.3909 88.714 31.0976 88.8515 30.8441C88.9921 30.5905 89.1891 30.3934 89.4427 30.2529C89.6963 30.1124 89.988 30.0421 90.318 30.0421C90.6387 30.0421 90.9229 30.1124 91.1703 30.2529C91.4178 30.3904 91.6103 30.5859 91.7477 30.8395C91.8852 31.09 91.9539 31.3787 91.9539 31.7056C91.9539 32.0386 91.8837 32.3319 91.7431 32.5855C91.6057 32.839 91.4101 33.0361 91.1566 33.1766C90.9061 33.3172 90.6158 33.3874 90.2859 33.3874ZM90.295 32.8971C90.512 32.8971 90.7044 32.8482 90.8725 32.7504C91.0405 32.6496 91.1703 32.5106 91.262 32.3334C91.3567 32.1562 91.404 31.9531 91.404 31.7239C91.404 31.4887 91.3582 31.2809 91.2666 31.1007C91.1749 30.9204 91.0451 30.7814 90.877 30.6837C90.7121 30.5829 90.5211 30.5325 90.3042 30.5325C90.0873 30.5325 89.8948 30.5829 89.7268 30.6837C89.5588 30.7814 89.4274 30.9189 89.3327 31.0961C89.241 31.2733 89.1952 31.4765 89.1952 31.7056C89.1952 31.9408 89.241 32.1486 89.3327 32.3288C89.4243 32.5091 89.5527 32.6496 89.7176 32.7504C89.8857 32.8482 90.0781 32.8971 90.295 32.8971Z"/>
<path d="M96.6347 30.1109V33.3187H96.1031V31.3482C96.1031 31.2198 96.1077 31.1129 96.1168 31.0274L96.1077 31.0228C96.0802 31.0717 96.0252 31.1572 95.9427 31.2794L95.8739 31.3802L95.0262 32.6359H94.8428L94.0042 31.3848C93.9462 31.3023 93.8683 31.1878 93.7705 31.0411L93.7568 31.0457C93.7659 31.1312 93.7705 31.2382 93.7705 31.3665V33.3187H93.2389V30.1109H93.7614L94.9391 31.8752L96.1168 30.1109H96.6347Z"/>
<path d="M99.4885 30.1109C99.739 30.1109 99.9498 30.1628 100.121 30.2667C100.295 30.3675 100.425 30.5019 100.51 30.6699C100.596 30.838 100.639 31.0213 100.639 31.2198C100.639 31.4215 100.596 31.6078 100.51 31.7789C100.425 31.95 100.295 32.0875 100.121 32.1914C99.9498 32.2952 99.739 32.3472 99.4885 32.3472H98.6591V33.3187H98.1275V30.1109H99.4885ZM99.4564 31.8614C99.6734 31.8614 99.8337 31.8018 99.9376 31.6827C100.045 31.5605 100.098 31.4123 100.098 31.2382C100.098 31.0579 100.045 30.9067 99.9376 30.7845C99.8337 30.6592 99.6734 30.5966 99.4564 30.5966H98.6591V31.8614H99.4564Z"/>
<path d="M104.09 33.3187L103.788 32.6496H102.106L101.803 33.3187H101.226L102.656 30.1109H103.247L104.677 33.3187H104.09ZM102.307 32.173H103.586L103.16 31.1465C103.147 31.1221 103.132 31.0854 103.114 31.0365C103.016 30.8074 102.963 30.6745 102.954 30.6379H102.944L102.903 30.7341L102.729 31.1511L102.307 32.173Z"/>
<path d="M106.301 30.1109L107.749 32.0951L108.001 32.4526L108.01 32.448C108.001 32.3563 107.997 32.2387 107.997 32.0951V30.1109H108.528V33.3187H108.015L106.567 31.3344C106.439 31.1572 106.354 31.0381 106.315 30.977L106.301 30.9816C106.313 31.0976 106.319 31.2153 106.319 31.3344V33.3187H105.788V30.1109H106.301Z"/>
<path d="M110.023 30.1109H110.555V33.3187H110.023V30.1109Z"/>
<path d="M113.482 33.3874C113.161 33.3874 112.875 33.3187 112.625 33.1812C112.377 33.0407 112.185 32.8451 112.047 32.5946C111.91 32.3411 111.841 32.0508 111.841 31.7239C111.841 31.3909 111.91 31.0976 112.047 30.8441C112.188 30.5905 112.385 30.3934 112.638 30.2529C112.892 30.1124 113.184 30.0421 113.514 30.0421C113.834 30.0421 114.119 30.1124 114.366 30.2529C114.613 30.3904 114.806 30.5859 114.943 30.8395C115.081 31.09 115.15 31.3787 115.15 31.7056C115.15 32.0386 115.079 32.3319 114.939 32.5855C114.801 32.839 114.606 33.0361 114.352 33.1766C114.102 33.3172 113.812 33.3874 113.482 33.3874ZM113.491 32.8971C113.708 32.8971 113.9 32.8482 114.068 32.7504C114.236 32.6496 114.366 32.5106 114.458 32.3334C114.552 32.1562 114.6 31.9531 114.6 31.7239C114.6 31.4887 114.554 31.2809 114.462 31.1007C114.371 30.9204 114.241 30.7814 114.073 30.6837C113.908 30.5829 113.717 30.5325 113.5 30.5325C113.283 30.5325 113.091 30.5829 112.923 30.6837C112.754 30.7814 112.623 30.9189 112.528 31.0961C112.437 31.2733 112.391 31.4765 112.391 31.7056C112.391 31.9408 112.437 32.1486 112.528 32.3288C112.62 32.5091 112.748 32.6496 112.913 32.7504C113.081 32.8482 113.274 32.8971 113.491 32.8971Z"/>
<path d="M116.948 30.1109L118.396 32.0951L118.648 32.4526L118.657 32.448C118.648 32.3563 118.643 32.2387 118.643 32.0951V30.1109H119.175V33.3187H118.662L117.214 31.3344C117.085 31.1572 117.001 31.0381 116.962 30.977L116.948 30.9816C116.96 31.0976 116.966 31.2153 116.966 31.3344V33.3187H116.435V30.1109H116.948Z"/>
<path d="M121.724 33.3828C121.479 33.3828 121.249 33.3462 121.032 33.2729C120.818 33.1965 120.633 33.0926 120.477 32.9612L120.734 32.5534C120.874 32.6573 121.029 32.7397 121.197 32.8008C121.368 32.8619 121.544 32.8925 121.724 32.8925C121.932 32.8925 122.101 32.8467 122.232 32.755C122.367 32.6634 122.434 32.5396 122.434 32.3838C122.434 32.2464 122.378 32.1364 122.265 32.0539C122.152 31.9714 121.962 31.9118 121.696 31.8752C121.314 31.8232 121.03 31.7255 120.844 31.5819C120.661 31.4352 120.569 31.2382 120.569 30.9907C120.569 30.8044 120.619 30.6409 120.72 30.5004C120.824 30.3568 120.965 30.2453 121.142 30.1658C121.322 30.0864 121.524 30.0467 121.747 30.0467C121.958 30.0467 122.152 30.0742 122.329 30.1292C122.506 30.1811 122.677 30.2682 122.842 30.3904L122.572 30.7799C122.459 30.6944 122.33 30.6302 122.187 30.5874C122.046 30.5447 121.904 30.5233 121.76 30.5233C121.571 30.5233 121.414 30.5645 121.288 30.647C121.166 30.7265 121.105 30.8319 121.105 30.9632C121.105 31.0854 121.16 31.1801 121.27 31.2473C121.383 31.3115 121.571 31.3665 121.834 31.4123C122.234 31.4765 122.523 31.588 122.7 31.7468C122.88 31.9027 122.97 32.1119 122.97 32.3747C122.97 32.5794 122.918 32.7581 122.814 32.9108C122.711 33.0636 122.564 33.1812 122.375 33.2637C122.185 33.3431 121.968 33.3828 121.724 33.3828Z"/>
<path d="M126.429 30.1109H126.965V33.3187H126.429V31.9302H124.752V33.3187H124.22V30.1109H124.752V31.4444H126.429V30.1109Z"/>
<path d="M128.46 30.1109H128.991V33.3187H128.46V30.1109Z"/>
<path d="M131.85 30.1109C132.1 30.1109 132.311 30.1628 132.482 30.2667C132.656 30.3675 132.786 30.5019 132.872 30.6699C132.957 30.838 133 31.0213 133 31.2198C133 31.4215 132.957 31.6078 132.872 31.7789C132.786 31.95 132.656 32.0875 132.482 32.1914C132.311 32.2952 132.1 32.3472 131.85 32.3472H131.02V33.3187H130.489V30.1109H131.85ZM131.818 31.8614C132.035 31.8614 132.195 31.8018 132.299 31.6827C132.406 31.5605 132.459 31.4123 132.459 31.2382C132.459 31.0579 132.406 30.9067 132.299 30.7845C132.195 30.6592 132.035 30.5966 131.818 30.5966H131.02V31.8614H131.818Z"/>
</mask>
<path d="M39.8684 30.1109H40.4045V33.3187H39.8684V31.9302H38.1911V33.3187H37.6595V30.1109H38.1911V31.4444H39.8684V30.1109Z" fill="white"/>
<path d="M43.329 33.3874C43.0082 33.3874 42.7225 33.3187 42.472 33.1812C42.2245 33.0407 42.0321 32.8451 41.8946 32.5946C41.7571 32.3411 41.6884 32.0508 41.6884 31.7239C41.6884 31.3909 41.7571 31.0976 41.8946 30.8441C42.0351 30.5905 42.2322 30.3934 42.4858 30.2529C42.7393 30.1124 43.0311 30.0421 43.361 30.0421C43.6818 30.0421 43.9659 30.1124 44.2134 30.2529C44.4609 30.3904 44.6533 30.5859 44.7908 30.8395C44.9283 31.09 44.997 31.3787 44.997 31.7056C44.997 32.0386 44.9268 32.3319 44.7862 32.5855C44.6487 32.839 44.4532 33.0361 44.1997 33.1766C43.9491 33.3172 43.6589 33.3874 43.329 33.3874ZM43.3381 32.8971C43.555 32.8971 43.7475 32.8482 43.9155 32.7504C44.0836 32.6496 44.2134 32.5106 44.305 32.3334C44.3998 32.1562 44.4471 31.9531 44.4471 31.7239C44.4471 31.4887 44.4013 31.2809 44.3096 31.1007C44.218 30.9204 44.0881 30.7814 43.9201 30.6837C43.7551 30.5829 43.5642 30.5325 43.3473 30.5325C43.1304 30.5325 42.9379 30.5829 42.7699 30.6837C42.6018 30.7814 42.4705 30.9189 42.3758 31.0961C42.2841 31.2733 42.2383 31.4765 42.2383 31.7056C42.2383 31.9408 42.2841 32.1486 42.3758 32.3288C42.4674 32.5091 42.5957 32.6496 42.7607 32.7504C42.9287 32.8482 43.1212 32.8971 43.3381 32.8971Z" fill="white"/>
<path d="M49.6777 30.1109V33.3187H49.1462V31.3482C49.1462 31.2198 49.1507 31.1129 49.1599 31.0274L49.1507 31.0228C49.1232 31.0717 49.0682 31.1572 48.9858 31.2794L48.917 31.3802L48.0692 32.6359H47.8859L47.0473 31.3848C46.9893 31.3023 46.9114 31.1878 46.8136 31.0411L46.7999 31.0457C46.809 31.1312 46.8136 31.2382 46.8136 31.3665V33.3187H46.282V30.1109H46.8044L47.9822 31.8752L49.1599 30.1109H49.6777Z" fill="white"/>
<path d="M51.7021 32.8283H53.416V33.3187H51.1706V30.1109H53.3885V30.592H51.7021V31.4536H53.3106V31.9302H51.7021V32.8283Z" fill="white"/>
<path d="M58.148 30.1109V33.3187H57.6165V31.3482C57.6165 31.2198 57.621 31.1129 57.6302 31.0274L57.621 31.0228C57.5936 31.0717 57.5386 31.1572 57.4561 31.2794L57.3873 31.3802L56.5396 32.6359H56.3562L55.5176 31.3848C55.4596 31.3023 55.3817 31.1878 55.2839 31.0411L55.2702 31.0457C55.2793 31.1312 55.2839 31.2382 55.2839 31.3665V33.3187H54.7523V30.1109H55.2747L56.4525 31.8752L57.6302 30.1109H58.148Z" fill="white"/>
<path d="M62.1201 33.3187L61.8176 32.6496H60.1358L59.8333 33.3187H59.2559L60.6857 30.1109H61.2769L62.7066 33.3187H62.1201ZM60.3374 32.173H61.616L61.1898 31.1465C61.1776 31.1221 61.1623 31.0854 61.144 31.0365C61.0462 30.8074 60.9927 30.6745 60.9836 30.6379H60.9744L60.9332 30.7341L60.759 31.1511L60.3374 32.173Z" fill="white"/>
<path d="M66.4574 33.3187H65.738L64.6381 32.1776C64.4854 32.0157 64.3892 31.9088 64.3494 31.8568L64.3403 31.8614C64.3464 31.9195 64.3494 32.0279 64.3494 32.1868V33.3187H63.8179V30.1109H64.3494V31.174C64.3494 31.3329 64.3464 31.4413 64.3403 31.4994L64.3494 31.504C64.4839 31.3512 64.5877 31.2336 64.661 31.1511L65.628 30.1109H66.3154L64.8581 31.6644L66.4574 33.3187Z" fill="white"/>
<path d="M67.4712 30.1109H68.0028V33.3187H67.4712V30.1109Z" fill="white"/>
<path d="M70.0134 30.1109L71.4615 32.0951L71.7135 32.4526L71.7227 32.448C71.7135 32.3563 71.7089 32.2387 71.7089 32.0951V30.1109H72.2405V33.3187H71.7273L70.2792 31.3344C70.1508 31.1572 70.0668 31.0381 70.0271 30.977L70.0134 30.9816C70.0256 31.0976 70.0317 31.2153 70.0317 31.3344V33.3187H69.5001V30.1109H70.0134Z" fill="white"/>
<path d="M76.4803 31.4948V32.8558C76.3031 33.033 76.1075 33.1659 75.8937 33.2545C75.6798 33.3401 75.44 33.3828 75.1742 33.3828C74.8473 33.3828 74.5586 33.3141 74.3081 33.1766C74.0606 33.0391 73.8682 32.8451 73.7307 32.5946C73.5932 32.3441 73.5245 32.0539 73.5245 31.7239C73.5245 31.4001 73.5963 31.1114 73.7398 30.8578C73.8834 30.6012 74.0835 30.4011 74.3402 30.2575C74.5999 30.1139 74.8931 30.0421 75.22 30.0421C75.4461 30.0421 75.6584 30.0803 75.857 30.1567C76.0556 30.23 76.2313 30.3323 76.384 30.4637L76.0862 30.8578C75.8295 30.644 75.5423 30.537 75.2246 30.537C74.9955 30.537 74.7923 30.5859 74.6151 30.6837C74.441 30.7814 74.305 30.9189 74.2073 31.0961C74.1126 31.2703 74.0652 31.4734 74.0652 31.7056C74.0652 31.947 74.111 32.1578 74.2027 32.338C74.2943 32.5152 74.4257 32.6527 74.5968 32.7504C74.7679 32.8451 74.9665 32.8925 75.1925 32.8925C75.3483 32.8925 75.4904 32.8726 75.6187 32.8329C75.747 32.7902 75.8708 32.7245 75.9899 32.6359V31.9622H75.0963V31.4948H76.4803Z" fill="white"/>
<path d="M81.8835 33.3553L81.4894 32.975C81.3549 33.0972 81.1991 33.195 81.0219 33.2683C80.8447 33.3385 80.6538 33.3737 80.4491 33.3737C80.2322 33.3737 80.0443 33.337 79.8855 33.2637C79.7296 33.1904 79.6105 33.0926 79.528 32.9704C79.4455 32.8482 79.4043 32.7138 79.4043 32.5671C79.4043 32.3838 79.4593 32.2112 79.5693 32.0493C79.6823 31.8843 79.8503 31.7377 80.0733 31.6094C79.8412 31.3527 79.7251 31.1038 79.7251 30.8624C79.7251 30.7158 79.7633 30.5813 79.8396 30.4591C79.9191 30.3339 80.0306 30.2346 80.1742 30.1613C80.3208 30.0879 80.4888 30.0513 80.6782 30.0513C80.8432 30.0513 80.9899 30.0849 81.1182 30.1521C81.2465 30.2163 81.3458 30.3064 81.416 30.4225C81.4863 30.5386 81.5214 30.6684 81.5214 30.812C81.5214 31.1481 81.2969 31.4429 80.8478 31.6964L81.4573 32.2922C81.5153 32.1853 81.5612 32.0783 81.5948 31.9714C81.6284 31.8614 81.6482 31.7636 81.6543 31.6781L82.1126 31.7377C82.1034 31.8752 82.0714 32.0233 82.0164 32.1822C81.9644 32.3411 81.8942 32.4892 81.8056 32.6267L82.218 33.03L81.8835 33.3553ZM80.6553 30.4958C80.5209 30.4958 80.414 30.5325 80.3345 30.6058C80.2582 30.676 80.22 30.7601 80.22 30.8578C80.22 30.9525 80.2429 31.0365 80.2887 31.1099C80.3376 31.1832 80.4216 31.2779 80.5408 31.394C80.6996 31.3054 80.8203 31.2183 80.9028 31.1328C80.9853 31.0442 81.0265 30.9449 81.0265 30.8349C81.0265 30.7371 80.9929 30.6562 80.9257 30.592C80.8585 30.5279 80.7684 30.4958 80.6553 30.4958ZM80.472 32.9154C80.7134 32.9154 80.9425 32.8299 81.1594 32.6588L80.3804 31.9118C80.2307 31.9943 80.1176 32.089 80.0413 32.1959C79.9649 32.3029 79.9267 32.4113 79.9267 32.5213C79.9267 32.6282 79.9756 32.7214 80.0733 32.8008C80.1742 32.8772 80.3071 32.9154 80.472 32.9154Z" fill="white"/>
<path d="M86.5352 33.3828C86.2053 33.3828 85.912 33.3126 85.6554 33.172C85.3987 33.0315 85.1986 32.836 85.055 32.5855C84.9145 32.3319 84.8442 32.0447 84.8442 31.7239C84.8442 31.4001 84.916 31.1114 85.0596 30.8578C85.2032 30.6012 85.4033 30.4026 85.6599 30.2621C85.9196 30.1185 86.2129 30.0467 86.5398 30.0467C86.7628 30.0467 86.9721 30.0864 87.1676 30.1658C87.3662 30.2422 87.5449 30.3537 87.7038 30.5004L87.3922 30.8991C87.2608 30.7799 87.1248 30.6928 86.9843 30.6379C86.8438 30.5798 86.6926 30.5508 86.5306 30.5508C86.3076 30.5508 86.1106 30.5997 85.9395 30.6974C85.7684 30.7921 85.634 30.9281 85.5362 31.1053C85.4415 31.2794 85.3941 31.4795 85.3941 31.7056C85.3941 31.9347 85.443 32.1379 85.5408 32.3151C85.6386 32.4923 85.7745 32.6313 85.9486 32.7321C86.1228 32.8299 86.3214 32.8788 86.5444 32.8788C86.7124 32.8788 86.8682 32.8528 87.0118 32.8008C87.1554 32.7459 87.2913 32.6603 87.4197 32.5442L87.7313 32.9429C87.4227 33.2362 87.024 33.3828 86.5352 33.3828Z" fill="white"/>
<path d="M90.2859 33.3874C89.9651 33.3874 89.6794 33.3187 89.4289 33.1812C89.1815 33.0407 88.989 32.8451 88.8515 32.5946C88.714 32.3411 88.6453 32.0508 88.6453 31.7239C88.6453 31.3909 88.714 31.0976 88.8515 30.8441C88.9921 30.5905 89.1891 30.3934 89.4427 30.2529C89.6963 30.1124 89.988 30.0421 90.318 30.0421C90.6387 30.0421 90.9229 30.1124 91.1703 30.2529C91.4178 30.3904 91.6103 30.5859 91.7477 30.8395C91.8852 31.09 91.9539 31.3787 91.9539 31.7056C91.9539 32.0386 91.8837 32.3319 91.7431 32.5855C91.6057 32.839 91.4101 33.0361 91.1566 33.1766C90.9061 33.3172 90.6158 33.3874 90.2859 33.3874ZM90.295 32.8971C90.512 32.8971 90.7044 32.8482 90.8725 32.7504C91.0405 32.6496 91.1703 32.5106 91.262 32.3334C91.3567 32.1562 91.404 31.9531 91.404 31.7239C91.404 31.4887 91.3582 31.2809 91.2666 31.1007C91.1749 30.9204 91.0451 30.7814 90.877 30.6837C90.7121 30.5829 90.5211 30.5325 90.3042 30.5325C90.0873 30.5325 89.8948 30.5829 89.7268 30.6837C89.5588 30.7814 89.4274 30.9189 89.3327 31.0961C89.241 31.2733 89.1952 31.4765 89.1952 31.7056C89.1952 31.9408 89.241 32.1486 89.3327 32.3288C89.4243 32.5091 89.5527 32.6496 89.7176 32.7504C89.8857 32.8482 90.0781 32.8971 90.295 32.8971Z" fill="white"/>
<path d="M96.6347 30.1109V33.3187H96.1031V31.3482C96.1031 31.2198 96.1077 31.1129 96.1168 31.0274L96.1077 31.0228C96.0802 31.0717 96.0252 31.1572 95.9427 31.2794L95.8739 31.3802L95.0262 32.6359H94.8428L94.0042 31.3848C93.9462 31.3023 93.8683 31.1878 93.7705 31.0411L93.7568 31.0457C93.7659 31.1312 93.7705 31.2382 93.7705 31.3665V33.3187H93.2389V30.1109H93.7614L94.9391 31.8752L96.1168 30.1109H96.6347Z" fill="white"/>
<path d="M99.4885 30.1109C99.739 30.1109 99.9498 30.1628 100.121 30.2667C100.295 30.3675 100.425 30.5019 100.51 30.6699C100.596 30.838 100.639 31.0213 100.639 31.2198C100.639 31.4215 100.596 31.6078 100.51 31.7789C100.425 31.95 100.295 32.0875 100.121 32.1914C99.9498 32.2952 99.739 32.3472 99.4885 32.3472H98.6591V33.3187H98.1275V30.1109H99.4885ZM99.4564 31.8614C99.6734 31.8614 99.8337 31.8018 99.9376 31.6827C100.045 31.5605 100.098 31.4123 100.098 31.2382C100.098 31.0579 100.045 30.9067 99.9376 30.7845C99.8337 30.6592 99.6734 30.5966 99.4564 30.5966H98.6591V31.8614H99.4564Z" fill="white"/>
<path d="M104.09 33.3187L103.788 32.6496H102.106L101.803 33.3187H101.226L102.656 30.1109H103.247L104.677 33.3187H104.09ZM102.307 32.173H103.586L103.16 31.1465C103.147 31.1221 103.132 31.0854 103.114 31.0365C103.016 30.8074 102.963 30.6745 102.954 30.6379H102.944L102.903 30.7341L102.729 31.1511L102.307 32.173Z" fill="white"/>
<path d="M106.301 30.1109L107.749 32.0951L108.001 32.4526L108.01 32.448C108.001 32.3563 107.997 32.2387 107.997 32.0951V30.1109H108.528V33.3187H108.015L106.567 31.3344C106.439 31.1572 106.354 31.0381 106.315 30.977L106.301 30.9816C106.313 31.0976 106.319 31.2153 106.319 31.3344V33.3187H105.788V30.1109H106.301Z" fill="white"/>
<path d="M110.023 30.1109H110.555V33.3187H110.023V30.1109Z" fill="white"/>
<path d="M113.482 33.3874C113.161 33.3874 112.875 33.3187 112.625 33.1812C112.377 33.0407 112.185 32.8451 112.047 32.5946C111.91 32.3411 111.841 32.0508 111.841 31.7239C111.841 31.3909 111.91 31.0976 112.047 30.8441C112.188 30.5905 112.385 30.3934 112.638 30.2529C112.892 30.1124 113.184 30.0421 113.514 30.0421C113.834 30.0421 114.119 30.1124 114.366 30.2529C114.613 30.3904 114.806 30.5859 114.943 30.8395C115.081 31.09 115.15 31.3787 115.15 31.7056C115.15 32.0386 115.079 32.3319 114.939 32.5855C114.801 32.839 114.606 33.0361 114.352 33.1766C114.102 33.3172 113.812 33.3874 113.482 33.3874ZM113.491 32.8971C113.708 32.8971 113.9 32.8482 114.068 32.7504C114.236 32.6496 114.366 32.5106 114.458 32.3334C114.552 32.1562 114.6 31.9531 114.6 31.7239C114.6 31.4887 114.554 31.2809 114.462 31.1007C114.371 30.9204 114.241 30.7814 114.073 30.6837C113.908 30.5829 113.717 30.5325 113.5 30.5325C113.283 30.5325 113.091 30.5829 112.923 30.6837C112.754 30.7814 112.623 30.9189 112.528 31.0961C112.437 31.2733 112.391 31.4765 112.391 31.7056C112.391 31.9408 112.437 32.1486 112.528 32.3288C112.62 32.5091 112.748 32.6496 112.913 32.7504C113.081 32.8482 113.274 32.8971 113.491 32.8971Z" fill="white"/>
<path d="M116.948 30.1109L118.396 32.0951L118.648 32.4526L118.657 32.448C118.648 32.3563 118.643 32.2387 118.643 32.0951V30.1109H119.175V33.3187H118.662L117.214 31.3344C117.085 31.1572 117.001 31.0381 116.962 30.977L116.948 30.9816C116.96 31.0976 116.966 31.2153 116.966 31.3344V33.3187H116.435V30.1109H116.948Z" fill="white"/>
<path d="M121.724 33.3828C121.479 33.3828 121.249 33.3462 121.032 33.2729C120.818 33.1965 120.633 33.0926 120.477 32.9612L120.734 32.5534C120.874 32.6573 121.029 32.7397 121.197 32.8008C121.368 32.8619 121.544 32.8925 121.724 32.8925C121.932 32.8925 122.101 32.8467 122.232 32.755C122.367 32.6634 122.434 32.5396 122.434 32.3838C122.434 32.2464 122.378 32.1364 122.265 32.0539C122.152 31.9714 121.962 31.9118 121.696 31.8752C121.314 31.8232 121.03 31.7255 120.844 31.5819C120.661 31.4352 120.569 31.2382 120.569 30.9907C120.569 30.8044 120.619 30.6409 120.72 30.5004C120.824 30.3568 120.965 30.2453 121.142 30.1658C121.322 30.0864 121.524 30.0467 121.747 30.0467C121.958 30.0467 122.152 30.0742 122.329 30.1292C122.506 30.1811 122.677 30.2682 122.842 30.3904L122.572 30.7799C122.459 30.6944 122.33 30.6302 122.187 30.5874C122.046 30.5447 121.904 30.5233 121.76 30.5233C121.571 30.5233 121.414 30.5645 121.288 30.647C121.166 30.7265 121.105 30.8319 121.105 30.9632C121.105 31.0854 121.16 31.1801 121.27 31.2473C121.383 31.3115 121.571 31.3665 121.834 31.4123C122.234 31.4765 122.523 31.588 122.7 31.7468C122.88 31.9027 122.97 32.1119 122.97 32.3747C122.97 32.5794 122.918 32.7581 122.814 32.9108C122.711 33.0636 122.564 33.1812 122.375 33.2637C122.185 33.3431 121.968 33.3828 121.724 33.3828Z" fill="white"/>
<path d="M126.429 30.1109H126.965V33.3187H126.429V31.9302H124.752V33.3187H124.22V30.1109H124.752V31.4444H126.429V30.1109Z" fill="white"/>
<path d="M128.46 30.1109H128.991V33.3187H128.46V30.1109Z" fill="white"/>
<path d="M131.85 30.1109C132.1 30.1109 132.311 30.1628 132.482 30.2667C132.656 30.3675 132.786 30.5019 132.872 30.6699C132.957 30.838 133 31.0213 133 31.2198C133 31.4215 132.957 31.6078 132.872 31.7789C132.786 31.95 132.656 32.0875 132.482 32.1914C132.311 32.2952 132.1 32.3472 131.85 32.3472H131.02V33.3187H130.489V30.1109H131.85ZM131.818 31.8614C132.035 31.8614 132.195 31.8018 132.299 31.6827C132.406 31.5605 132.459 31.4123 132.459 31.2382C132.459 31.0579 132.406 30.9067 132.299 30.7845C132.195 30.6592 132.035 30.5966 131.818 30.5966H131.02V31.8614H131.818Z" fill="white"/>
<path d="M39.8684 30.1109H40.4045V33.3187H39.8684V31.9302H38.1911V33.3187H37.6595V30.1109H38.1911V31.4444H39.8684V30.1109Z" stroke="white" stroke-width="0.291999" mask="url(#path-2-outside-1_740_312)"/>
<path d="M43.329 33.3874C43.0082 33.3874 42.7225 33.3187 42.472 33.1812C42.2245 33.0407 42.0321 32.8451 41.8946 32.5946C41.7571 32.3411 41.6884 32.0508 41.6884 31.7239C41.6884 31.3909 41.7571 31.0976 41.8946 30.8441C42.0351 30.5905 42.2322 30.3934 42.4858 30.2529C42.7393 30.1124 43.0311 30.0421 43.361 30.0421C43.6818 30.0421 43.9659 30.1124 44.2134 30.2529C44.4609 30.3904 44.6533 30.5859 44.7908 30.8395C44.9283 31.09 44.997 31.3787 44.997 31.7056C44.997 32.0386 44.9268 32.3319 44.7862 32.5855C44.6487 32.839 44.4532 33.0361 44.1997 33.1766C43.9491 33.3172 43.6589 33.3874 43.329 33.3874ZM43.3381 32.8971C43.555 32.8971 43.7475 32.8482 43.9155 32.7504C44.0836 32.6496 44.2134 32.5106 44.305 32.3334C44.3998 32.1562 44.4471 31.9531 44.4471 31.7239C44.4471 31.4887 44.4013 31.2809 44.3096 31.1007C44.218 30.9204 44.0881 30.7814 43.9201 30.6837C43.7551 30.5829 43.5642 30.5325 43.3473 30.5325C43.1304 30.5325 42.9379 30.5829 42.7699 30.6837C42.6018 30.7814 42.4705 30.9189 42.3758 31.0961C42.2841 31.2733 42.2383 31.4765 42.2383 31.7056C42.2383 31.9408 42.2841 32.1486 42.3758 32.3288C42.4674 32.5091 42.5957 32.6496 42.7607 32.7504C42.9287 32.8482 43.1212 32.8971 43.3381 32.8971Z" stroke="white" stroke-width="0.291999" mask="url(#path-2-outside-1_740_312)"/>
<path d="M49.6777 30.1109V33.3187H49.1462V31.3482C49.1462 31.2198 49.1507 31.1129 49.1599 31.0274L49.1507 31.0228C49.1232 31.0717 49.0682 31.1572 48.9858 31.2794L48.917 31.3802L48.0692 32.6359H47.8859L47.0473 31.3848C46.9893 31.3023 46.9114 31.1878 46.8136 31.0411L46.7999 31.0457C46.809 31.1312 46.8136 31.2382 46.8136 31.3665V33.3187H46.282V30.1109H46.8044L47.9822 31.8752L49.1599 30.1109H49.6777Z" stroke="white" stroke-width="0.291999" mask="url(#path-2-outside-1_740_312)"/>
<path d="M51.7021 32.8283H53.416V33.3187H51.1706V30.1109H53.3885V30.592H51.7021V31.4536H53.3106V31.9302H51.7021V32.8283Z" stroke="white" stroke-width="0.291999" mask="url(#path-2-outside-1_740_312)"/>
<path d="M58.148 30.1109V33.3187H57.6165V31.3482C57.6165 31.2198 57.621 31.1129 57.6302 31.0274L57.621 31.0228C57.5936 31.0717 57.5386 31.1572 57.4561 31.2794L57.3873 31.3802L56.5396 32.6359H56.3562L55.5176 31.3848C55.4596 31.3023 55.3817 31.1878 55.2839 31.0411L55.2702 31.0457C55.2793 31.1312 55.2839 31.2382 55.2839 31.3665V33.3187H54.7523V30.1109H55.2747L56.4525 31.8752L57.6302 30.1109H58.148Z" stroke="white" stroke-width="0.291999" mask="url(#path-2-outside-1_740_312)"/>
<path d="M62.1201 33.3187L61.8176 32.6496H60.1358L59.8333 33.3187H59.2559L60.6857 30.1109H61.2769L62.7066 33.3187H62.1201ZM60.3374 32.173H61.616L61.1898 31.1465C61.1776 31.1221 61.1623 31.0854 61.144 31.0365C61.0462 30.8074 60.9927 30.6745 60.9836 30.6379H60.9744L60.9332 30.7341L60.759 31.1511L60.3374 32.173Z" stroke="white" stroke-width="0.291999" mask="url(#path-2-outside-1_740_312)"/>
<path d="M66.4574 33.3187H65.738L64.6381 32.1776C64.4854 32.0157 64.3892 31.9088 64.3494 31.8568L64.3403 31.8614C64.3464 31.9195 64.3494 32.0279 64.3494 32.1868V33.3187H63.8179V30.1109H64.3494V31.174C64.3494 31.3329 64.3464 31.4413 64.3403 31.4994L64.3494 31.504C64.4839 31.3512 64.5877 31.2336 64.661 31.1511L65.628 30.1109H66.3154L64.8581 31.6644L66.4574 33.3187Z" stroke="white" stroke-width="0.291999" mask="url(#path-2-outside-1_740_312)"/>
<path d="M67.4712 30.1109H68.0028V33.3187H67.4712V30.1109Z" stroke="white" stroke-width="0.291999" mask="url(#path-2-outside-1_740_312)"/>
<path d="M70.0134 30.1109L71.4615 32.0951L71.7135 32.4526L71.7227 32.448C71.7135 32.3563 71.7089 32.2387 71.7089 32.0951V30.1109H72.2405V33.3187H71.7273L70.2792 31.3344C70.1508 31.1572 70.0668 31.0381 70.0271 30.977L70.0134 30.9816C70.0256 31.0976 70.0317 31.2153 70.0317 31.3344V33.3187H69.5001V30.1109H70.0134Z" stroke="white" stroke-width="0.291999" mask="url(#path-2-outside-1_740_312)"/>
<path d="M76.4803 31.4948V32.8558C76.3031 33.033 76.1075 33.1659 75.8937 33.2545C75.6798 33.3401 75.44 33.3828 75.1742 33.3828C74.8473 33.3828 74.5586 33.3141 74.3081 33.1766C74.0606 33.0391 73.8682 32.8451 73.7307 32.5946C73.5932 32.3441 73.5245 32.0539 73.5245 31.7239C73.5245 31.4001 73.5963 31.1114 73.7398 30.8578C73.8834 30.6012 74.0835 30.4011 74.3402 30.2575C74.5999 30.1139 74.8931 30.0421 75.22 30.0421C75.4461 30.0421 75.6584 30.0803 75.857 30.1567C76.0556 30.23 76.2313 30.3323 76.384 30.4637L76.0862 30.8578C75.8295 30.644 75.5423 30.537 75.2246 30.537C74.9955 30.537 74.7923 30.5859 74.6151 30.6837C74.441 30.7814 74.305 30.9189 74.2073 31.0961C74.1126 31.2703 74.0652 31.4734 74.0652 31.7056C74.0652 31.947 74.111 32.1578 74.2027 32.338C74.2943 32.5152 74.4257 32.6527 74.5968 32.7504C74.7679 32.8451 74.9665 32.8925 75.1925 32.8925C75.3483 32.8925 75.4904 32.8726 75.6187 32.8329C75.747 32.7902 75.8708 32.7245 75.9899 32.6359V31.9622H75.0963V31.4948H76.4803Z" stroke="white" stroke-width="0.291999" mask="url(#path-2-outside-1_740_312)"/>
<path d="M81.8835 33.3553L81.4894 32.975C81.3549 33.0972 81.1991 33.195 81.0219 33.2683C80.8447 33.3385 80.6538 33.3737 80.4491 33.3737C80.2322 33.3737 80.0443 33.337 79.8855 33.2637C79.7296 33.1904 79.6105 33.0926 79.528 32.9704C79.4455 32.8482 79.4043 32.7138 79.4043 32.5671C79.4043 32.3838 79.4593 32.2112 79.5693 32.0493C79.6823 31.8843 79.8503 31.7377 80.0733 31.6094C79.8412 31.3527 79.7251 31.1038 79.7251 30.8624C79.7251 30.7158 79.7633 30.5813 79.8396 30.4591C79.9191 30.3339 80.0306 30.2346 80.1742 30.1613C80.3208 30.0879 80.4888 30.0513 80.6782 30.0513C80.8432 30.0513 80.9899 30.0849 81.1182 30.1521C81.2465 30.2163 81.3458 30.3064 81.416 30.4225C81.4863 30.5386 81.5214 30.6684 81.5214 30.812C81.5214 31.1481 81.2969 31.4429 80.8478 31.6964L81.4573 32.2922C81.5153 32.1853 81.5612 32.0783 81.5948 31.9714C81.6284 31.8614 81.6482 31.7636 81.6543 31.6781L82.1126 31.7377C82.1034 31.8752 82.0714 32.0233 82.0164 32.1822C81.9644 32.3411 81.8942 32.4892 81.8056 32.6267L82.218 33.03L81.8835 33.3553ZM80.6553 30.4958C80.5209 30.4958 80.414 30.5325 80.3345 30.6058C80.2582 30.676 80.22 30.7601 80.22 30.8578C80.22 30.9525 80.2429 31.0365 80.2887 31.1099C80.3376 31.1832 80.4216 31.2779 80.5408 31.394C80.6996 31.3054 80.8203 31.2183 80.9028 31.1328C80.9853 31.0442 81.0265 30.9449 81.0265 30.8349C81.0265 30.7371 80.9929 30.6562 80.9257 30.592C80.8585 30.5279 80.7684 30.4958 80.6553 30.4958ZM80.472 32.9154C80.7134 32.9154 80.9425 32.8299 81.1594 32.6588L80.3804 31.9118C80.2307 31.9943 80.1176 32.089 80.0413 32.1959C79.9649 32.3029 79.9267 32.4113 79.9267 32.5213C79.9267 32.6282 79.9756 32.7214 80.0733 32.8008C80.1742 32.8772 80.3071 32.9154 80.472 32.9154Z" stroke="white" stroke-width="0.291999" mask="url(#path-2-outside-1_740_312)"/>
<path d="M86.5352 33.3828C86.2053 33.3828 85.912 33.3126 85.6554 33.172C85.3987 33.0315 85.1986 32.836 85.055 32.5855C84.9145 32.3319 84.8442 32.0447 84.8442 31.7239C84.8442 31.4001 84.916 31.1114 85.0596 30.8578C85.2032 30.6012 85.4033 30.4026 85.6599 30.2621C85.9196 30.1185 86.2129 30.0467 86.5398 30.0467C86.7628 30.0467 86.9721 30.0864 87.1676 30.1658C87.3662 30.2422 87.5449 30.3537 87.7038 30.5004L87.3922 30.8991C87.2608 30.7799 87.1248 30.6928 86.9843 30.6379C86.8438 30.5798 86.6926 30.5508 86.5306 30.5508C86.3076 30.5508 86.1106 30.5997 85.9395 30.6974C85.7684 30.7921 85.634 30.9281 85.5362 31.1053C85.4415 31.2794 85.3941 31.4795 85.3941 31.7056C85.3941 31.9347 85.443 32.1379 85.5408 32.3151C85.6386 32.4923 85.7745 32.6313 85.9486 32.7321C86.1228 32.8299 86.3214 32.8788 86.5444 32.8788C86.7124 32.8788 86.8682 32.8528 87.0118 32.8008C87.1554 32.7459 87.2913 32.6603 87.4197 32.5442L87.7313 32.9429C87.4227 33.2362 87.024 33.3828 86.5352 33.3828Z" stroke="white" stroke-width="0.291999" mask="url(#path-2-outside-1_740_312)"/>
<path d="M90.2859 33.3874C89.9651 33.3874 89.6794 33.3187 89.4289 33.1812C89.1815 33.0407 88.989 32.8451 88.8515 32.5946C88.714 32.3411 88.6453 32.0508 88.6453 31.7239C88.6453 31.3909 88.714 31.0976 88.8515 30.8441C88.9921 30.5905 89.1891 30.3934 89.4427 30.2529C89.6963 30.1124 89.988 30.0421 90.318 30.0421C90.6387 30.0421 90.9229 30.1124 91.1703 30.2529C91.4178 30.3904 91.6103 30.5859 91.7477 30.8395C91.8852 31.09 91.9539 31.3787 91.9539 31.7056C91.9539 32.0386 91.8837 32.3319 91.7431 32.5855C91.6057 32.839 91.4101 33.0361 91.1566 33.1766C90.9061 33.3172 90.6158 33.3874 90.2859 33.3874ZM90.295 32.8971C90.512 32.8971 90.7044 32.8482 90.8725 32.7504C91.0405 32.6496 91.1703 32.5106 91.262 32.3334C91.3567 32.1562 91.404 31.9531 91.404 31.7239C91.404 31.4887 91.3582 31.2809 91.2666 31.1007C91.1749 30.9204 91.0451 30.7814 90.877 30.6837C90.7121 30.5829 90.5211 30.5325 90.3042 30.5325C90.0873 30.5325 89.8948 30.5829 89.7268 30.6837C89.5588 30.7814 89.4274 30.9189 89.3327 31.0961C89.241 31.2733 89.1952 31.4765 89.1952 31.7056C89.1952 31.9408 89.241 32.1486 89.3327 32.3288C89.4243 32.5091 89.5527 32.6496 89.7176 32.7504C89.8857 32.8482 90.0781 32.8971 90.295 32.8971Z" stroke="white" stroke-width="0.291999" mask="url(#path-2-outside-1_740_312)"/>
<path d="M96.6347 30.1109V33.3187H96.1031V31.3482C96.1031 31.2198 96.1077 31.1129 96.1168 31.0274L96.1077 31.0228C96.0802 31.0717 96.0252 31.1572 95.9427 31.2794L95.8739 31.3802L95.0262 32.6359H94.8428L94.0042 31.3848C93.9462 31.3023 93.8683 31.1878 93.7705 31.0411L93.7568 31.0457C93.7659 31.1312 93.7705 31.2382 93.7705 31.3665V33.3187H93.2389V30.1109H93.7614L94.9391 31.8752L96.1168 30.1109H96.6347Z" stroke="white" stroke-width="0.291999" mask="url(#path-2-outside-1_740_312)"/>
<path d="M99.4885 30.1109C99.739 30.1109 99.9498 30.1628 100.121 30.2667C100.295 30.3675 100.425 30.5019 100.51 30.6699C100.596 30.838 100.639 31.0213 100.639 31.2198C100.639 31.4215 100.596 31.6078 100.51 31.7789C100.425 31.95 100.295 32.0875 100.121 32.1914C99.9498 32.2952 99.739 32.3472 99.4885 32.3472H98.6591V33.3187H98.1275V30.1109H99.4885ZM99.4564 31.8614C99.6734 31.8614 99.8337 31.8018 99.9376 31.6827C100.045 31.5605 100.098 31.4123 100.098 31.2382C100.098 31.0579 100.045 30.9067 99.9376 30.7845C99.8337 30.6592 99.6734 30.5966 99.4564 30.5966H98.6591V31.8614H99.4564Z" stroke="white" stroke-width="0.291999" mask="url(#path-2-outside-1_740_312)"/>
<path d="M104.09 33.3187L103.788 32.6496H102.106L101.803 33.3187H101.226L102.656 30.1109H103.247L104.677 33.3187H104.09ZM102.307 32.173H103.586L103.16 31.1465C103.147 31.1221 103.132 31.0854 103.114 31.0365C103.016 30.8074 102.963 30.6745 102.954 30.6379H102.944L102.903 30.7341L102.729 31.1511L102.307 32.173Z" stroke="white" stroke-width="0.291999" mask="url(#path-2-outside-1_740_312)"/>
<path d="M106.301 30.1109L107.749 32.0951L108.001 32.4526L108.01 32.448C108.001 32.3563 107.997 32.2387 107.997 32.0951V30.1109H108.528V33.3187H108.015L106.567 31.3344C106.439 31.1572 106.354 31.0381 106.315 30.977L106.301 30.9816C106.313 31.0976 106.319 31.2153 106.319 31.3344V33.3187H105.788V30.1109H106.301Z" stroke="white" stroke-width="0.291999" mask="url(#path-2-outside-1_740_312)"/>
<path d="M110.023 30.1109H110.555V33.3187H110.023V30.1109Z" stroke="white" stroke-width="0.291999" mask="url(#path-2-outside-1_740_312)"/>
<path d="M113.482 33.3874C113.161 33.3874 112.875 33.3187 112.625 33.1812C112.377 33.0407 112.185 32.8451 112.047 32.5946C111.91 32.3411 111.841 32.0508 111.841 31.7239C111.841 31.3909 111.91 31.0976 112.047 30.8441C112.188 30.5905 112.385 30.3934 112.638 30.2529C112.892 30.1124 113.184 30.0421 113.514 30.0421C113.834 30.0421 114.119 30.1124 114.366 30.2529C114.613 30.3904 114.806 30.5859 114.943 30.8395C115.081 31.09 115.15 31.3787 115.15 31.7056C115.15 32.0386 115.079 32.3319 114.939 32.5855C114.801 32.839 114.606 33.0361 114.352 33.1766C114.102 33.3172 113.812 33.3874 113.482 33.3874ZM113.491 32.8971C113.708 32.8971 113.9 32.8482 114.068 32.7504C114.236 32.6496 114.366 32.5106 114.458 32.3334C114.552 32.1562 114.6 31.9531 114.6 31.7239C114.6 31.4887 114.554 31.2809 114.462 31.1007C114.371 30.9204 114.241 30.7814 114.073 30.6837C113.908 30.5829 113.717 30.5325 113.5 30.5325C113.283 30.5325 113.091 30.5829 112.923 30.6837C112.754 30.7814 112.623 30.9189 112.528 31.0961C112.437 31.2733 112.391 31.4765 112.391 31.7056C112.391 31.9408 112.437 32.1486 112.528 32.3288C112.62 32.5091 112.748 32.6496 112.913 32.7504C113.081 32.8482 113.274 32.8971 113.491 32.8971Z" stroke="white" stroke-width="0.291999" mask="url(#path-2-outside-1_740_312)"/>
<path d="M116.948 30.1109L118.396 32.0951L118.648 32.4526L118.657 32.448C118.648 32.3563 118.643 32.2387 118.643 32.0951V30.1109H119.175V33.3187H118.662L117.214 31.3344C117.085 31.1572 117.001 31.0381 116.962 30.977L116.948 30.9816C116.96 31.0976 116.966 31.2153 116.966 31.3344V33.3187H116.435V30.1109H116.948Z" stroke="white" stroke-width="0.291999" mask="url(#path-2-outside-1_740_312)"/>
<path d="M121.724 33.3828C121.479 33.3828 121.249 33.3462 121.032 33.2729C120.818 33.1965 120.633 33.0926 120.477 32.9612L120.734 32.5534C120.874 32.6573 121.029 32.7397 121.197 32.8008C121.368 32.8619 121.544 32.8925 121.724 32.8925C121.932 32.8925 122.101 32.8467 122.232 32.755C122.367 32.6634 122.434 32.5396 122.434 32.3838C122.434 32.2464 122.378 32.1364 122.265 32.0539C122.152 31.9714 121.962 31.9118 121.696 31.8752C121.314 31.8232 121.03 31.7255 120.844 31.5819C120.661 31.4352 120.569 31.2382 120.569 30.9907C120.569 30.8044 120.619 30.6409 120.72 30.5004C120.824 30.3568 120.965 30.2453 121.142 30.1658C121.322 30.0864 121.524 30.0467 121.747 30.0467C121.958 30.0467 122.152 30.0742 122.329 30.1292C122.506 30.1811 122.677 30.2682 122.842 30.3904L122.572 30.7799C122.459 30.6944 122.33 30.6302 122.187 30.5874C122.046 30.5447 121.904 30.5233 121.76 30.5233C121.571 30.5233 121.414 30.5645 121.288 30.647C121.166 30.7265 121.105 30.8319 121.105 30.9632C121.105 31.0854 121.16 31.1801 121.27 31.2473C121.383 31.3115 121.571 31.3665 121.834 31.4123C122.234 31.4765 122.523 31.588 122.7 31.7468C122.88 31.9027 122.97 32.1119 122.97 32.3747C122.97 32.5794 122.918 32.7581 122.814 32.9108C122.711 33.0636 122.564 33.1812 122.375 33.2637C122.185 33.3431 121.968 33.3828 121.724 33.3828Z" stroke="white" stroke-width="0.291999" mask="url(#path-2-outside-1_740_312)"/>
<path d="M126.429 30.1109H126.965V33.3187H126.429V31.9302H124.752V33.3187H124.22V30.1109H124.752V31.4444H126.429V30.1109Z" stroke="white" stroke-width="0.291999" mask="url(#path-2-outside-1_740_312)"/>
<path d="M128.46 30.1109H128.991V33.3187H128.46V30.1109Z" stroke="white" stroke-width="0.291999" mask="url(#path-2-outside-1_740_312)"/>
<path d="M131.85 30.1109C132.1 30.1109 132.311 30.1628 132.482 30.2667C132.656 30.3675 132.786 30.5019 132.872 30.6699C132.957 30.838 133 31.0213 133 31.2198C133 31.4215 132.957 31.6078 132.872 31.7789C132.786 31.95 132.656 32.0875 132.482 32.1914C132.311 32.2952 132.1 32.3472 131.85 32.3472H131.02V33.3187H130.489V30.1109H131.85ZM131.818 31.8614C132.035 31.8614 132.195 31.8018 132.299 31.6827C132.406 31.5605 132.459 31.4123 132.459 31.2382C132.459 31.0579 132.406 30.9067 132.299 30.7845C132.195 30.6592 132.035 30.5966 131.818 30.5966H131.02V31.8614H131.818Z" stroke="white" stroke-width="0.291999" mask="url(#path-2-outside-1_740_312)"/>
<path fill-rule="evenodd" clip-rule="evenodd" d="M34.0121 0.989976C33.2743 1.03262 32.611 1.13418 31.4716 1.37911C30.4078 1.60771 29.8484 1.78284 29.035 2.14171C28.6327 2.31929 28.021 2.55112 27.6758 2.65692C26.9128 2.89079 25.194 3.61804 24.2984 4.086C23.6822 4.40797 18.5339 7.73355 18.2508 7.99241C18.0245 8.19948 17.9595 8.43645 18.0672 8.66236C18.2342 9.0128 18.488 9.08654 19.5163 9.08325C20.2966 9.08074 20.488 9.05969 20.9917 8.92129C21.31 8.83378 22.8298 8.23226 24.3691 7.58462C28.1648 5.98747 28.5394 5.84213 29.4691 5.60557C30.0876 5.44815 30.4505 5.39235 31.0233 5.36639C32.4566 5.30155 33.2271 5.52124 35.3272 6.59348C36.1327 7.00474 37.1375 7.49693 37.5602 7.68719C38.5849 8.14852 39.1478 8.47766 39.5776 8.86686C40.1136 9.35217 40.2112 9.61582 40.0108 10.0364C39.874 10.3234 39.5769 10.4695 38.1222 10.9649C36.5415 11.5033 36.2378 11.6442 35.669 12.1031C34.4157 13.114 34.0209 14.2378 34.5823 15.1962C34.7803 15.5344 34.893 15.5864 35.5029 15.6211C36.3349 15.6684 36.7803 15.5138 38.1505 14.702C39.0937 14.1431 39.8057 13.8001 41.2749 13.1966C43.3425 12.3474 43.1805 12.3875 46.5353 11.893L48.3883 11.6197L49.3149 11.2561C49.8245 11.0561 50.4519 10.809 50.7091 10.707L51.1767 10.5216L51.5421 9.65434C51.743 9.17734 52.3828 7.84504 52.9639 6.69366C53.5448 5.54229 54.0395 4.53913 54.063 4.46437C54.1013 4.34301 54.0687 4.31203 53.7584 4.1747C52.5264 3.62958 47.468 2.61661 45.28 2.47689C44.2508 2.41122 44.0056 2.37186 41.3646 1.84881C37.4165 1.06683 35.8491 0.88375 34.0121 0.989976ZM30.7502 5.64798C30.26 5.69978 29.7665 5.92174 29.2399 6.32714C28.8423 6.63325 27.6929 7.81346 26.6155 9.02171C24.9822 10.8534 24.4086 11.7654 24.654 12.1402C25.0059 12.6776 25.8448 12.5157 26.941 11.6989C27.6447 11.1745 27.8404 10.9862 28.7231 9.9833C30.5798 7.87405 31.283 7.32952 31.9264 7.50286C32.0516 7.53659 32.167 7.58522 32.1828 7.61088C32.1987 7.63659 31.9913 7.84432 31.722 8.0725C30.2582 9.31305 28.761 10.8488 28.6309 11.2433C28.4757 11.7138 28.7248 11.9004 29.3722 11.7988C30.1609 11.6751 30.7194 11.3612 32.3587 10.1208C33.0543 9.59447 33.7849 9.07961 33.9822 8.97673C34.3143 8.80358 34.3828 8.79018 34.9087 8.79592C35.9473 8.80722 37.9431 9.23189 38.9704 9.66014C39.4596 9.86409 39.5465 9.88413 39.6205 9.8102C39.7787 9.65188 39.7212 9.42059 39.4562 9.15048C39.1258 8.81363 38.4839 8.43813 37.2601 7.86585C36.7066 7.60699 35.7023 7.11558 35.0283 6.77381C33.1276 5.81013 32.0069 5.5152 30.7502 5.64798ZM26.8389 6.89589C23.4679 8.49142 23.1233 8.66296 22.5051 9.05257C22.1763 9.25976 21.6834 9.60409 21.4096 9.8178C20.6042 10.4464 20.3888 10.8618 20.7046 11.1778C21.123 11.5964 22.6339 11.6175 23.4186 11.2158C23.821 11.0097 25.3408 9.84119 25.8198 9.36945C26.6235 8.57809 28.2896 6.83165 28.6179 6.43636C28.9142 6.07976 28.9882 5.9447 28.8862 5.94704C28.8616 5.94758 27.9403 6.37457 26.8389 6.89589Z" fill="white"/>
<path d="M16.1658 24.1909C16.9423 23.7394 17.3949 23.5367 17.8416 23.4401C18.1389 23.3758 18.979 23.4233 19.1494 23.5141C19.3042 23.5965 19.3895 23.7 19.5582 24.0103C19.6599 24.1973 19.6889 24.3539 19.6914 24.7277C19.6941 25.1462 19.6704 25.2567 19.5016 25.6131C19.1874 26.2766 18.2532 27.1597 17.5128 27.4931C17.332 27.5745 16.6417 27.8246 15.9787 28.0489C14.782 28.4537 14.2461 28.6803 14.1249 28.8327C14.0901 28.8763 14.0292 29.0129 13.9895 29.1362C13.8871 29.454 13.9822 29.6907 14.3605 30.0597C14.7787 30.4677 15.241 30.7551 16.1697 31.1846C16.595 31.3813 17.6965 31.9211 18.6176 32.3842C20.2068 33.1834 20.8562 33.446 21.625 33.6006C22.0798 33.692 23.3299 33.6791 23.9162 33.5768C25.0258 33.3833 25.4939 33.2098 29.881 31.3665C31.3415 30.7529 32.7267 30.1998 32.9592 30.1374C34.0346 29.8489 35.2145 29.8214 35.6648 30.0745C35.935 30.2264 36.0763 30.4702 36.0212 30.6896C36.0024 30.7644 35.8851 30.9217 35.7604 31.0393C35.4426 31.3389 30.4615 34.5781 29.736 34.9569C28.8911 35.3981 27.1597 36.1268 26.4187 36.3531C26.0735 36.4586 25.4609 36.6902 25.0573 36.8679C24.1251 37.2783 23.3878 37.4965 22.0644 37.7538C20.6534 38.028 19.7192 38.113 18.6592 38.0636C17.0273 37.9874 16.0562 37.8425 12.6116 37.1614C10.2548 36.6954 9.21361 36.5336 8.57215 36.5336C7.49376 36.5336 2.47529 35.5827 0.956333 35.0905C0.22163 34.8524 0 34.7374 0 34.5939C0 34.5215 0.216669 34.0474 0.481454 33.5402C1.21012 32.1447 2.21684 30.0715 2.54014 29.3006C2.69871 28.9225 2.85776 28.5815 2.89356 28.5429C2.92937 28.5042 3.55039 28.2395 4.27361 27.9547L5.58857 27.4369L7.91963 27.0868C10.4867 26.7014 10.7284 26.6494 11.6852 26.278C13.7973 25.4581 14.7473 25.0155 16.1658 24.1909Z" fill="white"/>
<path d="M25.5266 28.8224C26.4831 27.7057 27.6776 26.7987 28.435 26.6141C28.8637 26.5096 29.2866 26.6506 29.4195 26.9424C29.6408 27.4283 28.7276 28.6681 26.0453 31.5233C24.776 32.8744 24.0531 33.34 23.1232 33.4055C21.9417 33.4886 20.8507 33.1807 18.9497 32.2276C18.2416 31.8727 17.0801 31.2987 16.3686 30.9522C15.2971 30.4304 15.0123 30.2643 14.7099 29.9843C14.3263 29.6291 14.2572 29.4435 14.4238 29.2156C14.4995 29.1121 14.5121 29.1125 14.7376 29.2274C15.6379 29.6856 18.1449 30.2571 19.2538 30.257C19.8016 30.2569 20.1648 30.0626 21.494 29.0584C22.9051 27.9923 23.3654 27.6898 23.9411 27.4502C24.5258 27.2067 25.1655 27.1376 25.3434 27.2986C25.4861 27.4278 25.4943 27.6139 25.3703 27.9107C25.2554 28.1858 23.7584 29.7072 22.6312 30.6944L21.8024 31.4203L21.9737 31.4935C22.3395 31.6498 22.6785 31.5648 23.2244 31.1801C23.6405 30.8868 24.5999 29.9043 25.5266 28.8224Z" fill="white"/>
<path d="M29.5045 28.6049C30.4749 27.8761 30.8679 27.6606 31.3822 27.5754C32.3943 27.4075 33.3983 27.6426 33.5063 28.0727C33.5578 28.278 33.4069 28.5183 32.9692 28.9278C32.1984 29.6489 31.2119 30.2328 28.8992 31.3369C26.0995 32.6735 25.139 33.1181 25.11 33.091C25.0215 33.0087 25.8185 32.1185 27.6682 30.2338C28.341 29.5482 28.8519 29.0951 29.5045 28.6049Z" fill="white"/>
<path fill-rule="evenodd" clip-rule="evenodd" d="M21.1661 14.0543C19.9676 14.3066 18.812 15.1707 18.3205 16.1824C18.1618 16.5087 18.0508 16.9819 18.024 17.4462C17.9163 19.3076 18.9707 21.3811 21.214 23.7189L22.3907 24.9452L22.4093 24.2678C22.4195 23.8953 22.4213 23.5508 22.4133 23.5024C22.3846 23.3276 22.7436 22.7537 22.9893 22.5813C23.1274 22.4843 23.4209 22.4051 23.6413 22.4051C24.5103 22.4051 24.8815 22.9895 24.8815 24.3576C24.8815 25.1323 24.9191 25.3394 25.0877 25.4921C25.2011 25.5949 25.3279 25.679 25.3695 25.679C25.4111 25.679 25.4452 24.6324 25.4452 23.3534V21.0278L25.8285 20.6439C26.2417 20.2302 26.6623 20.1516 27.1858 20.3904C27.7807 20.6619 27.8598 20.9464 27.9233 23.0454L27.9819 24.9841L28.3319 24.6704C28.6456 24.3893 28.688 24.2738 28.7389 23.5617C28.8059 22.6243 29.0813 22.149 29.6706 21.9543C30.4586 21.6939 31.195 22.3452 31.195 23.3026C31.195 23.5541 31.2205 23.7598 31.2517 23.7598C31.4451 23.7598 32.9903 21.7905 33.5107 20.881C33.6883 20.5706 33.9332 20.2475 33.9332 20.2475C33.9332 20.2475 34.0624 19.8325 34.1671 19.5167C34.635 18.1063 34.6149 17.0306 34.1017 16.0015C33.2108 14.2154 30.3389 13.4111 28.3296 14.3851C27.7784 14.6523 27.059 15.3445 26.5837 16.0652L26.2603 16.5555L25.8397 15.921C25.3212 15.1389 24.6248 14.5547 23.8667 14.2663C23.1878 14.008 21.8754 13.905 21.1661 14.0543ZM27.1426 18.2104C27.6771 18.6438 27.3257 19.5828 26.629 19.5828C26.4877 19.5828 26.2566 19.4891 26.1153 19.3746C25.5808 18.9412 25.9322 18.0023 26.629 18.0023C26.7702 18.0023 27.0014 18.096 27.1426 18.2104ZM30.3845 19.8129C30.8938 20.288 30.5475 21.1633 29.8503 21.1633C29.4853 21.1633 29.0529 20.7238 29.0529 20.3527C29.0529 20.0522 29.5525 19.5828 29.8721 19.5828C30.0182 19.5828 30.2489 19.6864 30.3845 19.8129ZM23.8155 20.4244C24.1536 20.7628 24.1655 21.0396 23.8586 21.4302C23.4092 22.0024 22.5139 21.7076 22.5139 20.9875C22.5139 20.2173 23.2785 19.8866 23.8155 20.4244Z" fill="white"/>
</svg>
