<svg width="50" height="50" viewBox="0 0 50 50" fill="none" xmlns="http://www.w3.org/2000/svg">
<path fill-rule="evenodd" clip-rule="evenodd" d="M22.383 0.191986C20.3821 0.659131 18.5345 1.8184 17.2765 3.396C15.9434 5.06797 15.7957 6.15472 16.8542 6.5041C17.4603 6.70407 17.9006 6.44255 18.3374 5.62298C18.7771 4.79786 19.8944 3.64958 20.7468 3.14666C23.9292 1.26872 27.7327 1.99978 31.1565 5.14735C31.7164 5.66202 31.8636 5.74303 32.2398 5.74303C32.6248 5.74303 32.7656 5.66017 33.4529 5.02948C34.4576 4.10737 35.2927 3.54551 36.5282 2.96028C37.8037 2.35601 38.784 2.12016 40.0161 2.12113C43.2712 2.12353 45.8908 4.14793 46.8135 7.37412C47.1071 8.40084 47.227 10.7901 47.0403 11.8947C46.8606 12.9576 46.3451 14.5806 45.8343 15.6914C45.2455 16.9717 45.268 17.41 45.9403 17.7577C46.7661 18.1847 47.2498 17.8157 47.945 16.2285C48.9652 13.8989 49.3927 11.7443 49.2769 9.51585C49.1268 6.62436 48.3532 4.62279 46.7149 2.88612C45.4932 1.59114 43.9882 0.683489 42.354 0.256469C41.2593 -0.0296248 39.3211 -0.0859519 38.2156 0.136094C36.4781 0.485039 34.6879 1.32984 33.0281 2.58404L32.1878 3.21897L31.7963 2.86535C30.747 1.91725 28.5656 0.746014 27.0218 0.301487C25.84 -0.038759 23.5981 -0.0917151 22.383 0.191986ZM4.56706 5.89374C4.17799 6.06337 3.98563 6.40308 3.94474 6.99277C3.91484 7.42436 3.91147 7.4274 3.38115 7.50265C2.10433 7.68392 0.927657 8.58493 0.300447 9.86164L0 10.4732V18.1937V25.9142L0.250101 26.7779C1.13883 29.8474 3.5299 32.1682 6.59777 32.9393L7.54097 33.1764L7.58349 37.7552C7.62351 42.0631 7.64025 42.3853 7.86534 43.2038C8.74505 46.4026 10.9633 48.6734 14.1415 49.6283C14.9685 49.8769 15.319 49.9214 16.474 49.9243C18.1396 49.9287 18.9414 49.7465 20.443 49.0225C22.276 48.1387 23.6534 46.772 24.5611 44.9362C25.2893 43.4633 25.4126 42.778 25.4717 39.871L25.524 37.2994L25.9738 37.0996C27.0595 36.6172 28.0147 35.299 28.1681 34.0711C28.3227 32.8335 27.6121 31.2992 26.5467 30.5702C24.6603 29.2795 22.064 29.9365 21.0526 31.9607C20.063 33.9409 20.8655 36.1646 22.9168 37.1266L23.3246 37.3177L23.3228 39.4996C23.3205 42.0781 23.1989 42.8049 22.5497 44.1218C21.6798 45.8866 19.9028 47.2519 17.942 47.6622C14.8332 48.3127 11.7245 46.7536 10.3733 43.8662C9.78742 42.6142 9.7361 42.0971 9.73403 37.4243L9.73218 33.1672L10.5205 32.9898C12.1347 32.6266 13.3781 31.9624 14.6059 30.8075C15.8901 29.5996 16.6611 28.3121 17.1454 26.5666C17.381 25.7174 17.3878 25.5306 17.4269 18.6876C17.47 11.189 17.445 10.7248 16.9443 9.70234C16.456 8.70509 15.2659 7.76134 14.2177 7.54017C13.8793 7.46872 13.8643 7.44371 13.8643 6.95102C13.8643 6.12122 13.2247 5.61428 12.4856 5.85818C11.8174 6.07871 11.7677 6.26759 11.7775 8.54655L11.7863 10.5819L12.1202 10.881C12.8308 11.5174 13.8643 11.0552 13.8643 10.101C13.8643 9.85719 13.9044 9.65765 13.9535 9.65765C14.0025 9.65765 14.2433 9.82946 14.4886 10.0394C15.32 10.751 15.2923 10.4447 15.2558 18.5219L15.2235 25.6967L14.9362 26.4827C14.5401 27.5663 14.1552 28.1899 13.387 28.9923C12.127 30.3086 10.5416 30.9941 8.75353 30.9958C6.84591 30.9977 5.33715 30.3836 4.01999 29.0694C3.14322 28.1946 2.43359 26.9003 2.23046 25.8055C2.14717 25.3563 2.11966 22.9147 2.14217 17.9677L2.17479 10.7823L2.47948 10.3831C2.80417 9.95723 3.20096 9.70452 3.64277 9.64177C3.8944 9.60611 3.91919 9.64275 3.97562 10.1349C4.09034 11.1337 5.04638 11.5329 5.7172 10.8622L6.03504 10.5443V8.51708C6.03504 7.27288 5.9897 6.40514 5.9176 6.27041C5.81321 6.07544 5.20373 5.73596 4.97831 5.74727C4.93155 5.74966 4.74648 5.81556 4.56706 5.89374ZM21.9654 11.4416C20.9094 11.7026 19.5778 12.6135 19.4274 13.1779C19.312 13.6109 19.4613 14.055 19.8161 14.3341C20.2544 14.6788 20.664 14.6088 21.4828 14.0494C22.3808 13.4358 22.9615 13.3285 23.6052 13.657C23.888 13.8013 24.4892 14.4172 25.3922 15.4876C27.0219 17.4197 27.4744 17.7241 28.7209 17.7263C29.9461 17.7286 30.6037 17.3509 31.5227 16.1168C32.4759 14.8366 33.3531 14.4422 35.2474 14.4422C35.9371 14.4422 36.0331 14.4144 36.2987 14.1372C36.7123 13.7055 36.7019 13.123 36.273 12.694C35.9586 12.3796 35.9414 12.3761 34.7077 12.3761C33.7749 12.3761 33.286 12.43 32.7692 12.5897C31.5633 12.9625 30.4923 13.7676 29.829 14.8002C29.6449 15.0868 29.3503 15.3957 29.1744 15.4867C28.558 15.8055 28.3241 15.6454 26.866 13.9073C25.3995 12.1592 24.866 11.7304 23.8172 11.4573C23.0623 11.2607 22.7097 11.2576 21.9654 11.4416ZM38.9559 12.4936C38.3866 12.8252 38.3196 13.8116 38.8387 14.22C39.4504 14.7011 40.4275 14.3701 40.5654 13.6351C40.6433 13.2197 40.4068 12.6649 40.0765 12.4881C39.8112 12.3461 39.2041 12.3491 38.9559 12.4936ZM41.8103 15.8861C41.6608 15.9608 41.4529 16.1926 41.3484 16.401C41.1817 16.7333 41.1582 17.1356 41.1581 19.6633L41.1579 22.5466L40.6194 22.7378C39.3942 23.173 39.0117 23.8304 38.9534 25.6009C38.9151 26.7644 38.901 26.8254 38.5787 27.2165C38.3945 27.4399 38.1879 27.8255 38.1197 28.0733C38.0312 28.3949 38.0048 30.5352 38.0273 35.5462L38.0588 42.5685L38.3879 43.1008C38.5916 43.4302 38.9197 43.7584 39.2489 43.9621L39.7807 44.2912L42.0188 44.3249C43.5044 44.3472 44.4108 44.3154 44.7145 44.2304C45.2876 44.07 45.9846 43.4819 46.2995 42.8931C46.54 42.4437 46.5406 42.4268 46.5727 35.592C46.5944 30.9548 46.5669 28.5896 46.4877 28.2717C46.3182 27.5926 45.8694 26.9775 45.2985 26.6419C44.8238 26.3628 44.7147 26.3467 42.9521 26.2948L41.1035 26.2404V25.5336V24.8268L42.1705 24.7956C43.1766 24.7661 43.256 24.7801 43.5652 25.0403C44.132 25.5172 44.9272 25.3527 45.2399 24.6938C45.3494 24.4631 45.3903 24.2097 45.3463 24.0345C45.2293 23.5685 44.4177 22.8427 43.8409 22.6884L43.3327 22.5525V19.5794C43.3327 16.2823 43.2978 16.0873 42.6673 15.8675C42.2335 15.7164 42.1462 15.7182 41.8103 15.8861ZM19.8993 19.3295C19.371 19.5458 19.1224 20.1533 19.3446 20.6852C19.5467 21.1688 21.3717 23.1471 22.6135 24.2287C25.5145 26.7556 28.9533 29.0137 30.6449 29.5026C31.5447 29.7627 33.0776 29.7425 33.9811 29.4586C34.8218 29.1944 36.3284 28.363 36.6724 27.9734C37.0301 27.5681 37.0003 27.0138 36.5992 26.6126C36.125 26.1384 35.7019 26.1825 34.5857 26.8225C32.4308 28.0581 31.3098 27.8639 28.0548 25.6909C25.533 24.0073 23.4356 22.2385 21.9095 20.5082C20.7858 19.2342 20.5171 19.0767 19.8993 19.3295ZM44.2492 28.5317C44.4008 28.6833 44.4201 29.4479 44.4201 35.3061C44.4201 40.2973 44.3882 41.9416 44.2896 42.0403C44.1979 42.1319 43.5849 42.1708 42.2273 42.1708C39.9558 42.1708 40.0243 42.2103 40.0969 40.9378L40.1414 40.1591L40.6648 40.0981C41.055 40.0525 41.2536 39.9611 41.4449 39.7386C42.026 39.063 41.5594 38.0695 40.6107 37.9624L40.1249 37.9076L40.1065 37.1668L40.0882 36.4258L41.3391 36.3895L42.5899 36.3532L42.9069 35.9981C43.2563 35.6066 43.3046 35.2479 43.069 34.7922C42.8393 34.348 42.4672 34.2328 41.2636 34.2328C40.0296 34.2328 40.0253 34.229 40.0909 33.1926L40.1249 32.6561L40.6565 32.5951C41.308 32.5202 41.7016 32.1336 41.7016 31.5687C41.7016 31.0038 41.308 30.6171 40.6565 30.5423L40.1249 30.4813L40.0932 29.643C40.0451 28.3687 40.0584 28.3608 42.2919 28.3608C43.7709 28.3608 44.1078 28.3902 44.2492 28.5317ZM25.282 32.3027C26.3364 33.0224 26.247 34.5566 25.1188 35.1027C24.5411 35.3824 24.2423 35.3768 23.6548 35.0755C22.1589 34.3085 22.7237 32.058 24.412 32.058C24.7638 32.058 25.0355 32.1344 25.282 32.3027ZM41.743 45.5272C41.316 45.7934 41.1579 46.2424 41.1579 47.189V47.934H39.8627H38.5675L38.286 48.2685C37.8921 48.7366 37.9057 49.2656 38.3223 49.6822L38.6401 50H42.2754H45.9107L46.1941 49.7374C46.5559 49.402 46.6562 48.997 46.4818 48.5758C46.248 48.0114 45.9707 47.9105 44.6103 47.8942L43.3871 47.8796L43.3327 46.9301C43.2853 46.1017 43.2436 45.9461 43.0065 45.7095C42.6279 45.3318 42.1638 45.2648 41.743 45.5272Z" fill="#D67940"/>
</svg>
