<svg width="32" height="32" viewBox="0 0 32 32" fill="none" xmlns="http://www.w3.org/2000/svg">
<path d="M15.9867 2.66663C8.62667 2.66663 2.66667 8.63996 2.66667 16C2.66667 23.36 8.62667 29.3333 15.9867 29.3333C23.36 29.3333 29.3333 23.36 29.3333 16C29.3333 8.63996 23.36 2.66663 15.9867 2.66663ZM16 26.6666C10.1067 26.6666 5.33334 21.8933 5.33334 16C5.33334 10.1066 10.1067 5.33329 16 5.33329C21.8933 5.33329 26.6667 10.1066 26.6667 16C26.6667 21.8933 21.8933 26.6666 16 26.6666ZM15.7067 9.33329H15.6267C15.0933 9.33329 14.6667 9.75996 14.6667 10.2933V16.5866C14.6667 17.0533 14.9067 17.4933 15.32 17.7333L20.8533 21.0533C21.3067 21.32 21.8933 21.1866 22.16 20.7333C22.227 20.6253 22.2715 20.505 22.291 20.3795C22.3104 20.2539 22.3044 20.1258 22.2733 20.0026C22.2422 19.8794 22.1867 19.7638 22.1099 19.6625C22.0332 19.5613 21.9369 19.4765 21.8267 19.4133L16.6667 16.3466V10.2933C16.6667 9.75996 16.24 9.33329 15.7067 9.33329Z" fill="#D67940"/>
</svg>
