<svg width="43" height="50" viewBox="0 0 43 50" fill="none" xmlns="http://www.w3.org/2000/svg">
<path fill-rule="evenodd" clip-rule="evenodd" d="M18.93 0.257208C17.7649 0.820067 16.9731 2.10873 17.5158 2.55909C17.8181 2.81002 18.2032 2.64578 18.56 2.11366C18.7478 1.83352 19.0663 1.50376 19.2676 1.38093C19.7254 1.10185 20.6245 1.08707 21.1777 1.34949C21.6023 1.55103 22.156 2.24587 22.156 2.57739C22.156 2.91219 22.5147 3.09238 23.181 3.09238C23.7517 3.09238 23.853 3.13203 24.16 3.47552C24.5415 3.90242 24.5893 4.28485 24.3251 4.79574C23.9475 5.52589 23.0801 5.60507 22.4255 4.96936C21.9364 4.49437 21.7864 4.47349 21.1589 4.79339C20.9057 4.92244 20.5051 5.02802 20.2686 5.02802C20.0321 5.02802 19.7824 5.09582 19.7136 5.17853C19.6449 5.26135 19.5982 5.67065 19.6097 6.08792C19.6349 6.99521 19.3789 7.52639 18.7559 7.85956C17.26 8.65938 15.6184 6.88634 16.5577 5.4853C16.7048 5.26581 17.087 4.95493 17.4082 4.79339C17.8168 4.58798 18.003 4.41917 18.0299 4.22971C18.158 3.3256 16.8069 3.46907 15.8566 4.46047C15.3506 4.98825 15.1174 5.5931 15.1174 6.37709C15.1174 7.11369 15.2945 7.61977 15.7355 8.14274L16.0373 8.50054L15.8028 9.31586C15.657 9.82264 15.5497 10.6193 15.5191 11.4215L15.4699 12.7119L15.0883 12.7453C13.3562 12.897 10.8293 13.6459 9.16419 14.501C4.63845 16.8252 1.51081 20.9078 0.309783 26.059C0.064603 27.1108 0.0562737 27.4099 0.0152148 36.7122C-0.0197439 44.6199 0.000316499 46.3062 0.130532 46.4142C0.239983 46.505 1.93466 46.5557 5.67911 46.5798C11.6613 46.6187 11.4242 46.5878 12.1548 47.4199C12.5128 47.8277 12.8379 48.5822 12.7305 48.7561C12.6989 48.8071 11.0982 48.8478 9.17346 48.8463L5.67383 48.8437L5.61506 48.1062C5.55582 47.3611 5.42138 47.1482 5.00762 47.1445C4.567 47.1405 4.44207 47.4627 4.44207 48.6031C4.44207 49.4232 4.48524 49.7306 4.61545 49.8388C4.74508 49.9463 5.90318 49.9855 9.20431 49.994C14.3549 50.007 14.0093 50.0968 13.9046 48.7718C13.8481 48.056 13.4755 46.9948 13.2268 46.841C12.8523 46.6095 13.3896 46.5562 16.0911 46.5562C18.243 46.5562 19.0977 46.5174 19.1998 46.4154C19.3062 46.309 19.3406 44.5052 19.3406 39.0165C19.3406 32.7211 19.3639 31.7348 19.5165 31.5822C19.6601 31.4387 19.6925 31.0122 19.6925 29.2679C19.6925 27.0099 19.656 26.8479 19.1478 26.8479C18.6317 26.8479 18.5194 27.2296 18.5194 28.9856V30.6018H11.6802C6.51718 30.6018 4.80644 30.6363 4.70015 30.7426C4.47714 30.9656 4.52911 31.5159 4.78626 31.6535C4.93501 31.7331 7.28088 31.775 11.5903 31.775H18.1675V38.579V45.383H17.6396H17.1117V39.3924C17.1117 35.4874 17.0694 33.3229 16.9902 33.1749C16.8526 32.9178 16.3023 32.8658 16.0793 33.0888C15.9735 33.1947 15.9386 34.7364 15.9386 39.3063V45.383H8.54796H1.15736V38.579V31.775H2.16224C3.33348 31.775 3.62089 31.6632 3.62089 31.2078C3.62089 30.6813 3.43882 30.6018 2.23099 30.6018H1.12251L1.18891 28.9888C1.26223 27.2057 1.47187 26.0145 1.98252 24.4787C3.45349 20.0546 7.12392 16.3199 11.5706 14.7227C12.4814 14.3957 14.381 13.9798 15.2119 13.9257L15.7172 13.8929L16.0331 14.8312C16.6592 16.6903 18.0933 18.5796 19.6603 19.6096L20.4102 20.1025L17.3335 20.1338C15.3033 20.1545 14.2036 20.2092 14.1005 20.2948C13.8618 20.493 13.9063 21.071 14.1711 21.2128C14.3226 21.2939 17.8051 21.3344 24.6412 21.3345C34.1613 21.3346 34.9127 21.3492 35.2866 21.5398C35.9459 21.876 36.1751 22.294 36.1726 23.1559C36.1709 23.7261 36.1127 23.9817 35.9274 24.232C35.3971 24.9485 36.0925 24.9096 23.2705 24.9415L11.5394 24.9708L11.3341 25.2184C11.0725 25.5341 11.0762 25.6222 11.3634 25.9094C11.5936 26.1396 11.7544 26.144 19.8834 26.144H28.1688L27.6929 26.6603C27.168 27.2297 26.8266 27.834 26.6255 28.5489C26.4815 29.0611 24.4709 49.1612 24.5267 49.531C24.5456 49.656 24.6452 49.811 24.748 49.8755C25.0025 50.0349 25.5284 49.8872 25.6039 49.6353C25.6377 49.5225 25.8266 47.741 26.0237 45.6763C26.2208 43.6116 26.4102 41.7507 26.4446 41.5411L26.5072 41.1598H33.3515H40.1958L40.2613 41.5411C40.2973 41.7509 40.4444 43.1816 40.5881 44.7206C40.7757 46.7292 40.8974 47.5668 41.0197 47.689C41.2346 47.9039 41.7437 47.8492 41.9035 47.5939C41.9907 47.4546 41.7844 44.9347 41.1738 38.6782C40.7057 33.8814 40.2713 29.6185 40.2086 29.2053C39.9701 27.6368 38.9503 26.228 37.5452 25.526L36.7613 25.1346L37.0527 24.6128C37.2953 24.1784 37.344 23.934 37.3438 23.1526C37.3435 21.6149 36.7419 20.7138 35.4575 20.3273C35.0367 20.2006 34.1021 20.1612 31.5223 20.1612H28.1389V17.6976V15.2341H29.5323C30.5792 15.2341 30.9593 15.1935 31.0611 15.0709C31.1599 14.9518 31.1876 13.5941 31.1634 10.0559L31.1303 5.20398L30.8197 4.54141C30.4146 3.6773 29.6986 2.97413 28.8018 2.55979C28.1279 2.24845 27.9564 2.22276 26.2033 2.1702C23.7028 2.09536 23.2574 1.97969 22.8013 1.28673C22.6044 0.987587 22.195 0.595651 21.8719 0.39716C21.3855 0.0981344 21.1547 0.0368978 20.4055 0.00803927C19.6611 -0.020702 19.4212 0.0198878 18.93 0.257208ZM28.1998 3.55623C28.8369 3.79953 29.6826 4.70553 29.8764 5.35226C29.9727 5.67358 30.0159 7.09445 30.0159 9.93936V14.061H28.7054C27.6505 14.061 27.353 14.0989 27.1804 14.2551C26.9836 14.4331 26.9658 14.6874 26.9658 17.3052V20.1612L25.7634 20.157C22.2131 20.145 19.4517 18.7033 17.8365 16.0188C16.7616 14.232 16.3717 11.5815 16.9101 9.72187L17.0588 9.2084L17.9449 9.20042C18.7188 9.19362 18.9038 9.14763 19.4049 8.83781C20.1612 8.37021 20.6021 7.72324 20.7663 6.84047C20.8893 6.17931 20.9253 6.12253 21.2958 6.00663C21.5172 5.9373 21.7214 5.92756 21.7567 5.98469C21.7916 6.041 22.0366 6.19773 22.3014 6.33275C22.9946 6.68633 23.976 6.60327 24.6391 6.13496C25.3287 5.64777 25.6187 5.03576 25.6084 4.08953L25.6002 3.32701L26.6404 3.34249C27.2996 3.35234 27.8709 3.43059 28.1998 3.55623ZM11.3154 20.4161C11.0761 20.7578 11.0802 20.8165 11.3634 21.0996C11.6635 21.3997 12.3048 21.4058 12.6678 21.112C12.904 20.9207 12.926 20.8426 12.8251 20.5547C12.7194 20.2525 12.649 20.2164 12.1051 20.1847C11.589 20.1547 11.4752 20.188 11.3154 20.4161ZM36.9561 26.5288C37.7411 26.9143 38.3844 27.5867 38.7628 28.4175C38.9787 28.8912 39.0832 29.4891 39.2573 31.2471C39.3787 32.473 39.4576 33.5155 39.4326 33.5639C39.4075 33.6124 36.6745 33.6519 33.3593 33.6519C30.044 33.6519 27.3079 33.6124 27.2789 33.5639C27.2499 33.5155 27.3243 32.4813 27.4443 31.2656C27.6249 29.4352 27.7145 28.9411 27.9656 28.3915C28.2944 27.672 28.7941 27.0891 29.4087 26.7079C30.222 26.2036 30.6335 26.1507 33.5352 26.1773C36.289 26.2027 36.2927 26.203 36.9561 26.5288ZM28.6082 37.4059V39.9867H27.611C26.7387 39.9867 26.6141 39.961 26.6161 39.7814C26.6174 39.6686 26.7226 38.5467 26.85 37.2886C26.9773 36.0304 27.0819 34.9615 27.0823 34.913C27.0828 34.8646 27.4262 34.825 27.8456 34.825H28.6082V37.4059ZM36.8199 37.4059V39.9867H33.3006H29.7813V37.4059V34.825H33.3006H36.8199V37.4059ZM39.6376 35.0303C39.6389 35.1432 39.7442 36.265 39.8716 37.5232C39.9988 38.7814 40.1035 39.8503 40.1038 39.8987C40.1043 39.9472 39.6295 39.9867 39.0488 39.9867H37.993V37.4059V34.825H38.8142C39.5173 34.825 39.6358 34.8546 39.6376 35.0303ZM41.1839 48.5739C41.0111 48.7467 40.9997 49.4234 41.1646 49.7313C41.2422 49.8763 41.41 49.9582 41.6297 49.9582C42.0224 49.9582 42.2162 49.6921 42.2162 49.1531C42.2162 48.5588 41.5646 48.1932 41.1839 48.5739Z" fill="white"/>
</svg>
