<svg width="54" height="50" viewBox="0 0 54 50" fill="none" xmlns="http://www.w3.org/2000/svg">
<path fill-rule="evenodd" clip-rule="evenodd" d="M8.27633 0.142948C7.30624 0.565474 6.9926 1.89766 7.67291 2.70614C8.2011 3.33383 8.17755 3.3307 12.2949 3.3307C14.8675 3.3307 16.1301 3.29382 16.2857 3.214C16.4108 3.14981 16.6625 2.95611 16.8449 2.78355L17.1766 2.46981L18.334 2.51743C19.6443 2.57141 19.6853 2.5936 19.9373 3.3828C20.3708 4.74062 20.6038 7.65162 20.6814 12.6825L20.7365 16.2514L18.2601 16.2525C16.8982 16.2531 15.6172 16.2813 15.4135 16.3149L15.0432 16.3762L14.9162 14.2558C14.6686 10.1263 14.1967 7.80469 13.4765 7.17262C12.958 6.71748 11.8446 6.45667 10.4204 6.45667C9.86442 6.45667 9.66707 6.41853 9.62247 6.30245C9.58996 6.21763 9.39219 6.04185 9.18296 5.91171C8.80556 5.67705 8.77232 5.67518 4.99928 5.67518H1.19602L0.792978 5.92577C0.354927 6.19805 0.00388074 6.8222 2.53818e-05 7.33548C-0.00362158 7.8173 0.38629 8.50605 0.812672 8.77113C1.19331 9.00787 1.22217 9.00954 4.89508 9.00954C6.92956 9.00954 8.72126 8.9739 8.87662 8.93045C9.03198 8.8869 9.32478 8.68069 9.52724 8.47219L9.89547 8.09311L10.9902 8.16386C11.5922 8.20283 12.1516 8.26024 12.2331 8.2915C12.4552 8.37674 12.6676 8.99901 12.8517 10.1036C13.1628 11.9701 13.2464 13.4974 13.3034 18.3614L13.3605 23.2327H12.9734C12.2776 23.2327 10.4914 23.6554 9.42773 24.0718C7.53485 24.8129 6.07826 25.7996 4.61843 27.3298C2.16173 29.9049 0.928333 32.984 0.916975 36.5701C0.903325 40.8878 2.88727 44.8428 6.35386 47.4083C7.3848 48.1713 9.40095 49.178 10.5218 49.4893C14.999 50.7329 19.5792 49.6797 23.049 46.6083C23.9655 45.7969 24.8991 44.7056 25.4762 43.7705C25.7516 43.3242 25.953 43.1123 26.1416 43.07C26.9526 42.8886 27.1977 42.7957 27.6432 42.5005C28.5853 41.8766 29.2442 40.8944 30.0019 38.9842C30.7175 37.18 31.0036 36.7103 31.4918 36.5371C31.6624 36.4767 31.6742 36.643 31.6742 39.1122V41.7517L31.2139 41.9275C30.5539 42.1796 29.8578 42.837 29.5179 43.5291C29.2661 44.0418 29.2258 44.2476 29.2281 45.0102C29.2302 45.7358 29.2769 45.9901 29.4861 46.4169C30.6995 48.8918 34.0913 48.9812 35.4171 46.5732C35.7629 45.9452 35.7899 45.8315 35.789 45.0102C35.788 44.2377 35.7486 44.0466 35.4804 43.5148C35.1236 42.8075 34.458 42.1782 33.8016 41.9275L33.3414 41.7517V38.9004C33.3414 37.2173 33.381 36.0491 33.4381 36.0491C33.4912 36.0491 33.878 36.0058 34.2977 35.9528C34.7173 35.8998 35.3537 35.8302 35.7119 35.7981L36.3631 35.7398V37.9669C36.3631 40.4859 36.2994 40.2778 37.3009 41.0258C38.0213 41.5637 39.453 43.0064 40.0141 43.7598C41.0335 45.1285 41.6716 46.8932 41.6755 48.3542L41.6773 49.041L43.7259 49.1096C47.2068 49.2261 47.3778 49.2181 47.6734 48.9224C47.8256 48.7702 47.9292 48.5461 47.9292 48.369C47.9292 48.0822 47.6551 47.6801 47.4023 47.5958C47.3259 47.5704 47.5574 47.0025 48.0223 46.0743L48.7641 44.5934H47.0958H45.4275L44.7263 46.0001L44.0253 47.4068H43.6328C43.2739 47.4068 43.2402 47.3822 43.2402 47.1199C43.2402 46.2648 42.4475 44.3589 41.5497 43.056C40.9465 42.1805 39.4616 40.582 38.719 40.0087C38.4592 39.8081 38.2448 39.5978 38.2427 39.5415C38.2363 39.3772 42.7617 30.9434 42.8561 30.9434C43.0484 30.9434 45.2036 33.2373 45.6668 33.9351C46.5899 35.3256 47.0956 36.8137 47.0956 38.14V38.8429L47.6127 38.9141L48.1299 38.9852L47.5085 40.2247C47.1668 40.9065 46.8872 41.4884 46.8872 41.518C46.8872 41.5475 47.6266 41.5717 48.5303 41.5717H50.1733L50.822 40.2695L51.4706 38.9673L52.1572 38.9931C52.7953 39.017 52.8615 38.9982 53.0957 38.7264C53.413 38.3582 53.4156 38.0154 53.1038 37.6531L52.8602 37.3697L50.7913 37.3086L48.7225 37.2474L48.5977 36.5701C48.1991 34.4065 46.3974 31.6664 44.247 29.9535L43.4622 29.3283L43.4527 24.8478C43.4399 18.7836 43.3342 17.8041 42.6151 17.0849C42.1917 16.6616 41.7202 16.4942 40.6772 16.3973L39.9421 16.329L39.8187 15.7315C39.5785 14.5685 38.6363 13.4524 37.3677 12.8278C36.6512 12.4751 35.1812 12.0853 34.5631 12.0841C34.1085 12.0833 33.9681 11.8556 33.9643 11.1128C33.9599 10.2693 33.3797 9.36423 32.5599 8.9218C32.1542 8.70298 32.0237 8.69611 27.6736 8.66568C25.2153 8.64849 23.0032 8.67725 22.7577 8.72956L22.3114 8.82479L22.2467 8.03142C21.8991 3.76771 21.4035 1.81909 20.5381 1.31362C20.0091 1.00467 19.121 0.833369 18.0391 0.831598C17.1122 0.830035 17.0536 0.816489 16.8494 0.556826C16.4253 0.017701 16.247 -0.0039724 12.2705 0.000403948C9.45013 0.00352991 8.52015 0.0367693 8.27633 0.142948ZM31.8113 10.4332C32.1879 10.6339 32.2926 10.8565 32.296 11.4645L32.2994 12.0439L27.6365 12.0589C25.0718 12.0673 22.8446 12.0489 22.687 12.0183C22.418 11.9661 22.4007 11.9297 22.4038 11.4239C22.4073 10.8662 22.5129 10.6423 22.8694 10.4379C23.1663 10.2676 31.4921 10.2633 31.8113 10.4332ZM30.9817 18.174C31.216 18.3912 31.2574 18.5164 31.2574 19.0076V19.5857H23.182H15.1066V19.0079C15.1066 18.5333 15.1523 18.3843 15.3624 18.1743L15.6181 17.9185H23.1621H30.706L30.9817 18.174ZM41.4226 18.2445C41.694 18.5158 41.7777 20.0424 41.7796 24.7568L41.7815 29.2506L39.9319 32.7201L38.0824 36.1896L38.0241 32.4464C37.9699 28.9691 37.9495 28.6544 37.7386 28.017C37.6137 27.6396 37.3704 27.1359 37.1979 26.8978C37.0253 26.6596 36.8841 26.4465 36.8841 26.4243C36.8841 26.4021 37.0243 26.3258 37.1956 26.2549C38.3498 25.7769 39.2386 23.497 39.7278 19.7601L39.958 18.0021L40.6105 18.0435C41.0098 18.0688 41.3251 18.1468 41.4226 18.2445ZM20.7132 23.0638C20.7389 24.481 20.7186 24.811 20.609 24.7635C20.5341 24.731 20.0344 24.5122 19.4986 24.2774C18.398 23.7949 16.8663 23.375 15.7839 23.2588L15.0545 23.1806L15.0237 22.3562C15.0068 21.9028 15.0174 21.4683 15.0472 21.3907C15.0912 21.2758 15.6212 21.2547 17.8913 21.2773L20.6812 21.305L20.7132 23.0638ZM31.2574 23.0243V24.7957L28.3138 24.7952C26.6947 24.795 24.702 24.7643 23.8853 24.727L22.4005 24.6591V22.9559V21.2529H26.8289H31.2574V23.0243ZM15.4886 24.907C19.8739 25.3961 23.5788 28.3167 25.1467 32.5213C25.6373 33.8367 25.8394 35.0473 25.8377 36.6619C25.8296 44.4224 18.4258 50.0119 10.9907 47.8706C9.1268 47.3339 7.43451 46.3264 6.0323 44.9185C3.52247 42.3989 2.34054 39.1659 2.61802 35.5802C3.04378 30.0807 7.38397 25.5616 12.8663 24.9094C13.9285 24.7832 14.3734 24.7827 15.4886 24.907ZM30.9448 26.5148C34.14 26.5868 35.1718 26.8645 35.806 27.8228C36.2614 28.5111 36.3597 29.2047 36.3615 31.7434L36.3631 34.0543L35.8161 34.111C33.7228 34.3278 33.1049 34.4075 32.4179 34.5493C30.8076 34.882 29.9126 35.3791 29.4242 36.2126C29.2679 36.4793 28.8737 37.3435 28.5482 38.1331C27.8766 39.7622 27.5571 40.3479 27.1057 40.7769L26.7907 41.0764L26.9946 40.4211C27.542 38.6626 27.6744 35.9864 27.3077 34.095C26.7939 31.4441 25.6332 29.2025 23.7781 27.2781L22.9008 26.368L25.8027 26.4162C27.3987 26.4426 29.7126 26.487 30.9448 26.5148ZM12.4354 28.3898C9.42074 29.0454 6.9406 31.4683 6.14171 34.5382C5.84266 35.6876 5.84204 37.4485 6.14036 38.602C6.94154 41.6997 9.28935 44.0221 12.3723 44.7665C13.3908 45.0124 15.2434 44.9866 16.2787 44.712C19.2519 43.9234 21.5409 41.5862 22.307 38.5565C22.4932 37.8201 22.5206 37.465 22.4836 36.2678C22.445 35.0208 22.4014 34.7417 22.1207 33.9413C21.1251 31.1031 18.7706 28.9813 15.9545 28.3845C15.095 28.2022 13.2852 28.205 12.4354 28.3898ZM14.9262 34.2132C15.6036 34.4171 16.0043 34.7364 16.3592 35.3552C16.6106 35.7935 16.6678 36.0138 16.6686 36.5474C16.6691 36.9074 16.6063 37.3529 16.5291 37.5373C15.989 38.8258 14.4478 39.4171 13.1746 38.8243C12.2474 38.3926 11.7722 37.6294 11.7722 36.5723C11.7722 35.4692 12.3763 34.5927 13.3834 34.2351C13.9288 34.0415 14.3364 34.0357 14.9262 34.2132ZM33.3424 43.5775C33.934 43.9802 34.1228 44.3267 34.1228 45.0102C34.1228 46.0246 33.5221 46.6253 32.5078 46.6253C31.8488 46.6253 31.5158 46.4546 31.1075 45.9079C30.8046 45.5023 30.8064 44.5168 31.1107 44.1061C31.4803 43.6074 31.9642 43.343 32.5078 43.343C32.8445 43.343 33.1058 43.4164 33.3424 43.5775Z" fill="#D67940"/>
</svg>
