<svg width="60" height="60" viewBox="0 0 60 60" fill="none" xmlns="http://www.w3.org/2000/svg">
	<circle cx="30" cy="30" r="30" fill="#8a2863" />
	<path
		d="M22.3793 24.1724C21.67 24.1724 20.9767 23.9621 20.3869 23.568C19.7972 23.174 19.3375 22.6139 19.0661 21.9586C18.7947 21.3033 18.7236 20.5822 18.862 19.8866C19.0004 19.1909 19.3419 18.5519 19.8435 18.0504C20.345 17.5488 20.984 17.2073 21.6797 17.0689C22.3753 16.9305 23.0964 17.0016 23.7517 17.273C24.407 17.5444 24.9671 18.0041 25.3611 18.5938C25.7552 19.1836 25.9655 19.8769 25.9655 20.5862C25.9655 21.5373 25.5877 22.4495 24.9151 23.122C24.2426 23.7946 23.3304 24.1724 22.3793 24.1724ZM22.3793 18.7931C22.0247 18.7931 21.678 18.8983 21.3831 19.0953C21.0882 19.2923 20.8584 19.5724 20.7227 19.9C20.587 20.2277 20.5515 20.5882 20.6207 20.936C20.6898 21.2839 20.8606 21.6034 21.1114 21.8541C21.3622 22.1049 21.6817 22.2757 22.0295 22.3449C22.3773 22.414 22.7379 22.3785 23.0655 22.2428C23.3931 22.1071 23.6732 21.8773 23.8702 21.5824C24.0673 21.2875 24.1724 20.9409 24.1724 20.5862C24.1724 20.1106 23.9835 19.6546 23.6472 19.3183C23.311 18.982 22.8549 18.7931 22.3793 18.7931Z"
		fill="white" />
	<path
		d="M36.7241 24.1724C36.0149 24.1724 35.3215 23.9621 34.7318 23.568C34.142 23.174 33.6823 22.6139 33.4109 21.9586C33.1395 21.3033 33.0685 20.5822 33.2068 19.8866C33.3452 19.1909 33.6868 18.5519 34.1883 18.0504C34.6898 17.5488 35.3288 17.2073 36.0245 17.0689C36.7202 16.9305 37.4412 17.0016 38.0965 17.273C38.7518 17.5444 39.3119 18.0041 39.706 18.5938C40.1 19.1836 40.3103 19.8769 40.3103 20.5862C40.3103 21.5373 39.9325 22.4495 39.26 23.122C38.5874 23.7946 37.6753 24.1724 36.7241 24.1724ZM36.7241 18.7931C36.3695 18.7931 36.0228 18.8983 35.7279 19.0953C35.4331 19.2923 35.2032 19.5724 35.0675 19.9C34.9318 20.2277 34.8963 20.5882 34.9655 20.936C35.0347 21.2839 35.2055 21.6034 35.4562 21.8541C35.707 22.1049 36.0265 22.2757 36.3743 22.3449C36.7222 22.414 37.0827 22.3785 37.4103 22.2428C37.738 22.1071 38.018 21.8773 38.215 21.5824C38.4121 21.2875 38.5172 20.9409 38.5172 20.5862C38.5172 20.1106 38.3283 19.6546 37.9921 19.3183C37.6558 18.982 37.1997 18.7931 36.7241 18.7931Z"
		fill="white" />
	<path
		d="M38.5172 43H34.931C34.4555 43 33.9994 42.8111 33.6631 42.4748C33.3268 42.1385 33.1379 41.6825 33.1379 41.2069V34.931H34.931V41.2069H38.5172V33.1379H40.3103V27.7586C40.3103 27.5208 40.2159 27.2928 40.0478 27.1247C39.8796 26.9565 39.6516 26.8621 39.4138 26.8621H33.6579L29.5517 34.0345L25.4455 26.8621H19.6897C19.4519 26.8621 19.2238 26.9565 19.0557 27.1247C18.8876 27.2928 18.7931 27.5208 18.7931 27.7586V33.1379H20.5862V41.2069H24.1724V34.931H25.9655V41.2069C25.9655 41.6825 25.7766 42.1385 25.4403 42.4748C25.1041 42.8111 24.648 43 24.1724 43H20.5862C20.1106 43 19.6546 42.8111 19.3183 42.4748C18.982 42.1385 18.7931 41.6825 18.7931 41.2069V34.931C18.3175 34.931 17.8615 34.7421 17.5252 34.4058C17.1889 34.0696 17 33.6135 17 33.1379V27.7586C17 27.0453 17.2834 26.3612 17.7878 25.8567C18.2922 25.3523 18.9763 25.069 19.6897 25.069H26.4855L29.5517 30.4483L32.6179 25.069H39.4138C40.1271 25.069 40.8113 25.3523 41.3157 25.8567C41.8201 26.3612 42.1034 27.0453 42.1034 27.7586V33.1379C42.1034 33.6135 41.9145 34.0696 41.5783 34.4058C41.242 34.7421 40.7859 34.931 40.3103 34.931V41.2069C40.3103 41.6825 40.1214 42.1385 39.7852 42.4748C39.4489 42.8111 38.9928 43 38.5172 43Z"
		fill="white" />
</svg>