<svg width="60" height="60" viewBox="0 0 60 60" fill="none" xmlns="http://www.w3.org/2000/svg">
<circle cx="30" cy="30" r="30" fill="#D67940"/>
<path fill-rule="evenodd" clip-rule="evenodd" d="M24.9205 18.0689C23.8538 18.3271 23.058 19.3476 23.0612 20.453C23.0643 21.5382 23.8754 22.5516 24.9421 22.8031C25.7693 22.9981 26.6021 22.7587 27.2177 22.1489C28.1768 21.1988 28.1756 19.6815 27.2149 18.7208C26.6059 18.1118 25.7491 17.8683 24.9205 18.0689ZM34.1192 18.0689C33.0696 18.3229 32.257 19.3496 32.2598 20.4182C32.2637 21.9888 33.7381 23.1614 35.2583 22.8031C36.3439 22.5472 37.1425 21.534 37.1393 20.4168C37.1361 19.3316 36.325 18.3181 35.2583 18.0667C34.8899 17.9798 34.4838 17.9806 34.1192 18.0689ZM22.4324 22.1766C22.1413 22.2449 21.7152 22.4958 21.5076 22.721C21.4022 22.8353 21.2491 23.07 21.1675 23.2423L21.0189 23.5558L21.006 27.987C20.9916 32.9667 20.9737 32.6928 21.3365 33.0486C21.7339 33.4382 22.3045 33.4957 22.7429 33.1905L22.8713 33.1011L22.8837 37.3242C22.896 41.5065 22.8971 41.5486 22.993 41.6769C23.0462 41.7482 23.148 41.85 23.2193 41.9032C23.3458 41.9977 23.4006 42 25.5009 42C27.6012 42 27.656 41.9977 27.7825 41.9032C27.8538 41.85 27.9556 41.7482 28.0088 41.6769C28.1047 41.5486 28.1057 41.5065 28.1181 37.3269C28.1292 33.5521 28.1382 33.1064 28.2033 33.1064C28.3305 33.1064 28.7611 32.6298 28.8229 32.4205C28.8657 32.2756 28.88 31.2468 28.88 28.3022V24.3771H29.6309H30.3818V28.2084C30.3818 31.0792 30.3961 32.088 30.4389 32.2328C30.515 32.4906 30.9038 32.8793 31.1616 32.9555C31.2679 32.9869 31.6001 33.0126 31.9 33.0126H32.4453L32.4578 37.2799C32.4701 41.507 32.4711 41.5485 32.567 41.6769C32.6202 41.7482 32.7221 41.85 32.7934 41.9032C32.9194 41.9974 32.9766 42 34.8872 42C36.7979 42 36.855 41.9974 36.9811 41.9032C37.0524 41.85 37.1542 41.7482 37.2074 41.6769C37.3033 41.5485 37.3044 41.507 37.3167 37.2799L37.3291 33.0126H37.8744C38.1743 33.0126 38.5066 32.9869 38.6129 32.9555C38.8853 32.875 39.2631 32.4893 39.3386 32.2147C39.3832 32.0525 39.3935 31.0255 39.3829 27.7797L39.3692 23.5558L39.2207 23.2423C39.139 23.07 38.9829 22.832 38.8738 22.7137C38.6051 22.4222 38.1057 22.1782 37.7031 22.1418C37.4051 22.1149 37.3963 22.1173 37.3191 22.2484C37.2755 22.3222 37.1335 22.4934 37.0033 22.6289L36.7666 22.8753H37.2177C37.4658 22.8753 37.7557 22.901 37.862 22.9324C38.1198 23.0086 38.5085 23.3974 38.5847 23.6551C38.6276 23.8004 38.6418 24.8646 38.6418 27.9398V32.0313L38.5266 32.1465C38.3742 32.2989 38.1585 32.2989 38.0061 32.1465L37.8909 32.0313V29.4458V26.8603L37.7757 26.7451C37.6227 26.592 37.4076 26.5926 37.2537 26.7465L37.137 26.8632L37.1502 29.5624L37.1634 32.2617H34.8872H32.6111L32.6242 29.4685L32.6374 26.6754L32.5208 26.5588C32.3669 26.4049 32.1518 26.4043 31.9988 26.5574L31.8836 26.6725V29.3519V32.0313L31.7684 32.1465C31.616 32.2989 31.4003 32.2989 31.2479 32.1465L31.1327 32.0313V27.9398C31.1327 24.8646 31.1469 23.8004 31.1898 23.6551C31.2659 23.3974 31.6547 23.0086 31.9125 22.9324C32.0188 22.901 32.2242 22.8753 32.3691 22.8753H32.6324L32.3957 22.6289C32.2655 22.4934 32.1242 22.3245 32.0816 22.2535L32.0042 22.1244H30.1002H28.1962L28.1188 22.2535C28.0762 22.3245 27.9349 22.4934 27.8047 22.6289L27.568 22.8753H29.1547H30.7415L30.5851 23.186C30.4991 23.3569 30.4287 23.5259 30.4287 23.5615C30.4287 23.6146 30.2424 23.6262 29.3941 23.6262H28.3595L28.2443 23.7415L28.1291 23.8566V28.0378V32.219L28.0139 32.3342L27.8987 32.4494H25.5734H23.2482V29.561V26.6725L23.133 26.5574C23.0604 26.4847 22.9641 26.4421 22.8727 26.4421C22.7813 26.4421 22.6851 26.4847 22.6125 26.5574L22.4973 26.6725V29.5396V32.4067L22.3821 32.5219C22.3094 32.5946 22.2132 32.6371 22.1218 32.6371C22.0304 32.6371 21.9342 32.5946 21.8616 32.5219L21.7464 32.4067V28.1275C21.7464 24.9049 21.7604 23.8006 21.8034 23.6551C21.8796 23.3974 22.2684 23.0086 22.5262 22.9324C22.6324 22.901 22.8801 22.8753 23.0766 22.8753H23.4338L23.1971 22.6289C23.0669 22.4934 22.9256 22.3245 22.883 22.2535C22.8006 22.1162 22.7364 22.1053 22.4324 22.1766ZM36.5768 37.1426V41.2726H35.9197H35.2627V38.8535V36.4343L35.1475 36.3192C34.9951 36.1667 34.7794 36.1667 34.627 36.3192L34.5118 36.4343V38.8535V41.2726H33.8547H33.1977V37.1426V33.0126H34.8872H36.5768V37.1426ZM27.3782 37.2364V41.2726H26.6273H25.8764V38.8535V36.4343L25.7611 36.3192C25.6087 36.1667 25.393 36.1667 25.2407 36.3192L25.1254 36.4343V38.8535V41.2726H24.3745H23.6236V37.2364V33.2003H25.5009H27.3782V37.2364Z" fill="white"/>
</svg>
