<svg width="60" height="61" viewBox="0 0 60 61" fill="none" xmlns="http://www.w3.org/2000/svg">
<circle cx="30" cy="30.5" r="30" fill="#D67940"/>
<path fill-rule="evenodd" clip-rule="evenodd" d="M28.3117 19.0255C27.2449 19.2476 26.4956 19.8619 26.1099 20.8305C25.9902 21.131 25.9795 21.215 25.977 21.8661L25.9743 22.5747L25.5689 23.033C25.0857 23.5793 24.8664 23.8936 24.6046 24.415C24.2824 25.0568 24.1805 25.4238 23.5919 28.0615C23.0915 30.3045 23.0251 30.6556 23.0039 31.1732C22.9819 31.7112 23.0335 32.1848 23.6652 37.2481C24.1223 40.9108 24.3736 42.7748 24.42 42.8456C24.5155 42.9913 24.7196 43.0355 24.8631 42.9415C25.0622 42.8111 25.0759 42.731 25.0012 42.135C23.7216 31.9183 23.7102 31.8201 23.7314 31.2219C23.75 30.6975 23.8072 30.3922 24.2959 28.2074C24.595 26.8704 24.8855 25.6342 24.9416 25.4604C25.1475 24.8222 25.5872 24.0855 26.1108 23.5013L26.3197 23.2682L26.5621 23.5721C27.2031 24.3759 28.3111 24.777 29.3084 24.5664C31.5032 24.1029 32.3213 21.4157 30.7476 19.8393C30.192 19.2829 29.4934 18.9895 28.7493 19.0003C28.5621 19.003 28.3652 19.0143 28.3117 19.0255ZM29.6619 19.9317C30.9098 20.5485 31.2391 22.1546 30.3296 23.1879C29.3438 24.3078 27.4994 24.0576 26.8729 22.719C26.3199 21.5372 26.9077 20.205 28.1658 19.7887C28.2873 19.7485 28.5358 19.7292 28.8277 19.7374C29.2559 19.7493 29.3257 19.7656 29.6619 19.9317ZM32.187 24.0256C31.7141 24.1589 31.3878 24.3513 31.0334 24.7057C30.6371 25.102 30.4529 25.4447 30.3382 25.9992C30.2719 26.3203 30.2689 26.4385 30.3184 26.7819C30.6093 28.7981 32.9821 29.6312 34.5079 28.2528C34.7007 28.0787 34.7112 28.0752 34.78 28.1638C34.9368 28.3656 35.2464 29.0553 35.3453 29.4229C35.4387 29.7702 35.4522 29.9711 35.4711 31.2968C35.4952 32.9799 35.4782 33.1102 35.1972 33.3912C34.9186 33.6697 34.52 33.7371 34.1875 33.562C34.0108 33.469 32.023 31.5693 31.9771 31.4496C31.9109 31.2771 31.9234 31.2174 32.0598 31.0554C32.1555 30.9417 32.2258 30.9058 32.3532 30.9058C32.503 30.9058 32.6084 30.9886 33.3439 31.6837C34.1993 32.4923 34.2789 32.5408 34.4986 32.3869C34.6185 32.3029 34.7539 31.9044 34.7539 31.6351C34.7539 31.0922 34.4015 30.5847 33.8399 30.3188C33.6607 30.2339 32.6936 29.7932 31.6908 29.3395C30.688 28.8858 29.861 28.5082 29.8531 28.5005C29.8451 28.4928 29.6966 27.8657 29.523 27.1071C29.3495 26.3485 29.1845 25.6695 29.1565 25.5983C29.0839 25.4137 28.8485 25.3236 28.6825 25.4168C28.4376 25.5542 28.4425 25.6192 28.828 27.3105C29.092 28.4695 29.2125 28.9132 29.2841 28.9898C29.3376 29.047 29.9553 29.3521 30.6568 29.6678L31.9323 30.2418L31.7994 30.3245C31.5691 30.468 31.389 30.6972 31.2971 30.964C31.2437 31.1189 31.1832 31.2159 31.1456 31.207C31.0388 31.1817 28.7108 30.2689 28.578 30.2002C28.4132 30.1151 28.056 29.7252 27.9878 29.5562C27.9582 29.4829 27.7629 28.7118 27.5538 27.8428C27.15 26.1649 27.1207 26.0924 26.8455 26.0924C26.7128 26.0924 26.4885 26.2904 26.4885 26.4074C26.4885 26.4495 26.655 27.1889 26.8586 28.0506C27.1078 29.1054 27.2765 29.716 27.3748 29.9193C27.5368 30.254 27.9526 30.6865 28.2653 30.8456C28.371 30.8994 29.1705 31.2213 30.0419 31.5609L31.6263 32.1784L32.6188 33.1196C33.1647 33.6372 33.7171 34.1191 33.8465 34.1903C34.01 34.2804 34.1878 34.3294 34.4299 34.351L34.7782 34.3822L34.7638 34.6739C34.7559 34.8343 34.6423 36.7011 34.5112 38.8223C34.3338 41.6939 34.2863 42.7083 34.3253 42.7937C34.4336 43.0315 34.8218 43.0541 34.942 42.8296C34.9685 42.78 35.0904 41.1217 35.2129 39.1443C35.3354 37.1669 35.4574 35.2214 35.4842 34.8211L35.5328 34.0931L35.7216 33.8973C35.8255 33.7896 35.9621 33.603 36.025 33.4827C36.1394 33.2641 36.1395 33.2623 36.1395 31.4163C36.1395 29.8016 36.1287 29.5297 36.0539 29.2586C35.8893 28.6632 35.5866 28.0371 35.2388 27.5733C35.0957 27.3825 35.0934 27.371 35.1597 27.1832C35.3464 26.6539 35.2946 25.9531 35.0269 25.3874C34.7463 24.7946 34.2412 24.3358 33.6113 24.1016C33.2304 23.9601 32.5484 23.9236 32.187 24.0256ZM33.4982 24.839C34.3203 25.2157 34.7302 26.1072 34.4687 26.9497C34.2722 27.5826 33.8213 28.0079 33.1787 28.1665C32.3883 28.3615 31.5617 27.9678 31.1942 27.2213C31.0494 26.9271 31.0344 26.8557 31.0344 26.4581C31.0344 26.0848 31.0537 25.9785 31.1638 25.7436C31.3883 25.2646 31.7291 24.959 32.2716 24.7501C32.5518 24.6423 33.166 24.6867 33.4982 24.839ZM28.504 31.8517C28.4193 31.9364 28.3846 32.0247 28.3844 32.1556C28.3843 32.2571 28.3407 33.1496 28.2876 34.1391C28.102 37.594 27.8498 42.4781 27.8498 42.6177C27.8498 42.7919 27.9776 42.9494 28.1525 42.9908C28.2576 43.0157 28.3133 42.9936 28.4227 42.8835L28.5603 42.7448L28.6201 41.5779C28.653 40.9361 28.7775 38.5454 28.8969 36.2652C29.0163 33.9849 29.1139 32.086 29.1139 32.0452C29.1139 31.927 28.887 31.7324 28.7493 31.7324C28.68 31.7324 28.5696 31.7861 28.504 31.8517ZM26.0995 33.2259C25.8928 33.3005 25.8564 33.3896 25.8564 33.8203C25.8564 34.0511 25.9329 36.0223 26.0265 38.2007C26.12 40.379 26.1966 42.2888 26.1966 42.4447C26.1967 42.6951 26.2138 42.745 26.3438 42.875C26.4617 42.9929 26.5172 43.0159 26.6234 42.9908C26.6963 42.9735 26.797 42.9111 26.8472 42.8521C26.9312 42.7533 26.9359 42.6848 26.9064 41.9912C26.8888 41.5767 26.7998 39.4782 26.7086 37.3279C26.5568 33.7462 26.5355 33.4112 26.4549 33.334C26.3511 33.2346 26.2015 33.1891 26.0995 33.2259ZM30.1281 33.6354C30.0031 33.7603 29.9877 33.3607 30.3308 38.8691C30.4657 41.0327 30.594 42.767 30.6233 42.8219C30.6863 42.9394 30.8915 43.0255 31.0153 42.9862C31.0645 42.9706 31.1474 42.9037 31.1994 42.8375C31.2797 42.7355 31.2904 42.6639 31.2696 42.3663C31.2561 42.1734 31.1299 40.1502 30.989 37.8703C30.7599 34.1619 30.7237 33.715 30.6452 33.6282C30.5261 33.4966 30.2632 33.5003 30.1281 33.6354ZM32.5258 36.2207L32.4201 36.3332V39.5403C32.4201 43.0263 32.4114 42.9142 32.6874 42.9835C32.8197 43.0167 32.9906 42.9476 33.0871 42.822C33.1322 42.7632 33.1467 41.9857 33.1478 39.5546C33.1494 36.3996 33.1483 36.363 33.0486 36.2363C32.9169 36.0688 32.6753 36.0616 32.5258 36.2207Z" fill="white"/>
</svg>
