<svg width="60" height="60" viewBox="0 0 60 60" fill="none" xmlns="http://www.w3.org/2000/svg">
	<circle cx="30" cy="30" r="30" fill="#8a2863" />
	<path
		d="M42.9992 43H40.6333V39.066H19.3873V43H17V28.1697C17 27.5283 17.5132 27.0073 18.1668 27.0073V27.0065C18.8186 27.0065 19.3873 27.5283 19.3873 28.1697V36.2493H40.6333V30.5241C40.6333 29.8823 41.165 29.3613 41.8173 29.3613C42.4696 29.3613 42.9988 29.8823 42.9988 30.5241L42.9992 43Z"
		fill="white" />
	<path
		d="M22.5869 29.4949C23.0686 29.4949 23.5306 29.6833 23.8712 30.0186C24.2119 30.354 24.4032 30.8088 24.4032 31.2831C24.4032 31.7573 24.2119 32.2121 23.8712 32.5475C23.5306 32.8828 23.0686 33.0712 22.5869 33.0712C22.3481 33.0714 22.1117 33.0252 21.891 32.9354C21.6704 32.8456 21.4698 32.7139 21.3009 32.5478C21.1319 32.3817 20.9979 32.1845 20.9063 31.9674C20.8148 31.7502 20.7676 31.5175 20.7674 31.2824C20.7676 31.0474 20.8148 30.8148 20.9064 30.5977C20.9979 30.3807 21.132 30.1835 21.3009 30.0175C21.4699 29.8515 21.6705 29.7199 21.8911 29.6302C22.1118 29.5406 22.3482 29.4946 22.5869 29.4949Z"
		fill="white" />
	<path
		d="M24.4034 34.4759C24.4032 34.7097 24.3089 34.9339 24.141 35.0993C23.9731 35.2646 23.7454 35.3576 23.5079 35.3578H20.9257C20.6883 35.3576 20.4607 35.2646 20.2929 35.0992C20.1252 34.9338 20.031 34.7096 20.0311 34.4759C20.0311 33.9908 20.4309 33.5968 20.9257 33.5968H23.5079C23.745 33.5966 23.9725 33.689 24.1404 33.8539C24.3083 34.0187 24.4029 34.2424 24.4034 34.4759Z"
		fill="white" />
	<path
		d="M38.3148 30.1904C39.1128 30.1904 39.7575 30.8061 39.7655 31.5876L39.7684 35.3591H25.1892V30.1921L38.3148 30.1904Z"
		fill="white" />
	<path
		d="M29.6753 29.3721V21.2093C29.6748 20.7873 29.5044 20.3827 29.2013 20.0842C28.8983 19.7856 28.4874 19.6176 28.0587 19.617C27.6323 19.6174 27.2235 19.7843 26.922 20.081C26.6204 20.3778 26.4507 20.7801 26.4501 21.1998C26.4501 21.271 26.4214 21.3392 26.3704 21.3896C26.3194 21.44 26.2501 21.4684 26.1779 21.4686C26.1056 21.4684 26.0364 21.44 25.9854 21.3896C25.9344 21.3392 25.9057 21.271 25.9057 21.1998C25.9057 21.1063 25.868 21.0166 25.8008 20.9504C25.7336 20.8843 25.6425 20.8471 25.5475 20.8471C25.4524 20.8471 25.3613 20.8843 25.2941 20.9504C25.2269 21.0166 25.1892 21.1063 25.1892 21.1998C25.1892 21.4582 25.2934 21.706 25.4788 21.8888C25.6643 22.0717 25.9159 22.1745 26.1783 22.1749C26.7243 22.1749 27.1674 21.7382 27.1674 21.1998C27.1674 20.7169 27.5673 20.3232 28.0591 20.3232C28.5539 20.3232 28.9575 20.7202 28.9575 21.2093V29.3721H29.6757H29.6753Z"
		fill="white" />
	<path
		d="M26.6638 26.8969H27.5761C27.5761 26.8969 27.7554 26.1316 27.7554 24.9101C27.7554 23.6891 27.5761 22.9241 27.5761 22.9241H25.2446C25.2446 22.9241 25.0359 23.5423 25.0359 24.9101C25.0359 26.2784 25.2446 26.8969 25.2446 26.8969H26.1724C26.1724 26.899 26.1703 26.9007 26.1703 26.9036C26.1712 26.9189 26.1997 28.3925 25.219 29.3721H25.865C26.6798 28.3007 26.6651 26.9987 26.6638 26.8969Z"
		fill="white" />
	<path
		d="M33.1374 17V26.2531H43V17H33.1374ZM33.9804 19.1022C33.9802 18.9398 34.0126 18.7789 34.0757 18.6289C34.1389 18.4788 34.2314 18.3425 34.3482 18.2278C34.4649 18.113 34.6036 18.0221 34.7561 17.9602C34.9086 17.8983 35.0721 17.8667 35.237 17.8671H40.9067C41.0715 17.8669 41.2348 17.8988 41.3871 17.9608C41.5394 18.0228 41.6779 18.1137 41.7945 18.2284C41.9111 18.3431 42.0035 18.4794 42.0666 18.6293C42.1297 18.7792 42.1621 18.9399 42.1621 19.1022V22.4573H41.401L40.9298 21.1961C40.9156 21.1585 40.8901 21.126 40.8565 21.1032C40.823 21.0803 40.7831 21.0682 40.7424 21.0684C40.7016 21.0687 40.6619 21.0812 40.6286 21.1044C40.5953 21.1277 40.5701 21.1604 40.5564 21.1982L40.2922 21.9359L39.6698 19.3685C39.6585 19.3241 39.6318 19.2849 39.5943 19.2578C39.5568 19.2307 39.5109 19.2173 39.4645 19.22C39.418 19.2227 39.374 19.2413 39.34 19.2726C39.306 19.3038 39.2842 19.3458 39.2783 19.3912L38.8617 23.042C38.6928 22.793 38.5253 22.5437 38.5253 22.5437C38.5069 22.5171 38.4821 22.4952 38.4532 22.4802C38.4243 22.4651 38.3921 22.4573 38.3594 22.4573H37.5933C37.5151 22.246 37.1233 21.1961 37.1233 21.1961C37.1089 21.1584 37.0832 21.126 37.0496 21.1032C37.0159 21.0803 36.976 21.0682 36.9351 21.0684C36.8511 21.0684 36.7772 21.1213 36.7499 21.1982L36.4844 21.9359L35.862 19.3685C35.8514 19.3235 35.825 19.2836 35.7874 19.256C35.7499 19.2283 35.7036 19.2146 35.6567 19.2173C35.6099 19.2201 35.5656 19.239 35.5316 19.2708C35.4976 19.3027 35.4761 19.3453 35.471 19.3912C35.471 19.3912 35.148 22.2294 35.0543 23.042L34.7179 22.5437C34.6998 22.5171 34.6753 22.4953 34.6466 22.4802C34.6178 22.4652 34.5858 22.4573 34.5533 22.4573H33.9808V19.1026L33.9804 19.1022ZM40.9067 25.4816H35.237C35.0719 25.4818 34.9084 25.4499 34.7559 25.3878C34.6033 25.3257 34.4647 25.2346 34.3479 25.1197C34.2312 25.0048 34.1387 24.8683 34.0756 24.7181C34.0125 24.5679 33.9802 24.4069 33.9804 24.2444V22.848H34.4457C34.5436 22.9919 35.0249 23.7056 35.0249 23.7056C35.0478 23.7387 35.0803 23.7641 35.1183 23.7786C35.1562 23.793 35.1976 23.7957 35.2372 23.7863C35.2767 23.7769 35.3123 23.7559 35.3394 23.726C35.3665 23.6962 35.3836 23.6589 35.3887 23.6192C35.3887 23.6192 35.602 21.7461 35.7398 20.5478C35.9691 21.4996 36.2539 22.6715 36.2539 22.6715C36.2636 22.7125 36.2867 22.7493 36.3196 22.7763C36.3525 22.8033 36.3934 22.819 36.4361 22.8212C36.479 22.8237 36.5215 22.8124 36.5572 22.7889C36.5929 22.7655 36.6199 22.7312 36.634 22.6913L36.9393 21.8403L37.269 22.7203C37.2827 22.7578 37.3079 22.7902 37.341 22.8131C37.3742 22.836 37.4137 22.8482 37.4542 22.848H38.2523L38.8319 23.7056C38.8543 23.7391 38.8867 23.7648 38.9246 23.7794C38.9625 23.794 39.004 23.7967 39.0435 23.7871C39.0832 23.7778 39.119 23.7567 39.1461 23.7267C39.1732 23.6966 39.1901 23.6591 39.1947 23.6192L39.5467 20.5465C39.7179 21.2547 39.8892 21.9629 40.0608 22.6711C40.0706 22.7121 40.0937 22.7489 40.1265 22.7759C40.1594 22.8029 40.2003 22.8186 40.2431 22.8207C40.2859 22.8233 40.3284 22.812 40.3641 22.7885C40.3998 22.7651 40.4268 22.7308 40.4409 22.6909C40.4409 22.6909 40.6039 22.2398 40.7462 21.8399C40.8983 22.2493 41.0751 22.7198 41.0751 22.7198C41.0889 22.7573 41.114 22.7897 41.1472 22.8126C41.1803 22.8355 41.2199 22.8477 41.2603 22.8476H42.1608V24.244C42.1609 24.4063 42.1286 24.5671 42.0656 24.7172C42.0025 24.8672 41.9101 25.0036 41.7936 25.1185C41.6771 25.2333 41.5387 25.3245 41.3864 25.3867C41.234 25.449 41.0708 25.481 40.9059 25.4812L40.9067 25.4816Z"
		fill="white" />
</svg>