<svg width="14" height="14" viewBox="0 0 14 14" fill="none" xmlns="http://www.w3.org/2000/svg">
<path fill-rule="evenodd" clip-rule="evenodd" d="M7.00056 0.25C5.16738 0.25 4.93731 0.258016 4.21731 0.290781C3.49872 0.323688 3.00822 0.437453 2.57903 0.604375C2.13508 0.776781 1.75848 1.00741 1.3833 1.38273C1.00783 1.75792 0.777203 2.13452 0.604234 2.57833C0.436891 3.00766 0.322984 3.4983 0.290641 4.21661C0.258438 4.93661 0.25 5.16681 0.25 7C0.25 8.83319 0.258156 9.06255 0.290781 9.78255C0.323828 10.5011 0.437594 10.9916 0.604375 11.4208C0.776922 11.8648 1.00755 12.2414 1.38288 12.6166C1.75792 12.992 2.13452 13.2232 2.57819 13.3956C3.00766 13.5625 3.4983 13.6763 4.21675 13.7092C4.93675 13.742 5.16667 13.75 6.99972 13.75C8.83305 13.75 9.06241 13.742 9.78241 13.7092C10.501 13.6763 10.9921 13.5625 11.4215 13.3956C11.8653 13.2232 12.2414 12.992 12.6164 12.6166C12.9919 12.2414 13.2225 11.8648 13.3955 11.421C13.5614 10.9916 13.6753 10.501 13.7091 9.78269C13.7414 9.06269 13.7499 8.83319 13.7499 7C13.7499 5.16681 13.7414 4.93675 13.7091 4.21675C13.6753 3.49816 13.5614 3.00766 13.3955 2.57847C13.2225 2.13452 12.9919 1.75792 12.6164 1.38273C12.241 1.00727 11.8655 0.776641 11.4211 0.604375C10.9908 0.437453 10.5 0.323688 9.78142 0.290781C9.06142 0.258016 8.8322 0.25 6.99845 0.25H7.00056ZM6.39518 1.46641C6.5749 1.46612 6.77543 1.46641 7.00071 1.46641C8.80296 1.46641 9.01657 1.47287 9.72828 1.50522C10.3864 1.53531 10.7436 1.64528 10.9815 1.73767C11.2965 1.86002 11.5211 2.00627 11.7572 2.24252C11.9935 2.47877 12.1397 2.70376 12.2623 3.01876C12.3547 3.25642 12.4648 3.61361 12.4948 4.27173C12.5271 4.9833 12.5342 5.19705 12.5342 6.99845C12.5342 8.79986 12.5271 9.01361 12.4948 9.72517C12.4647 10.3833 12.3547 10.7405 12.2623 10.9781C12.14 11.2931 11.9935 11.5174 11.7572 11.7535C11.521 11.9898 11.2967 12.136 10.9815 12.2584C10.7439 12.3512 10.3864 12.4609 9.72828 12.491C9.01671 12.5233 8.80296 12.5304 7.00071 12.5304C5.19832 12.5304 4.98471 12.5233 4.27315 12.491C3.61503 12.4606 3.25784 12.3506 3.01976 12.2582C2.70476 12.1359 2.47976 11.9897 2.24351 11.7534C2.00726 11.5172 1.86101 11.2927 1.73839 10.9776C1.646 10.7399 1.53589 10.3827 1.50593 9.72461C1.47359 9.01305 1.46712 8.7993 1.46712 6.99676C1.46712 5.19423 1.47359 4.98161 1.50593 4.27005C1.53603 3.61192 1.646 3.25473 1.73839 3.0168C1.86073 2.7018 2.00726 2.4768 2.24351 2.24055C2.47976 2.0043 2.70476 1.85805 3.01976 1.73542C3.2577 1.64261 3.61503 1.53292 4.27315 1.50269C4.89584 1.47456 5.13715 1.46612 6.39518 1.46472V1.46641ZM10.6038 2.58719C10.1567 2.58719 9.79384 2.94958 9.79384 3.39691C9.79384 3.8441 10.1567 4.20691 10.6038 4.20691C11.051 4.20691 11.4138 3.8441 11.4138 3.39691C11.4138 2.94972 11.051 2.58719 10.6038 2.58719ZM7.00065 3.53358C5.08632 3.53358 3.53424 5.08566 3.53424 6.99999C3.53424 8.91432 5.08632 10.4657 7.00065 10.4657C8.91498 10.4657 10.4665 8.91432 10.4665 6.99999C10.4665 5.08566 8.91498 3.53358 7.00065 3.53358ZM7.00059 4.74999C8.24315 4.74999 9.25059 5.75729 9.25059 6.99999C9.25059 8.24255 8.24315 9.24999 7.00059 9.24999C5.75789 9.24999 4.75059 8.24255 4.75059 6.99999C4.75059 5.75729 5.75789 4.74999 7.00059 4.74999Z" fill="#285185"/>
</svg>
