<svg width="18" height="14" viewBox="0 0 18 14" fill="none" xmlns="http://www.w3.org/2000/svg">
<path fill-rule="evenodd" clip-rule="evenodd" d="M8.6821 3.84121L8.71751 4.42512L8.12732 4.35362C5.97905 4.07954 4.10225 3.15005 2.50875 1.58898L1.72971 0.814397L1.52905 1.38639C1.10411 2.66147 1.3756 4.00804 2.26088 4.9137C2.73302 5.4142 2.62679 5.4857 1.81233 5.18779C1.52905 5.09245 1.28117 5.02095 1.25756 5.0567C1.17493 5.14012 1.45822 6.22453 1.68249 6.65353C1.98939 7.24936 2.61499 7.83327 3.2996 8.17885L3.87798 8.45293L3.19337 8.46485C2.53236 8.46485 2.50875 8.47677 2.57958 8.72701C2.81565 9.50159 3.74814 10.3238 4.78687 10.6813L5.5187 10.9316L4.8813 11.3129C3.937 11.8611 2.82745 12.1709 1.7179 12.1947C1.18674 12.2067 0.75 12.2543 0.75 12.2901C0.75 12.4092 2.19005 13.0766 3.02812 13.3387C5.54231 14.1133 8.52865 13.7796 10.7714 12.4569C12.3649 11.5155 13.9584 9.64459 14.702 7.83327C15.1033 6.86803 15.5046 5.10437 15.5046 4.25829C15.5046 3.71013 15.5401 3.63863 16.2011 2.98322C16.5906 2.60189 16.9565 2.1848 17.0273 2.06564C17.1454 1.83922 17.1336 1.83922 16.5316 2.04181C15.5283 2.3993 15.3866 2.35164 15.8824 1.81539C16.2483 1.43406 16.685 0.742897 16.685 0.540315C16.685 0.504565 16.508 0.564148 16.3073 0.671398C16.0948 0.790564 15.6227 0.969312 15.2686 1.07656L14.6312 1.27914L14.0528 0.885896C13.7341 0.671398 13.2855 0.433066 13.0495 0.361566C12.4475 0.194734 11.5268 0.218567 10.9838 0.409233C9.50836 0.945479 8.57586 2.3278 8.6821 3.84121Z" fill="#285185"/>
</svg>
