<svg width="19" height="18" viewBox="0 0 19 18" fill="none" xmlns="http://www.w3.org/2000/svg">
<path d="M17.2827 12.38C16.0527 12.38 14.8627 12.18 13.7527 11.82C13.5788 11.7611 13.3918 11.7523 13.2132 11.7948C13.0346 11.8372 12.8715 11.9291 12.7427 12.06L11.1727 14.03C8.3427 12.68 5.69271 10.13 4.28271 7.2L6.23271 5.54C6.50271 5.26 6.5827 4.87 6.4727 4.52C6.1027 3.41 5.91271 2.22 5.91271 0.99C5.91271 0.45 5.46271 0 4.92271 0H1.46271C0.922705 0 0.272705 0.24 0.272705 0.99C0.272705 10.28 8.00271 18 17.2827 18C17.9927 18 18.2727 17.37 18.2727 16.82V13.37C18.2727 12.83 17.8227 12.38 17.2827 12.38Z" fill="#828282"/>
</svg>
