<svg width="14" height="24" viewBox="0 0 14 24" fill="none" xmlns="http://www.w3.org/2000/svg">
<path fill-rule="evenodd" clip-rule="evenodd" d="M5.31171 0.0254727C4.24489 0.247617 3.4956 0.861883 3.1099 1.83054C2.99025 2.13096 2.97945 2.21503 2.97697 2.8661L2.97425 3.57473L2.56891 4.03298C2.08567 4.57932 1.8664 4.89355 1.60458 5.41505C1.28237 6.05678 1.18047 6.42377 0.59192 9.06155C0.0914745 11.3045 0.0251081 11.6556 0.00390981 12.1732C-0.0180664 12.7112 0.0334706 13.1848 0.665239 18.2481C1.12227 21.9108 1.37358 23.7748 1.41997 23.8456C1.51551 23.9913 1.71956 24.0355 1.86314 23.9415C2.06219 23.8111 2.0759 23.731 2.00122 23.135C0.721638 12.9183 0.710213 12.8201 0.731411 12.2219C0.750033 11.6975 0.80721 11.3922 1.29589 9.20741C1.59495 7.87036 1.8855 6.6342 1.94161 6.46038C2.14752 5.82224 2.58724 5.08545 3.11078 4.50129L3.3197 4.2682L3.56212 4.57212C4.20312 5.37586 5.31108 5.77698 6.30842 5.56635C8.50317 5.10286 9.3213 2.41568 7.74757 0.839323C7.19204 0.282867 6.49342 -0.0105061 5.74929 0.000287497C5.5621 0.0029616 5.36519 0.0142901 5.31171 0.0254727ZM6.66188 0.93175C7.90977 1.54849 8.23907 3.15461 7.32958 4.18788C6.34376 5.30784 4.49936 5.05764 3.87294 3.71904C3.31994 2.53723 3.90771 1.20504 5.16585 0.78871C5.2873 0.748501 5.5358 0.729247 5.82766 0.737367C6.25591 0.749327 6.32573 0.765615 6.66188 0.93175ZM9.18701 5.02555C8.71414 5.15887 8.3878 5.35131 8.03336 5.7057C7.63706 6.102 7.45293 6.44467 7.33824 6.99923C7.27187 7.32032 7.26886 7.43852 7.3184 7.78192C7.6093 9.79814 9.98215 10.6312 11.5079 9.25282C11.7007 9.07866 11.7112 9.07521 11.78 9.16385C11.9368 9.36562 12.2464 10.0553 12.3453 10.4229C12.4387 10.7702 12.4522 10.9711 12.4711 12.2968C12.4952 13.9799 12.4782 14.1102 12.1972 14.3912C11.9186 14.6697 11.52 14.7371 11.1875 14.562C11.0108 14.469 9.02302 12.5693 8.97707 12.4496C8.9109 12.2771 8.92344 12.2174 9.05978 12.0554C9.15551 11.9417 9.22576 11.9058 9.35325 11.9058C9.503 11.9058 9.60835 11.9886 10.3439 12.6837C11.1993 13.4923 11.2789 13.5408 11.4986 13.3869C11.6185 13.3029 11.7539 12.9044 11.7539 12.6351C11.7539 12.0922 11.4015 11.5847 10.8399 11.3188C10.6607 11.2339 9.69359 10.7932 8.6908 10.3395C7.68801 9.88581 6.86103 9.50822 6.85311 9.50049C6.84513 9.49276 6.6966 8.86571 6.52303 8.10709C6.3495 7.34847 6.18453 6.66949 6.15653 6.59827C6.08394 6.4137 5.84852 6.32356 5.68248 6.41677C5.43758 6.55422 5.44254 6.61922 5.82795 8.31052C6.09201 9.46947 6.21254 9.91318 6.28411 9.98975C6.33759 10.047 6.95531 10.3521 7.6568 10.6678L8.93229 11.2418L8.79937 11.3245C8.56905 11.468 8.38897 11.6972 8.29707 11.964C8.24369 12.1189 8.1832 12.2159 8.14562 12.207C8.0388 12.1817 5.71078 11.2689 5.57805 11.2002C5.41323 11.1151 5.05597 10.7252 4.98785 10.5562C4.95824 10.4829 4.76293 9.71184 4.55377 8.84276C4.14998 7.16488 4.12066 7.09244 3.84552 7.09244C3.71284 7.09244 3.48846 7.29037 3.48846 7.40745C3.48846 7.44946 3.65503 8.18887 3.8586 9.05061C4.10778 10.1054 4.27649 10.716 4.37485 10.9193C4.53675 11.254 4.95255 11.6865 5.26528 11.8456C5.37102 11.8994 6.17053 12.2213 7.04195 12.5609L8.62628 13.1784L9.61881 14.1196C10.1647 14.6372 10.7171 15.1191 10.8465 15.1903C11.01 15.2804 11.1878 15.3294 11.4299 15.351L11.7782 15.3822L11.7638 15.6739C11.7559 15.8343 11.6423 17.7011 11.5112 19.8223C11.3338 22.6939 11.2863 23.7083 11.3253 23.7937C11.4336 24.0315 11.8218 24.0541 11.942 23.8296C11.9685 23.78 12.0904 22.1217 12.2129 20.1443C12.3354 18.1669 12.4574 16.2214 12.4842 15.8211L12.5328 15.0931L12.7216 14.8973C12.8255 14.7896 12.9621 14.603 13.025 14.4827C13.1394 14.2641 13.1395 14.2623 13.1395 12.4163C13.1395 10.8016 13.1287 10.5297 13.0539 10.2586C12.8893 9.66317 12.5866 9.03714 12.2388 8.57326C12.0957 8.38247 12.0934 8.37105 12.1597 8.18318C12.3464 7.6539 12.2946 6.95314 12.0269 6.38745C11.7463 5.79458 11.2412 5.33575 10.6113 5.10164C10.2304 4.96011 9.54836 4.92365 9.18701 5.02555ZM10.4982 5.83902C11.3203 6.21572 11.7302 7.10722 11.4687 7.94966C11.2722 8.58259 10.8213 9.00787 10.1787 9.16647C9.38835 9.36154 8.56171 8.96781 8.19424 8.2213C8.04935 7.92705 8.03443 7.85568 8.03443 7.45811C8.03443 7.08476 8.05368 6.97847 8.16376 6.74359C8.38828 6.26463 8.72911 5.95896 9.27156 5.75009C9.55176 5.64225 10.166 5.68674 10.4982 5.83902ZM5.504 12.8517C5.4193 12.9364 5.38459 13.0247 5.38444 13.1556C5.3843 13.2571 5.34073 14.1496 5.28759 15.1391C5.10201 18.594 4.84982 23.4781 4.84982 23.6177C4.84982 23.7919 4.97759 23.9494 5.15248 23.9908C5.25764 24.0157 5.31331 23.9936 5.42266 23.8835L5.56035 23.7448L5.6201 22.5779C5.65297 21.9361 5.77754 19.5454 5.8969 17.2652C6.01626 14.9849 6.11394 13.086 6.11394 13.0452C6.11394 12.927 5.88698 12.7324 5.74929 12.7324C5.68 12.7324 5.56964 12.7861 5.504 12.8517ZM3.0995 14.2259C2.89281 14.3005 2.8564 14.3896 2.8564 14.8203C2.8564 15.0511 2.93292 17.0223 3.02647 19.2007C3.12001 21.379 3.19659 23.2888 3.19664 23.4447C3.19674 23.6951 3.2138 23.745 3.34381 23.875C3.46172 23.9929 3.51719 24.0159 3.62338 23.9908C3.69626 23.9735 3.79695 23.9111 3.84718 23.8521C3.93119 23.7533 3.93591 23.6848 3.90639 22.9912C3.88879 22.5767 3.79977 20.4782 3.70861 18.3279C3.55677 14.7462 3.53547 14.4112 3.45491 14.334C3.35111 14.2346 3.2015 14.1891 3.0995 14.2259ZM7.12805 14.6354C7.00315 14.7603 6.98769 14.3607 7.33085 19.8691C7.46567 22.0327 7.59398 23.767 7.62335 23.8219C7.68631 23.9394 7.89153 24.0255 8.01527 23.9862C8.06452 23.9706 8.14742 23.9037 8.19944 23.8375C8.27972 23.7355 8.29036 23.6639 8.2696 23.3663C8.25614 23.1734 8.12987 21.1502 7.98902 18.8703C7.75992 15.1619 7.7237 14.715 7.64522 14.6282C7.52611 14.4966 7.26322 14.5003 7.12805 14.6354ZM9.5258 17.2207L9.4201 17.3332V20.5403C9.4201 24.0263 9.4114 23.9142 9.68736 23.9835C9.81966 24.0167 9.99061 23.9476 10.0871 23.822C10.1322 23.7632 10.1467 22.9857 10.1478 20.5546C10.1494 17.3996 10.1483 17.363 10.0486 17.2363C9.9169 17.0688 9.67526 17.0616 9.5258 17.2207Z" fill="#285185"/>
</svg>
