<svg width="26" height="26" viewBox="0 0 26 26" fill="none" xmlns="http://www.w3.org/2000/svg">
<path d="M5.65202 7.17242C4.94273 7.17242 4.24938 6.96209 3.65963 6.56803C3.06988 6.17397 2.61023 5.61388 2.33879 4.95859C2.06736 4.3033 1.99634 3.58223 2.13472 2.88657C2.27309 2.19092 2.61465 1.55192 3.11619 1.05038C3.61773 0.548837 4.25673 0.207284 4.95238 0.0689096C5.64804 -0.069465 6.36911 0.00155384 7.0244 0.272985C7.67969 0.544417 8.23978 1.00407 8.63384 1.59382C9.0279 2.18357 9.23822 2.87692 9.23822 3.58621C9.23822 4.53733 8.86039 5.4495 8.18785 6.12204C7.5153 6.79458 6.60314 7.17242 5.65202 7.17242ZM5.65202 1.79311C5.29737 1.79311 4.9507 1.89827 4.65582 2.0953C4.36095 2.29233 4.13112 2.57237 3.99541 2.90002C3.85969 3.22766 3.82418 3.5882 3.89337 3.93603C3.96255 4.28385 4.13333 4.60335 4.3841 4.85412C4.63487 5.10489 4.95437 5.27567 5.3022 5.34486C5.65003 5.41405 6.01056 5.37854 6.33821 5.24282C6.66585 5.1071 6.9459 4.87728 7.14293 4.5824C7.33996 4.28753 7.44512 3.94085 7.44512 3.58621C7.44512 3.11065 7.2562 2.65457 6.91993 2.31829C6.58366 1.98202 6.12758 1.79311 5.65202 1.79311Z" fill="white"/>
<path d="M19.9968 7.17242C19.2876 7.17242 18.5942 6.96209 18.0045 6.56803C17.4147 6.17397 16.9551 5.61388 16.6836 4.95859C16.4122 4.3033 16.3412 3.58223 16.4795 2.88657C16.6179 2.19092 16.9595 1.55192 17.461 1.05038C17.9626 0.548837 18.6016 0.207284 19.2972 0.0689096C19.9929 -0.069465 20.7139 0.00155384 21.3692 0.272985C22.0245 0.544417 22.5846 1.00407 22.9787 1.59382C23.3727 2.18357 23.5831 2.87692 23.5831 3.58621C23.5831 4.53733 23.2052 5.4495 22.5327 6.12204C21.8601 6.79458 20.948 7.17242 19.9968 7.17242ZM19.9968 1.79311C19.6422 1.79311 19.2955 1.89827 19.0006 2.0953C18.7058 2.29233 18.4759 2.57237 18.3402 2.90002C18.2045 3.22766 18.169 3.5882 18.2382 3.93603C18.3074 4.28385 18.4782 4.60335 18.7289 4.85412C18.9797 5.10489 19.2992 5.27567 19.647 5.34486C19.9949 5.41405 20.3554 5.37854 20.683 5.24282C21.0107 5.1071 21.2907 4.87728 21.4878 4.5824C21.6848 4.28753 21.7899 3.94085 21.7899 3.58621C21.7899 3.11065 21.601 2.65457 21.2648 2.31829C20.9285 1.98202 20.4724 1.79311 19.9968 1.79311Z" fill="white"/>
<path d="M21.7899 26H18.2037C17.7282 26 17.2721 25.8111 16.9358 25.4748C16.5996 25.1385 16.4106 24.6825 16.4106 24.2069V17.931H18.2037V24.2069H21.7899V16.1379H23.5831V10.7586C23.5831 10.5208 23.4886 10.2928 23.3205 10.1247C23.1523 9.95653 22.9243 9.86207 22.6865 9.86207H16.9306L12.8244 17.0345L8.71822 9.86207H2.96236C2.72458 9.86207 2.49654 9.95653 2.3284 10.1247C2.16027 10.2928 2.06581 10.5208 2.06581 10.7586V16.1379H3.85891V24.2069H7.44512V17.931H9.23822V24.2069C9.23822 24.6825 9.04931 25.1385 8.71303 25.4748C8.37676 25.8111 7.92068 26 7.44512 26H3.85891C3.38335 26 2.92727 25.8111 2.591 25.4748C2.25472 25.1385 2.06581 24.6825 2.06581 24.2069V17.931C1.59025 17.931 1.13416 17.7421 0.797893 17.4058C0.461621 17.0696 0.272705 16.6135 0.272705 16.1379V10.7586C0.272705 10.0453 0.556079 9.36116 1.06049 8.85675C1.5649 8.35234 2.24902 8.06897 2.96236 8.06897H9.75822L12.8244 13.4483L15.8906 8.06897H22.6865C23.3998 8.06897 24.084 8.35234 24.5884 8.85675C25.0928 9.36116 25.3762 10.0453 25.3762 10.7586V16.1379C25.3762 16.6135 25.1872 17.0696 24.851 17.4058C24.5147 17.7421 24.0586 17.931 23.5831 17.931V24.2069C23.5831 24.6825 23.3941 25.1385 23.0579 25.4748C22.7216 25.8111 22.2655 26 21.7899 26Z" fill="white"/>
</svg>
