<svg width="21" height="16" viewBox="0 0 21 16" fill="none" xmlns="http://www.w3.org/2000/svg">
<path d="M3.52271 6.9752e-09H17.0227C17.8528 -5.43467e-05 18.6515 0.317554 19.2549 0.887671C19.8583 1.45779 20.2207 2.23719 20.2677 3.066L20.2727 3.25V12.75C20.2728 13.5801 19.9552 14.3788 19.385 14.9822C18.8149 15.5856 18.0355 15.948 17.2067 15.995L17.0227 16H3.52271C2.69257 16.0001 1.89388 15.6824 1.29047 15.1123C0.687072 14.5422 0.324704 13.7628 0.277705 12.934L0.272705 12.75V3.25C0.272651 2.41986 0.590259 1.62117 1.16038 1.01777C1.73049 0.414367 2.5099 0.0519987 3.33871 0.00500012L3.52271 6.9752e-09ZM18.7727 5.373L10.6227 9.663C10.5307 9.71161 10.4295 9.74054 10.3257 9.74795C10.2219 9.75535 10.1177 9.74106 10.0197 9.706L9.92371 9.664L1.77271 5.374V12.75C1.77272 13.1892 1.93788 13.6123 2.23538 13.9354C2.53289 14.2585 2.941 14.4579 3.37871 14.494L3.52271 14.5H17.0227C17.4621 14.5 17.8853 14.3347 18.2084 14.037C18.5315 13.7392 18.7308 13.3309 18.7667 12.893L18.7727 12.75V5.373ZM17.0227 1.5H3.52271C3.08352 1.50002 2.66039 1.66517 2.33731 1.96268C2.01424 2.26019 1.81484 2.6683 1.77871 3.106L1.77271 3.25V3.679L10.2727 8.152L18.7727 3.678V3.25C18.7727 2.81065 18.6074 2.38739 18.3097 2.06429C18.0119 1.74119 17.6036 1.5419 17.1657 1.506L17.0227 1.5Z" fill="#828282"/>
</svg>
