<svg width="19" height="24" viewBox="0 0 19 24" fill="none" xmlns="http://www.w3.org/2000/svg">
<path fill-rule="evenodd" clip-rule="evenodd" d="M3.92054 0.0688668C2.85383 0.327085 2.05796 1.34757 2.06115 2.453C2.0643 3.5382 2.87542 4.55164 3.94208 4.80306C4.76935 4.99806 5.6021 4.75871 6.21766 4.14892C7.1768 3.19884 7.17563 1.68149 6.21494 0.720842C5.6059 0.111762 4.74912 -0.131672 3.92054 0.0688668ZM13.1192 0.0688668C12.0696 0.322908 11.257 1.34959 11.2598 2.41817C11.2637 3.98879 12.7381 5.16143 14.2583 4.80306C15.3439 4.54718 16.1425 3.53398 16.1393 2.41677C16.1361 1.33156 15.325 0.318121 14.2583 0.0667079C13.8899 -0.0201627 13.4838 -0.0193648 13.1192 0.0688668ZM1.43241 4.17661C1.14129 4.24494 0.715151 4.49579 0.507573 4.72097C0.402211 4.8353 0.24912 5.06996 0.167458 5.24234L0.0189195 5.55584L0.00601316 9.98699C-0.0084418 14.9667 -0.0263228 14.6928 0.336506 15.0486C0.733877 15.4382 1.30452 15.4957 1.74291 15.1905L1.87127 15.1011L1.8837 19.3242C1.89605 23.5065 1.89713 23.5486 1.99296 23.6769C2.04618 23.7482 2.14802 23.85 2.21931 23.9032C2.34579 23.9977 2.40061 24 4.5009 24C6.60119 24 6.656 23.9977 6.78248 23.9032C6.85377 23.85 6.95561 23.7482 7.00883 23.6769C7.10467 23.5486 7.10575 23.5065 7.11809 19.3269C7.12921 15.5521 7.13822 15.1064 7.20327 15.1064C7.3305 15.1064 7.76105 14.6298 7.82291 14.4205C7.86571 14.2756 7.87998 13.2468 7.87998 10.3022V6.37714H8.63089H9.38179V10.2084C9.38179 13.0792 9.39611 14.088 9.43886 14.2328C9.51503 14.4906 9.90382 14.8793 10.1616 14.9555C10.2679 14.9869 10.6001 15.0126 10.9 15.0126H11.4453L11.4578 19.2799C11.4701 23.507 11.4711 23.5485 11.567 23.6769C11.6202 23.7482 11.7221 23.85 11.7934 23.9032C11.9194 23.9974 11.9766 24 13.8872 24C15.7979 24 15.855 23.9974 15.9811 23.9032C16.0524 23.85 16.1542 23.7482 16.2074 23.6769C16.3033 23.5485 16.3044 23.507 16.3167 19.2799L16.3291 15.0126H16.8744C17.1743 15.0126 17.5066 14.9869 17.6129 14.9555C17.8853 14.875 18.2631 14.4893 18.3386 14.2147C18.3832 14.0525 18.3935 13.0255 18.3829 9.77969L18.3692 5.55584L18.2207 5.24234C18.139 5.06996 17.9829 4.83201 17.8738 4.71365C17.6051 4.4222 17.1057 4.17821 16.7031 4.14184C16.4051 4.1149 16.3963 4.11734 16.3191 4.24842C16.2755 4.32219 16.1335 4.4934 16.0033 4.62894L15.7666 4.87533H16.2177C16.4658 4.87533 16.7557 4.901 16.862 4.9324C17.1198 5.00857 17.5085 5.39735 17.5847 5.65515C17.6276 5.80035 17.6418 6.86458 17.6418 9.93978V14.0313L17.5266 14.1465C17.3742 14.2989 17.1585 14.2989 17.0061 14.1465L16.8909 14.0313V11.4458V8.86025L16.7757 8.74508C16.6227 8.59204 16.4076 8.59265 16.2537 8.74654L16.137 8.86321L16.1502 11.5624L16.1634 14.2617H13.8872H11.6111L11.6242 11.4685L11.6374 8.67539L11.5208 8.55877C11.3669 8.40492 11.1518 8.40431 10.9988 8.55736L10.8836 8.67253V11.3519V14.0313L10.7684 14.1465C10.616 14.2989 10.4003 14.2989 10.2479 14.1465L10.1327 14.0313V9.93978C10.1327 6.86458 10.1469 5.80035 10.1898 5.65515C10.2659 5.39735 10.6547 5.00857 10.9125 4.9324C11.0188 4.901 11.2242 4.87533 11.3691 4.87533H11.6324L11.3957 4.62894C11.2655 4.4934 11.1242 4.32449 11.0816 4.25349L11.0042 4.12442H9.1002H7.19623L7.11879 4.25349C7.07623 4.32449 6.93487 4.4934 6.80468 4.62894L6.568 4.87533H8.15472H9.74148L9.5851 5.18602C9.49908 5.35694 9.42873 5.5259 9.42873 5.56147C9.42873 5.61455 9.24236 5.62624 8.39412 5.62624H7.35946L7.24429 5.74146L7.12907 5.85663V10.0378V14.219L7.01386 14.3342L6.89868 14.4494H4.57341H2.24818V11.561V8.67253L2.13296 8.55736C2.06035 8.48471 1.96414 8.44214 1.87272 8.44214C1.7813 8.44214 1.68509 8.48471 1.61249 8.55736L1.49727 8.67253V11.5396V14.4067L1.38205 14.5219C1.30945 14.5946 1.21324 14.6371 1.12181 14.6371C1.03039 14.6371 0.934182 14.5946 0.861578 14.5219L0.746361 14.4067V10.1275C0.746361 6.90494 0.760441 5.80064 0.80343 5.65515C0.8796 5.39735 1.26838 5.00857 1.52618 4.9324C1.63243 4.901 1.88009 4.87533 2.07659 4.87533H2.43379L2.19711 4.62894C2.06693 4.4934 1.92557 4.32449 1.883 4.25349C1.80063 4.11621 1.73639 4.10528 1.43241 4.17661ZM15.5768 19.1426V23.2726H14.9197H14.2627V20.8535V18.4343L14.1475 18.3192C13.9951 18.1667 13.7794 18.1667 13.627 18.3192L13.5118 18.4343V20.8535V23.2726H12.8547H12.1977V19.1426V15.0126H13.8872H15.5768V19.1426ZM6.37817 19.2364V23.2726H5.62726H4.87635V20.8535V18.4343L4.76113 18.3192C4.60875 18.1667 4.39305 18.1667 4.24066 18.3192L4.12544 18.4343V20.8535V23.2726H3.37454H2.62363V19.2364V15.2003H4.5009H6.37817V19.2364Z" fill="#285185"/>
</svg>
