<svg width="14" height="14" viewBox="0 0 14 14" fill="none" xmlns="http://www.w3.org/2000/svg">
<path fill-rule="evenodd" clip-rule="evenodd" d="M6.76204 0C4.92885 0 4.69879 0.00801563 3.97879 0.0407813C3.26019 0.0736875 2.76969 0.187453 2.34051 0.354375C1.89655 0.526781 1.51996 0.757406 1.14477 1.13273C0.769303 1.50792 0.538678 1.88452 0.365709 2.32833C0.198365 2.75766 0.084459 3.2483 0.0521152 3.96661C0.0199121 4.68661 0.0114746 4.91681 0.0114746 6.75C0.0114746 8.58319 0.0196309 8.81255 0.0522559 9.53255C0.0853027 10.2511 0.199068 10.7416 0.36585 11.1708C0.538397 11.6148 0.769022 11.9914 1.14435 12.3666C1.5194 12.742 1.89599 12.9732 2.33966 13.1456C2.76913 13.3125 3.25977 13.4263 3.97822 13.4592C4.69822 13.492 4.92815 13.5 6.76119 13.5C8.59452 13.5 8.82388 13.492 9.54388 13.4592C10.2625 13.4263 10.7535 13.3125 11.183 13.1456C11.6268 12.9732 12.0029 12.742 12.3779 12.3666C12.7534 11.9914 12.984 11.6148 13.157 11.171C13.3229 10.7416 13.4368 10.251 13.4706 9.53269C13.5029 8.81269 13.5113 8.58319 13.5113 6.75C13.5113 4.91681 13.5029 4.68675 13.4706 3.96675C13.4368 3.24816 13.3229 2.75766 13.157 2.32847C12.984 1.88452 12.7534 1.50792 12.3779 1.13273C12.0024 0.757266 11.627 0.526641 11.1826 0.354375C10.7523 0.187453 10.2615 0.0736875 9.5429 0.0407813C8.8229 0.00801563 8.59368 0 6.75993 0H6.76204ZM6.15666 1.21641C6.33638 1.21612 6.53691 1.21641 6.76219 1.21641C8.56444 1.21641 8.77805 1.22287 9.48975 1.25522C10.1479 1.28531 10.5051 1.39528 10.743 1.48767C11.058 1.61002 11.2826 1.75627 11.5187 1.99252C11.7549 2.22877 11.9012 2.45376 12.0238 2.76876C12.1162 3.00642 12.2263 3.36361 12.2563 4.02173C12.2886 4.7333 12.2956 4.94705 12.2956 6.74845C12.2956 8.54986 12.2886 8.76361 12.2563 9.47517C12.2262 10.1333 12.1162 10.4905 12.0238 10.7281C11.9015 11.0431 11.7549 11.2674 11.5187 11.5035C11.2824 11.7398 11.0581 11.886 10.743 12.0084C10.5053 12.1012 10.1479 12.2109 9.48975 12.241C8.77819 12.2733 8.56444 12.2804 6.76219 12.2804C4.9598 12.2804 4.74619 12.2733 4.03463 12.241C3.3765 12.2106 3.01931 12.1006 2.78124 12.0082C2.46624 11.8859 2.24124 11.7397 2.00499 11.5034C1.76874 11.2672 1.62249 11.0427 1.49986 10.7276C1.40747 10.4899 1.29736 10.1327 1.26741 9.47461C1.23506 8.76305 1.22859 8.5493 1.22859 6.74676C1.22859 4.94423 1.23506 4.73161 1.26741 4.02005C1.2975 3.36192 1.40747 3.00473 1.49986 2.7668C1.6222 2.4518 1.76874 2.2268 2.00499 1.99055C2.24124 1.7543 2.46624 1.60805 2.78124 1.48542C3.01917 1.39261 3.3765 1.28292 4.03463 1.25269C4.65731 1.22456 4.89863 1.21612 6.15666 1.21472V1.21641ZM10.3653 2.33719C9.91813 2.33719 9.55532 2.69958 9.55532 3.14691C9.55532 3.5941 9.91813 3.95691 10.3653 3.95691C10.8125 3.95691 11.1753 3.5941 11.1753 3.14691C11.1753 2.69972 10.8125 2.33719 10.3653 2.33719ZM6.76213 3.28358C4.8478 3.28358 3.29572 4.83566 3.29572 6.74999C3.29572 8.66432 4.8478 10.2157 6.76213 10.2157C8.67645 10.2157 10.228 8.66432 10.228 6.74999C10.228 4.83566 8.67645 3.28358 6.76213 3.28358ZM6.76207 4.49999C8.00463 4.49999 9.01207 5.50729 9.01207 6.74999C9.01207 7.99255 8.00463 8.99999 6.76207 8.99999C5.51936 8.99999 4.51207 7.99255 4.51207 6.74999C4.51207 5.50729 5.51936 4.49999 6.76207 4.49999Z" fill="#285185"/>
</svg>
