<svg width="26" height="24" viewBox="0 0 26 24" fill="none" xmlns="http://www.w3.org/2000/svg">
<path d="M20.7218 21.4737H5.56386V24H3.03755V21.4737H1.77439C1.43938 21.4737 1.11809 21.3406 0.881201 21.1037C0.644313 20.8668 0.51123 20.5455 0.51123 20.2105V1.26316C0.51123 0.928148 0.644313 0.606858 0.881201 0.36997C1.11809 0.133082 1.43938 0 1.77439 0H24.5112C24.8462 0 25.1675 0.133082 25.4044 0.36997C25.6413 0.606858 25.7744 0.928148 25.7744 1.26316V20.2105C25.7744 20.5455 25.6413 20.8668 25.4044 21.1037C25.1675 21.3406 24.8462 21.4737 24.5112 21.4737H23.2481V24H20.7218V21.4737ZM3.03755 18.9474H23.2481V2.52632H3.03755V18.9474ZM14.406 13.7356V17.6842H11.8797V13.7356C10.6917 13.4252 9.65726 12.693 8.96959 11.6758C8.28191 10.6585 7.98798 9.4258 8.14268 8.20772C8.29738 6.98964 8.89012 5.8695 9.81024 5.05646C10.7304 4.24341 11.9149 3.79306 13.1428 3.78947C14.3735 3.78826 15.5622 4.23623 16.486 5.04931C17.4098 5.8624 18.0051 6.98469 18.1602 8.20553C18.3152 9.42638 18.0194 10.6618 17.3281 11.68C16.6369 12.6982 15.5979 13.4291 14.406 13.7356ZM13.1428 11.3684C13.8128 11.3684 14.4554 11.1023 14.9292 10.6285C15.403 10.1547 15.6691 9.51213 15.6691 8.8421C15.6691 8.17208 15.403 7.52951 14.9292 7.05573C14.4554 6.58195 13.8128 6.31579 13.1428 6.31579C12.4728 6.31579 11.8302 6.58195 11.3564 7.05573C10.8827 7.52951 10.6165 8.17208 10.6165 8.8421C10.6165 9.51213 10.8827 10.1547 11.3564 10.6285C11.8302 11.1023 12.4728 11.3684 13.1428 11.3684Z" fill="white"/>
</svg>
