<svg width="15" height="20" viewBox="0 0 15 20" fill="none" xmlns="http://www.w3.org/2000/svg">
<path d="M7.37622 0C3.50622 0 0.376221 3.13 0.376221 7C0.376221 12.25 7.37622 20 7.37622 20C7.37622 20 14.3762 12.25 14.3762 7C14.3762 3.13 11.2462 0 7.37622 0ZM2.37622 7C2.37622 4.24 4.61622 2 7.37622 2C10.1362 2 12.3762 4.24 12.3762 7C12.3762 9.88 9.49622 14.19 7.37622 16.88C5.29622 14.21 2.37622 9.85 2.37622 7Z" fill="#828282"/>
<path d="M7.37622 9.5C8.75693 9.5 9.87622 8.38071 9.87622 7C9.87622 5.61929 8.75693 4.5 7.37622 4.5C5.99551 4.5 4.87622 5.61929 4.87622 7C4.87622 8.38071 5.99551 9.5 7.37622 9.5Z" fill="#828282"/>
</svg>
