<svg width="27" height="26" viewBox="0 0 27 26" fill="none" xmlns="http://www.w3.org/2000/svg">
<path d="M26.3754 26H24.0095V22.066H2.76354V26H0.376221V11.1697C0.376221 10.5283 0.889468 10.0073 1.543 10.0073V10.0065C2.19485 10.0065 2.76354 10.5283 2.76354 11.1697V19.2493H24.0095V13.5241C24.0095 12.8823 24.5413 12.3613 25.1935 12.3613C25.8458 12.3613 26.375 12.8823 26.375 13.5241L26.3754 26Z" fill="white"/>
<path d="M5.96313 12.4949C6.44485 12.4949 6.90683 12.6833 7.24746 13.0186C7.58808 13.354 7.77944 13.8088 7.77944 14.2831C7.77944 14.7573 7.58808 15.2121 7.24746 15.5475C6.90683 15.8828 6.44485 16.0712 5.96313 16.0712C5.72436 16.0714 5.48789 16.0252 5.26724 15.9354C5.04658 15.8456 4.84605 15.7139 4.67709 15.5478C4.50814 15.3817 4.37407 15.1845 4.28255 14.9674C4.19102 14.7502 4.14383 14.5175 4.14366 14.2824C4.14383 14.0474 4.19103 13.8148 4.28257 13.5977C4.37411 13.3807 4.5082 13.1835 4.67717 13.0175C4.84614 12.8515 5.04668 12.7199 5.26733 12.6302C5.48798 12.5406 5.72442 12.4946 5.96313 12.4949Z" fill="white"/>
<path d="M7.77958 17.4759C7.77947 17.7097 7.68511 17.9339 7.51721 18.0993C7.34932 18.2646 7.12162 18.3576 6.88413 18.3578H4.30193C4.06452 18.3576 3.83691 18.2646 3.66915 18.0992C3.50138 17.9338 3.40721 17.7096 3.40732 17.4759C3.40732 16.9908 3.80716 16.5968 4.30193 16.5968H6.88413C7.12125 16.5966 7.34876 16.689 7.51666 16.8539C7.68457 17.0187 7.77914 17.2424 7.77958 17.4759Z" fill="white"/>
<path d="M21.691 13.1904C22.489 13.1904 23.1337 13.8061 23.1417 14.5876L23.1447 18.3591H8.56542V13.1921L21.691 13.1904Z" fill="white"/>
<path d="M13.0515 12.3721V4.20935C13.0511 3.78731 12.8806 3.38266 12.5776 3.08415C12.2745 2.78565 11.8636 2.61764 11.4349 2.61699C11.0085 2.61743 10.5998 2.7843 10.2982 3.08103C9.99666 3.37775 9.82694 3.7801 9.82627 4.19984C9.82627 4.27098 9.79763 4.33922 9.74661 4.3896C9.69559 4.43998 9.62637 4.46839 9.55411 4.46861C9.48185 4.46839 9.41263 4.43998 9.36161 4.3896C9.31059 4.33922 9.28195 4.27098 9.28195 4.19984C9.28195 4.10629 9.2442 4.01658 9.17701 3.95044C9.10983 3.88429 9.0187 3.84713 8.92368 3.84713C8.82866 3.84713 8.73754 3.88429 8.67035 3.95044C8.60316 4.01658 8.56542 4.10629 8.56542 4.19984C8.56542 4.45821 8.66958 4.70603 8.85504 4.88884C9.0405 5.07166 9.29209 5.17453 9.55453 5.17485C10.1005 5.17485 10.5436 4.73821 10.5436 4.19984C10.5436 3.71688 10.9435 3.32323 11.4353 3.32323C11.9301 3.32323 12.3337 3.72019 12.3337 4.20935V12.3721H13.0519H13.0515Z" fill="white"/>
<path d="M10.0401 9.89694H10.9523C10.9523 9.89694 11.1317 9.13156 11.1317 7.91011C11.1317 6.68906 10.9523 5.9241 10.9523 5.9241H8.62086C8.62086 5.9241 8.41212 6.54227 8.41212 7.91011C8.41212 9.27835 8.62086 9.89694 8.62086 9.89694H9.54865C9.54865 9.899 9.54655 9.90066 9.54655 9.90355C9.54739 9.91885 9.57595 11.3925 8.59524 12.3721H9.24121C10.056 11.3007 10.0413 9.99866 10.0401 9.89694Z" fill="white"/>
<path d="M16.5136 0V9.25314H26.3762V0H16.5136ZM17.3566 2.1022C17.3564 1.93978 17.3888 1.77893 17.452 1.62887C17.5151 1.47881 17.6077 1.3425 17.7244 1.22775C17.8412 1.113 17.9798 1.02207 18.1323 0.960184C18.2848 0.898294 18.4483 0.866659 18.6133 0.867095H24.2829C24.4477 0.866932 24.611 0.898761 24.7633 0.960763C24.9157 1.02276 25.0541 1.11372 25.1707 1.22843C25.2873 1.34315 25.3798 1.47936 25.4428 1.62929C25.5059 1.77922 25.5384 1.93992 25.5383 2.1022V5.45728H24.7773L24.306 4.19613C24.2919 4.15848 24.2663 4.12603 24.2327 4.10319C24.1992 4.08034 24.1594 4.06821 24.1186 4.06844C24.0778 4.06866 24.0381 4.08123 24.0048 4.10445C23.9716 4.12766 23.9463 4.16039 23.9326 4.19819L23.6684 4.93586L23.046 2.36849C23.0347 2.32406 23.008 2.28491 22.9705 2.25781C22.9331 2.2307 22.8871 2.21734 22.8407 2.22004C22.7943 2.22274 22.7502 2.24132 22.7163 2.27258C22.6823 2.30384 22.6604 2.34581 22.6545 2.39123L22.2379 6.04196C22.0691 5.79304 21.9015 5.5437 21.9015 5.5437C21.8831 5.51705 21.8584 5.49524 21.8294 5.48018C21.8005 5.46511 21.7683 5.45725 21.7356 5.45728H20.9695C20.8914 5.24598 20.4995 4.19613 20.4995 4.19613C20.4852 4.15845 20.4594 4.126 20.4258 4.10316C20.3921 4.08031 20.3522 4.06817 20.3113 4.06836C20.2273 4.06836 20.1534 4.12128 20.1261 4.19819L19.8607 4.93586L19.2382 2.36849C19.2276 2.32349 19.2012 2.28362 19.1637 2.25596C19.1261 2.22829 19.0798 2.21461 19.033 2.21733C18.9861 2.22006 18.9418 2.23901 18.9078 2.27084C18.8738 2.30267 18.8523 2.34532 18.8472 2.39123C18.8472 2.39123 18.5242 5.22944 18.4305 6.04196L18.0941 5.5437C18.076 5.5171 18.0515 5.4953 18.0228 5.48023C17.9941 5.46516 17.962 5.45727 17.9295 5.45728H17.357V2.10261L17.3566 2.1022ZM24.2829 8.48157H18.6133C18.4482 8.48178 18.2847 8.44993 18.1321 8.38784C17.9795 8.32574 17.8409 8.23462 17.7242 8.11969C17.6074 8.00477 17.5149 7.8683 17.4518 7.7181C17.3887 7.5679 17.3564 7.40692 17.3566 7.2444V5.84803H17.822C17.9198 5.99193 18.4011 6.70561 18.4011 6.70561C18.424 6.7387 18.4566 6.76415 18.4945 6.77856C18.5324 6.79297 18.5739 6.79566 18.6134 6.78627C18.6529 6.77689 18.6886 6.75587 18.7156 6.72602C18.7427 6.69617 18.7599 6.6589 18.7649 6.61919C18.7649 6.61919 18.9782 4.74607 19.116 3.54777C19.3453 4.49963 19.6301 5.67147 19.6301 5.67147C19.6399 5.71251 19.6629 5.7493 19.6958 5.7763C19.7287 5.8033 19.7696 5.81904 19.8124 5.82115C19.8552 5.82368 19.8977 5.81237 19.9334 5.78893C19.9691 5.76549 19.9961 5.73122 20.0102 5.69132L20.3155 4.84035L20.6452 5.72026C20.6589 5.75778 20.6841 5.7902 20.7173 5.81307C20.7504 5.83595 20.79 5.84816 20.8305 5.84803H21.6285L22.2081 6.70561C22.2305 6.73906 22.2629 6.76484 22.3008 6.77943C22.3387 6.79402 22.3803 6.79669 22.4198 6.78707C22.4594 6.7778 22.4953 6.75671 22.5223 6.72666C22.5494 6.69662 22.5664 6.65909 22.571 6.61919L22.9229 3.54653C23.0941 4.25475 23.2655 4.96293 23.437 5.67106C23.4468 5.71209 23.4699 5.74888 23.5028 5.77588C23.5356 5.80288 23.5765 5.81863 23.6193 5.82074C23.6621 5.82327 23.7046 5.81195 23.7404 5.78852C23.7761 5.76508 23.803 5.73081 23.8171 5.6909C23.8171 5.6909 23.9801 5.23978 24.1225 4.83993C24.2745 5.24929 24.4513 5.71985 24.4513 5.71985C24.4651 5.75733 24.4903 5.78972 24.5234 5.81259C24.5566 5.83545 24.5961 5.84769 24.6366 5.84762H25.537V7.24398C25.5372 7.40634 25.5048 7.56713 25.4418 7.71717C25.3788 7.86721 25.2864 8.00357 25.1698 8.11845C25.0533 8.23333 24.9149 8.32449 24.7626 8.38673C24.6103 8.44896 24.447 8.48104 24.2821 8.48115L24.2829 8.48157Z" fill="white"/>
</svg>
