<svg width="18" height="26" viewBox="0 0 18 26" fill="none" xmlns="http://www.w3.org/2000/svg">
<path d="M3.18182 11.9091V6.45455C3.18182 3.18182 5.36364 1 8.63636 1C11.9091 1 14.0909 3.18182 14.0909 6.45455V11.9091H3.18182ZM8.63636 25C10.6617 25 12.604 24.1955 14.0361 22.7634C15.4682 21.3313 16.2727 19.3889 16.2727 17.3636C16.2727 15.3383 15.4682 13.396 14.0361 11.9639C12.604 10.5318 10.6617 9.72727 8.63636 9.72727C6.61107 9.72727 4.66874 10.5318 3.23664 11.9639C1.80454 13.396 1 15.3383 1 17.3636C1 19.3889 1.80454 21.3313 3.23664 22.7634C4.66874 24.1955 6.61107 25 8.63636 25V25ZM8.63636 16.2727V20.6364V16.2727ZM8.63636 17.3636C8.92569 17.3636 9.20317 17.2487 9.40775 17.0441C9.61234 16.8395 9.72727 16.5621 9.72727 16.2727C9.72727 15.9834 9.61234 15.7059 9.40775 15.5013C9.20317 15.2968 8.92569 15.1818 8.63636 15.1818C8.34704 15.1818 8.06956 15.2968 7.86497 15.5013C7.66039 15.7059 7.54545 15.9834 7.54545 16.2727C7.54545 16.5621 7.66039 16.8395 7.86497 17.0441C8.06956 17.2487 8.34704 17.3636 8.63636 17.3636V17.3636Z" stroke="white" stroke-width="2"/>
</svg>
