<svg width="27" height="26" viewBox="0 0 27 26" fill="none" xmlns="http://www.w3.org/2000/svg">
<path d="M10.3952 19.6667H16.6259M13.5112 1V2.33333M21.9966 4.51467L21.0539 5.45733M25.5112 13H24.1779M2.84456 13H1.51123M5.96856 5.45733L5.0259 4.51467M8.79656 17.7147C7.86439 16.7822 7.22963 15.5944 6.97253 14.3012C6.71544 13.008 6.84757 11.6677 7.3522 10.4496C7.85684 9.23154 8.71132 8.19046 9.80761 7.45799C10.9039 6.72553 12.1928 6.33458 13.5112 6.33458C14.8297 6.33458 16.1186 6.72553 17.2148 7.45799C18.3111 8.19046 19.1656 9.23154 19.6703 10.4496C20.1749 11.6677 20.307 13.008 20.0499 14.3012C19.7928 15.5944 19.1581 16.7822 18.2259 17.7147L17.4952 18.444C17.0775 18.8618 16.7462 19.3578 16.5201 19.9036C16.2941 20.4495 16.1778 21.0345 16.1779 21.6253V22.3333C16.1779 23.0406 15.8969 23.7189 15.3968 24.219C14.8968 24.719 14.2185 25 13.5112 25C12.804 25 12.1257 24.719 11.6256 24.219C11.1255 23.7189 10.8446 23.0406 10.8446 22.3333V21.6253C10.8446 20.432 10.3699 19.2867 9.52723 18.444L8.79656 17.7147Z" stroke="white" stroke-width="2" stroke-linecap="round" stroke-linejoin="round"/>
</svg>
