<svg width="18" height="14" viewBox="0 0 18 14" fill="none" xmlns="http://www.w3.org/2000/svg">
<path fill-rule="evenodd" clip-rule="evenodd" d="M8.60739 3.59121L8.6428 4.17512L8.05261 4.10362C5.90434 3.82954 4.02755 2.90005 2.43405 1.33898L1.655 0.564397L1.45434 1.13639C1.0294 2.41147 1.30089 3.75804 2.18617 4.6637C2.65832 5.1642 2.55208 5.2357 1.73763 4.93779C1.45434 4.84245 1.20646 4.77095 1.18285 4.8067C1.10023 4.89012 1.38352 5.97453 1.60779 6.40353C1.91468 6.99936 2.54028 7.58327 3.2249 7.92885L3.80328 8.20293L3.11866 8.21485C2.45765 8.21485 2.43405 8.22677 2.50487 8.47701C2.74094 9.25159 3.67344 10.0738 4.71216 10.4313L5.44399 10.6816L4.80659 11.0629C3.8623 11.6111 2.75275 11.9209 1.6432 11.9447C1.11203 11.9567 0.675293 12.0043 0.675293 12.0401C0.675293 12.1592 2.11535 12.8266 2.95341 13.0887C5.4676 13.8633 8.45394 13.5296 10.6966 12.2069C12.2901 11.2655 13.8837 9.39459 14.6273 7.58327C15.0286 6.61803 15.4299 4.85437 15.4299 4.00829C15.4299 3.46013 15.4653 3.38863 16.1264 2.73322C16.5159 2.35189 16.8818 1.9348 16.9526 1.81564C17.0707 1.58922 17.0588 1.58922 16.4569 1.79181C15.4535 2.1493 15.3119 2.10164 15.8077 1.56539C16.1736 1.18406 16.6103 0.492897 16.6103 0.290315C16.6103 0.254565 16.4333 0.314148 16.2326 0.421398C16.0201 0.540564 15.548 0.719312 15.1939 0.826562L14.5565 1.02914L13.9781 0.635896C13.6594 0.421398 13.2108 0.183066 12.9748 0.111566C12.3728 -0.0552662 11.4521 -0.031433 10.9091 0.159233C9.43365 0.695479 8.50116 2.0778 8.60739 3.59121Z" fill="#285185"/>
</svg>
